<?xml version="1.0" standalone="no"?>
<!DOCTYPE svg PUBLIC "-//W3C//DTD SVG 1.1//EN" "http://www.w3.org/Graphics/SVG/1.1/DTD/svg11.dtd" >
<svg xmlns="http://www.w3.org/2000/svg" xmlns:xlink="http://www.w3.org/1999/xlink" version="1.1">
<metadata>
Created by FontForge 20170731 at Wed May 15 00:28:34 2013
 By Aleksey,,,
Copyright (c) 2013 by The Fontry. All rights reserved.
</metadata>
<defs>
<font id="IRONMANOFWAR001CNCV" horiz-adv-x="378" >
  <font-face 
    font-family="IRON MAN OF WAR 001C NCV"
    font-weight="400"
    font-stretch="normal"
    units-per-em="1000"
    panose-1="0 0 0 0 0 0 0 0 0 0"
    ascent="750"
    descent="-250"
    x-height="727"
    cap-height="727"
    bbox="-56 -316 838 1079"
    underline-thickness="50"
    underline-position="-150"
    unicode-range="U+0020-F8FF"
  />
<missing-glyph horiz-adv-x="125" 
 />
    <glyph glyph-name=".notdef" horiz-adv-x="125" 
 />
    <glyph glyph-name=".null" horiz-adv-x="0" 
 />
    <glyph glyph-name="nonmarkingreturn" horiz-adv-x="125" 
 />
    <glyph glyph-name="space" unicode=" " horiz-adv-x="125" 
 />
    <glyph glyph-name="exclam" unicode="!" horiz-adv-x="190" 
d="M37 116h116v-116h-116v116zM37 727h116v-557h-116v557z" />
    <glyph glyph-name="quotedbl" unicode="&#x22;" horiz-adv-x="281" 
d="M111 427h-69l-12 218v82h93v-82zM239 427h-69l-12 218v82h93v-82z" />
    <glyph glyph-name="numbersign" unicode="#" horiz-adv-x="443" 
d="M30 505h80v222h74v-222h75v222h74v-222h80v-72h-80v-138h80v-72h-80v-223h-74v223h-75v-223h-74v223h-80v72h80v138h-80v72zM184 295h75v138h-75v-138z" />
    <glyph glyph-name="dollar" unicode="$" horiz-adv-x="307" 
d="M277 550v-89h-94v51l-16 22h-27l-16 -22v-84l153 -95v-157l-52 -73h-40v-103h-69v103h-34l-52 73v89h94v-52l16 -22h27l16 22v80l-153 95v162l52 72h34v105h69v-105h40z" />
    <glyph glyph-name="percent" unicode="%" horiz-adv-x="558" 
d="M25 611q0 28 10.5 52.5t28.5 42.5t42 28.5t51 10.5q28 0 52.5 -10.5t42.5 -28.5t28.5 -42.5t10.5 -52.5q0 -27 -10.5 -51t-28.5 -42t-42.5 -28.5t-52.5 -10.5q-27 0 -51 10.5t-42 28.5t-28.5 42t-10.5 51zM104 613q0 -23 15.5 -38.5t37.5 -15.5q23 0 39 15.5t16 38.5
q0 22 -16 38t-39 16q-22 0 -37.5 -16t-15.5 -38zM543 707l-445 -716l-74 45l445 716zM262 114q0 28 10.5 52.5t28.5 42.5t42 28.5t51 10.5q28 0 52.5 -10.5t42.5 -28.5t28.5 -42.5t10.5 -52.5q0 -27 -10.5 -51t-28.5 -42t-42.5 -28.5t-52.5 -10.5q-27 0 -51 10.5t-42 28.5
t-28.5 42t-10.5 51zM341 116q0 -23 15.5 -38.5t37.5 -15.5q23 0 39 15.5t16 38.5q0 22 -16 38t-39 16q-22 0 -37.5 -16t-15.5 -38z" />
    <glyph glyph-name="ampersand" unicode="&#x26;" horiz-adv-x="380" 
d="M229 32l-32 -32h-93l-67 92v210l44 61l-44 61v211l67 92h172l67 -92v-122h-114v91l-23 32h-32l-23 -32v-162l23 -32h169v-410h-114v32zM174 316l-23 -32v-156l23 -32h55v220h-55z" />
    <glyph glyph-name="quotesingle" unicode="'" horiz-adv-x="153" 
d="M111 427h-69l-12 218v82h93v-82z" />
    <glyph glyph-name="parenleft" unicode="(" horiz-adv-x="208" 
d="M238 -57v-69h-134l-67 92v795l67 92h134v-69h-64l-23 -32v-777l23 -32h64z" />
    <glyph glyph-name="parenright" unicode=")" horiz-adv-x="208" 
d="M34 -57l23 32v777l-23 32h-64v69h134l67 -92v-795l-67 -92h-134v69h64z" />
    <glyph glyph-name="asterisk" unicode="*" horiz-adv-x="398" 
d="M361 567l-53 -91l-84 85l31 -116h-111l30 116l-83 -85l-53 91l123 28l-123 31l53 92l83 -90l-30 119h111l-32 -119l85 90l53 -92l-126 -31z" />
    <glyph glyph-name="plus" unicode="+" horiz-adv-x="421" 
d="M162 181v135h-127v96h127v134h97v-134h127v-96h-127v-135h-97z" />
    <glyph glyph-name="comma" unicode="," horiz-adv-x="190" 
d="M37 116h116v-113l-35 -66h-29l17 63h-69v116z" />
    <glyph glyph-name="hyphen" unicode="-" horiz-adv-x="252" 
d="M35 413h182v-98h-182v98z" />
    <glyph glyph-name="period" unicode="." horiz-adv-x="190" 
d="M37 116h116v-116h-116v116z" />
    <glyph glyph-name="slash" unicode="/" horiz-adv-x="277" 
d="M256 767l-142 -807h-93l142 807h93z" />
    <glyph glyph-name="zero" unicode="0" 
d="M151 123l23 -32h30l23 32v481l-23 32h-30l-23 -32v-481zM341 92l-67 -92h-170l-67 92v543l67 92h170l67 -92v-543z" />
    <glyph glyph-name="one" unicode="1" horiz-adv-x="284" 
d="M30 96h56v535h-56v96h171v-631h56v-96h-227v96z" />
    <glyph glyph-name="two" unicode="2" horiz-adv-x="372" 
d="M331 0h-288v195l181 248v161l-23 32h-30l-23 -32v-91h-114v122l68 92h169l67 -92v-216l-180 -249v-74h173v-96z" />
    <glyph glyph-name="three" unicode="3" horiz-adv-x="386" 
d="M109 410h102l24 33v161l-23 32h-38l-23 -32v-91h-114v122l67 92h178l67 -92v-213l-43 -59l43 -59v-212l-67 -92h-178l-67 92v122h114v-91l23 -32h38l23 32v160l-23 32h-103v95z" />
    <glyph glyph-name="four" unicode="4" horiz-adv-x="392" 
d="M209 519h-6l-64 -318h70v318zM162 727h161v-526h39v-96h-39v-105h-114v105h-182v57z" />
    <glyph glyph-name="five" unicode="5" horiz-adv-x="379" 
d="M327 631h-173v-154l10 -11h141l37 -40v-334l-67 -92h-171l-67 92v183h114v-152l23 -32h28l23 32v227l-22 23h-127l-36 38v316h287v-96z" />
    <glyph glyph-name="six" unicode="6" horiz-adv-x="383" 
d="M151 372v-249l23 -32h35l23 32v217l-23 32h-58zM104 727h170l67 -92v-103h-114v72l-23 32h-30l-23 -32v-141h132l63 -87v-284l-67 -92h-175l-67 92v543z" />
    <glyph glyph-name="seven" unicode="7" horiz-adv-x="363" 
d="M156 0h-117l159 632h-166v95h306z" />
    <glyph glyph-name="eight" unicode="8" horiz-adv-x="386" 
d="M174 315l-23 -32v-160l23 -32h38l23 32v160l-23 32h-38zM211 410l24 33v161l-23 32h-38l-23 -32v-161l24 -33h36zM282 727l67 -92v-213l-43 -59l43 -59v-212l-67 -92h-178l-67 92v212l43 59l-43 59v213l67 92h178z" />
    <glyph glyph-name="nine" unicode="9" horiz-adv-x="383" 
d="M232 355v244l-23 32h-35l-23 -32v-212l23 -32h58zM279 0h-170l-67 92v103h114v-72l23 -32h30l23 32v141h-132l-63 87v284l67 92h175l67 -92v-543z" />
    <glyph glyph-name="colon" unicode=":" horiz-adv-x="190" 
d="M37 456h116v-116h-116v116zM37 116h116v-116h-116v116z" />
    <glyph glyph-name="semicolon" unicode=";" horiz-adv-x="186" 
d="M35 456h116v-116h-116v116zM35 116h116v-113l-35 -66h-29l17 63h-69v116z" />
    <glyph glyph-name="less" unicode="&#x3c;" horiz-adv-x="328" 
d="M25 324v74l270 157v-97l-180 -97l180 -97v-97z" />
    <glyph glyph-name="equal" unicode="=" horiz-adv-x="361" 
d="M35 490h291v-92h-291v92zM35 324h291v-90h-291v90z" />
    <glyph glyph-name="greater" unicode="&#x3e;" horiz-adv-x="328" 
d="M33 167v97l180 97l-180 97v97l270 -157v-74z" />
    <glyph glyph-name="question" unicode="?" horiz-adv-x="366" 
d="M265 727l67 -92v-193l-105 -157v-115h-116v131l107 151v152l-23 32h-27l-23 -32v-91h-114v122l67 92h167zM111 116h116v-116h-116v116z" />
    <glyph glyph-name="at" unicode="@" horiz-adv-x="708" 
d="M271 297h115v54l-16 24h-32l-18 -26h-97v34l61 78h157l58 -79v-295h33l32 37v280l-88 119h-233l-97 -122v-341l88 -129h277v-82h-350l-124 183v407l151 188h349l134 -181v-336l-97 -110h-128l-27 30l-22 -30h-133l-56 82v134zM334 86h36l16 23v115h-46l-22 -29v-86z" />
    <glyph glyph-name="A" unicode="A" horiz-adv-x="386" 
d="M228 198l-33 383h-4l-33 -383h70zM97 727h193l71 -727h-115l-9 105h-87l-10 -105h-115z" />
    <glyph glyph-name="B" unicode="B" 
d="M37 727h237l67 -92v-211l-44 -61l44 -61v-210l-67 -92h-237v727zM151 316v-225h53l23 32v161l-23 32h-53zM204 410l23 32v162l-23 32h-53v-226h53z" />
    <glyph glyph-name="C" unicode="C" 
d="M341 275v-183l-67 -92h-170l-67 92v543l67 92h170l67 -92v-183h-114v152l-23 32h-30l-23 -32v-481l23 -32h30l23 32v152h114z" />
    <glyph glyph-name="D" unicode="D" 
d="M204 91l23 32v480l-23 33h-53v-545h53zM37 0v727h237l67 -93v-542l-67 -92h-237z" />
    <glyph glyph-name="E" unicode="E" horiz-adv-x="299" 
d="M37 727h232v-96h-117v-219h113v-96h-113v-220h117v-96h-232v727z" />
    <glyph glyph-name="F" unicode="F" horiz-adv-x="299" 
d="M37 727h232v-96h-117v-219h113v-96h-113v-316h-115v727z" />
    <glyph glyph-name="G" unicode="G" horiz-adv-x="380" 
d="M104 0l-67 92v543l67 92h172l67 -92v-122h-114v91l-23 32h-32l-23 -32v-476l23 -32h55v284h114v-380h-114v32l-32 -32h-93z" />
    <glyph glyph-name="H" unicode="H" horiz-adv-x="384" 
d="M152 411h81v316h114v-727h-114v315h-81v-315h-115v727h115v-316z" />
    <glyph glyph-name="I" unicode="I" horiz-adv-x="188" 
d="M151 727v-727h-114v727h114z" />
    <glyph glyph-name="J" unicode="J" horiz-adv-x="374" 
d="M223 631h-117v96h231v-635l-67 -92h-170l-67 92v183h114v-152l23 -32h30l23 32v508z" />
    <glyph glyph-name="K" unicode="K" horiz-adv-x="380" 
d="M37 727h116v-268l72 269h122l-105 -365l118 -363h-125l-82 267v-267h-116v727z" />
    <glyph glyph-name="L" unicode="L" horiz-adv-x="299" 
d="M37 727h115v-631h117v-96h-232v727z" />
    <glyph glyph-name="M" unicode="M" horiz-adv-x="446" 
d="M151 727l72 -271l72 271h114v-727h-114v380l-72 -268l-72 268v-380h-114v727h114z" />
    <glyph glyph-name="N" unicode="N" horiz-adv-x="388" 
d="M37 727h110l90 -366v366h114v-727h-108l-92 349v-349h-114v727z" />
    <glyph glyph-name="O" unicode="O" 
d="M151 123l23 -32h30l23 32v481l-23 32h-30l-23 -32v-481zM341 92l-67 -92h-170l-67 92v543l67 92h170l67 -92v-543z" />
    <glyph glyph-name="P" unicode="P" horiz-adv-x="375" 
d="M151 303h53l23 33v267l-23 33h-53v-333zM151 0h-114v727h237l67 -93v-331l-67 -93h-123v-210z" />
    <glyph glyph-name="Q" unicode="Q" 
d="M151 123l23 -32h30l23 32v481l-23 32h-30l-23 -32v-481zM341 92l-67 -92h61v-118h-106v118h-125l-67 92v543l67 92h170l67 -92v-543z" />
    <glyph glyph-name="R" unicode="R" horiz-adv-x="375" 
d="M150 362h52l23 32v210l-23 32h-52v-274zM150 0h-113v727h236l66 -92v-271l-54 -71l64 -293h-120l-53 278h-26v-278z" />
    <glyph glyph-name="S" unicode="S" 
d="M273 727l68 -92v-122h-114v91l-23 32h-30l-23 -32v-133l190 -185v-194l-67 -92h-170l-67 92v122h114v-91l23 -32h30l23 32v128l-190 185v199l67 92h169z" />
    <glyph glyph-name="T" unicode="T" horiz-adv-x="313" 
d="M99 631h-69v96h253v-96h-69v-631h-115v631z" />
    <glyph glyph-name="U" unicode="U" 
d="M227 727h114v-635l-67 -92h-170l-67 92v635h114v-604l23 -32h30l23 32v604z" />
    <glyph glyph-name="V" unicode="V" horiz-adv-x="399" 
d="M203 213l51 514h117l-83 -727h-177l-83 727h117l51 -514h7z" />
    <glyph glyph-name="W" unicode="W" horiz-adv-x="582" 
d="M344 727l42 -514h6l39 514h123l-71 -727h-153l-36 385h-6l-36 -385h-153l-71 727h123l39 -514h6l42 514h106z" />
    <glyph glyph-name="X" unicode="X" horiz-adv-x="402" 
d="M146 0h-119l89 364l-89 363h121l53 -260l53 260h121l-89 -363l89 -364h-119l-55 257z" />
    <glyph glyph-name="Y" unicode="Y" horiz-adv-x="396" 
d="M140 0v249l-113 478h116l53 -279h4l53 279h116l-113 -478v-249h-116z" />
    <glyph glyph-name="Z" unicode="Z" horiz-adv-x="349" 
d="M290 96v-96h-265l160 632h-134v95h273l-158 -631h124z" />
    <glyph glyph-name="bracketleft" unicode="[" horiz-adv-x="208" 
d="M238 -57v-69h-201v979h201v-69h-87v-841h87z" />
    <glyph glyph-name="backslash" unicode="\" horiz-adv-x="277" 
d="M114 767l142 -807h-93l-142 807h93z" />
    <glyph glyph-name="bracketright" unicode="]" horiz-adv-x="208" 
d="M57 -57v841h-87v69h201v-979h-201v69h87z" />
    <glyph glyph-name="asciicircum" unicode="^" horiz-adv-x="478" 
d="M238 626l-110 -289h-100l159 390h104l159 -390h-102z" />
    <glyph glyph-name="underscore" unicode="_" horiz-adv-x="291" 
d="M27 -10h237v-97h-237v97z" />
    <glyph glyph-name="grave" unicode="`" horiz-adv-x="294" 
d="M41 829l33 82l180 -81l-27 -64z" />
    <glyph glyph-name="a" unicode="a" horiz-adv-x="386" 
d="M228 198l-33 383h-4l-33 -383h70zM97 727h193l71 -727h-115l-9 105h-87l-10 -105h-115z" />
    <glyph glyph-name="b" unicode="b" 
d="M37 727h237l67 -92v-211l-44 -61l44 -61v-210l-67 -92h-237v727zM151 316v-225h53l23 32v161l-23 32h-53zM204 410l23 32v162l-23 32h-53v-226h53z" />
    <glyph glyph-name="c" unicode="c" 
d="M341 275v-183l-67 -92h-170l-67 92v543l67 92h170l67 -92v-183h-114v152l-23 32h-30l-23 -32v-481l23 -32h30l23 32v152h114z" />
    <glyph glyph-name="d" unicode="d" 
d="M204 91l23 32v480l-23 33h-53v-545h53zM37 0v727h237l67 -93v-542l-67 -92h-237z" />
    <glyph glyph-name="e" unicode="e" horiz-adv-x="299" 
d="M37 727h232v-96h-117v-219h113v-96h-113v-220h117v-96h-232v727z" />
    <glyph glyph-name="f" unicode="f" horiz-adv-x="299" 
d="M37 727h232v-96h-117v-219h113v-96h-113v-316h-115v727z" />
    <glyph glyph-name="g" unicode="g" horiz-adv-x="380" 
d="M104 0l-67 92v543l67 92h172l67 -92v-122h-114v91l-23 32h-32l-23 -32v-476l23 -32h55v284h114v-380h-114v32l-32 -32h-93z" />
    <glyph glyph-name="h" unicode="h" horiz-adv-x="384" 
d="M152 411h81v316h114v-727h-114v315h-81v-315h-115v727h115v-316z" />
    <glyph glyph-name="i" unicode="i" horiz-adv-x="188" 
d="M151 727v-727h-114v727h114z" />
    <glyph glyph-name="j" unicode="j" horiz-adv-x="374" 
d="M223 631h-117v96h231v-635l-67 -92h-170l-67 92v183h114v-152l23 -32h30l23 32v508z" />
    <glyph glyph-name="k" unicode="k" horiz-adv-x="380" 
d="M37 727h116v-268l72 269h122l-105 -365l118 -363h-125l-82 267v-267h-116v727z" />
    <glyph glyph-name="l" unicode="l" horiz-adv-x="299" 
d="M37 727h115v-631h117v-96h-232v727z" />
    <glyph glyph-name="m" unicode="m" horiz-adv-x="446" 
d="M151 727l72 -271l72 271h114v-727h-114v380l-72 -268l-72 268v-380h-114v727h114z" />
    <glyph glyph-name="n" unicode="n" horiz-adv-x="388" 
d="M37 727h110l90 -366v366h114v-727h-108l-92 349v-349h-114v727z" />
    <glyph glyph-name="o" unicode="o" 
d="M151 123l23 -32h30l23 32v481l-23 32h-30l-23 -32v-481zM341 92l-67 -92h-170l-67 92v543l67 92h170l67 -92v-543z" />
    <glyph glyph-name="p" unicode="p" horiz-adv-x="375" 
d="M151 303h53l23 33v267l-23 33h-53v-333zM151 0h-114v727h237l67 -93v-331l-67 -93h-123v-210z" />
    <glyph glyph-name="q" unicode="q" 
d="M151 123l23 -32h30l23 32v481l-23 32h-30l-23 -32v-481zM341 92l-67 -92h61v-118h-106v118h-125l-67 92v543l67 92h170l67 -92v-543z" />
    <glyph glyph-name="r" unicode="r" horiz-adv-x="375" 
d="M150 362h52l23 32v210l-23 32h-52v-274zM150 0h-113v727h236l66 -92v-271l-54 -71l64 -293h-120l-53 278h-26v-278z" />
    <glyph glyph-name="s" unicode="s" 
d="M273 727l68 -92v-122h-114v91l-23 32h-30l-23 -32v-133l190 -185v-194l-67 -92h-170l-67 92v122h114v-91l23 -32h30l23 32v128l-190 185v199l67 92h169z" />
    <glyph glyph-name="t" unicode="t" horiz-adv-x="313" 
d="M99 631h-69v96h253v-96h-69v-631h-115v631z" />
    <glyph glyph-name="u" unicode="u" 
d="M227 727h114v-635l-67 -92h-170l-67 92v635h114v-604l23 -32h30l23 32v604z" />
    <glyph glyph-name="v" unicode="v" horiz-adv-x="399" 
d="M203 213l51 514h117l-83 -727h-177l-83 727h117l51 -514h7z" />
    <glyph glyph-name="w" unicode="w" horiz-adv-x="582" 
d="M344 727l42 -514h6l39 514h123l-71 -727h-153l-36 385h-6l-36 -385h-153l-71 727h123l39 -514h6l42 514h106z" />
    <glyph glyph-name="x" unicode="x" horiz-adv-x="402" 
d="M146 0h-119l89 364l-89 363h121l53 -260l53 260h121l-89 -363l89 -364h-119l-55 257z" />
    <glyph glyph-name="y" unicode="y" horiz-adv-x="396" 
d="M140 0v249l-113 478h116l53 -279h4l53 279h116l-113 -478v-249h-116z" />
    <glyph glyph-name="z" unicode="z" horiz-adv-x="349" 
d="M290 96v-96h-265l160 632h-134v95h273l-158 -631h124z" />
    <glyph glyph-name="braceleft" unicode="{" horiz-adv-x="264" 
d="M294 -57v-69h-134l-67 92v348h-63v100h63v347l67 92h134v-69h-64l-23 -32v-331l-40 -55l40 -60v-331l23 -32h64z" />
    <glyph glyph-name="bar" unicode="|" horiz-adv-x="204" 
d="M159 833v-1148h-114v1148h114z" />
    <glyph glyph-name="braceright" unicode="}" horiz-adv-x="264" 
d="M34 -57l23 32v331l40 60l-40 55v331l-23 32h-64v69h134l67 -92v-347h63v-100h-63v-348l-67 -92h-134v69h64z" />
    <glyph glyph-name="asciitilde" unicode="~" horiz-adv-x="394" 
d="M359 250q-21 -9 -39 -11t-32 -2q-27 -1 -51 9t-44.5 22.5t-36.5 23t-28 10.5v-53h-93v128q21 9 39 11t32 2q27 1 51.5 -9t45.5 -22.5t37.5 -23t28.5 -10.5v56h90v-131z" />
    <glyph glyph-name="Zcaron" horiz-adv-x="349" 
d="M290 96v-96h-265l160 632h-134v95h273l-158 -631h124zM134 774l-92 120h95l41 -62h20l41 62h95l-91 -120h-109z" />
    <glyph glyph-name="Zcaron" unicode="&#x17d;" horiz-adv-x="349" 
d="M290 96v-96h-265l160 632h-134v95h273l-158 -631h124zM134 774l-92 120h95l41 -62h20l41 62h95l-91 -120h-109z" />
    <glyph glyph-name="zcaron" horiz-adv-x="349" 
d="M290 96v-96h-265l160 632h-134v95h273l-158 -631h124zM134 774l-92 120h95l41 -62h20l41 62h95l-91 -120h-109z" />
    <glyph glyph-name="zcaron" unicode="&#x17e;" horiz-adv-x="349" 
d="M290 96v-96h-265l160 632h-134v95h273l-158 -631h124zM134 774l-92 120h95l41 -62h20l41 62h95l-91 -120h-109z" />
    <glyph glyph-name="uni00A0" unicode="&#xa0;" horiz-adv-x="62" 
 />
    <glyph glyph-name="exclamdown" unicode="&#xa1;" horiz-adv-x="190" 
d="M37 516h116v-116h-116v116zM37 346h116v-557h-116v557z" />
    <glyph glyph-name="cent" unicode="&#xa2;" horiz-adv-x="317" 
d="M37 226v274l51 70h38v109h65v-109h39l50 -70v-87h-90v49l-17 25h-29l-17 -25v-198l17 -25h29l17 25v49h90v-87l-50 -70h-39v-108h-65v108h-38z" />
    <glyph glyph-name="sterling" unicode="&#xa3;" horiz-adv-x="408" 
d="M30 410h37v225l67 92h170l67 -92v-122h-114v91l-23 32h-30l-23 -32v-194h146v-91h-146v-228h76v83h114v-143l-32 -31h-272v319h-37v91z" />
    <glyph glyph-name="currency" unicode="&#xa4;" horiz-adv-x="422" 
d="M334 525v-367l56 -51l-54 -55l-56 51h-138l-56 -51l-54 55l56 51v367l-56 51l54 55l56 -51h138l56 51l54 -55zM250 209v265l-23 24h-32l-23 -24v-265l23 -24h32z" />
    <glyph glyph-name="yen" unicode="&#xa5;" horiz-adv-x="396" 
d="M53 297h76l-102 430h116l53 -279h4l53 279h116l-103 -430h78v-75h-88v-31h88v-75h-88v-116h-116v116h-87v75h87v31h-87v75z" />
    <glyph glyph-name="brokenbar" unicode="&#xa6;" horiz-adv-x="204" 
d="M159 317h-114v514h114v-514zM45 199h114v-515h-114v515z" />
    <glyph glyph-name="section" unicode="&#xa7;" horiz-adv-x="312" 
d="M222 727l53 -72v-88h-89v64l-18 25h-24l-18 -25v-85l149 -104v-188l-27 -22l27 -19v-141l-52 -72h-133l-53 72v88h89v-64l18 -25h24l18 25v81l-149 105v190l25 21l-25 18v144l53 72h132zM126 317l54 -38l6 5v122l-56 40l-4 -4v-125z" />
    <glyph glyph-name="dieresis" unicode="&#xa8;" horiz-adv-x="369" 
d="M47 883h111v-109h-111v109zM211 883h111v-109h-111v109z" />
    <glyph glyph-name="copyright" unicode="&#xa9;" horiz-adv-x="783" 
d="M583 292q-7 -36 -23.5 -65t-40 -49t-53 -31t-62.5 -11q-49 0 -88.5 17.5t-67.5 47.5t-43.5 71.5t-15.5 89.5t14.5 89t42 70.5t67 46.5t88.5 17q34 0 65 -10t55 -29.5t40 -47.5t21 -65h-65q-8 40 -38 65t-78 25q-34 0 -60 -12.5t-44 -34t-27 -51t-9 -62.5t10 -62.5
t28.5 -52.5t44.5 -36.5t59 -13.5q48 0 78 26t36 68h66zM391 0q-75 0 -140.5 28.5t-114.5 78t-77.5 115t-28.5 140.5t28.5 140.5t77.5 115t114.5 78t140.5 28.5t140.5 -28.5t115 -78t78 -115t28.5 -140.5t-28.5 -140.5t-78 -115t-115 -78t-140.5 -28.5zM391 60q62 0 117 24
t96 65t65 96t24 117t-24 117t-65 96t-96 65t-117 24t-117 -24t-96 -65t-64.5 -96t-23.5 -117t23.5 -117t64.5 -96t96 -65t117 -24z" />
    <glyph glyph-name="ordfeminine" unicode="&#xaa;" horiz-adv-x="331" 
d="M134 386l18 -24h29l18 24v91h-47l-18 -19v-72zM40 357v127l52 56h107v91l-16 22h-31l-16 -22v-52h-93v78l51 70h146l51 -70v-369h-88v31l-31 -31h-83z" />
    <glyph glyph-name="guillemotleft" unicode="&#xab;" horiz-adv-x="424" 
d="M399 0h-99l-114 258l114 258h99l-113 -258zM238 0h-99l-114 258l114 258h99l-113 -258z" />
    <glyph glyph-name="logicalnot" unicode="&#xac;" horiz-adv-x="434" 
d="M35 412h362v-263h-94v167h-268v96z" />
    <glyph glyph-name="uni00AD" unicode="&#xad;" horiz-adv-x="307" 
d="M35 413h237v-98h-237v98z" />
    <glyph glyph-name="registered" unicode="&#xae;" horiz-adv-x="783" 
d="M310 150h-62v423h159q73 0 109 -29t36 -92q-2 -57 -30.5 -83.5t-75.5 -32.5l119 -186h-71l-111 184h-73v-184zM387 385q20 0 38.5 1.5t33 9t23 21.5t8.5 40q0 21 -8 33.5t-21.5 19.5t-30 9.5t-32.5 2.5h-88v-137h77zM391 0q-75 0 -140.5 28.5t-114.5 78t-77.5 115
t-28.5 140.5t28.5 140.5t77.5 115t114.5 78t140.5 28.5t140.5 -28.5t115 -78t78 -115t28.5 -140.5t-28.5 -140.5t-78 -115t-115 -78t-140.5 -28.5zM391 60q62 0 117 24t96 65t65 96t24 117t-24 117t-65 96t-96 65t-117 24t-117 -24t-96 -65t-64.5 -96t-23.5 -117t23.5 -117
t64.5 -96t96 -65t117 -24z" />
    <glyph glyph-name="macron" unicode="&#xaf;" horiz-adv-x="331" 
d="M40 851h251v-74h-251v74z" />
    <glyph glyph-name="degree" unicode="&#xb0;" horiz-adv-x="208" 
d="M25 678q0 33 23 56t56 23t56 -23t23 -56t-23 -56t-56 -23t-56 23t-23 56z" />
    <glyph glyph-name="plusminus" unicode="&#xb1;" horiz-adv-x="421" 
d="M162 161v134h-127v97h127v134h97v-134h127v-97h-127v-134h-97zM35 97h351v-97h-351v97z" />
    <glyph glyph-name="twosuperior" unicode="&#xb2;" horiz-adv-x="324" 
d="M285 217h-249v170l160 125v110l-20 28h-27l-20 -28v-63h-94v90l60 78h139l55 -78v-172l-158 -124v-56h154v-80z" />
    <glyph glyph-name="threesuperior" unicode="&#xb3;" horiz-adv-x="331" 
d="M93 508h87l21 29v85l-20 28h-32l-20 -28v-53h-94v80l57 78h147l57 -78v-127l-37 -50l37 -51v-126l-57 -78h-147l-57 78v80h94v-53l20 -28h32l20 28v85l-20 27h-88v74z" />
    <glyph glyph-name="acute" unicode="&#xb4;" horiz-adv-x="295" 
d="M67 766l-27 64l181 81l33 -82z" />
    <glyph glyph-name="mu" unicode="&#xb5;" horiz-adv-x="366" 
d="M146 516v-403l19 -26h36l19 26v403h109v-516h-108v37l-36 -37h-40v-211h-108v727h109z" />
    <glyph glyph-name="mu" unicode="&#x3bc;" horiz-adv-x="366" 
d="M146 516v-403l19 -26h36l19 26v403h109v-516h-108v37l-36 -37h-40v-211h-108v727h109z" />
    <glyph glyph-name="paragraph" unicode="&#xb6;" horiz-adv-x="484" 
d="M361 634h-60v-634h-84v410h-113l-67 93v131l67 93h340v-727h-83v634z" />
    <glyph glyph-name="periodcentered" unicode="&#xb7;" horiz-adv-x="190" 
d="M37 419h116v-115h-116v115z" />
    <glyph glyph-name="cedilla" unicode="&#xb8;" horiz-adv-x="215" 
d="M106 0v-42q45 2 62 -13t17 -61q0 -38 -17.5 -60.5t-57.5 -22.5h-80v62h46q20 0 27 6t7 20q0 17 -8.5 21.5t-25.5 4.5h-33v85h63z" />
    <glyph glyph-name="onesuperior" unicode="&#xb9;" horiz-adv-x="259" 
d="M35 298h48v347h-48v82h142v-429h47v-81h-189v81z" />
    <glyph glyph-name="ordmasculine" unicode="&#xba;" horiz-adv-x="329" 
d="M196 631l-16 22h-31l-16 -22v-247l16 -22h31l16 22v247zM289 358l-51 -70h-147l-51 70v299l51 70h147l51 -70v-299z" />
    <glyph glyph-name="guillemotright" unicode="&#xbb;" horiz-adv-x="424" 
d="M138 258l-113 258h99l114 -258l-114 -258h-99zM299 258l-113 258h99l114 -258l-114 -258h-99z" />
    <glyph glyph-name="onequarter" unicode="&#xbc;" horiz-adv-x="749" 
d="M35 298h48v347h-48v82h142v-429h47v-81h-189v81zM463 767l-142 -807h-89l142 807h89zM588 375l-63 -183h63v183zM547 510h134v-318h33v-82h-33v-110h-93v110h-159v49z" />
    <glyph glyph-name="onehalf" unicode="&#xbd;" horiz-adv-x="751" 
d="M35 298h48v347h-48v82h142v-429h47v-81h-189v81zM463 767l-142 -807h-89l142 807h89zM712 0h-249v170l160 125v110l-21 28h-26l-20 -28v-77h-94v104l60 78h139l55 -78v-172l-158 -124v-56h154v-80z" />
    <glyph glyph-name="threequarters" unicode="&#xbe;" horiz-adv-x="832" 
d="M93 508h87l21 29v85l-20 28h-32l-20 -28v-53h-94v80l57 78h147l57 -78v-127l-37 -50l37 -51v-126l-57 -78h-147l-57 78v80h94v-53l20 -28h32l20 28v85l-20 27h-88v74zM646 375l-63 -183h63v183zM605 510h134v-318h33v-82h-33v-110h-93v110h-159v49zM526 767l-142 -807
h-89l142 807h89z" />
    <glyph glyph-name="questiondown" unicode="&#xbf;" horiz-adv-x="361" 
d="M97 -211l-67 92v193l105 157v115h116v-131l-107 -151v-152l23 -32h27l23 32v88h114v-119l-67 -92h-167zM251 400h-116v116h116v-116z" />
    <glyph glyph-name="Agrave" unicode="&#xc0;" horiz-adv-x="392" 
d="M231 198l-33 383h-4l-33 -383h70zM100 727h193l71 -727h-115l-9 105h-87l-10 -105h-115zM90 829l33 82l180 -81l-27 -64z" />
    <glyph glyph-name="Aacute" unicode="&#xc1;" horiz-adv-x="392" 
d="M231 198l-33 383h-4l-33 -383h70zM100 727h193l71 -727h-115l-9 105h-87l-10 -105h-115zM117 766l-27 64l181 81l33 -82z" />
    <glyph glyph-name="Acircumflex" unicode="&#xc2;" horiz-adv-x="392" 
d="M231 198l-33 383h-4l-33 -383h70zM100 727h193l71 -727h-115l-9 105h-87l-10 -105h-115zM251 894l91 -120h-95l-41 62h-20l-41 -62h-95l92 120h109z" />
    <glyph glyph-name="Atilde" unicode="&#xc3;" horiz-adv-x="392" 
d="M231 198l-33 383h-4l-33 -383h70zM100 727h193l71 -727h-115l-9 105h-87l-10 -105h-115zM134 774h-73v96q17 7 31 8.5t25 1.5q21 1 42.5 -7t41 -18t35 -18.5t24.5 -8.5v45h71v-98q-26 -9 -46 -9q-16 0 -36 2.5t-39 10.5q-25 13 -44 25.5t-32 14.5v-45z" />
    <glyph glyph-name="Adieresis" unicode="&#xc4;" horiz-adv-x="392" 
d="M231 198l-33 383h-4l-33 -383h70zM100 727h193l71 -727h-115l-9 105h-87l-10 -105h-115zM59 883h111v-109h-111v109zM223 883h111v-109h-111v109z" />
    <glyph glyph-name="Aring" unicode="&#xc5;" horiz-adv-x="392" 
d="M231 198l-33 383h-4l-33 -383h70zM100 727h193l71 -727h-115l-9 105h-87l-10 -105h-115zM124 843q0 30 21 51t51 21t51 -21t21 -51t-21 -51t-51 -21t-51 21t-21 51z" />
    <glyph glyph-name="AE" unicode="&#xc6;" horiz-adv-x="512" 
d="M250 105h-84l-15 -105h-123l130 727h324v-96h-117v-220h113v-96h-113v-219h117v-96h-232v105zM250 198v398h-5l-62 -398h67z" />
    <glyph glyph-name="Ccedilla" unicode="&#xc7;" 
d="M341 275v-183l-67 -92h-54v-42q45 2 62 -13t17 -61q0 -38 -17.5 -60.5t-57.5 -22.5h-80v62h46q20 0 27 6t7 20q0 17 -8.5 21.5t-25.5 4.5h-33v85h-53l-67 92v543l67 92h170l67 -92v-183h-114v152l-23 32h-30l-23 -32v-481l23 -32h30l23 32v152h114z" />
    <glyph glyph-name="Egrave" unicode="&#xc8;" horiz-adv-x="299" 
d="M37 727h232v-96h-117v-219h113v-96h-113v-220h117v-96h-232v727zM47 829l33 82l180 -81l-27 -64z" />
    <glyph glyph-name="Eacute" unicode="&#xc9;" horiz-adv-x="299" 
d="M37 727h232v-96h-117v-219h113v-96h-113v-220h117v-96h-232v727zM73 766l-27 64l181 81l33 -82z" />
    <glyph glyph-name="Ecircumflex" unicode="&#xca;" horiz-adv-x="299" 
d="M207 894l91 -120h-95l-41 62h-20l-41 -62h-95l92 120h109zM37 727h232v-96h-117v-219h113v-96h-113v-220h117v-96h-232v727z" />
    <glyph glyph-name="Edieresis" unicode="&#xcb;" horiz-adv-x="299" 
d="M37 727h232v-96h-117v-219h113v-96h-113v-220h117v-96h-232v727zM17 883h111v-109h-111v109zM181 883h111v-109h-111v109z" />
    <glyph glyph-name="Igrave" unicode="&#xcc;" horiz-adv-x="188" 
d="M151 727v-727h-114v727h114zM-11 829l33 82l180 -81l-27 -64z" />
    <glyph glyph-name="Iacute" unicode="&#xcd;" horiz-adv-x="188" 
d="M151 727v-727h-114v727h114zM16 766l-27 64l181 81l33 -82z" />
    <glyph glyph-name="Icircumflex" unicode="&#xce;" horiz-adv-x="188" 
d="M151 727v-727h-114v727h114zM150 894l91 -120h-95l-41 62h-20l-41 -62h-95l92 120h109z" />
    <glyph glyph-name="Idieresis" unicode="&#xcf;" horiz-adv-x="188" 
d="M151 727v-727h-114v727h114zM-43 883h111v-109h-111v109zM121 883h111v-109h-111v109z" />
    <glyph glyph-name="Eth" unicode="&#xd0;" horiz-adv-x="410" 
d="M30 413h29v314h244l67 -93v-542l-67 -92h-244v315h-29v98zM233 91l23 32v480l-23 33h-60v-223h29v-98h-29v-224h60z" />
    <glyph glyph-name="Ntilde" unicode="&#xd1;" horiz-adv-x="388" 
d="M37 727h110l90 -366v366h114v-727h-108l-92 349v-349h-114v727zM132 774h-73v96q17 7 31 8.5t25 1.5q21 1 42.5 -7t41 -18t35 -18.5t24.5 -8.5v45h71v-98q-26 -9 -46 -9q-16 0 -36 2.5t-39 10.5q-25 13 -44 25.5t-32 14.5v-45z" />
    <glyph glyph-name="Ograve" unicode="&#xd2;" 
d="M151 123l23 -32h30l23 32v481l-23 32h-30l-23 -32v-481zM341 92l-67 -92h-170l-67 92v543l67 92h170l67 -92v-543zM83 829l33 82l180 -81l-27 -64z" />
    <glyph glyph-name="Oacute" unicode="&#xd3;" 
d="M151 123l23 -32h30l23 32v481l-23 32h-30l-23 -32v-481zM341 92l-67 -92h-170l-67 92v543l67 92h170l67 -92v-543zM109 766l-27 64l181 81l33 -82z" />
    <glyph glyph-name="Ocircumflex" unicode="&#xd4;" 
d="M151 123l23 -32h30l23 32v481l-23 32h-30l-23 -32v-481zM341 92l-67 -92h-170l-67 92v543l67 92h170l67 -92v-543zM244 894l91 -120h-95l-41 62h-20l-41 -62h-95l92 120h109z" />
    <glyph glyph-name="Otilde" unicode="&#xd5;" 
d="M151 123l23 -32h30l23 32v481l-23 32h-30l-23 -32v-481zM341 92l-67 -92h-170l-67 92v543l67 92h170l67 -92v-543zM127 774h-73v96q17 7 31 8.5t25 1.5q21 1 42.5 -7t41 -18t35 -18.5t24.5 -8.5v45h71v-98q-26 -9 -46 -9q-16 0 -36 2.5t-39 10.5q-25 13 -44 25.5
t-32 14.5v-45z" />
    <glyph glyph-name="Odieresis" unicode="&#xd6;" 
d="M151 123l23 -32h30l23 32v481l-23 32h-30l-23 -32v-481zM341 92l-67 -92h-170l-67 92v543l67 92h170l67 -92v-543zM52 883h111v-109h-111v109zM216 883h111v-109h-111v109z" />
    <glyph glyph-name="multiply" unicode="&#xd7;" horiz-adv-x="406" 
d="M203 300l-110 -110l-62 62l110 111l-110 111l62 62l110 -110l110 110l62 -62l-110 -111l110 -111l-62 -62z" />
    <glyph glyph-name="Oslash" unicode="&#xd8;" 
d="M341 92l-67 -92h-170l-24 32l-25 -51l-37 16l34 73l-15 22v543l67 92h170l26 -37l26 52l38 -16l-35 -75l12 -16v-543zM151 317l76 208v79l-23 32h-30l-23 -32v-287zM227 123v288l-76 -209v-79l23 -32h30z" />
    <glyph glyph-name="Ugrave" unicode="&#xd9;" 
d="M227 727h114v-635l-67 -92h-170l-67 92v635h114v-604l23 -32h30l23 32v604zM83 829l33 82l180 -81l-27 -64z" />
    <glyph glyph-name="Uacute" unicode="&#xda;" 
d="M227 727h114v-635l-67 -92h-170l-67 92v635h114v-604l23 -32h30l23 32v604zM109 766l-27 64l181 81l33 -82z" />
    <glyph glyph-name="Ucircumflex" unicode="&#xdb;" 
d="M227 727h114v-635l-67 -92h-170l-67 92v635h114v-604l23 -32h30l23 32v604zM244 894l91 -120h-95l-41 62h-20l-41 -62h-95l92 120h109z" />
    <glyph glyph-name="Udieresis" unicode="&#xdc;" 
d="M227 727h114v-635l-67 -92h-170l-67 92v635h114v-604l23 -32h30l23 32v604zM52 883h111v-109h-111v109zM216 883h111v-109h-111v109z" />
    <glyph glyph-name="Yacute" unicode="&#xdd;" horiz-adv-x="396" 
d="M140 0v249l-113 478h116l53 -279h4l53 279h116l-113 -478v-249h-116zM118 766l-27 64l181 81l33 -82z" />
    <glyph glyph-name="Thorn" unicode="&#xde;" 
d="M151 197h53l23 33v267l-23 33h-53v-333zM151 0h-114v727h114v-107h123l67 -93v-327l-67 -93h-123v-107z" />
    <glyph glyph-name="germandbls" unicode="&#xdf;" horiz-adv-x="478" 
d="M424 727l-84 -318l106 -132v-195l-60 -82h-171v96h102l15 22v129l-112 139l65 250h-134v-636h-114v727h387z" />
    <glyph glyph-name="agrave" unicode="&#xe0;" horiz-adv-x="392" 
d="M231 198l-33 383h-4l-33 -383h70zM100 727h193l71 -727h-115l-9 105h-87l-10 -105h-115zM90 829l33 82l180 -81l-27 -64z" />
    <glyph glyph-name="aacute" unicode="&#xe1;" horiz-adv-x="392" 
d="M231 198l-33 383h-4l-33 -383h70zM100 727h193l71 -727h-115l-9 105h-87l-10 -105h-115zM117 766l-27 64l181 81l33 -82z" />
    <glyph glyph-name="acircumflex" unicode="&#xe2;" horiz-adv-x="392" 
d="M231 198l-33 383h-4l-33 -383h70zM100 727h193l71 -727h-115l-9 105h-87l-10 -105h-115zM251 894l91 -120h-95l-41 62h-20l-41 -62h-95l92 120h109z" />
    <glyph glyph-name="atilde" unicode="&#xe3;" horiz-adv-x="392" 
d="M231 198l-33 383h-4l-33 -383h70zM100 727h193l71 -727h-115l-9 105h-87l-10 -105h-115zM134 774h-73v96q17 7 31 8.5t25 1.5q21 1 42.5 -7t41 -18t35 -18.5t24.5 -8.5v45h71v-98q-26 -9 -46 -9q-16 0 -36 2.5t-39 10.5q-25 13 -44 25.5t-32 14.5v-45z" />
    <glyph glyph-name="adieresis" unicode="&#xe4;" horiz-adv-x="392" 
d="M231 198l-33 383h-4l-33 -383h70zM100 727h193l71 -727h-115l-9 105h-87l-10 -105h-115zM59 883h111v-109h-111v109zM223 883h111v-109h-111v109z" />
    <glyph glyph-name="aring" unicode="&#xe5;" horiz-adv-x="392" 
d="M231 198l-33 383h-4l-33 -383h70zM100 727h193l71 -727h-115l-9 105h-87l-10 -105h-115zM124 843q0 30 21 51t51 21t51 -21t21 -51t-21 -51t-51 -21t-51 21t-21 51z" />
    <glyph glyph-name="ae" unicode="&#xe6;" horiz-adv-x="512" 
d="M250 105h-84l-15 -105h-123l130 727h324v-96h-117v-220h113v-96h-113v-219h117v-96h-232v105zM250 198v398h-5l-62 -398h67z" />
    <glyph glyph-name="ccedilla" unicode="&#xe7;" 
d="M341 275v-183l-67 -92h-54v-42q45 2 62 -13t17 -61q0 -38 -17.5 -60.5t-57.5 -22.5h-80v62h46q20 0 27 6t7 20q0 17 -8.5 21.5t-25.5 4.5h-33v85h-53l-67 92v543l67 92h170l67 -92v-183h-114v152l-23 32h-30l-23 -32v-481l23 -32h30l23 32v152h114z" />
    <glyph glyph-name="egrave" unicode="&#xe8;" horiz-adv-x="299" 
d="M37 727h232v-96h-117v-219h113v-96h-113v-220h117v-96h-232v727zM47 829l33 82l180 -81l-27 -64z" />
    <glyph glyph-name="eacute" unicode="&#xe9;" horiz-adv-x="299" 
d="M37 727h232v-96h-117v-219h113v-96h-113v-220h117v-96h-232v727zM73 766l-27 64l181 81l33 -82z" />
    <glyph glyph-name="ecircumflex" unicode="&#xea;" horiz-adv-x="299" 
d="M207 894l91 -120h-95l-41 62h-20l-41 -62h-95l92 120h109zM37 727h232v-96h-117v-219h113v-96h-113v-220h117v-96h-232v727z" />
    <glyph glyph-name="edieresis" unicode="&#xeb;" horiz-adv-x="299" 
d="M37 727h232v-96h-117v-219h113v-96h-113v-220h117v-96h-232v727zM17 883h111v-109h-111v109zM181 883h111v-109h-111v109z" />
    <glyph glyph-name="igrave" unicode="&#xec;" horiz-adv-x="188" 
d="M151 727v-727h-114v727h114zM-11 829l33 82l180 -81l-27 -64z" />
    <glyph glyph-name="iacute" unicode="&#xed;" horiz-adv-x="188" 
d="M151 727v-727h-114v727h114zM16 766l-27 64l181 81l33 -82z" />
    <glyph glyph-name="icircumflex" unicode="&#xee;" horiz-adv-x="188" 
d="M151 727v-727h-114v727h114zM150 894l91 -120h-95l-41 62h-20l-41 -62h-95l92 120h109z" />
    <glyph glyph-name="idieresis" unicode="&#xef;" horiz-adv-x="188" 
d="M151 727v-727h-114v727h114zM-43 883h111v-109h-111v109zM121 883h111v-109h-111v109z" />
    <glyph glyph-name="eth" unicode="&#xf0;" horiz-adv-x="410" 
d="M30 413h29v314h244l67 -93v-542l-67 -92h-244v315h-29v98zM233 91l23 32v480l-23 33h-60v-223h29v-98h-29v-224h60z" />
    <glyph glyph-name="ntilde" unicode="&#xf1;" horiz-adv-x="388" 
d="M37 727h110l90 -366v366h114v-727h-108l-92 349v-349h-114v727zM132 774h-73v96q17 7 31 8.5t25 1.5q21 1 42.5 -7t41 -18t35 -18.5t24.5 -8.5v45h71v-98q-26 -9 -46 -9q-16 0 -36 2.5t-39 10.5q-25 13 -44 25.5t-32 14.5v-45z" />
    <glyph glyph-name="ograve" unicode="&#xf2;" 
d="M151 123l23 -32h30l23 32v481l-23 32h-30l-23 -32v-481zM341 92l-67 -92h-170l-67 92v543l67 92h170l67 -92v-543zM83 829l33 82l180 -81l-27 -64z" />
    <glyph glyph-name="oacute" unicode="&#xf3;" 
d="M151 123l23 -32h30l23 32v481l-23 32h-30l-23 -32v-481zM341 92l-67 -92h-170l-67 92v543l67 92h170l67 -92v-543zM109 766l-27 64l181 81l33 -82z" />
    <glyph glyph-name="ocircumflex" unicode="&#xf4;" 
d="M151 123l23 -32h30l23 32v481l-23 32h-30l-23 -32v-481zM341 92l-67 -92h-170l-67 92v543l67 92h170l67 -92v-543zM244 894l91 -120h-95l-41 62h-20l-41 -62h-95l92 120h109z" />
    <glyph glyph-name="otilde" unicode="&#xf5;" 
d="M151 123l23 -32h30l23 32v481l-23 32h-30l-23 -32v-481zM341 92l-67 -92h-170l-67 92v543l67 92h170l67 -92v-543zM127 774h-73v96q17 7 31 8.5t25 1.5q21 1 42.5 -7t41 -18t35 -18.5t24.5 -8.5v45h71v-98q-26 -9 -46 -9q-16 0 -36 2.5t-39 10.5q-25 13 -44 25.5
t-32 14.5v-45z" />
    <glyph glyph-name="odieresis" unicode="&#xf6;" 
d="M151 123l23 -32h30l23 32v481l-23 32h-30l-23 -32v-481zM341 92l-67 -92h-170l-67 92v543l67 92h170l67 -92v-543zM52 883h111v-109h-111v109zM216 883h111v-109h-111v109z" />
    <glyph glyph-name="divide" unicode="&#xf7;" horiz-adv-x="414" 
d="M35 413h344v-98h-344v98zM149 588h116v-115h-116v115zM149 255h116v-115h-116v115z" />
    <glyph glyph-name="oslash" unicode="&#xf8;" 
d="M341 92l-67 -92h-170l-24 32l-25 -51l-37 16l34 73l-15 22v543l67 92h170l26 -37l26 52l38 -16l-35 -75l12 -16v-543zM151 317l76 208v79l-23 32h-30l-23 -32v-287zM227 123v288l-76 -209v-79l23 -32h30z" />
    <glyph glyph-name="ugrave" unicode="&#xf9;" 
d="M227 727h114v-635l-67 -92h-170l-67 92v635h114v-604l23 -32h30l23 32v604zM83 829l33 82l180 -81l-27 -64z" />
    <glyph glyph-name="uacute" unicode="&#xfa;" 
d="M227 727h114v-635l-67 -92h-170l-67 92v635h114v-604l23 -32h30l23 32v604zM109 766l-27 64l181 81l33 -82z" />
    <glyph glyph-name="ucircumflex" unicode="&#xfb;" 
d="M227 727h114v-635l-67 -92h-170l-67 92v635h114v-604l23 -32h30l23 32v604zM244 894l91 -120h-95l-41 62h-20l-41 -62h-95l92 120h109z" />
    <glyph glyph-name="udieresis" unicode="&#xfc;" 
d="M227 727h114v-635l-67 -92h-170l-67 92v635h114v-604l23 -32h30l23 32v604zM52 883h111v-109h-111v109zM216 883h111v-109h-111v109z" />
    <glyph glyph-name="yacute" unicode="&#xfd;" horiz-adv-x="396" 
d="M140 0v249l-113 478h116l53 -279h4l53 279h116l-113 -478v-249h-116zM118 766l-27 64l181 81l33 -82z" />
    <glyph glyph-name="thorn" unicode="&#xfe;" 
d="M151 197h53l23 33v267l-23 33h-53v-333zM151 0h-114v727h114v-107h123l67 -93v-327l-67 -93h-123v-107z" />
    <glyph glyph-name="ydieresis" unicode="&#xff;" horiz-adv-x="396" 
d="M140 0v249l-113 478h116l53 -279h4l53 279h116l-113 -478v-249h-116zM61 883h111v-109h-111v109zM225 883h111v-109h-111v109z" />
    <glyph glyph-name="Amacron" unicode="&#x100;" horiz-adv-x="392" 
d="M231 198l-33 383h-4l-33 -383h70zM100 727h193l71 -727h-115l-9 105h-87l-10 -105h-115zM71 851h251v-74h-251v74z" />
    <glyph glyph-name="amacron" unicode="&#x101;" horiz-adv-x="392" 
d="M231 198l-33 383h-4l-33 -383h70zM100 727h193l71 -727h-115l-9 105h-87l-10 -105h-115zM71 851h251v-74h-251v74z" />
    <glyph glyph-name="Abreve" unicode="&#x102;" horiz-adv-x="392" 
d="M231 198l-33 383h-4l-33 -383h70zM100 727h193l71 -727h-115l-9 105h-87l-10 -105h-115zM204 829q26 0 34.5 9.5t6.5 35.5h78q0 -35 -9.5 -55t-26.5 -30.5t-39 -13t-47 -2.5h-8q-25 0 -47.5 2.5t-39.5 12t-26.5 30t-9.5 56.5h77q-2 -26 7.5 -35.5t32.5 -9.5h17z" />
    <glyph glyph-name="abreve" unicode="&#x103;" horiz-adv-x="392" 
d="M231 198l-33 383h-4l-33 -383h70zM100 727h193l71 -727h-115l-9 105h-87l-10 -105h-115zM204 829q26 0 34.5 9.5t6.5 35.5h78q0 -35 -9.5 -55t-26.5 -30.5t-39 -13t-47 -2.5h-8q-25 0 -47.5 2.5t-39.5 12t-26.5 30t-9.5 56.5h77q-2 -26 7.5 -35.5t32.5 -9.5h17z" />
    <glyph glyph-name="Aogonek" unicode="&#x104;" horiz-adv-x="392" 
d="M100 727h193l71 -727h-22l-57 -93q-11 -17 -8.5 -27.5t25.5 -10.5h62v-80h-101q-29 0 -47 13.5t-23 36.5q-4 24 9 49.5t26 46.5l41 65h-20l-9 105h-87l-10 -105h-115zM231 198l-35 404l-35 -404h70z" />
    <glyph glyph-name="aogonek" unicode="&#x105;" horiz-adv-x="392" 
d="M100 727h193l71 -727h-22l-57 -93q-11 -17 -8.5 -27.5t25.5 -10.5h62v-80h-101q-29 0 -47 13.5t-23 36.5q-4 24 9 49.5t26 46.5l41 65h-20l-9 105h-87l-10 -105h-115zM231 198l-35 404l-35 -404h70z" />
    <glyph glyph-name="Cacute" unicode="&#x106;" 
d="M341 275v-183l-67 -92h-170l-67 92v543l67 92h170l67 -92v-183h-114v152l-23 32h-30l-23 -32v-481l23 -32h30l23 32v152h114zM109 766l-27 64l181 81l33 -82z" />
    <glyph glyph-name="cacute" unicode="&#x107;" 
d="M341 275v-183l-67 -92h-170l-67 92v543l67 92h170l67 -92v-183h-114v152l-23 32h-30l-23 -32v-481l23 -32h30l23 32v152h114zM109 766l-27 64l181 81l33 -82z" />
    <glyph glyph-name="Ccircumflex" unicode="&#x108;" 
d="M341 275v-183l-67 -92h-170l-67 92v543l67 92h170l67 -92v-183h-114v152l-23 32h-30l-23 -32v-481l23 -32h30l23 32v152h114zM244 894l91 -120h-95l-41 62h-20l-41 -62h-95l92 120h109z" />
    <glyph glyph-name="ccircumflex" unicode="&#x109;" 
d="M341 275v-183l-67 -92h-170l-67 92v543l67 92h170l67 -92v-183h-114v152l-23 32h-30l-23 -32v-481l23 -32h30l23 32v152h114zM244 894l91 -120h-95l-41 62h-20l-41 -62h-95l92 120h109z" />
    <glyph glyph-name="Cdotaccent" unicode="&#x10a;" 
d="M341 275v-183l-67 -92h-170l-67 92v543l67 92h170l67 -92v-183h-114v152l-23 32h-30l-23 -32v-481l23 -32h30l23 32v152h114zM134 883h111v-109h-111v109z" />
    <glyph glyph-name="cdotaccent" unicode="&#x10b;" 
d="M341 275v-183l-67 -92h-170l-67 92v543l67 92h170l67 -92v-183h-114v152l-23 32h-30l-23 -32v-481l23 -32h30l23 32v152h114zM134 883h111v-109h-111v109z" />
    <glyph glyph-name="Ccaron" unicode="&#x10c;" 
d="M341 275v-183l-67 -92h-170l-67 92v543l67 92h170l67 -92v-183h-114v152l-23 32h-30l-23 -32v-481l23 -32h30l23 32v152h114zM135 774l-92 120h95l41 -62h20l41 62h95l-91 -120h-109z" />
    <glyph glyph-name="ccaron" unicode="&#x10d;" 
d="M341 275v-183l-67 -92h-170l-67 92v543l67 92h170l67 -92v-183h-114v152l-23 32h-30l-23 -32v-481l23 -32h30l23 32v152h114zM135 774l-92 120h95l41 -62h20l41 62h95l-91 -120h-109z" />
    <glyph glyph-name="Dcaron" unicode="&#x10e;" 
d="M204 91l23 32v480l-23 33h-53v-545h53zM37 0v727h237l67 -93v-542l-67 -92h-237zM135 774l-92 120h95l41 -62h20l41 62h95l-91 -120h-109z" />
    <glyph glyph-name="dcaron" unicode="&#x10f;" 
d="M204 91l23 32v480l-23 33h-53v-545h53zM37 0v727h237l67 -93v-542l-67 -92h-237zM135 774l-92 120h95l41 -62h20l41 62h95l-91 -120h-109z" />
    <glyph glyph-name="Dcroat" unicode="&#x110;" horiz-adv-x="410" 
d="M30 413h29v314h244l67 -93v-542l-67 -92h-244v315h-29v98zM233 91l23 32v480l-23 33h-60v-223h29v-98h-29v-224h60z" />
    <glyph glyph-name="dcroat" unicode="&#x111;" horiz-adv-x="410" 
d="M30 413h29v314h244l67 -93v-542l-67 -92h-244v315h-29v98zM233 91l23 32v480l-23 33h-60v-223h29v-98h-29v-224h60z" />
    <glyph glyph-name="Emacron" unicode="&#x112;" horiz-adv-x="299" 
d="M37 727h232v-96h-117v-219h113v-96h-113v-220h117v-96h-232v727zM29 851h251v-74h-251v74z" />
    <glyph glyph-name="emacron" unicode="&#x113;" horiz-adv-x="299" 
d="M37 727h232v-96h-117v-219h113v-96h-113v-220h117v-96h-232v727zM29 851h251v-74h-251v74z" />
    <glyph glyph-name="Ebreve" unicode="&#x114;" horiz-adv-x="299" 
d="M37 727h232v-96h-117v-219h113v-96h-113v-220h117v-96h-232v727zM162 829q26 0 34.5 9.5t6.5 35.5h78q0 -35 -9.5 -55t-26.5 -30.5t-39 -13t-47 -2.5h-8q-25 0 -47.5 2.5t-39.5 12t-26.5 30t-9.5 56.5h77q-2 -26 7.5 -35.5t32.5 -9.5h17z" />
    <glyph glyph-name="ebreve" unicode="&#x115;" horiz-adv-x="299" 
d="M37 727h232v-96h-117v-219h113v-96h-113v-220h117v-96h-232v727zM162 829q26 0 34.5 9.5t6.5 35.5h78q0 -35 -9.5 -55t-26.5 -30.5t-39 -13t-47 -2.5h-8q-25 0 -47.5 2.5t-39.5 12t-26.5 30t-9.5 56.5h77q-2 -26 7.5 -35.5t32.5 -9.5h17z" />
    <glyph glyph-name="Edotaccent" unicode="&#x116;" horiz-adv-x="299" 
d="M37 727h232v-96h-117v-219h113v-96h-113v-220h117v-96h-232v727zM98 883h111v-109h-111v109z" />
    <glyph glyph-name="edotaccent" unicode="&#x117;" horiz-adv-x="299" 
d="M37 727h232v-96h-117v-219h113v-96h-113v-220h117v-96h-232v727zM98 883h111v-109h-111v109z" />
    <glyph glyph-name="Eogonek" unicode="&#x118;" horiz-adv-x="299" 
d="M37 727h232v-96h-117v-219h113v-96h-113v-220h117v-96h-22l-57 -93q-11 -17 -8.5 -27.5t25.5 -10.5h62v-80h-101q-29 0 -47 13.5t-23 36.5q-4 24 9 49.5t26 46.5l41 65h-137v727z" />
    <glyph glyph-name="eogonek" unicode="&#x119;" horiz-adv-x="299" 
d="M37 727h232v-96h-117v-219h113v-96h-113v-220h117v-96h-22l-57 -93q-11 -17 -8.5 -27.5t25.5 -10.5h62v-80h-101q-29 0 -47 13.5t-23 36.5q-4 24 9 49.5t26 46.5l41 65h-137v727z" />
    <glyph glyph-name="Ecaron" unicode="&#x11a;" horiz-adv-x="299" 
d="M37 727h232v-96h-117v-219h113v-96h-113v-220h117v-96h-232v727zM100 774l-92 120h95l41 -62h20l41 62h95l-91 -120h-109z" />
    <glyph glyph-name="ecaron" unicode="&#x11b;" horiz-adv-x="299" 
d="M37 727h232v-96h-117v-219h113v-96h-113v-220h117v-96h-232v727zM100 774l-92 120h95l41 -62h20l41 62h95l-91 -120h-109z" />
    <glyph glyph-name="Gcircumflex" unicode="&#x11c;" horiz-adv-x="380" 
d="M104 0l-67 92v543l67 92h172l67 -92v-122h-114v91l-23 32h-32l-23 -32v-476l23 -32h55v284h114v-380h-114v32l-32 -32h-93zM245 894l91 -120h-95l-41 62h-20l-41 -62h-95l92 120h109z" />
    <glyph glyph-name="gcircumflex" unicode="&#x11d;" horiz-adv-x="380" 
d="M104 0l-67 92v543l67 92h172l67 -92v-122h-114v91l-23 32h-32l-23 -32v-476l23 -32h55v284h114v-380h-114v32l-32 -32h-93zM245 894l91 -120h-95l-41 62h-20l-41 -62h-95l92 120h109z" />
    <glyph glyph-name="Gbreve" unicode="&#x11e;" horiz-adv-x="380" 
d="M104 0l-67 92v543l67 92h172l67 -92v-122h-114v91l-23 32h-32l-23 -32v-476l23 -32h55v284h114v-380h-114v32l-32 -32h-93zM198 829q26 0 34.5 9.5t6.5 35.5h78q0 -35 -9.5 -55t-26.5 -30.5t-39 -13t-47 -2.5h-8q-25 0 -47.5 2.5t-39.5 12t-26.5 30t-9.5 56.5h77
q-2 -26 7.5 -35.5t32.5 -9.5h17z" />
    <glyph glyph-name="gbreve" unicode="&#x11f;" horiz-adv-x="380" 
d="M104 0l-67 92v543l67 92h172l67 -92v-122h-114v91l-23 32h-32l-23 -32v-476l23 -32h55v284h114v-380h-114v32l-32 -32h-93zM198 829q26 0 34.5 9.5t6.5 35.5h78q0 -35 -9.5 -55t-26.5 -30.5t-39 -13t-47 -2.5h-8q-25 0 -47.5 2.5t-39.5 12t-26.5 30t-9.5 56.5h77
q-2 -26 7.5 -35.5t32.5 -9.5h17z" />
    <glyph glyph-name="Gdotaccent" unicode="&#x120;" horiz-adv-x="380" 
d="M104 0l-67 92v543l67 92h172l67 -92v-122h-114v91l-23 32h-32l-23 -32v-476l23 -32h55v284h114v-380h-114v32l-32 -32h-93zM135 883h111v-109h-111v109z" />
    <glyph glyph-name="gdotaccent" unicode="&#x121;" horiz-adv-x="380" 
d="M104 0l-67 92v543l67 92h172l67 -92v-122h-114v91l-23 32h-32l-23 -32v-476l23 -32h55v284h114v-380h-114v32l-32 -32h-93zM135 883h111v-109h-111v109z" />
    <glyph glyph-name="Gcommaaccent" unicode="&#x122;" horiz-adv-x="380" 
d="M148 -47h114v-89l-35 -74h-28l17 63h-68v100zM104 0l-67 92v543l67 92h172l67 -92v-122h-114v91l-23 32h-32l-23 -32v-476l23 -32h55v284h114v-380h-114v32l-32 -32h-93z" />
    <glyph glyph-name="gcommaaccent" unicode="&#x123;" horiz-adv-x="380" 
d="M148 -47h114v-89l-35 -74h-28l17 63h-68v100zM104 0l-67 92v543l67 92h172l67 -92v-122h-114v91l-23 32h-32l-23 -32v-476l23 -32h55v284h114v-380h-114v32l-32 -32h-93z" />
    <glyph glyph-name="Hcircumflex" unicode="&#x124;" horiz-adv-x="384" 
d="M152 411h81v316h114v-727h-114v315h-81v-315h-115v727h115v-316zM247 894l91 -120h-95l-41 62h-20l-41 -62h-95l92 120h109z" />
    <glyph glyph-name="hcircumflex" unicode="&#x125;" horiz-adv-x="384" 
d="M152 411h81v316h114v-727h-114v315h-81v-315h-115v727h115v-316zM247 894l91 -120h-95l-41 62h-20l-41 -62h-95l92 120h109z" />
    <glyph glyph-name="Hbar" unicode="&#x126;" horiz-adv-x="430" 
d="M175 605h81v122h114v-122h30v-61h-30v-544h-114v315h-81v-315h-115v544h-30v61h30v122h115v-122zM256 411v133h-81v-133h81z" />
    <glyph glyph-name="hbar" unicode="&#x127;" horiz-adv-x="430" 
d="M175 605h81v122h114v-122h30v-61h-30v-544h-114v315h-81v-315h-115v544h-30v61h30v122h115v-122zM256 411v133h-81v-133h81z" />
    <glyph glyph-name="Itilde" unicode="&#x128;" horiz-adv-x="188" 
d="M151 727v-727h-114v727h114zM33 774h-73v96q17 7 31 8.5t25 1.5q21 1 42.5 -7t41 -18t35 -18.5t24.5 -8.5v45h71v-98q-26 -9 -46 -9q-16 0 -36 2.5t-39 10.5q-25 13 -44 25.5t-32 14.5v-45z" />
    <glyph glyph-name="itilde" unicode="&#x129;" horiz-adv-x="188" 
d="M151 727v-727h-114v727h114zM33 774h-73v96q17 7 31 8.5t25 1.5q21 1 42.5 -7t41 -18t35 -18.5t24.5 -8.5v45h71v-98q-26 -9 -46 -9q-16 0 -36 2.5t-39 10.5q-25 13 -44 25.5t-32 14.5v-45z" />
    <glyph glyph-name="uni012A" unicode="&#x12a;" horiz-adv-x="188" 
d="M151 727v-727h-114v727h114zM-30 851h251v-74h-251v74z" />
    <glyph glyph-name="imacron" unicode="&#x12b;" horiz-adv-x="188" 
d="M151 727v-727h-114v727h114zM-30 851h251v-74h-251v74z" />
    <glyph glyph-name="Ibreve" unicode="&#x12c;" horiz-adv-x="188" 
d="M151 727v-727h-114v727h114zM103 829q26 0 34.5 9.5t6.5 35.5h78q0 -35 -9.5 -55t-26.5 -30.5t-39 -13t-47 -2.5h-8q-25 0 -47.5 2.5t-39.5 12t-26.5 30t-9.5 56.5h77q-2 -26 7.5 -35.5t32.5 -9.5h17z" />
    <glyph glyph-name="uni012D" unicode="&#x12d;" horiz-adv-x="188" 
d="M151 727v-727h-114v727h114zM103 829q26 0 34.5 9.5t6.5 35.5h78q0 -35 -9.5 -55t-26.5 -30.5t-39 -13t-47 -2.5h-8q-25 0 -47.5 2.5t-39.5 12t-26.5 30t-9.5 56.5h77q-2 -26 7.5 -35.5t32.5 -9.5h17z" />
    <glyph glyph-name="Iogonek" unicode="&#x12e;" horiz-adv-x="188" 
d="M37 0v727h114v-727h-17l-40 -92q-8 -17 -8 -28t23 -11h63v-80h-104q-56 0 -65 48q-4 24 3 47t19 51l29 65h-17z" />
    <glyph glyph-name="iogonek" unicode="&#x12f;" horiz-adv-x="188" 
d="M37 0v727h114v-727h-17l-40 -92q-8 -17 -8 -28t23 -11h63v-80h-104q-56 0 -65 48q-4 24 3 47t19 51l29 65h-17z" />
    <glyph glyph-name="Idotaccent" unicode="&#x130;" horiz-adv-x="188" 
d="M151 727v-727h-114v727h114zM40 883h111v-109h-111v109z" />
    <glyph glyph-name="dotlessi" unicode="&#x131;" horiz-adv-x="836" 
d="M537 242q-154 -39 -310 0q10 -17 24.5 -35t34 -34t43.5 -26t53 -10q28 0 52 10t43.5 26t34.5 34t25 35zM600 340h-436l53 -84q83 -20 164.5 -19.5t164.5 19.5zM323 453q-13 27 -21 56t-25 52q-3 4 -12.5 0t-20 -10.5t-18 -13t-5.5 -8.5l72 -90q1 -2 6.5 -0.5t11 4
t9.5 5.5t3 5zM419 371l-37 89l-36 -89h73zM542 529q1 2 -6 8.5t-17 13t-19.5 10.5t-12.5 0q-18 -23 -26.5 -52t-19.5 -56q-2 -2 2 -5t10 -5.5t11 -4t7 0.5zM657 371q0 -57 -21.5 -107t-59 -87.5t-87.5 -59t-107 -21.5t-107 21.5t-87.5 59t-59.5 87.5t-22 107t22 107
t59.5 87.5t87.5 59t107 21.5t107 -21.5t87.5 -59t59 -87.5t21.5 -107zM677 371q0 61 -23 115t-63 94t-94 63.5t-115 23.5t-115 -23.5t-94.5 -63.5t-64 -94t-23.5 -115t23.5 -114.5t64 -94t94.5 -64t115 -23.5t115 23.5t94 64t63 94t23 114.5zM707 106h-27v-71h-17v71h-26v14
h70v-14zM724 371q0 -71 -27 -133t-73.5 -109t-109 -74t-132.5 -27q-71 0 -133 27t-108.5 74t-73.5 109t-27 133t27 133.5t73.5 109t108.5 73.5t133 27q70 0 132.5 -27t109 -73.5t73.5 -109t27 -133.5zM796 35h-15v69l-17 -69h-16l-17 69v-69h-16v85h27l15 -62l12 62h27v-85z
" />
    <glyph glyph-name="IJ" unicode="&#x132;" horiz-adv-x="562" 
d="M151 727v-727h-114v727h114zM411 631h-117v96h231v-635l-67 -92h-170l-67 92v183h114v-152l23 -32h30l23 32v508z" />
    <glyph glyph-name="ij" unicode="&#x133;" horiz-adv-x="562" 
d="M151 727v-727h-114v727h114zM411 631h-117v96h231v-635l-67 -92h-170l-67 92v183h114v-152l23 -32h30l23 32v508z" />
    <glyph glyph-name="Jcircumflex" unicode="&#x134;" horiz-adv-x="374" 
d="M223 631h-117v96h231v-635l-67 -92h-170l-67 92v183h114v-152l23 -32h30l23 32v508zM241 894l91 -120h-95l-41 62h-20l-41 -62h-95l92 120h109z" />
    <glyph glyph-name="jcircumflex" unicode="&#x135;" horiz-adv-x="374" 
d="M223 631h-117v96h231v-635l-67 -92h-170l-67 92v183h114v-152l23 -32h30l23 32v508zM241 894l91 -120h-95l-41 62h-20l-41 -62h-95l92 120h109z" />
    <glyph glyph-name="Kcommaaccent" unicode="&#x136;" horiz-adv-x="380" 
d="M131 -47h114v-89l-35 -74h-28l17 63h-68v100zM37 727h116v-268l72 269h122l-105 -365l118 -363h-125l-82 267v-267h-116v727z" />
    <glyph glyph-name="kcommaaccent" unicode="&#x137;" horiz-adv-x="380" 
d="M131 -47h114v-89l-35 -74h-28l17 63h-68v100zM37 727h116v-268l72 269h122l-105 -365l118 -363h-125l-82 267v-267h-116v727z" />
    <glyph glyph-name="kgreenlandic" unicode="&#x138;" horiz-adv-x="836" 
d="M537 242q-154 -39 -310 0q10 -17 24.5 -35t34 -34t43.5 -26t53 -10q28 0 52 10t43.5 26t34.5 34t25 35zM600 340h-436l53 -84q83 -20 164.5 -19.5t164.5 19.5zM323 453q-13 27 -21 56t-25 52q-3 4 -12.5 0t-20 -10.5t-18 -13t-5.5 -8.5l72 -90q1 -2 6.5 -0.5t11 4
t9.5 5.5t3 5zM419 371l-37 89l-36 -89h73zM542 529q1 2 -6 8.5t-17 13t-19.5 10.5t-12.5 0q-18 -23 -26.5 -52t-19.5 -56q-2 -2 2 -5t10 -5.5t11 -4t7 0.5zM657 371q0 -57 -21.5 -107t-59 -87.5t-87.5 -59t-107 -21.5t-107 21.5t-87.5 59t-59.5 87.5t-22 107t22 107
t59.5 87.5t87.5 59t107 21.5t107 -21.5t87.5 -59t59 -87.5t21.5 -107zM677 371q0 61 -23 115t-63 94t-94 63.5t-115 23.5t-115 -23.5t-94.5 -63.5t-64 -94t-23.5 -115t23.5 -114.5t64 -94t94.5 -64t115 -23.5t115 23.5t94 64t63 94t23 114.5zM707 106h-27v-71h-17v71h-26v14
h70v-14zM724 371q0 -71 -27 -133t-73.5 -109t-109 -74t-132.5 -27q-71 0 -133 27t-108.5 74t-73.5 109t-27 133t27 133.5t73.5 109t108.5 73.5t133 27q70 0 132.5 -27t109 -73.5t73.5 -109t27 -133.5zM796 35h-15v69l-17 -69h-16l-17 69v-69h-16v85h27l15 -62l12 62h27v-85z
" />
    <glyph glyph-name="Lacute" unicode="&#x139;" horiz-adv-x="299" 
d="M37 727h115v-631h117v-96h-232v727zM15 766l-27 64l181 81l33 -82z" />
    <glyph glyph-name="lacute" unicode="&#x13a;" horiz-adv-x="299" 
d="M37 727h115v-631h117v-96h-232v727zM15 766l-27 64l181 81l33 -82z" />
    <glyph glyph-name="Lcommaaccent" unicode="&#x13b;" horiz-adv-x="299" 
d="M37 727h115v-631h117v-96h-232v727zM95 -66h116v-113l-35 -66h-29l17 63h-69v116z" />
    <glyph glyph-name="lcommaaccent" unicode="&#x13c;" horiz-adv-x="299" 
d="M37 727h115v-631h117v-96h-232v727zM95 -66h116v-113l-35 -66h-29l17 63h-69v116z" />
    <glyph glyph-name="Lcaron" unicode="&#x13d;" horiz-adv-x="353" 
d="M217 727h108v-100l-35 -78h-27l17 67h-63v111zM37 727h115v-631h117v-96h-232v727z" />
    <glyph glyph-name="lcaron" unicode="&#x13e;" horiz-adv-x="353" 
d="M217 727h108v-100l-35 -78h-27l17 67h-63v111zM37 727h115v-631h117v-96h-232v727z" />
    <glyph glyph-name="Ldot" unicode="&#x13f;" horiz-adv-x="329" 
d="M202 418h109v-109h-109v109zM37 727h115v-631h117v-96h-232v727z" />
    <glyph glyph-name="ldot" unicode="&#x140;" horiz-adv-x="329" 
d="M202 418h109v-109h-109v109zM37 727h115v-631h117v-96h-232v727z" />
    <glyph glyph-name="Lslash" unicode="&#x141;" horiz-adv-x="399" 
d="M25 260l109 109v358h115v-242l73 73l52 -51l-125 -126v-285h117v-96h-232v266l-58 -58z" />
    <glyph glyph-name="lslash" unicode="&#x142;" horiz-adv-x="400" 
d="M25 267l117 117v343h111v-234l69 70l53 -50l-122 -123v-390h-111v281l-66 -66z" />
    <glyph glyph-name="Nacute" unicode="&#x143;" horiz-adv-x="388" 
d="M37 727h110l90 -366v366h114v-727h-108l-92 349v-349h-114v727zM114 766l-27 64l181 81l33 -82z" />
    <glyph glyph-name="nacute" unicode="&#x144;" horiz-adv-x="388" 
d="M37 727h110l90 -366v366h114v-727h-108l-92 349v-349h-114v727zM114 766l-27 64l181 81l33 -82z" />
    <glyph glyph-name="Ncommaaccent" unicode="&#x145;" horiz-adv-x="388" 
d="M137 -47h114v-89l-35 -74h-28l17 63h-68v100zM37 727h110l90 -366v366h114v-727h-108l-92 349v-349h-114v727z" />
    <glyph glyph-name="ncommaaccent" unicode="&#x146;" horiz-adv-x="388" 
d="M137 -47h114v-89l-35 -74h-28l17 63h-68v100zM37 727h110l90 -366v366h114v-727h-108l-92 349v-349h-114v727z" />
    <glyph glyph-name="Ncaron" unicode="&#x147;" horiz-adv-x="388" 
d="M37 727h110l90 -366v366h114v-727h-108l-92 349v-349h-114v727zM140 774l-92 120h95l41 -62h20l41 62h95l-91 -120h-109z" />
    <glyph glyph-name="ncaron" unicode="&#x148;" horiz-adv-x="388" 
d="M37 727h110l90 -366v366h114v-727h-108l-92 349v-349h-114v727zM140 774l-92 120h95l41 -62h20l41 62h95l-91 -120h-109z" />
    <glyph glyph-name="napostrophe" unicode="&#x149;" horiz-adv-x="836" 
d="M537 242q-154 -39 -310 0q10 -17 24.5 -35t34 -34t43.5 -26t53 -10q28 0 52 10t43.5 26t34.5 34t25 35zM600 340h-436l53 -84q83 -20 164.5 -19.5t164.5 19.5zM323 453q-13 27 -21 56t-25 52q-3 4 -12.5 0t-20 -10.5t-18 -13t-5.5 -8.5l72 -90q1 -2 6.5 -0.5t11 4
t9.5 5.5t3 5zM419 371l-37 89l-36 -89h73zM542 529q1 2 -6 8.5t-17 13t-19.5 10.5t-12.5 0q-18 -23 -26.5 -52t-19.5 -56q-2 -2 2 -5t10 -5.5t11 -4t7 0.5zM657 371q0 -57 -21.5 -107t-59 -87.5t-87.5 -59t-107 -21.5t-107 21.5t-87.5 59t-59.5 87.5t-22 107t22 107
t59.5 87.5t87.5 59t107 21.5t107 -21.5t87.5 -59t59 -87.5t21.5 -107zM677 371q0 61 -23 115t-63 94t-94 63.5t-115 23.5t-115 -23.5t-94.5 -63.5t-64 -94t-23.5 -115t23.5 -114.5t64 -94t94.5 -64t115 -23.5t115 23.5t94 64t63 94t23 114.5zM707 106h-27v-71h-17v71h-26v14
h70v-14zM724 371q0 -71 -27 -133t-73.5 -109t-109 -74t-132.5 -27q-71 0 -133 27t-108.5 74t-73.5 109t-27 133t27 133.5t73.5 109t108.5 73.5t133 27q70 0 132.5 -27t109 -73.5t73.5 -109t27 -133.5zM796 35h-15v69l-17 -69h-16l-17 69v-69h-16v85h27l15 -62l12 62h27v-85z
" />
    <glyph glyph-name="Eng" unicode="&#x14a;" horiz-adv-x="388" 
d="M236 21l-85 328v-349h-114v727h110l90 -366v366h114v-856l-63 -82h-133v92h61l20 24v116z" />
    <glyph glyph-name="eng" unicode="&#x14b;" horiz-adv-x="388" 
d="M236 21l-85 328v-349h-114v727h110l90 -366v366h114v-856l-63 -82h-133v92h61l20 24v116z" />
    <glyph glyph-name="Omacron" unicode="&#x14c;" 
d="M151 123l23 -32h30l23 32v481l-23 32h-30l-23 -32v-481zM341 92l-67 -92h-170l-67 92v543l67 92h170l67 -92v-543zM64 851h251v-74h-251v74z" />
    <glyph glyph-name="omacron" unicode="&#x14d;" 
d="M151 123l23 -32h30l23 32v481l-23 32h-30l-23 -32v-481zM341 92l-67 -92h-170l-67 92v543l67 92h170l67 -92v-543zM64 851h251v-74h-251v74z" />
    <glyph glyph-name="Obreve" unicode="&#x14e;" 
d="M151 123l23 -32h30l23 32v481l-23 32h-30l-23 -32v-481zM341 92l-67 -92h-170l-67 92v543l67 92h170l67 -92v-543zM197 829q26 0 34.5 9.5t6.5 35.5h78q0 -35 -9.5 -55t-26.5 -30.5t-39 -13t-47 -2.5h-8q-25 0 -47.5 2.5t-39.5 12t-26.5 30t-9.5 56.5h77
q-2 -26 7.5 -35.5t32.5 -9.5h17z" />
    <glyph glyph-name="obreve" unicode="&#x14f;" 
d="M151 123l23 -32h30l23 32v481l-23 32h-30l-23 -32v-481zM341 92l-67 -92h-170l-67 92v543l67 92h170l67 -92v-543zM197 829q26 0 34.5 9.5t6.5 35.5h78q0 -35 -9.5 -55t-26.5 -30.5t-39 -13t-47 -2.5h-8q-25 0 -47.5 2.5t-39.5 12t-26.5 30t-9.5 56.5h77
q-2 -26 7.5 -35.5t32.5 -9.5h17z" />
    <glyph glyph-name="Ohungarumlaut" unicode="&#x150;" 
d="M151 123l23 -32h30l23 32v481l-23 32h-30l-23 -32v-481zM341 92l-67 -92h-170l-67 92v543l67 92h170l67 -92v-543zM112 951l91 -20l-46 -165l-70 15zM252 951l89 -25l-53 -162l-70 18z" />
    <glyph glyph-name="ohungarumlaut" unicode="&#x151;" 
d="M151 123l23 -32h30l23 32v481l-23 32h-30l-23 -32v-481zM341 92l-67 -92h-170l-67 92v543l67 92h170l67 -92v-543zM112 951l91 -20l-46 -165l-70 15zM252 951l89 -25l-53 -162l-70 18z" />
    <glyph glyph-name="OE" unicode="&#x152;" horiz-adv-x="489" 
d="M459 727v-96h-117v-220h113v-96h-113v-219h117v-96h-355l-67 92v543l67 92h355zM151 128l23 -32h53v535h-53l-23 -32v-471z" />
    <glyph glyph-name="oe" unicode="&#x153;" horiz-adv-x="489" 
d="M459 727v-96h-117v-220h113v-96h-113v-219h117v-96h-355l-67 92v543l67 92h355zM151 128l23 -32h53v535h-53l-23 -32v-471z" />
    <glyph glyph-name="Racute" unicode="&#x154;" horiz-adv-x="375" 
d="M150 362h52l23 32v210l-23 32h-52v-274zM150 0h-113v727h236l66 -92v-271l-54 -71l64 -293h-120l-53 278h-26v-278zM99 766l-27 64l181 81l33 -82z" />
    <glyph glyph-name="racute" unicode="&#x155;" horiz-adv-x="375" 
d="M150 362h52l23 32v210l-23 32h-52v-274zM150 0h-113v727h236l66 -92v-271l-54 -71l64 -293h-120l-53 278h-26v-278zM99 766l-27 64l181 81l33 -82z" />
    <glyph glyph-name="Rcommaaccent" unicode="&#x156;" horiz-adv-x="375" 
d="M132 -47h114v-89l-35 -74h-28l17 63h-68v100zM150 362h52l23 32v210l-23 32h-52v-274zM150 0h-113v727h236l66 -92v-271l-54 -71l64 -293h-120l-53 278h-26v-278z" />
    <glyph glyph-name="rcommaaccent" unicode="&#x157;" horiz-adv-x="375" 
d="M132 -47h114v-89l-35 -74h-28l17 63h-68v100zM150 362h52l23 32v210l-23 32h-52v-274zM150 0h-113v727h236l66 -92v-271l-54 -71l64 -293h-120l-53 278h-26v-278z" />
    <glyph glyph-name="Rcaron" unicode="&#x158;" horiz-adv-x="375" 
d="M150 362h52l23 32v210l-23 32h-52v-274zM150 0h-113v727h236l66 -92v-271l-54 -71l64 -293h-120l-53 278h-26v-278zM125 774l-92 120h95l41 -62h20l41 62h95l-91 -120h-109z" />
    <glyph glyph-name="rcaron" unicode="&#x159;" horiz-adv-x="375" 
d="M150 362h52l23 32v210l-23 32h-52v-274zM150 0h-113v727h236l66 -92v-271l-54 -71l64 -293h-120l-53 278h-26v-278zM125 774l-92 120h95l41 -62h20l41 62h95l-91 -120h-109z" />
    <glyph glyph-name="Sacute" unicode="&#x15a;" 
d="M273 727l68 -92v-122h-114v91l-23 32h-30l-23 -32v-133l190 -185v-194l-67 -92h-170l-67 92v122h114v-91l23 -32h30l23 32v128l-190 185v199l67 92h169zM109 766l-27 64l181 81l33 -82z" />
    <glyph glyph-name="sacute" unicode="&#x15b;" 
d="M273 727l68 -92v-122h-114v91l-23 32h-30l-23 -32v-133l190 -185v-194l-67 -92h-170l-67 92v122h114v-91l23 -32h30l23 32v128l-190 185v199l67 92h169zM109 766l-27 64l181 81l33 -82z" />
    <glyph glyph-name="Scircumflex" unicode="&#x15c;" 
d="M273 727l68 -92v-122h-114v91l-23 32h-30l-23 -32v-133l190 -185v-194l-67 -92h-170l-67 92v122h114v-91l23 -32h30l23 32v128l-190 185v199l67 92h169zM244 894l91 -120h-95l-41 62h-20l-41 -62h-95l92 120h109z" />
    <glyph glyph-name="scircumflex" unicode="&#x15d;" 
d="M273 727l68 -92v-122h-114v91l-23 32h-30l-23 -32v-133l190 -185v-194l-67 -92h-170l-67 92v122h114v-91l23 -32h30l23 32v128l-190 185v199l67 92h169zM244 894l91 -120h-95l-41 62h-20l-41 -62h-95l92 120h109z" />
    <glyph glyph-name="Scedilla" unicode="&#x15e;" 
d="M273 727l68 -92v-122h-114v91l-23 32h-30l-23 -32v-133l190 -185v-194l-67 -92h-54v-42q45 2 62 -13t17 -61q0 -38 -17.5 -60.5t-57.5 -22.5h-80v62h46q20 0 27 6t7 20q0 17 -8.5 21.5t-25.5 4.5h-33v85h-53l-67 92v122h114v-91l23 -32h30l23 32v128l-190 185v199l67 92
h169z" />
    <glyph glyph-name="scedilla" unicode="&#x15f;" 
d="M273 727l68 -92v-122h-114v91l-23 32h-30l-23 -32v-133l190 -185v-194l-67 -92h-54v-42q45 2 62 -13t17 -61q0 -38 -17.5 -60.5t-57.5 -22.5h-80v62h46q20 0 27 6t7 20q0 17 -8.5 21.5t-25.5 4.5h-33v85h-53l-67 92v122h114v-91l23 -32h30l23 32v128l-190 185v199l67 92
h169z" />
    <glyph glyph-name="Scaron" unicode="&#x160;" 
d="M273 727l68 -92v-122h-114v91l-23 32h-30l-23 -32v-133l190 -185v-194l-67 -92h-170l-67 92v122h114v-91l23 -32h30l23 32v128l-190 185v199l67 92h169zM135 774l-92 120h95l41 -62h20l41 62h95l-91 -120h-109z" />
    <glyph glyph-name="scaron" unicode="&#x161;" 
d="M273 727l68 -92v-122h-114v91l-23 32h-30l-23 -32v-133l190 -185v-194l-67 -92h-170l-67 92v122h114v-91l23 -32h30l23 32v128l-190 185v199l67 92h169zM135 774l-92 120h95l41 -62h20l41 62h95l-91 -120h-109z" />
    <glyph glyph-name="Tcommaaccent" unicode="&#x162;" horiz-adv-x="313" 
d="M99 -47h114v-89l-35 -74h-28l17 63h-68v100zM99 631h-69v96h253v-96h-69v-631h-115v631z" />
    <glyph glyph-name="tcommaaccent" unicode="&#x163;" horiz-adv-x="313" 
d="M99 -47h114v-89l-35 -74h-28l17 63h-68v100zM99 631h-69v96h253v-96h-69v-631h-115v631z" />
    <glyph glyph-name="Tcaron" unicode="&#x164;" horiz-adv-x="313" 
d="M99 631h-69v96h253v-96h-69v-631h-115v631zM103 774l-92 120h95l41 -62h20l41 62h95l-91 -120h-109z" />
    <glyph glyph-name="tcaron" unicode="&#x165;" horiz-adv-x="313" 
d="M99 631h-69v96h253v-96h-69v-631h-115v631zM103 774l-92 120h95l41 -62h20l41 62h95l-91 -120h-109z" />
    <glyph glyph-name="Tbar" unicode="&#x166;" horiz-adv-x="313" 
d="M30 394h69v237h-69v96h253v-96h-69v-237h69v-61h-69v-333h-115v333h-69v61z" />
    <glyph glyph-name="tbar" unicode="&#x167;" horiz-adv-x="313" 
d="M30 394h69v237h-69v96h253v-96h-69v-237h69v-61h-69v-333h-115v333h-69v61z" />
    <glyph glyph-name="Utilde" unicode="&#x168;" 
d="M227 727h114v-635l-67 -92h-170l-67 92v635h114v-604l23 -32h30l23 32v604zM127 774h-73v96q17 7 31 8.5t25 1.5q21 1 42.5 -7t41 -18t35 -18.5t24.5 -8.5v45h71v-98q-26 -9 -46 -9q-16 0 -36 2.5t-39 10.5q-25 13 -44 25.5t-32 14.5v-45z" />
    <glyph glyph-name="utilde" unicode="&#x169;" 
d="M227 727h114v-635l-67 -92h-170l-67 92v635h114v-604l23 -32h30l23 32v604zM127 774h-73v96q17 7 31 8.5t25 1.5q21 1 42.5 -7t41 -18t35 -18.5t24.5 -8.5v45h71v-98q-26 -9 -46 -9q-16 0 -36 2.5t-39 10.5q-25 13 -44 25.5t-32 14.5v-45z" />
    <glyph glyph-name="Umacron" unicode="&#x16a;" 
d="M227 727h114v-635l-67 -92h-170l-67 92v635h114v-604l23 -32h30l23 32v604zM64 851h251v-74h-251v74z" />
    <glyph glyph-name="umacron" unicode="&#x16b;" 
d="M227 727h114v-635l-67 -92h-170l-67 92v635h114v-604l23 -32h30l23 32v604zM64 851h251v-74h-251v74z" />
    <glyph glyph-name="Ubreve" unicode="&#x16c;" 
d="M227 727h114v-635l-67 -92h-170l-67 92v635h114v-604l23 -32h30l23 32v604zM197 829q26 0 34.5 9.5t6.5 35.5h78q0 -35 -9.5 -55t-26.5 -30.5t-39 -13t-47 -2.5h-8q-25 0 -47.5 2.5t-39.5 12t-26.5 30t-9.5 56.5h77q-2 -26 7.5 -35.5t32.5 -9.5h17z" />
    <glyph glyph-name="ubreve" unicode="&#x16d;" 
d="M227 727h114v-635l-67 -92h-170l-67 92v635h114v-604l23 -32h30l23 32v604zM197 829q26 0 34.5 9.5t6.5 35.5h78q0 -35 -9.5 -55t-26.5 -30.5t-39 -13t-47 -2.5h-8q-25 0 -47.5 2.5t-39.5 12t-26.5 30t-9.5 56.5h77q-2 -26 7.5 -35.5t32.5 -9.5h17z" />
    <glyph glyph-name="Uring" unicode="&#x16e;" 
d="M227 727h114v-635l-67 -92h-170l-67 92v635h114v-604l23 -32h30l23 32v604zM117 843q0 30 21 51t51 21t51 -21t21 -51t-21 -51t-51 -21t-51 21t-21 51z" />
    <glyph glyph-name="uring" unicode="&#x16f;" 
d="M227 727h114v-635l-67 -92h-170l-67 92v635h114v-604l23 -32h30l23 32v604zM117 843q0 30 21 51t51 21t51 -21t21 -51t-21 -51t-51 -21t-51 21t-21 51z" />
    <glyph glyph-name="Uhungarumlaut" unicode="&#x170;" 
d="M227 727h114v-635l-67 -92h-170l-67 92v635h114v-604l23 -32h30l23 32v604zM112 951l91 -20l-46 -165l-70 15zM252 951l89 -25l-53 -162l-70 18z" />
    <glyph glyph-name="uhungarumlaut" unicode="&#x171;" 
d="M227 727h114v-635l-67 -92h-170l-67 92v635h114v-604l23 -32h30l23 32v604zM112 951l91 -20l-46 -165l-70 15zM252 951l89 -25l-53 -162l-70 18z" />
    <glyph glyph-name="Uogonek" unicode="&#x172;" 
d="M104 0l-67 92v635h114v-604l23 -32h30l23 32v604h114v-635l-124 -185q-11 -17 -8.5 -27.5t25.5 -10.5h68v-80h-107q-29 0 -47 13.5t-23 36.5q-4 24 9 49.5t26 46.5l43 65h-99z" />
    <glyph glyph-name="uogonek" unicode="&#x173;" 
d="M104 0l-67 92v635h114v-604l23 -32h30l23 32v604h114v-635l-124 -185q-11 -17 -8.5 -27.5t25.5 -10.5h68v-80h-107q-29 0 -47 13.5t-23 36.5q-4 24 9 49.5t26 46.5l43 65h-99z" />
    <glyph glyph-name="Wcircumflex" unicode="&#x174;" horiz-adv-x="582" 
d="M344 727l42 -514h6l39 514h123l-71 -727h-153l-36 385h-6l-36 -385h-153l-71 727h123l39 -514h6l42 514h106zM346 894l91 -120h-95l-41 62h-20l-41 -62h-95l92 120h109z" />
    <glyph glyph-name="wcircumflex" unicode="&#x175;" horiz-adv-x="582" 
d="M344 727l42 -514h6l39 514h123l-71 -727h-153l-36 385h-6l-36 -385h-153l-71 727h123l39 -514h6l42 514h106zM346 894l91 -120h-95l-41 62h-20l-41 -62h-95l92 120h109z" />
    <glyph glyph-name="Ycircumflex" unicode="&#x176;" horiz-adv-x="396" 
d="M140 0v249l-113 478h116l53 -279h4l53 279h116l-113 -478v-249h-116zM253 894l91 -120h-95l-41 62h-20l-41 -62h-95l92 120h109z" />
    <glyph glyph-name="ycircumflex" unicode="&#x177;" horiz-adv-x="396" 
d="M140 0v249l-113 478h116l53 -279h4l53 279h116l-113 -478v-249h-116zM253 894l91 -120h-95l-41 62h-20l-41 -62h-95l92 120h109z" />
    <glyph glyph-name="Ydieresis" unicode="&#x178;" horiz-adv-x="396" 
d="M140 0v249l-113 478h116l53 -279h4l53 279h116l-113 -478v-249h-116zM61 883h111v-109h-111v109zM225 883h111v-109h-111v109z" />
    <glyph glyph-name="Zacute" unicode="&#x179;" horiz-adv-x="349" 
d="M290 96v-96h-265l160 632h-134v95h273l-158 -631h124zM115 766l-27 64l181 81l33 -82z" />
    <glyph glyph-name="zacute" unicode="&#x17a;" horiz-adv-x="349" 
d="M290 96v-96h-265l160 632h-134v95h273l-158 -631h124zM115 766l-27 64l181 81l33 -82z" />
    <glyph glyph-name="Zdotaccent" unicode="&#x17b;" horiz-adv-x="349" 
d="M290 96v-96h-265l160 632h-134v95h273l-158 -631h124zM130 883h111v-109h-111v109z" />
    <glyph glyph-name="zdotaccent" unicode="&#x17c;" horiz-adv-x="349" 
d="M290 96v-96h-265l160 632h-134v95h273l-158 -631h124zM130 883h111v-109h-111v109z" />
    <glyph glyph-name="longs" unicode="&#x17f;" horiz-adv-x="836" 
d="M537 242q-154 -39 -310 0q10 -17 24.5 -35t34 -34t43.5 -26t53 -10q28 0 52 10t43.5 26t34.5 34t25 35zM600 340h-436l53 -84q83 -20 164.5 -19.5t164.5 19.5zM323 453q-13 27 -21 56t-25 52q-3 4 -12.5 0t-20 -10.5t-18 -13t-5.5 -8.5l72 -90q1 -2 6.5 -0.5t11 4
t9.5 5.5t3 5zM419 371l-37 89l-36 -89h73zM542 529q1 2 -6 8.5t-17 13t-19.5 10.5t-12.5 0q-18 -23 -26.5 -52t-19.5 -56q-2 -2 2 -5t10 -5.5t11 -4t7 0.5zM657 371q0 -57 -21.5 -107t-59 -87.5t-87.5 -59t-107 -21.5t-107 21.5t-87.5 59t-59.5 87.5t-22 107t22 107
t59.5 87.5t87.5 59t107 21.5t107 -21.5t87.5 -59t59 -87.5t21.5 -107zM677 371q0 61 -23 115t-63 94t-94 63.5t-115 23.5t-115 -23.5t-94.5 -63.5t-64 -94t-23.5 -115t23.5 -114.5t64 -94t94.5 -64t115 -23.5t115 23.5t94 64t63 94t23 114.5zM707 106h-27v-71h-17v71h-26v14
h70v-14zM724 371q0 -71 -27 -133t-73.5 -109t-109 -74t-132.5 -27q-71 0 -133 27t-108.5 74t-73.5 109t-27 133t27 133.5t73.5 109t108.5 73.5t133 27q70 0 132.5 -27t109 -73.5t73.5 -109t27 -133.5zM796 35h-15v69l-17 -69h-16l-17 69v-69h-16v85h27l15 -62l12 62h27v-85z
" />
    <glyph glyph-name="florin" unicode="&#x192;" horiz-adv-x="318" 
d="M156 -30l-60 -78h-121v88h53l19 26v639l60 82h181v-87h-113l-19 -26v-98h115v-93h-115v-453z" />
    <glyph glyph-name="Ohorn" unicode="&#x1a0;" 
d="M151 123l23 -32h30l23 32v481l-23 32h-30l-23 -32v-481zM341 92l-67 -92h-170l-67 92v543l67 92h170l34 -48l49 69h-42v84h89v-71l-78 -105l15 -21v-543z" />
    <glyph glyph-name="ohorn" unicode="&#x1a1;" 
d="M151 123l23 -32h30l23 32v481l-23 32h-30l-23 -32v-481zM341 92l-67 -92h-170l-67 92v543l67 92h170l34 -48l49 69h-42v84h89v-71l-78 -105l15 -21v-543z" />
    <glyph glyph-name="Uhorn" unicode="&#x1af;" 
d="M227 727h114v-16l26 36h-42v84h89v-71l-73 -98v-570l-67 -92h-170l-67 92v635h114v-604l23 -32h30l23 32v604z" />
    <glyph glyph-name="uhorn" unicode="&#x1b0;" 
d="M227 727h114v-16l26 36h-42v84h89v-71l-73 -98v-570l-67 -92h-170l-67 92v635h114v-604l23 -32h30l23 32v604z" />
    <glyph glyph-name="Aringacute" unicode="&#x1fa;" horiz-adv-x="392" 
d="M231 198l-33 383h-4l-33 -383h70zM100 727h193l71 -727h-115l-9 105h-87l-10 -105h-115zM124 843q0 30 21 51t51 21t51 -21t21 -51t-21 -51t-51 -21t-51 21t-21 51zM116 934l-27 64l181 81l33 -82z" />
    <glyph glyph-name="aringacute" unicode="&#x1fb;" horiz-adv-x="392" 
d="M231 198l-33 383h-4l-33 -383h70zM100 727h193l71 -727h-115l-9 105h-87l-10 -105h-115zM124 843q0 30 21 51t51 21t51 -21t21 -51t-21 -51t-51 -21t-51 21t-21 51zM116 934l-27 64l181 81l33 -82z" />
    <glyph glyph-name="AEacute" unicode="&#x1fc;" horiz-adv-x="512" 
d="M250 105h-84l-15 -105h-123l130 727h324v-96h-117v-220h113v-96h-113v-219h117v-96h-232v105zM250 198v398h-5l-62 -398h67zM242 766l-27 64l181 81l33 -82z" />
    <glyph glyph-name="aeacute" unicode="&#x1fd;" horiz-adv-x="512" 
d="M250 105h-84l-15 -105h-123l130 727h324v-96h-117v-220h113v-96h-113v-219h117v-96h-232v105zM250 198v398h-5l-62 -398h67zM242 766l-27 64l181 81l33 -82z" />
    <glyph glyph-name="Oslashacute" unicode="&#x1fe;" 
d="M341 92l-67 -92h-170l-24 32l-25 -51l-37 16l34 73l-15 22v543l67 92h170l26 -37l26 52l38 -16l-35 -75l12 -16v-543zM151 317l76 208v79l-23 32h-30l-23 -32v-287zM227 123v288l-76 -209v-79l23 -32h30zM109 766l-27 64l181 81l33 -82z" />
    <glyph glyph-name="oslashacute" unicode="&#x1ff;" 
d="M341 92l-67 -92h-170l-24 32l-25 -51l-37 16l34 73l-15 22v543l67 92h170l26 -37l26 52l38 -16l-35 -75l12 -16v-543zM151 317l76 208v79l-23 32h-30l-23 -32v-287zM227 123v288l-76 -209v-79l23 -32h30zM109 766l-27 64l181 81l33 -82z" />
    <glyph glyph-name="uni0200" unicode="&#x200;" horiz-adv-x="392" 
d="M294 781l-70 -15l-46 165l91 20zM163 782l-70 -18l-53 162l89 25zM231 198l-33 383h-4l-33 -383h70zM100 727h193l71 -727h-115l-9 105h-87l-10 -105h-115z" />
    <glyph glyph-name="uni0201" unicode="&#x201;" horiz-adv-x="392" 
d="M294 781l-70 -15l-46 165l91 20zM163 782l-70 -18l-53 162l89 25zM231 198l-33 383h-4l-33 -383h70zM100 727h193l71 -727h-115l-9 105h-87l-10 -105h-115z" />
    <glyph glyph-name="uni0202" unicode="&#x202;" horiz-adv-x="392" 
d="M187 819q-23 0 -32.5 -9.5t-7.5 -35.5h-77q0 36 9.5 56.5t26.5 30t39.5 12t47.5 2.5h8q25 0 47 -2.5t39 -13t26.5 -30.5t9.5 -55h-78q2 26 -6.5 35.5t-34.5 9.5h-17zM231 198l-33 383h-4l-33 -383h70zM100 727h193l71 -727h-115l-9 105h-87l-10 -105h-115z" />
    <glyph glyph-name="uni0203" unicode="&#x203;" horiz-adv-x="392" 
d="M187 819q-23 0 -32.5 -9.5t-7.5 -35.5h-77q0 36 9.5 56.5t26.5 30t39.5 12t47.5 2.5h8q25 0 47 -2.5t39 -13t26.5 -30.5t9.5 -55h-78q2 26 -6.5 35.5t-34.5 9.5h-17zM231 198l-33 383h-4l-33 -383h70zM100 727h193l71 -727h-115l-9 105h-87l-10 -105h-115z" />
    <glyph glyph-name="uni0204" unicode="&#x204;" horiz-adv-x="299" 
d="M254 781l-70 -15l-46 165l91 20zM123 782l-70 -18l-53 162l89 25zM37 727h232v-96h-117v-219h113v-96h-113v-220h117v-96h-232v727z" />
    <glyph glyph-name="uni0205" unicode="&#x205;" horiz-adv-x="299" 
d="M254 781l-70 -15l-46 165l91 20zM123 782l-70 -18l-53 162l89 25zM37 727h232v-96h-117v-219h113v-96h-113v-220h117v-96h-232v727z" />
    <glyph glyph-name="uni0206" unicode="&#x206;" horiz-adv-x="299" 
d="M144 819q-23 0 -32.5 -9.5t-7.5 -35.5h-77q0 36 9.5 56.5t26.5 30t39.5 12t47.5 2.5h8q25 0 47 -2.5t39 -13t26.5 -30.5t9.5 -55h-78q2 26 -6.5 35.5t-34.5 9.5h-17zM37 727h232v-96h-117v-219h113v-96h-113v-220h117v-96h-232v727z" />
    <glyph glyph-name="uni0207" unicode="&#x207;" horiz-adv-x="299" 
d="M144 819q-23 0 -32.5 -9.5t-7.5 -35.5h-77q0 36 9.5 56.5t26.5 30t39.5 12t47.5 2.5h8q25 0 47 -2.5t39 -13t26.5 -30.5t9.5 -55h-78q2 26 -6.5 35.5t-34.5 9.5h-17zM37 727h232v-96h-117v-219h113v-96h-113v-220h117v-96h-232v727z" />
    <glyph glyph-name="uni0208" unicode="&#x208;" horiz-adv-x="188" 
d="M198 781l-70 -15l-46 165l91 20zM67 782l-70 -18l-53 162l89 25zM151 727v-727h-114v727h114z" />
    <glyph glyph-name="uni0209" unicode="&#x209;" horiz-adv-x="188" 
d="M198 781l-70 -15l-46 165l91 20zM67 782l-70 -18l-53 162l89 25zM151 727v-727h-114v727h114z" />
    <glyph glyph-name="uni020A" unicode="&#x20a;" horiz-adv-x="188" 
d="M85 819q-23 0 -32.5 -9.5t-7.5 -35.5h-77q0 36 9.5 56.5t26.5 30t39.5 12t47.5 2.5h8q25 0 47 -2.5t39 -13t26.5 -30.5t9.5 -55h-78q2 26 -6.5 35.5t-34.5 9.5h-17zM151 727v-727h-114v727h114z" />
    <glyph glyph-name="uni020B" unicode="&#x20b;" horiz-adv-x="188" 
d="M85 819q-23 0 -32.5 -9.5t-7.5 -35.5h-77q0 36 9.5 56.5t26.5 30t39.5 12t47.5 2.5h8q25 0 47 -2.5t39 -13t26.5 -30.5t9.5 -55h-78q2 26 -6.5 35.5t-34.5 9.5h-17zM151 727v-727h-114v727h114z" />
    <glyph glyph-name="uni020C" unicode="&#x20c;" 
d="M291 781l-70 -15l-46 165l91 20zM160 782l-70 -18l-53 162l89 25zM151 123l23 -32h30l23 32v481l-23 32h-30l-23 -32v-481zM341 92l-67 -92h-170l-67 92v543l67 92h170l67 -92v-543z" />
    <glyph glyph-name="uni020D" unicode="&#x20d;" 
d="M291 781l-70 -15l-46 165l91 20zM160 782l-70 -18l-53 162l89 25zM151 123l23 -32h30l23 32v481l-23 32h-30l-23 -32v-481zM341 92l-67 -92h-170l-67 92v543l67 92h170l67 -92v-543z" />
    <glyph glyph-name="uni020E" unicode="&#x20e;" 
d="M180 819q-23 0 -32.5 -9.5t-7.5 -35.5h-77q0 36 9.5 56.5t26.5 30t39.5 12t47.5 2.5h8q25 0 47 -2.5t39 -13t26.5 -30.5t9.5 -55h-78q2 26 -6.5 35.5t-34.5 9.5h-17zM151 123l23 -32h30l23 32v481l-23 32h-30l-23 -32v-481zM341 92l-67 -92h-170l-67 92v543l67 92h170
l67 -92v-543z" />
    <glyph glyph-name="uni020F" unicode="&#x20f;" 
d="M180 819q-23 0 -32.5 -9.5t-7.5 -35.5h-77q0 36 9.5 56.5t26.5 30t39.5 12t47.5 2.5h8q25 0 47 -2.5t39 -13t26.5 -30.5t9.5 -55h-78q2 26 -6.5 35.5t-34.5 9.5h-17zM151 123l23 -32h30l23 32v481l-23 32h-30l-23 -32v-481zM341 92l-67 -92h-170l-67 92v543l67 92h170
l67 -92v-543z" />
    <glyph glyph-name="uni0210" unicode="&#x210;" horiz-adv-x="375" 
d="M271 781l-70 -15l-46 165l91 20zM140 782l-70 -18l-53 162l89 25zM150 362h52l23 32v210l-23 32h-52v-274zM150 0h-113v727h236l66 -92v-271l-54 -71l64 -293h-120l-53 278h-26v-278z" />
    <glyph glyph-name="uni0211" unicode="&#x211;" horiz-adv-x="375" 
d="M271 781l-70 -15l-46 165l91 20zM140 782l-70 -18l-53 162l89 25zM150 362h52l23 32v210l-23 32h-52v-274zM150 0h-113v727h236l66 -92v-271l-54 -71l64 -293h-120l-53 278h-26v-278z" />
    <glyph glyph-name="uni0212" unicode="&#x212;" horiz-adv-x="375" 
d="M162 819q-23 0 -32.5 -9.5t-7.5 -35.5h-77q0 36 9.5 56.5t26.5 30t39.5 12t47.5 2.5h8q25 0 47 -2.5t39 -13t26.5 -30.5t9.5 -55h-78q2 26 -6.5 35.5t-34.5 9.5h-17zM150 362h52l23 32v210l-23 32h-52v-274zM150 0h-113v727h236l66 -92v-271l-54 -71l64 -293h-120
l-53 278h-26v-278z" />
    <glyph glyph-name="uni0213" unicode="&#x213;" horiz-adv-x="375" 
d="M162 819q-23 0 -32.5 -9.5t-7.5 -35.5h-77q0 36 9.5 56.5t26.5 30t39.5 12t47.5 2.5h8q25 0 47 -2.5t39 -13t26.5 -30.5t9.5 -55h-78q2 26 -6.5 35.5t-34.5 9.5h-17zM150 362h52l23 32v210l-23 32h-52v-274zM150 0h-113v727h236l66 -92v-271l-54 -71l64 -293h-120
l-53 278h-26v-278z" />
    <glyph glyph-name="uni0214" unicode="&#x214;" 
d="M291 781l-70 -15l-46 165l91 20zM160 782l-70 -18l-53 162l89 25zM227 727h114v-635l-67 -92h-170l-67 92v635h114v-604l23 -32h30l23 32v604z" />
    <glyph glyph-name="uni0215" unicode="&#x215;" 
d="M291 781l-70 -15l-46 165l91 20zM160 782l-70 -18l-53 162l89 25zM227 727h114v-635l-67 -92h-170l-67 92v635h114v-604l23 -32h30l23 32v604z" />
    <glyph glyph-name="uni0216" unicode="&#x216;" 
d="M180 819q-23 0 -32.5 -9.5t-7.5 -35.5h-77q0 36 9.5 56.5t26.5 30t39.5 12t47.5 2.5h8q25 0 47 -2.5t39 -13t26.5 -30.5t9.5 -55h-78q2 26 -6.5 35.5t-34.5 9.5h-17zM227 727h114v-635l-67 -92h-170l-67 92v635h114v-604l23 -32h30l23 32v604z" />
    <glyph glyph-name="uni0217" unicode="&#x217;" 
d="M180 819q-23 0 -32.5 -9.5t-7.5 -35.5h-77q0 36 9.5 56.5t26.5 30t39.5 12t47.5 2.5h8q25 0 47 -2.5t39 -13t26.5 -30.5t9.5 -55h-78q2 26 -6.5 35.5t-34.5 9.5h-17zM227 727h114v-635l-67 -92h-170l-67 92v635h114v-604l23 -32h30l23 32v604z" />
    <glyph glyph-name="Scommaaccent" unicode="&#x218;" 
d="M132 -47h114v-89l-35 -74h-28l17 63h-68v100zM273 727l68 -92v-122h-114v91l-23 32h-30l-23 -32v-133l190 -185v-194l-67 -92h-170l-67 92v122h114v-91l23 -32h30l23 32v128l-190 185v199l67 92h169z" />
    <glyph glyph-name="scommaaccent" unicode="&#x219;" 
d="M132 -47h114v-89l-35 -74h-28l17 63h-68v100zM273 727l68 -92v-122h-114v91l-23 32h-30l-23 -32v-133l190 -185v-194l-67 -92h-170l-67 92v122h114v-91l23 -32h30l23 32v128l-190 185v199l67 92h169z" />
    <glyph glyph-name="uni021A" unicode="&#x21a;" horiz-adv-x="313" 
d="M99 -47h114v-89l-35 -74h-28l17 63h-68v100zM99 631h-69v96h253v-96h-69v-631h-115v631z" />
    <glyph glyph-name="uni021B" unicode="&#x21b;" horiz-adv-x="313" 
d="M99 -47h114v-89l-35 -74h-28l17 63h-68v100zM99 631h-69v96h253v-96h-69v-631h-115v631z" />
    <glyph glyph-name="uni0232" unicode="&#x232;" horiz-adv-x="396" 
d="M140 0v249l-113 478h116l53 -279h4l53 279h116l-113 -478v-249h-116zM73 851h251v-74h-251v74z" />
    <glyph glyph-name="uni0233" unicode="&#x233;" horiz-adv-x="396" 
d="M140 0v249l-113 478h116l53 -279h4l53 279h116l-113 -478v-249h-116zM73 851h251v-74h-251v74z" />
    <glyph glyph-name="dotlessj" unicode="&#x237;" horiz-adv-x="836" 
d="M537 242q-154 -39 -310 0q10 -17 24.5 -35t34 -34t43.5 -26t53 -10q28 0 52 10t43.5 26t34.5 34t25 35zM600 340h-436l53 -84q83 -20 164.5 -19.5t164.5 19.5zM323 453q-13 27 -21 56t-25 52q-3 4 -12.5 0t-20 -10.5t-18 -13t-5.5 -8.5l72 -90q1 -2 6.5 -0.5t11 4
t9.5 5.5t3 5zM419 371l-37 89l-36 -89h73zM542 529q1 2 -6 8.5t-17 13t-19.5 10.5t-12.5 0q-18 -23 -26.5 -52t-19.5 -56q-2 -2 2 -5t10 -5.5t11 -4t7 0.5zM657 371q0 -57 -21.5 -107t-59 -87.5t-87.5 -59t-107 -21.5t-107 21.5t-87.5 59t-59.5 87.5t-22 107t22 107
t59.5 87.5t87.5 59t107 21.5t107 -21.5t87.5 -59t59 -87.5t21.5 -107zM677 371q0 61 -23 115t-63 94t-94 63.5t-115 23.5t-115 -23.5t-94.5 -63.5t-64 -94t-23.5 -115t23.5 -114.5t64 -94t94.5 -64t115 -23.5t115 23.5t94 64t63 94t23 114.5zM707 106h-27v-71h-17v71h-26v14
h70v-14zM724 371q0 -71 -27 -133t-73.5 -109t-109 -74t-132.5 -27q-71 0 -133 27t-108.5 74t-73.5 109t-27 133t27 133.5t73.5 109t108.5 73.5t133 27q70 0 132.5 -27t109 -73.5t73.5 -109t27 -133.5zM796 35h-15v69l-17 -69h-16l-17 69v-69h-16v85h27l15 -62l12 62h27v-85z
" />
    <glyph glyph-name="circumflex" unicode="&#x2c6;" horiz-adv-x="372" 
d="M241 894l91 -120h-95l-41 62h-20l-41 -62h-95l92 120h109z" />
    <glyph glyph-name="caron" unicode="&#x2c7;" horiz-adv-x="372" 
d="M132 774l-92 120h95l41 -62h20l41 62h95l-91 -120h-109z" />
    <glyph glyph-name="breve" unicode="&#x2d8;" horiz-adv-x="337" 
d="M176 829q26 0 34.5 9.5t6.5 35.5h78q0 -35 -9.5 -55t-26.5 -30.5t-39 -13t-47 -2.5h-8q-25 0 -47.5 2.5t-39.5 12t-26.5 30t-9.5 56.5h77q-2 -26 7.5 -35.5t32.5 -9.5h17z" />
    <glyph glyph-name="dotaccent" unicode="&#x2d9;" horiz-adv-x="191" 
d="M40 883h111v-109h-111v109z" />
    <glyph glyph-name="ring" unicode="&#x2da;" horiz-adv-x="224" 
d="M40 843q0 30 21 51t51 21t51 -21t21 -51t-21 -51t-51 -21t-51 21t-21 51z" />
    <glyph glyph-name="ogonek" unicode="&#x2db;" horiz-adv-x="252" 
d="M190 0l-57 -93q-11 -17 -8.5 -27.5t25.5 -10.5h62v-80h-101q-29 0 -47 13.5t-23 36.5q-4 24 9 49.5t26 46.5l41 65h73z" />
    <glyph glyph-name="tilde" unicode="&#x2dc;" horiz-adv-x="350" 
d="M113 774h-73v96q17 7 31 8.5t25 1.5q21 1 42.5 -7t41 -18t35 -18.5t24.5 -8.5v45h71v-98q-26 -9 -46 -9q-16 0 -36 2.5t-39 10.5q-25 13 -44 25.5t-32 14.5v-45z" />
    <glyph glyph-name="hungarumlaut" unicode="&#x2dd;" horiz-adv-x="361" 
d="M84 951l91 -20l-46 -165l-70 15zM224 951l89 -25l-53 -162l-70 18z" />
    <glyph glyph-name="endash" unicode="&#x2013;" horiz-adv-x="468" 
d="M35 413h398v-98h-398v98z" />
    <glyph glyph-name="emdash" unicode="&#x2014;" horiz-adv-x="576" 
d="M35 413h506v-98h-506v98z" />
    <glyph glyph-name="quoteleft" unicode="&#x2018;" horiz-adv-x="178" 
d="M145 549h-112v112l35 66h29l-17 -63h65v-115z" />
    <glyph glyph-name="quoteright" unicode="&#x2019;" horiz-adv-x="178" 
d="M33 727h112v-112l-35 -66h-29l17 63h-65v115z" />
    <glyph glyph-name="quotesinglbase" unicode="&#x201a;" horiz-adv-x="190" 
d="M37 116h116v-113l-35 -66h-29l17 63h-69v116z" />
    <glyph glyph-name="quotedblleft" unicode="&#x201c;" horiz-adv-x="337" 
d="M145 549h-112v112l35 66h29l-17 -63h65v-115zM304 549h-112v112l35 66h29l-17 -63h65v-115z" />
    <glyph glyph-name="quotedblright" unicode="&#x201d;" horiz-adv-x="337" 
d="M192 727h112v-112l-35 -66h-29l17 63h-65v115zM33 727h112v-112l-35 -66h-29l17 63h-65v115z" />
    <glyph glyph-name="quotedblbase" unicode="&#x201e;" horiz-adv-x="355" 
d="M202 116h116v-113l-35 -66h-29l17 63h-69v116zM37 116h116v-113l-35 -66h-29l17 63h-69v116z" />
    <glyph glyph-name="dagger" unicode="&#x2020;" horiz-adv-x="447" 
d="M171 -123v546h-131v92h131v226h105v-226h131v-92h-131v-546h-105z" />
    <glyph glyph-name="daggerdbl" unicode="&#x2021;" horiz-adv-x="447" 
d="M171 -123v229h-131v92h131v225h-131v92h131v226h105v-226h131v-92h-131v-225h131v-92h-131v-229h-105z" />
    <glyph glyph-name="bullet" unicode="&#x2022;" horiz-adv-x="225" 
d="M37 447h151v-151h-151v151z" />
    <glyph glyph-name="ellipsis" unicode="&#x2026;" horiz-adv-x="536" 
d="M40 116h116v-116h-116v116zM210 116h116v-116h-116v116zM380 116h116v-116h-116v116z" />
    <glyph glyph-name="perthousand" unicode="&#x2030;" horiz-adv-x="853" 
d="M572 114q0 28 10.5 52.5t28.5 42.5t42 28.5t51 10.5q28 0 52.5 -10.5t42.5 -28.5t28.5 -42.5t10.5 -52.5q0 -27 -10.5 -51t-28.5 -42t-42.5 -28.5t-52.5 -10.5q-27 0 -51 10.5t-42 28.5t-28.5 42t-10.5 51zM651 116q0 -23 15.5 -38.5t37.5 -15.5q23 0 39 15.5t16 38.5
q0 22 -16 38t-39 16q-22 0 -37.5 -16t-15.5 -38zM25 611q0 28 10.5 52.5t28.5 42.5t42 28.5t51 10.5q28 0 52.5 -10.5t42.5 -28.5t28.5 -42.5t10.5 -52.5q0 -27 -10.5 -51t-28.5 -42t-42.5 -28.5t-52.5 -10.5q-27 0 -51 10.5t-42 28.5t-28.5 42t-10.5 51zM104 613
q0 -23 15.5 -38.5t37.5 -15.5q23 0 39 15.5t16 38.5q0 22 -16 38t-39 16q-22 0 -37.5 -16t-15.5 -38zM543 707l-445 -716l-74 45l445 716zM262 114q0 28 10.5 52.5t28.5 42.5t42 28.5t51 10.5q28 0 52.5 -10.5t42.5 -28.5t28.5 -42.5t10.5 -52.5q0 -27 -10.5 -51t-28.5 -42
t-42.5 -28.5t-52.5 -10.5q-27 0 -51 10.5t-42 28.5t-28.5 42t-10.5 51zM341 116q0 -23 15.5 -38.5t37.5 -15.5q23 0 39 15.5t16 38.5q0 22 -16 38t-39 16q-22 0 -37.5 -16t-15.5 -38z" />
    <glyph glyph-name="guilsinglleft" unicode="&#x2039;" horiz-adv-x="263" 
d="M238 0h-99l-114 258l114 258h99l-113 -258z" />
    <glyph glyph-name="guilsinglright" unicode="&#x203a;" horiz-adv-x="263" 
d="M138 258l-113 258h99l114 -258l-114 -258h-99z" />
    <glyph glyph-name="Euro" unicode="&#x20ac;" horiz-adv-x="396" 
d="M361 194v-102l-67 -92h-170l-67 92v166h-27v75h27v60h-27v75h27v167l67 92h170l67 -92v-101h-114v65l-23 32h-30l-23 -32v-131h164l-14 -75h-150v-60h139l-14 -75h-125v-130l23 -32h30l23 32v66h114z" />
    <glyph glyph-name="trademark" unicode="&#x2122;" horiz-adv-x="662" 
d="M259 678h-83v-318h-61v318h-85v49h229v-49zM444 368l-86 253v-261h-60v367h82l86 -256l85 256h81v-367h-58v261l-86 -253h-44z" />
    <glyph glyph-name="MrSmiley" unicode="&#xf8ff;" horiz-adv-x="836" 
d="M537 242q-154 -39 -310 0q10 -17 24.5 -35t34 -34t43.5 -26t53 -10q28 0 52 10t43.5 26t34.5 34t25 35zM600 340h-436l53 -84q83 -20 164.5 -19.5t164.5 19.5zM323 453q-13 27 -21 56t-25 52q-3 4 -12.5 0t-20 -10.5t-18 -13t-5.5 -8.5l72 -90q1 -2 6.5 -0.5t11 4
t9.5 5.5t3 5zM419 371l-37 89l-36 -89h73zM542 529q1 2 -6 8.5t-17 13t-19.5 10.5t-12.5 0q-18 -23 -26.5 -52t-19.5 -56q-2 -2 2 -5t10 -5.5t11 -4t7 0.5zM657 371q0 -57 -21.5 -107t-59 -87.5t-87.5 -59t-107 -21.5t-107 21.5t-87.5 59t-59.5 87.5t-22 107t22 107
t59.5 87.5t87.5 59t107 21.5t107 -21.5t87.5 -59t59 -87.5t21.5 -107zM677 371q0 61 -23 115t-63 94t-94 63.5t-115 23.5t-115 -23.5t-94.5 -63.5t-64 -94t-23.5 -115t23.5 -114.5t64 -94t94.5 -64t115 -23.5t115 23.5t94 64t63 94t23 114.5zM707 106h-27v-71h-17v71h-26v14
h70v-14zM724 371q0 -71 -27 -133t-73.5 -109t-109 -74t-132.5 -27q-71 0 -133 27t-108.5 74t-73.5 109t-27 133t27 133.5t73.5 109t108.5 73.5t133 27q70 0 132.5 -27t109 -73.5t73.5 -109t27 -133.5zM796 35h-15v69l-17 -69h-16l-17 69v-69h-16v85h27l15 -62l12 62h27v-85z
" />
    </font>
</defs>
</svg>
