<?xml version="1.0" standalone="no"?>
<!DOCTYPE svg PUBLIC "-//W3C//DTD SVG 1.1//EN" "http://www.w3.org/Graphics/SVG/1.1/DTD/svg11.dtd" >
<svg xmlns="http://www.w3.org/2000/svg" xmlns:xlink="http://www.w3.org/1999/xlink" version="1.1">
<metadata>
Created by FontForge 20170731 at Tue Apr  6 15:18:43 2021
 By Aleksey,,,
Copyright (c) 2016 by Typetype. Designer Ivan Gladkikh, technical designer Olexa Volochay. All rights reserved.
</metadata>
<defs>
<font id="TTSquaresCondensed-BlackItalic" horiz-adv-x="1495" >
  <font-face 
    font-family="TT Squares Condensed Black"
    font-weight="900"
    font-style="italic"
    font-stretch="normal"
    units-per-em="2048"
    panose-1="2 0 5 3 5 0 0 9 0 3"
    ascent="1638"
    descent="-410"
    x-height="1044"
    cap-height="1434"
    bbox="-297 -778 2398 1976"
    underline-thickness="102"
    underline-position="-307"
    unicode-range="U+000D-F6D4"
  />
<missing-glyph horiz-adv-x="0" 
 />
    <glyph glyph-name=".notdef" horiz-adv-x="0" 
 />
    <glyph glyph-name=".null" horiz-adv-x="0" 
 />
    <glyph glyph-name=".null" horiz-adv-x="0" 
 />
    <glyph glyph-name="nonmarkingreturn" horiz-adv-x="682" 
 />
    <glyph glyph-name="CR" unicode="&#xd;" horiz-adv-x="0" 
 />
    <glyph glyph-name="space" unicode=" " horiz-adv-x="471" 
 />
    <glyph glyph-name="exclam" unicode="!" horiz-adv-x="686" 
d="M713 1434l-105 -594l-137 -369h-297l-6 369l104 594h441zM440 0h-399l59 348h400z" />
    <glyph glyph-name="quotedbl" unicode="&#x22;" horiz-adv-x="890" 
d="M510 1208l-119 -266h-174l-24 266l38 226h318zM920 1208l-119 -266h-174l-25 266l39 226h317z" />
    <glyph glyph-name="numbersign" unicode="#" horiz-adv-x="1515" 
d="M1143 1434h358l-98 -267h153l-57 -327h-225l-94 -246h184l-59 -328h-256l-97 -266h-358l96 266h-174l-96 -266h-359l97 266h-154l59 328h226l94 246h-184l57 327h256l98 267h359l-99 -267h174zM741 840l-94 -246h174l94 246h-174z" />
    <glyph glyph-name="dollar" unicode="$" horiz-adv-x="1300" 
d="M367 -184l32 184h-399l59 348h646l49 41l22 133l-33 41h-419l-207 225l76 420l284 226h174l33 184h338l-33 -184h328l-62 -349h-604l-49 -41l-18 -112l32 -41h420l207 -225l-78 -441l-284 -225h-144l-32 -184h-338z" />
    <glyph glyph-name="percent" unicode="%" horiz-adv-x="1740" 
d="M418 983l8 -10h41l12 10l41 225l-10 11h-41l-10 -11zM115 891l71 409l203 154h285l147 -154l-71 -409l-203 -154h-285zM1268 225l8 -10h41l12 10l39 226l-8 10h-41l-12 -10zM965 133l71 410l201 153h285l149 -153l-72 -410l-202 -153h-285zM1532 1434l-969 -1434h-307
l969 1434h307z" />
    <glyph glyph-name="ampersand" unicode="&#x26;" horiz-adv-x="1320" 
d="M700 553h-133l-84 -72l-16 -92l33 -41h164zM1331 881l-57 -328h-133l-97 -553h-870l-182 195l74 409l178 144l-103 112l66 379l250 195h727l-62 -349h-460l-50 -41l-16 -92l70 -71h92l18 102h441l-19 -102h133z" />
    <glyph glyph-name="quotesingle" unicode="'" horiz-adv-x="481" 
d="M510 1208l-119 -266h-174l-24 266l38 226h318z" />
    <glyph glyph-name="parenleft" unicode="(" horiz-adv-x="819" 
d="M735 1208l-49 -41l-209 -1187l33 -41h154l-62 -349h-420l-180 195l279 1577l249 194h420l-61 -348h-154z" />
    <glyph glyph-name="parenright" unicode=")" horiz-adv-x="819" 
d="M80 -61l49 41l209 1187l-33 41h-153l61 348h420l180 -194l-278 -1577l-250 -195h-418l59 349h154z" />
    <glyph glyph-name="asterisk" unicode="*" horiz-adv-x="952" 
d="M641 799l-35 -205h-256l35 205l-172 -103l-92 226l174 102l-139 102l174 226l135 -103l37 205h256l-37 -205l172 103l92 -226l-172 -102l137 -102l-174 -226z" />
    <glyph glyph-name="plus" unicode="+" horiz-adv-x="1167" 
d="M74 543l61 348h328l63 358h348l-63 -358h328l-62 -348h-327l-64 -359h-348l63 359h-327z" />
    <glyph glyph-name="comma" unicode="," horiz-adv-x="593" 
d="M-10 -174l143 174h-133l59 348h390l-60 -348l-268 -297z" />
    <glyph glyph-name="hyphen" unicode="-" horiz-adv-x="942" 
d="M74 543l61 348h778l-61 -348h-778z" />
    <glyph glyph-name="period" unicode="." horiz-adv-x="593" 
d="M389 0h-389l59 348h390z" />
    <glyph glyph-name="slash" unicode="/" horiz-adv-x="1136" 
d="M1286 1434l-989 -1434h-399l989 1434h399z" />
    <glyph glyph-name="zero" unicode="0" horiz-adv-x="1443" 
d="M686 1106l-49 -41l-123 -696l35 -41h256l47 41l123 696l-33 41h-256zM532 1454h687l223 -246l-174 -983l-310 -245h-686l-223 245l174 983z" />
    <glyph glyph-name="one" unicode="1" horiz-adv-x="1136" 
d="M952 0h-932l60 348h246l131 737h-246l61 349h686l-192 -1086h246z" />
    <glyph glyph-name="two" unicode="2" horiz-adv-x="1310" 
d="M76 614l311 246h379l82 62l20 112l-43 51h-624l61 349h901l180 -195l-79 -461l-312 -246h-379l-81 -61l-23 -123h666l-60 -348h-1106z" />
    <glyph glyph-name="three" unicode="3" horiz-adv-x="1280" 
d="M170 1085l61 349h871l180 -195l-63 -358l-154 -123l137 -154l-74 -409l-247 -195h-922l59 348h656l49 41l22 123l-61 61h-360l57 328h330l82 62l14 81l-33 41h-604z" />
    <glyph glyph-name="four" unicode="4" horiz-adv-x="1280" 
d="M584 0l45 266h-666l51 287l770 881h492l-146 -820h134l-62 -348h-133l-45 -266h-440zM690 614l51 287h-10l-246 -287h205z" />
    <glyph glyph-name="five" unicode="5" horiz-adv-x="1331" 
d="M911 0h-891l60 348h645l61 51l25 144l-41 51h-625l148 840h1024l-62 -349h-583l-29 -163h430l205 -226l-82 -471z" />
    <glyph glyph-name="six" unicode="6" horiz-adv-x="1361" 
d="M252 -20l-207 225l174 983l309 246h826l-62 -349h-590l-71 -61l-19 -102h492l205 -226l-86 -491l-285 -225h-686zM840 532l-49 62h-236l-37 -205l51 -61h174l72 61z" />
    <glyph glyph-name="seven" unicode="7" horiz-adv-x="1157" 
d="M129 1085l61 349h1076l-54 -297l-639 -1137h-450l620 1085h-614z" />
    <glyph glyph-name="eight" unicode="8" horiz-adv-x="1351" 
d="M958 -20h-778l-182 194l78 430l190 154l-112 123l67 379l250 194h717l180 -194l-68 -379l-153 -123l137 -154l-78 -430zM508 328h246l47 41l26 153l-41 51h-225l-61 -51l-27 -153zM676 1106l-49 -41l-21 -113l43 -51h164l59 51l21 113l-33 41h-184z" />
    <glyph glyph-name="nine" unicode="9" horiz-adv-x="1361" 
d="M1157 1454l205 -225l-172 -983l-309 -246h-826l60 348h590l73 62l19 102h-492l-207 225l86 492l287 225h686zM567 901l51 -61h236l35 204l-49 62h-174l-74 -62z" />
    <glyph glyph-name="colon" unicode=":" horiz-adv-x="593" 
d="M389 0h-389l59 348h390zM510 696h-389l59 348h389z" />
    <glyph glyph-name="semicolon" unicode=";" horiz-adv-x="593" 
d="M-10 -174l143 174h-133l59 348h390l-60 -348l-268 -297zM510 696h-389l59 348h389z" />
    <glyph glyph-name="less" unicode="&#x3c;" horiz-adv-x="860" 
d="M434 -82l-405 604l618 604l201 -256l-359 -348l236 -348z" />
    <glyph glyph-name="equal" unicode="=" horiz-adv-x="1054" 
d="M133 758l57 327h850l-57 -327h-850zM43 246l57 327h850l-57 -327h-850z" />
    <glyph glyph-name="greater" unicode="&#x3e;" horiz-adv-x="860" 
d="M401 1126l406 -604l-619 -604l-200 256l358 348l-235 348z" />
    <glyph glyph-name="question" unicode="?" horiz-adv-x="1187" 
d="M709 891l49 41l18 112l-33 41h-614l61 349h840l215 -236l-71 -399l-297 -236h-205l-13 -71h-389l58 327l94 72h287zM573 0h-389l60 348h389z" />
    <glyph glyph-name="at" unicode="@" horiz-adv-x="1863" 
d="M610 1495h983l275 -307l-119 -666l-262 -215h-318l-67 82l-96 -82h-308l-129 144l90 512l181 143h542l-94 -533l33 -41h63l60 52l84 481l-162 184h-616l-226 -184l-127 -717l164 -184h737l-45 -246h-921l-273 307l170 963zM874 553l17 -21h41l49 41l53 308h-82l-22 -21z
" />
    <glyph glyph-name="A" unicode="A" 
d="M899 287h-410l-141 -287h-450l712 1434h574l209 -1434h-451zM811 952l-147 -317h184z" />
    <glyph glyph-name="B" unicode="B" horiz-adv-x="1464" 
d="M1249 758l146 -164l-60 -338l-321 -256h-973l252 1434h911l232 -256l-56 -318zM868 348l50 41l18 103l-70 71h-286l-39 -215h327zM971 1044l-33 41h-266l-35 -194h246l71 51z" />
    <glyph glyph-name="C" unicode="C" horiz-adv-x="1290" 
d="M1176 348l-60 -348h-840l-223 246l166 942l309 246h840l-61 -349h-625l-49 -41l-115 -655l33 -41h625z" />
    <glyph glyph-name="D" unicode="D" 
d="M41 0l252 1434h973l223 -246l-166 -942l-309 -246h-973zM541 348h317l49 41l115 655l-33 41h-317z" />
    <glyph glyph-name="E" unicode="E" horiz-adv-x="1300" 
d="M293 1434h1085l-61 -349h-645l-37 -204h461l-58 -328h-460l-37 -205h665l-59 -348h-1106z" />
    <glyph glyph-name="F" unicode="F" horiz-adv-x="1269" 
d="M293 1434h1096l-62 -349h-655l-43 -245h461l-62 -348h-461l-86 -492h-440z" />
    <glyph glyph-name="G" unicode="G" horiz-adv-x="1474" 
d="M928 389l33 184h-185l58 328h604l-115 -655l-309 -246h-738l-223 246l166 942l309 246h891l-61 -349h-676l-49 -41l-115 -655l33 -41h328z" />
    <glyph glyph-name="H" unicode="H" horiz-adv-x="1505" 
d="M575 543l-94 -543h-440l252 1434h440l-96 -543h338l96 543h440l-251 -1434h-441l94 543h-338z" />
    <glyph glyph-name="I" unicode="I" horiz-adv-x="1054" 
d="M870 0h-890l59 348h225l131 737h-225l61 349h891l-61 -349h-225l-131 -737h225z" />
    <glyph glyph-name="J" unicode="J" horiz-adv-x="1095" 
d="M477 389l185 1045h440l-209 -1188l-309 -246h-666l59 348h451z" />
    <glyph glyph-name="K" unicode="K" horiz-adv-x="1413" 
d="M575 543l-94 -543h-440l252 1434h440l-96 -543h31l403 543h471l-532 -697l321 -737h-471l-223 543h-62z" />
    <glyph glyph-name="L" unicode="L" horiz-adv-x="1228" 
d="M293 1434h440l-192 -1086h604l-60 -348h-1044z" />
    <glyph glyph-name="M" unicode="M" horiz-adv-x="1792" 
d="M961 287h-236l-121 358h-10l-113 -645h-440l252 1434h440l205 -584h10l410 584h440l-252 -1434h-440l113 645h-11z" />
    <glyph glyph-name="N" unicode="N" horiz-adv-x="1556" 
d="M1008 778l114 656h441l-252 -1434h-430l-275 655h-10l-115 -655h-440l252 1434h432l272 -656h11z" />
    <glyph glyph-name="O" unicode="O" 
d="M686 1106l-49 -41l-123 -696l35 -41h307l47 41l123 696l-33 41h-307zM532 1454h738l223 -246l-174 -983l-309 -245h-738l-223 245l174 983z" />
    <glyph glyph-name="P" unicode="P" horiz-adv-x="1433" 
d="M1069 379h-522l-66 -379h-440l252 1434h962l207 -226l-106 -604zM991 1044l-33 41h-286l-64 -358h287l49 41z" />
    <glyph glyph-name="Q" unicode="Q" 
d="M532 1454h738l223 -246l-174 -983l-215 -174l115 -276h-400l-86 205h-461l-223 245l174 983zM686 1106l-49 -41l-123 -696l35 -41h307l47 41l123 696l-33 41h-307z" />
    <glyph glyph-name="R" unicode="R" horiz-adv-x="1433" 
d="M860 0l-162 420h-143l-74 -420h-440l252 1434h942l207 -226l-92 -512l-236 -184l197 -512h-451zM971 1044l-33 41h-266l-56 -317h267l47 41z" />
    <glyph glyph-name="S" unicode="S" horiz-adv-x="1361" 
d="M324 563l-207 225l76 420l284 226h891l-61 -349h-656l-49 -41l-16 -92l35 -41h481l207 -225l-82 -461l-285 -225h-952l59 348h717l49 41l23 133l-33 41h-481z" />
    <glyph glyph-name="T" unicode="T" horiz-adv-x="1198" 
d="M717 0h-441l191 1085h-338l61 349h1117l-62 -349h-338z" />
    <glyph glyph-name="U" unicode="U" horiz-adv-x="1515" 
d="M893 369l188 1065h441l-213 -1209l-310 -245h-696l-223 245l213 1209h440l-188 -1065l35 -41h266z" />
    <glyph glyph-name="V" unicode="V" horiz-adv-x="1464" 
d="M901 0h-543l-208 1434h450l113 -932h10l440 932h451z" />
    <glyph glyph-name="W" unicode="W" horiz-adv-x="1996" 
d="M1409 1434l-25 -840h11l291 840h440l-559 -1434h-553l24 778h-10l-250 -778h-553l-55 1434h440l-4 -840h10l271 840h522z" />
    <glyph glyph-name="X" unicode="X" horiz-adv-x="1402" 
d="M680 430h-10l-342 -430h-451l578 727l-295 707h450l166 -400h10l306 400h450l-545 -707l324 -727h-451z" />
    <glyph glyph-name="Y" unicode="Y" horiz-adv-x="1320" 
d="M778 0h-440l74 420l-283 1014h451l131 -533h10l319 533h451l-639 -1014z" />
    <glyph glyph-name="Z" unicode="Z" horiz-adv-x="1269" 
d="M1106 0h-1147l59 338l746 747h-594l61 349h1106l-59 -338l-748 -748h635z" />
    <glyph glyph-name="bracketleft" unicode="[" horiz-adv-x="870" 
d="M633 -410h-666l348 1966h666l-61 -348h-226l-225 -1269h225z" />
    <glyph glyph-name="backslash" unicode="\" horiz-adv-x="1136" 
d="M635 0l-485 1434h399l485 -1434h-399z" />
    <glyph glyph-name="bracketright" unicode="]" horiz-adv-x="870" 
d="M233 1556h666l-348 -1966h-664l60 349h225l225 1269h-225z" />
    <glyph glyph-name="asciicircum" unicode="^" horiz-adv-x="849" 
d="M733 1434l166 -451h-358l-23 102h-10l-59 -102h-359l326 451h317z" />
    <glyph glyph-name="underscore" unicode="_" horiz-adv-x="778" 
d="M-174 -410l55 308h776l-55 -308h-776z" />
    <glyph glyph-name="grave" unicode="`" horiz-adv-x="686" 
d="M211 1434h420l78 -369h-318z" />
    <glyph glyph-name="a" unicode="a" horiz-adv-x="1146" 
d="M578 82l-97 -82h-327l-166 174l51 287l262 205h348l10 61l-32 41h-410l47 276h625l190 -204l-147 -840h-328zM586 307l16 92h-133l-49 -41l-8 -51l32 -41h82z" />
    <glyph glyph-name="b" unicode="b" horiz-adv-x="1187" 
d="M758 0h-727l252 1434h399l-70 -390h328l199 -215l-109 -614zM596 307l57 41l62 348l-43 41h-113l-76 -430h113z" />
    <glyph glyph-name="c" unicode="c" horiz-adv-x="983" 
d="M449 348l45 -41h378l-53 -307h-594l-198 215l108 614l273 215h593l-53 -307h-379l-59 -41z" />
    <glyph glyph-name="d" unicode="d" horiz-adv-x="1187" 
d="M502 0h-277l-198 215l108 614l273 215h327l70 390h399l-252 -1434h-327l-27 82zM449 348l45 -41h61l57 41l70 389h-113l-59 -41z" />
    <glyph glyph-name="e" unicode="e" horiz-adv-x="1095" 
d="M412 1065h450l199 -215l-84 -471h-522l-11 -62l43 -41h400l-47 -276h-615l-198 215l112 635zM520 748l-18 -103h143l19 103l-46 40h-40z" />
    <glyph glyph-name="f" unicode="f" horiz-adv-x="788" 
d="M55 666l54 307h102l43 246l274 215h461l-55 -308h-246l-57 -41l-21 -112h205l-53 -307h-205l-117 -666h-399l117 666h-103z" />
    <glyph glyph-name="g" unicode="g" horiz-adv-x="1167" 
d="M569 737l-59 -41l-57 -327l45 -41h102l72 409h-103zM530 -61l15 81h-318l-196 216l104 593l273 215h716l-217 -1239l-274 -215h-625l55 308h410z" />
    <glyph glyph-name="h" unicode="h" horiz-adv-x="1198" 
d="M283 1434h399l-70 -390h338l183 -194l-150 -850h-399l121 696l-43 41h-103l-129 -737h-399z" />
    <glyph glyph-name="i" unicode="i" horiz-adv-x="645" 
d="M203 1044h399l-182 -1044h-400zM633 1208h-400l58 328h399z" />
    <glyph glyph-name="j" unicode="j" horiz-adv-x="645" 
d="M-49 -102l57 41l195 1105h399l-217 -1239l-274 -215h-408l55 308h193zM633 1208h-400l56 318h399z" />
    <glyph glyph-name="k" unicode="k" horiz-adv-x="1187" 
d="M1106 0h-430l-137 389h-41l-68 -389h-399l252 1434h399l-131 -738h31l256 348h430l-375 -501z" />
    <glyph glyph-name="l" unicode="l" horiz-adv-x="686" 
d="M461 0h-400l197 1126h-113l56 308h512z" />
    <glyph glyph-name="m" unicode="m" horiz-adv-x="1761" 
d="M530 1044l27 -81l96 81h277l104 -112h10l142 112h327l183 -194l-150 -850h-399l121 696l-43 41h-62l-59 -41l-121 -696h-399l121 696l-43 41h-62l-59 -41l-121 -696h-400l183 1044h327z" />
    <glyph glyph-name="n" unicode="n" horiz-adv-x="1198" 
d="M530 1044l27 -81l96 81h297l183 -194l-150 -850h-399l121 696l-43 41h-62l-59 -41l-121 -696h-400l183 1044h327z" />
    <glyph glyph-name="o" unicode="o" horiz-adv-x="1157" 
d="M139 850l273 215h501l199 -215l-117 -655l-272 -215h-502l-198 215zM688 717l-43 41h-72l-59 -41l-68 -389l43 -41h72l60 41z" />
    <glyph glyph-name="p" unicode="p" horiz-adv-x="1177" 
d="M653 1044h277l198 -215l-108 -614l-272 -215h-328l-74 -410h-399l256 1454h327l27 -81zM705 696l-43 41h-62l-59 -41l-68 -389h113l57 41z" />
    <glyph glyph-name="q" unicode="q" horiz-adv-x="1177" 
d="M408 1044h727l-256 -1454h-400l74 410h-328l-198 215l108 614zM569 737l-59 -41l-61 -348l45 -41h112l76 430h-113z" />
    <glyph glyph-name="r" unicode="r" horiz-adv-x="870" 
d="M530 1044l27 -81l96 81h277l-53 -307h-277l-59 -41l-121 -696h-400l183 1044h327z" />
    <glyph glyph-name="s" unicode="s" horiz-adv-x="1034" 
d="M516 666h287l164 -174l-58 -318l-223 -174h-717l47 276h471l48 31l8 51l-35 31h-287l-164 174l54 307l225 174h665l-47 -276h-419l-48 -31l-8 -41z" />
    <glyph glyph-name="t" unicode="t" horiz-adv-x="819" 
d="M68 737l53 307h102l45 246h400l-45 -246h163l-53 -307h-164l-69 -389l45 -41h184l-53 -307h-400l-198 215l92 522h-102z" />
    <glyph glyph-name="u" unicode="u" horiz-adv-x="1208" 
d="M655 0l-26 82l-97 -82h-296l-183 195l150 849h399l-123 -696l45 -41h62l57 41l123 696h399l-182 -1044h-328z" />
    <glyph glyph-name="v" unicode="v" horiz-adv-x="1095" 
d="M655 0h-419l-156 1044h409l33 -573h10l234 573h410z" />
    <glyph glyph-name="w" unicode="w" horiz-adv-x="1587" 
d="M1073 1044l-20 -532h10l174 532h410l-387 -1044h-492l20 532h-10l-164 -532h-491l-23 1044h410l-10 -532h10l164 532h399z" />
    <glyph glyph-name="x" unicode="x" horiz-adv-x="1095" 
d="M594 819l151 225h410l-354 -501l203 -543h-431l-79 246h-11l-166 -246h-430l392 543l-179 501h410l74 -225h10z" />
    <glyph glyph-name="y" unicode="y" horiz-adv-x="1198" 
d="M575 20h-317l-197 216l142 808h399l-119 -675l45 -41h103l125 716h399l-217 -1239l-274 -215h-625l55 308h410l57 41z" />
    <glyph glyph-name="z" unicode="z" horiz-adv-x="993" 
d="M954 768l-491 -461h430l-53 -307h-891l47 276l471 461h-369l54 307h849z" />
    <glyph glyph-name="braceleft" unicode="{" horiz-adv-x="890" 
d="M803 1249l-58 -41l-86 -481l-190 -154l137 -153l-86 -481l45 -41h144l-56 -308h-420l-172 185l111 624l-102 113l20 123l143 113l111 624l238 184h419l-55 -307h-143z" />
    <glyph glyph-name="bar" unicode="|" horiz-adv-x="768" 
d="M8 -410l348 1966h400l-348 -1966h-400z" />
    <glyph glyph-name="braceright" unicode="}" horiz-adv-x="890" 
d="M84 -102l57 41l86 481l191 153l-137 154l86 481l-45 41h-144l55 307h420l172 -184l-110 -624l102 -113l-20 -123l-144 -113l-110 -624l-238 -185h-418l54 308h143z" />
    <glyph glyph-name="asciitilde" unicode="~" horiz-adv-x="1259" 
d="M555 1004l227 -216l250 195l185 -287l-484 -368l-229 215l-250 -195l-184 287z" />
    <glyph glyph-name="nbspace" unicode="&#xa0;" horiz-adv-x="471" 
 />
    <glyph glyph-name="exclamdown" unicode="&#xa1;" horiz-adv-x="686" 
d="M-49 -389l104 594l138 368h296l7 -368l-105 -594h-440zM223 1044h400l-62 -348h-399z" />
    <glyph glyph-name="cent" unicode="&#xa2;" horiz-adv-x="993" 
d="M387 -184l33 184h-195l-198 215l108 614l273 215h194l31 164h297l-31 -164h113l-54 -307h-112l-76 -430h113l-54 -307h-112l-33 -184h-297zM408 348l45 -41h20l76 430h-21l-59 -41z" />
    <glyph glyph-name="sterling" unicode="&#xa3;" horiz-adv-x="1218" 
d="M551 348h573l-59 -348h-1126l59 348h72l155 123l19 102h-144l52 297h143l57 318l310 246h532l-61 -349h-318l-49 -41l-31 -174h348l-51 -297h-348l-25 -143z" />
    <glyph glyph-name="currency" unicode="&#xa4;" horiz-adv-x="1536" 
d="M604 184l-31 -184h-440l31 184h-154l45 246h154l16 102h-153l45 246h153l115 656h973l207 -226l-80 -450l-287 -226h-532l-17 -102h533l-45 -246h-533zM1094 1044l-33 41h-297l-53 -307h297l47 41z" />
    <glyph glyph-name="yen" unicode="&#xa5;" horiz-adv-x="1361" 
d="M799 0h-441l31 184h-338l43 236h338l-41 123h-276l43 235h174l-182 656h450l131 -533h10l320 533h450l-411 -656h174l-43 -235h-277l-82 -123h338l-43 -236h-338z" />
    <glyph glyph-name="brokenbar" unicode="&#xa6;" horiz-adv-x="727" 
d="M-12 -410l145 820h399l-145 -820h-399zM735 1556l-145 -819h-400l146 819h399z" />
    <glyph glyph-name="section" unicode="&#xa7;" horiz-adv-x="1249" 
d="M958 973l207 -225l-75 -431l-132 -102l97 -92l-54 -307l-286 -226h-758l57 328h523l49 41l10 61l-33 41h-297l-207 226l76 430l131 102l-96 92l53 297l285 226h706l-57 -328h-491l-50 -41l-8 -51l33 -41h317zM526 440l43 -51h41l60 51l28 154l-43 51h-41l-59 -51z" />
    <glyph glyph-name="dieresis" unicode="&#xa8;" horiz-adv-x="921" 
d="M520 1208h-348l57 328h349zM971 1208h-348l57 328h348z" />
    <glyph glyph-name="copyright" unicode="&#xa9;" horiz-adv-x="1863" 
d="M387 348l164 -184h614l226 184l127 717l-162 184h-615l-227 -184zM1305 -82h-983l-273 307l170 963l381 307h983l275 -307l-170 -963zM1206 512l-37 -205h-460l-129 144l90 512l180 143h461l-37 -205h-277l-47 -41l-55 -307l35 -41h276z" />
    <glyph glyph-name="ordfeminine" unicode="&#xaa;" horiz-adv-x="808" 
d="M520 922l8 51h-92l-24 -31l-9 -41l17 -20h51zM508 737l-82 -61h-205l-123 123l43 245l166 123h256l6 39l-16 23h-317l36 205h461l139 -144l-108 -614h-246z" />
    <glyph glyph-name="guillemotleft" unicode="&#xab;" horiz-adv-x="1239" 
d="M338 -51l-309 563l508 563l188 -205l-328 -358l203 -358zM840 -51l-310 563l508 563l189 -205l-328 -358l203 -358z" />
    <glyph glyph-name="logicalnot" unicode="&#xac;" horiz-adv-x="1095" 
d="M74 543l61 348h912l-105 -594h-369l43 246h-542z" />
    <glyph glyph-name="uni00AD" unicode="&#xad;" horiz-adv-x="993" 
d="M94 543l62 348h788l-61 -348h-789z" />
    <glyph glyph-name="registered" unicode="&#xae;" horiz-adv-x="1863" 
d="M975 307l-84 225h-21l-39 -225h-296l141 799h551l129 -143l-47 -267l-129 -102l102 -287h-307zM1008 901h-72l-29 -164h72l49 41l14 82zM387 348l164 -184h614l226 184l127 717l-162 184h-615l-227 -184zM1305 -82h-983l-273 307l170 963l381 307h983l275 -307l-170 -963
z" />
    <glyph glyph-name="macron" unicode="&#xaf;" horiz-adv-x="778" 
d="M215 1229l51 287h574l-52 -287h-573z" />
    <glyph glyph-name="degree" unicode="&#xb0;" horiz-adv-x="798" 
d="M438 983l8 -10h41l13 10l41 225l-11 11h-41l-10 -11zM135 891l72 409l203 154h284l148 -154l-72 -409l-203 -154h-284z" />
    <glyph glyph-name="plusminus" unicode="&#xb1;" horiz-adv-x="1105" 
d="M0 0l59 348h902l-60 -348h-901zM111 748l61 348h297l55 317h348l-55 -317h297l-61 -348h-297l-54 -297h-348l54 297h-297z" />
    <glyph glyph-name="twosuperior" unicode="&#xb2;" horiz-adv-x="716" 
d="M381 952h328l-33 -194h-584l53 307l144 113h184l35 20l2 21l-27 20h-286l34 195h471l86 -93l-40 -235l-132 -102h-194l-37 -31z" />
    <glyph glyph-name="threesuperior" unicode="&#xb3;" horiz-adv-x="696" 
d="M442 1178l37 30v11l-16 20h-277l35 195h451l86 -93l-29 -163l-104 -72l86 -92l-29 -164l-119 -92h-471l33 194h297l24 21l3 10l-17 21h-164l31 174h143z" />
    <glyph glyph-name="acute" unicode="&#xb4;" horiz-adv-x="686" 
d="M377 1556h420l-312 -368h-317z" />
    <glyph glyph-name="mu" unicode="&#xb5;" horiz-adv-x="1239" 
d="M430 61l-84 -471h-399l256 1454h399l-123 -696l45 -41h92l58 41l123 696h399l-182 -1044h-328l-27 82l-96 -82h-71l-52 61h-10z" />
    <glyph glyph-name="paragraph" unicode="&#xb6;" horiz-adv-x="1474" 
d="M475 430h-153l-207 225l98 553l285 226h471l-326 -1844h-317zM1122 1434h318l-326 -1844h-317z" />
    <glyph glyph-name="periodcentered" unicode="&#xb7;" horiz-adv-x="471" 
d="M420 532h-389l59 349h389z" />
    <glyph glyph-name="cedilla" unicode="&#xb8;" horiz-adv-x="552" 
d="M-20 0h204l-12 -61h61l123 -123l-34 -195l-166 -123h-285l31 185h143l47 30l4 21l-37 30h-122z" />
    <glyph glyph-name="onesuperior" unicode="&#xb9;" horiz-adv-x="583" 
d="M553 758h-461l33 194h102l52 287h-103l35 195h358l-86 -482h103z" />
    <glyph glyph-name="ordmasculine" unicode="&#xba;" horiz-adv-x="808" 
d="M186 1290l189 144h358l139 -144l-84 -471l-188 -143h-358l-140 143zM567 1188l-16 20h-72l-24 -20l-47 -266l16 -21h72l24 21z" />
    <glyph glyph-name="guillemotright" unicode="&#xbb;" horiz-adv-x="1239" 
d="M874 1075l312 -563l-510 -563l-189 205l330 358l-205 358zM373 1075l311 -563l-510 -563l-188 205l329 358l-204 358z" />
    <glyph glyph-name="onequarter" unicode="&#xbc;" horiz-adv-x="1599" 
d="M1450 1434l-969 -1434h-307l969 1434h307zM553 758h-461l33 194h102l52 287h-103l35 195h358l-86 -482h103zM1126 0l19 102h-328l31 174l326 400h327l-67 -379h71l-32 -195h-72l-19 -102h-256zM1178 297l22 123h-10l-94 -123h82z" />
    <glyph glyph-name="onehalf" unicode="&#xbd;" horiz-adv-x="1648" 
d="M1450 1434l-969 -1434h-307l969 1434h307zM553 758h-461l33 194h102l52 287h-103l35 195h358l-86 -482h103zM1178 195h327l-32 -195h-584l53 307l143 113h185l35 20l2 21l-27 20h-287l35 195h471l86 -92l-41 -236l-131 -102h-194l-37 -31z" />
    <glyph glyph-name="threequarters" unicode="&#xbe;" horiz-adv-x="1681" 
d="M1532 1434l-969 -1434h-307l969 1434h307zM463 1178l37 30v11l-17 20h-276l35 195h450l86 -93l-28 -163l-105 -72l86 -92l-29 -164l-118 -92h-471l32 194h297l25 21l2 10l-16 21h-164l30 174h144zM1208 0l19 102h-328l31 174l325 400h328l-67 -379h71l-33 -195h-71
l-19 -102h-256zM1260 297l22 123h-10l-94 -123h82z" />
    <glyph glyph-name="questiondown" unicode="&#xbf;" horiz-adv-x="1187" 
d="M457 154l-49 -41l-19 -113l33 -41h614l-61 -348h-840l-215 235l72 400l297 235h205l12 72h389l-57 -328l-95 -71h-286zM592 1044h389l-61 -348h-390z" />
    <glyph glyph-name="Agrave" unicode="&#xc0;" 
d="M899 287h-410l-141 -287h-450l712 1434h574l209 -1434h-451zM811 952l-147 -317h184zM580 1905h419l91 -308h-318z" />
    <glyph glyph-name="Aacute" unicode="&#xc1;" 
d="M899 287h-410l-141 -287h-450l712 1434h574l209 -1434h-451zM811 952l-147 -317h184zM969 1905h420l-299 -308h-318z" />
    <glyph glyph-name="Acircumflex" unicode="&#xc2;" 
d="M899 287h-410l-141 -287h-450l712 1434h574l209 -1434h-451zM811 952l-147 -317h184zM811 1905h338l162 -308h-328l-37 82h-10l-66 -82h-327z" />
    <glyph glyph-name="Atilde" unicode="&#xc3;" 
d="M899 287h-410l-141 -287h-450l712 1434h574l209 -1434h-451zM811 952l-147 -317h184zM831 1638l-157 -71l-101 235l312 144l190 -82l156 71l102 -235l-311 -144z" />
    <glyph glyph-name="Adieresis" unicode="&#xc4;" 
d="M899 287h-410l-141 -287h-450l712 1434h574l209 -1434h-451zM811 952l-147 -317h184zM877 1608h-349l52 286h348zM1327 1608h-348l51 286h348z" />
    <glyph glyph-name="Aring" unicode="&#xc5;" 
d="M899 287h-410l-141 -287h-450l712 1434h574l209 -1434h-451zM811 952l-147 -317h184zM887 1720l16 -20h82l25 20l10 62l-16 20h-82l-25 -22zM647 1649l37 204l166 123h287l120 -123l-36 -204l-164 -123h-287z" />
    <glyph glyph-name="AE" unicode="&#xc6;" horiz-adv-x="1986" 
d="M1833 0h-1065l49 287h-358l-121 -287h-440l620 1434h1546l-61 -349h-604l-37 -204h420l-58 -328h-419l-37 -205h624zM958 1085h-153l-193 -450h267z" />
    <glyph glyph-name="Ccedilla" unicode="&#xc7;" horiz-adv-x="1290" 
d="M532 0h-256l-223 246l166 942l309 246h840l-61 -349h-625l-49 -41l-115 -655l33 -41h625l-60 -348h-379l-12 -61h61l123 -123l-35 -195l-165 -123h-287l33 185h143l47 30l4 21l-37 30h-123z" />
    <glyph glyph-name="Egrave" unicode="&#xc8;" horiz-adv-x="1300" 
d="M293 1434h1085l-61 -349h-645l-37 -204h461l-58 -328h-460l-37 -205h665l-59 -348h-1106zM508 1905h420l90 -308h-318z" />
    <glyph glyph-name="Eacute" unicode="&#xc9;" horiz-adv-x="1300" 
d="M293 1434h1085l-61 -349h-645l-37 -204h461l-58 -328h-460l-37 -205h665l-59 -348h-1106zM907 1905h420l-299 -308h-317z" />
    <glyph glyph-name="Ecircumflex" unicode="&#xca;" horiz-adv-x="1300" 
d="M293 1434h1085l-61 -349h-645l-37 -204h461l-58 -328h-460l-37 -205h665l-59 -348h-1106zM760 1905h338l162 -308h-328l-37 82h-10l-66 -82h-327z" />
    <glyph glyph-name="Edieresis" unicode="&#xcb;" horiz-adv-x="1300" 
d="M293 1434h1085l-61 -349h-645l-37 -204h461l-58 -328h-460l-37 -205h665l-59 -348h-1106zM825 1608h-348l51 286h349zM1276 1608h-348l51 286h348z" />
    <glyph glyph-name="Igrave" unicode="&#xcc;" horiz-adv-x="1054" 
d="M870 0h-890l59 348h225l131 737h-225l61 349h891l-61 -349h-225l-131 -737h225zM365 1905h419l90 -308h-317z" />
    <glyph glyph-name="Iacute" unicode="&#xcd;" horiz-adv-x="1054" 
d="M870 0h-890l59 348h225l131 737h-225l61 349h891l-61 -349h-225l-131 -737h225zM754 1905h420l-300 -308h-317z" />
    <glyph glyph-name="Icircumflex" unicode="&#xce;" horiz-adv-x="1054" 
d="M870 0h-890l59 348h225l131 737h-225l61 349h891l-61 -349h-225l-131 -737h225zM590 1905h338l162 -308h-328l-37 82h-10l-66 -82h-327z" />
    <glyph glyph-name="Idieresis" unicode="&#xcf;" horiz-adv-x="1054" 
d="M870 0h-890l59 348h225l131 737h-225l61 349h891l-61 -349h-225l-131 -737h225zM655 1608h-348l51 286h349zM1106 1608h-348l51 286h348z" />
    <glyph glyph-name="Eth" unicode="&#xd0;" horiz-adv-x="1536" 
d="M82 0l94 543h-143l61 348h144l96 543h973l223 -246l-166 -942l-309 -246h-973zM582 348h317l49 41l115 655l-33 41h-317l-35 -194h184l-61 -348h-185z" />
    <glyph glyph-name="Ntilde" unicode="&#xd1;" horiz-adv-x="1556" 
d="M1008 778l114 656h441l-252 -1434h-430l-275 655h-10l-115 -655h-440l252 1434h432l272 -656h11zM862 1638l-157 -71l-101 235l311 144l191 -82l156 71l102 -235l-311 -144z" />
    <glyph glyph-name="Ograve" unicode="&#xd2;" 
d="M686 1106l-49 -41l-123 -696l35 -41h307l47 41l123 696l-33 41h-307zM532 1454h738l223 -246l-174 -983l-309 -245h-738l-223 245l174 983zM569 1905h420l90 -308h-317z" />
    <glyph glyph-name="Oacute" unicode="&#xd3;" 
d="M686 1106l-49 -41l-123 -696l35 -41h307l47 41l123 696l-33 41h-307zM532 1454h738l223 -246l-174 -983l-309 -245h-738l-223 245l174 983zM969 1905h420l-299 -308h-318z" />
    <glyph glyph-name="Ocircumflex" unicode="&#xd4;" 
d="M686 1106l-49 -41l-123 -696l35 -41h307l47 41l123 696l-33 41h-307zM532 1454h738l223 -246l-174 -983l-309 -245h-738l-223 245l174 983zM811 1905h338l162 -308h-328l-37 82h-10l-66 -82h-327z" />
    <glyph glyph-name="Otilde" unicode="&#xd5;" 
d="M686 1106l-49 -41l-123 -696l35 -41h307l47 41l123 696l-33 41h-307zM532 1454h738l223 -246l-174 -983l-309 -245h-738l-223 245l174 983zM831 1638l-157 -71l-101 235l312 144l190 -82l156 71l102 -235l-311 -144z" />
    <glyph glyph-name="Odieresis" unicode="&#xd6;" 
d="M686 1106l-49 -41l-123 -696l35 -41h307l47 41l123 696l-33 41h-307zM532 1454h738l223 -246l-174 -983l-309 -245h-738l-223 245l174 983zM877 1608h-349l52 286h348zM1327 1608h-348l51 286h348z" />
    <glyph glyph-name="multiply" unicode="&#xd7;" horiz-adv-x="1126" 
d="M350 717l-198 266l278 246l199 -266l293 266l192 -246l-293 -266l199 -266l-279 -246l-198 266l-293 -266l-193 246z" />
    <glyph glyph-name="Oslash" unicode="&#xd8;" 
d="M532 1454h738l41 -51l51 51h287l-199 -194l43 -52l-174 -983l-309 -245h-738l-43 51l-49 -51h-284l194 194l-41 51l174 983zM856 328l47 41l74 409l-449 -450h328zM686 1106l-49 -41l-72 -410l449 451h-328z" />
    <glyph glyph-name="Ugrave" unicode="&#xd9;" horiz-adv-x="1515" 
d="M893 369l188 1065h441l-213 -1209l-310 -245h-696l-223 245l213 1209h440l-188 -1065l35 -41h266zM580 1905h419l91 -308h-318z" />
    <glyph glyph-name="Uacute" unicode="&#xda;" horiz-adv-x="1515" 
d="M893 369l188 1065h441l-213 -1209l-310 -245h-696l-223 245l213 1209h440l-188 -1065l35 -41h266zM979 1905h420l-299 -308h-318z" />
    <glyph glyph-name="Ucircumflex" unicode="&#xdb;" horiz-adv-x="1515" 
d="M893 369l188 1065h441l-213 -1209l-310 -245h-696l-223 245l213 1209h440l-188 -1065l35 -41h266zM821 1905h338l162 -308h-328l-37 82h-10l-65 -82h-328z" />
    <glyph glyph-name="Udieresis" unicode="&#xdc;" horiz-adv-x="1515" 
d="M893 369l188 1065h441l-213 -1209l-310 -245h-696l-223 245l213 1209h440l-188 -1065l35 -41h266zM887 1608h-348l51 286h348zM1337 1608h-348l51 286h349z" />
    <glyph glyph-name="Yacute" unicode="&#xdd;" horiz-adv-x="1320" 
d="M778 0h-440l74 420l-283 1014h451l131 -533h10l319 533h451l-639 -1014zM887 1905h420l-299 -308h-318z" />
    <glyph glyph-name="Thorn" unicode="&#xde;" horiz-adv-x="1443" 
d="M1036 195h-522l-33 -195h-440l252 1434h440l-33 -185h523l207 -225l-107 -604zM961 860l-35 41h-287l-64 -358h287l49 41z" />
    <glyph glyph-name="germandbls" unicode="&#xdf;" horiz-adv-x="1218" 
d="M31 0l217 1239l274 215h482l196 -215l-55 -317l-119 -93l129 -143l-84 -471l-272 -215h-297l53 307h82l57 41l45 246l-45 41h-82l56 307h30l58 41l22 123l-45 41h-51l-57 -41l-195 -1106h-399z" />
    <glyph glyph-name="agrave" unicode="&#xe0;" horiz-adv-x="1146" 
d="M578 82l-97 -82h-327l-166 174l51 287l262 205h348l10 61l-32 41h-410l47 276h625l190 -204l-147 -840h-328zM586 307l16 92h-133l-49 -41l-8 -51l32 -41h82zM303 1556h420l78 -368h-318z" />
    <glyph glyph-name="aacute" unicode="&#xe1;" horiz-adv-x="1146" 
d="M578 82l-97 -82h-327l-166 174l51 287l262 205h348l10 61l-32 41h-410l47 276h625l190 -204l-147 -840h-328zM586 307l16 92h-133l-49 -41l-8 -51l32 -41h82zM664 1556h419l-311 -368h-317z" />
    <glyph glyph-name="acircumflex" unicode="&#xe2;" horiz-adv-x="1146" 
d="M578 82l-97 -82h-327l-166 174l51 287l262 205h348l10 61l-32 41h-410l47 276h625l190 -204l-147 -840h-328zM586 307l16 92h-133l-49 -41l-8 -51l32 -41h82zM578 1556h337l150 -368h-328l-30 123h-11l-71 -123h-328z" />
    <glyph glyph-name="atilde" unicode="&#xe3;" horiz-adv-x="1146" 
d="M578 82l-97 -82h-327l-166 174l51 287l262 205h348l10 61l-32 41h-410l47 276h625l190 -204l-147 -840h-328zM586 307l16 92h-133l-49 -41l-8 -51l32 -41h82zM590 1260l-162 -103l-102 236l323 204l185 -112l161 102l103 -235l-324 -205z" />
    <glyph glyph-name="adieresis" unicode="&#xe4;" horiz-adv-x="1146" 
d="M578 82l-97 -82h-327l-166 174l51 287l262 205h348l10 61l-32 41h-410l47 276h625l190 -204l-147 -840h-328zM586 307l16 92h-133l-49 -41l-8 -51l32 -41h82zM633 1208h-348l57 328h348zM1083 1208h-348l58 328h348z" />
    <glyph glyph-name="aring" unicode="&#xe5;" horiz-adv-x="1146" 
d="M578 82l-97 -82h-327l-166 174l51 287l262 205h348l10 61l-32 41h-410l47 276h625l190 -204l-147 -840h-328zM586 307l16 92h-133l-49 -41l-8 -51l32 -41h82zM651 1372l25 -31h61l37 31l10 64l-24 28h-62l-36 -30zM408 1270l47 266l163 123h287l123 -123l-47 -266
l-166 -123h-287z" />
    <glyph glyph-name="ae" unicode="&#xe6;" horiz-adv-x="1638" 
d="M752 82l-97 -82h-501l-166 174l51 287l262 205h348l10 61l-32 41h-410l47 276h604l62 -61l106 82h369l199 -215l-84 -471h-523l-10 -62l43 -41h400l-48 -276h-553zM586 307l16 92h-133l-49 -41l-8 -51l32 -41h82zM1063 748l-19 -103h144l18 103l-45 40h-41z" />
    <glyph glyph-name="ccedilla" unicode="&#xe7;" horiz-adv-x="983" 
d="M358 0h-133l-198 215l108 614l273 215h593l-53 -307h-379l-59 -41l-61 -348l45 -41h378l-53 -307h-256l-12 -61h61l123 -123l-35 -195l-165 -123h-287l33 185h143l47 30l4 21l-37 30h-123z" />
    <glyph glyph-name="egrave" unicode="&#xe8;" horiz-adv-x="1095" 
d="M412 1065h450l199 -215l-84 -471h-522l-11 -62l43 -41h400l-47 -276h-615l-198 215l112 635zM520 748l-18 -103h143l19 103l-46 40h-40zM313 1556h420l78 -368h-317z" />
    <glyph glyph-name="eacute" unicode="&#xe9;" horiz-adv-x="1095" 
d="M412 1065h450l199 -215l-84 -471h-522l-11 -62l43 -41h400l-47 -276h-615l-198 215l112 635zM520 748l-18 -103h143l19 103l-46 40h-40zM705 1556h419l-311 -368h-317z" />
    <glyph glyph-name="ecircumflex" unicode="&#xea;" horiz-adv-x="1095" 
d="M412 1065h450l199 -215l-84 -471h-522l-11 -62l43 -41h400l-47 -276h-615l-198 215l112 635zM520 748l-18 -103h143l19 103l-46 40h-40zM557 1556h338l149 -368h-327l-31 123h-10l-72 -123h-328z" />
    <glyph glyph-name="edieresis" unicode="&#xeb;" horiz-adv-x="1095" 
d="M412 1065h450l199 -215l-84 -471h-522l-11 -62l43 -41h400l-47 -276h-615l-198 215l112 635zM520 748l-18 -103h143l19 103l-46 40h-40zM612 1208h-348l58 328h348zM1063 1208h-348l57 328h348z" />
    <glyph glyph-name="igrave" unicode="&#xec;" horiz-adv-x="645" 
d="M203 1044h399l-182 -1044h-400zM90 1556h420l78 -368h-318z" />
    <glyph glyph-name="iacute" unicode="&#xed;" horiz-adv-x="645" 
d="M203 1044h399l-182 -1044h-400zM479 1556h420l-311 -368h-318z" />
    <glyph glyph-name="icircumflex" unicode="&#xee;" horiz-adv-x="645" 
d="M203 1044h399l-182 -1044h-400zM326 1556h338l149 -368h-328l-30 123h-11l-71 -123h-328z" />
    <glyph glyph-name="idieresis" unicode="&#xef;" horiz-adv-x="655" 
d="M209 1044h399l-182 -1044h-399zM387 1208h-348l57 328h348zM838 1208h-349l58 328h348z" />
    <glyph glyph-name="eth" unicode="&#xf0;" horiz-adv-x="1136" 
d="M483 1290l-47 144h379l47 -144h266l-51 -286h-112l100 -297l-90 -512l-273 -215h-501l-199 215l84 471l272 215h267l-39 123h-267l52 286h112zM520 573l-59 -41l-35 -204l43 -41h72l59 41l43 245h-123z" />
    <glyph glyph-name="ntilde" unicode="&#xf1;" horiz-adv-x="1198" 
d="M530 1044l27 -81l96 81h297l183 -194l-150 -850h-399l121 696l-43 41h-62l-59 -41l-121 -696h-400l183 1044h327zM621 1260l-162 -103l-103 236l324 204l184 -112l162 102l102 -235l-323 -205z" />
    <glyph glyph-name="ograve" unicode="&#xf2;" horiz-adv-x="1157" 
d="M139 850l273 215h501l199 -215l-117 -655l-272 -215h-502l-198 215zM688 717l-43 41h-72l-59 -41l-68 -389l43 -41h72l60 41zM344 1556h420l78 -368h-318z" />
    <glyph glyph-name="oacute" unicode="&#xf3;" horiz-adv-x="1157" 
d="M139 850l273 215h501l199 -215l-117 -655l-272 -215h-502l-198 215zM688 717l-43 41h-72l-59 -41l-68 -389l43 -41h72l60 41zM745 1556h420l-311 -368h-317z" />
    <glyph glyph-name="ocircumflex" unicode="&#xf4;" horiz-adv-x="1157" 
d="M139 850l273 215h501l199 -215l-117 -655l-272 -215h-502l-198 215zM688 717l-43 41h-72l-59 -41l-68 -389l43 -41h72l60 41zM582 1556h338l149 -368h-328l-30 123h-11l-71 -123h-328z" />
    <glyph glyph-name="otilde" unicode="&#xf5;" horiz-adv-x="1157" 
d="M139 850l273 215h501l199 -215l-117 -655l-272 -215h-502l-198 215zM688 717l-43 41h-72l-59 -41l-68 -389l43 -41h72l60 41zM594 1260l-162 -103l-102 236l323 204l185 -112l161 102l103 -235l-324 -205z" />
    <glyph glyph-name="odieresis" unicode="&#xf6;" horiz-adv-x="1157" 
d="M139 850l273 215h501l199 -215l-117 -655l-272 -215h-502l-198 215zM688 717l-43 41h-72l-59 -41l-68 -389l43 -41h72l60 41zM637 1208h-348l57 328h348zM1087 1208h-348l58 328h348z" />
    <glyph glyph-name="divide" unicode="&#xf7;" horiz-adv-x="1105" 
d="M78 563l53 307h942l-53 -307h-942zM655 123h-368l55 307h369zM811 1004h-369l54 307h368z" />
    <glyph glyph-name="oslash" unicode="&#xf8;" horiz-adv-x="1157" 
d="M139 850l273 215h501l43 -51l50 51h266l-195 -174l35 -41l-117 -655l-272 -215h-502l-43 51l-49 -51h-264l192 174l-34 41zM561 287l60 41l24 143l-196 -184h112zM514 717l-25 -144l197 185h-113z" />
    <glyph glyph-name="ugrave" unicode="&#xf9;" horiz-adv-x="1208" 
d="M655 0l-26 82l-97 -82h-296l-183 195l150 849h399l-123 -696l45 -41h62l57 41l123 696h399l-182 -1044h-328zM365 1556h419l78 -368h-317z" />
    <glyph glyph-name="uacute" unicode="&#xfa;" horiz-adv-x="1208" 
d="M655 0l-26 82l-97 -82h-296l-183 195l150 849h399l-123 -696l45 -41h62l57 41l123 696h399l-182 -1044h-328zM766 1556h420l-312 -368h-317z" />
    <glyph glyph-name="ucircumflex" unicode="&#xfb;" horiz-adv-x="1208" 
d="M655 0l-26 82l-97 -82h-296l-183 195l150 849h399l-123 -696l45 -41h62l57 41l123 696h399l-182 -1044h-328zM608 1556h338l150 -368h-328l-31 123h-10l-72 -123h-327z" />
    <glyph glyph-name="udieresis" unicode="&#xfc;" horiz-adv-x="1208" 
d="M655 0l-26 82l-97 -82h-296l-183 195l150 849h399l-123 -696l45 -41h62l57 41l123 696h399l-182 -1044h-328zM664 1208h-349l58 328h348zM1114 1208h-348l57 328h348z" />
    <glyph glyph-name="yacute" unicode="&#xfd;" horiz-adv-x="1198" 
d="M575 20h-317l-197 216l142 808h399l-119 -675l45 -41h103l125 716h399l-217 -1239l-274 -215h-625l55 308h410l57 41zM756 1556h420l-312 -368h-317z" />
    <glyph glyph-name="thorn" unicode="&#xfe;" horiz-adv-x="1187" 
d="M612 1044h328l199 -215l-109 -614l-272 -215h-328l-74 -410h-399l326 1844h399zM715 696l-43 41h-113l-76 -430h113l57 41z" />
    <glyph glyph-name="ydieresis" unicode="&#xff;" horiz-adv-x="1198" 
d="M575 20h-317l-197 216l142 808h399l-119 -675l45 -41h103l125 716h399l-217 -1239l-274 -215h-625l55 308h410l57 41zM657 1208h-348l58 328h348zM1108 1208h-348l57 328h348z" />
    <glyph glyph-name="Amacron" unicode="&#x100;" 
d="M899 287h-410l-141 -287h-450l712 1434h574l209 -1434h-451zM811 952l-147 -317h184zM641 1608l51 286h574l-52 -286h-573z" />
    <glyph glyph-name="amacron" unicode="&#x101;" horiz-adv-x="1146" 
d="M578 82l-97 -82h-327l-166 174l51 287l262 205h348l10 61l-32 41h-410l47 276h625l190 -204l-147 -840h-328zM586 307l16 92h-133l-49 -41l-8 -51l32 -41h82zM399 1229l52 287h573l-51 -287h-574z" />
    <glyph glyph-name="Abreve" unicode="&#x102;" 
d="M899 287h-410l-141 -287h-450l712 1434h574l209 -1434h-451zM811 952l-147 -317h184zM1307 1905l-29 -164l-188 -144h-328l-139 144l28 164h267l-9 -52l25 -30h61l37 30l8 52h267z" />
    <glyph glyph-name="abreve" unicode="&#x103;" horiz-adv-x="1146" 
d="M578 82l-97 -82h-327l-166 174l51 287l262 205h348l10 61l-32 41h-410l47 276h625l190 -204l-147 -840h-328zM586 307l16 92h-133l-49 -41l-8 -51l32 -41h82zM1073 1556l-41 -225l-188 -143h-328l-139 143l41 225h266l-20 -112l24 -31h62l36 31l21 112h266z" />
    <glyph glyph-name="Aogonek" unicode="&#x104;" 
d="M1163 -195l-14 -81l43 -41h102l-32 -185h-246l-121 123l37 215l194 164h-184l-43 287h-410l-141 -287h-450l712 1434h574l209 -1434zM811 952l-147 -317h184z" />
    <glyph glyph-name="aogonek" unicode="&#x105;" horiz-adv-x="1146" 
d="M702 -195l-14 -81l43 -41h103l-33 -185h-246l-121 123l37 215l195 164h-62l-26 82l-97 -82h-327l-166 174l51 287l262 205h348l10 61l-32 41h-410l47 276h625l190 -204l-147 -840zM586 307l16 92h-133l-49 -41l-8 -51l32 -41h82z" />
    <glyph glyph-name="Cacute" unicode="&#x106;" horiz-adv-x="1290" 
d="M1176 348l-60 -348h-840l-223 246l166 942l309 246h840l-61 -349h-625l-49 -41l-115 -655l33 -41h625zM969 1905h420l-299 -308h-318z" />
    <glyph glyph-name="cacute" unicode="&#x107;" horiz-adv-x="983" 
d="M449 348l45 -41h378l-53 -307h-594l-198 215l108 614l273 215h593l-53 -307h-379l-59 -41zM745 1556h420l-311 -368h-317z" />
    <glyph glyph-name="Ccircumflex" unicode="&#x108;" horiz-adv-x="1290" 
d="M1176 348l-60 -348h-840l-223 246l166 942l309 246h840l-61 -349h-625l-49 -41l-115 -655l33 -41h625zM811 1905h338l162 -308h-328l-37 82h-10l-66 -82h-327z" />
    <glyph glyph-name="ccircumflex" unicode="&#x109;" horiz-adv-x="983" 
d="M449 348l45 -41h378l-53 -307h-594l-198 215l108 614l273 215h593l-53 -307h-379l-59 -41zM598 1556h338l149 -368h-327l-31 123h-10l-72 -123h-328z" />
    <glyph glyph-name="Ccaron" unicode="&#x10c;" horiz-adv-x="1290" 
d="M1176 348l-60 -348h-840l-223 246l166 942l309 246h840l-61 -349h-625l-49 -41l-115 -655l33 -41h625zM1096 1597h-338l-162 308h328l37 -82h10l65 82h328z" />
    <glyph glyph-name="ccaron" unicode="&#x10d;" horiz-adv-x="983" 
d="M449 348l45 -41h378l-53 -307h-594l-198 215l108 614l273 215h593l-53 -307h-379l-59 -41zM870 1188h-338l-149 368h328l28 -122h11l73 122h328z" />
    <glyph glyph-name="Dcaron" unicode="&#x10e;" 
d="M41 0l252 1434h973l223 -246l-166 -942l-309 -246h-973zM541 348h317l49 41l115 655l-33 41h-317zM1071 1597h-338l-162 308h328l37 -82h10l66 82h327z" />
    <glyph glyph-name="dcaron" unicode="&#x10f;" horiz-adv-x="1484" 
d="M502 0h-277l-198 215l108 614l273 215h327l70 390h399l-252 -1434h-327l-27 82zM449 348l45 -41h61l57 41l70 389h-113l-59 -41zM1214 911l144 174h-133l61 349h389l-61 -349l-268 -297z" />
    <glyph glyph-name="Dcroat" unicode="&#x110;" horiz-adv-x="1536" 
d="M82 0l94 543h-143l61 348h144l96 543h973l223 -246l-166 -942l-309 -246h-973zM582 348h317l49 41l115 655l-33 41h-317l-35 -194h184l-61 -348h-185z" />
    <glyph glyph-name="dcroat" unicode="&#x111;" horiz-adv-x="1208" 
d="M1241 1004h-123l-176 -1004h-328l-26 82l-96 -82h-267l-198 215l86 492l274 215h318l14 82h-168l53 307h168l23 123h399l-23 -123h123zM449 348l45 -41h51l57 41l47 266h-125l-39 -61z" />
    <glyph glyph-name="Emacron" unicode="&#x112;" horiz-adv-x="1300" 
d="M293 1434h1085l-61 -349h-645l-37 -204h461l-58 -328h-460l-37 -205h665l-59 -348h-1106zM590 1608l51 286h573l-51 -286h-573z" />
    <glyph glyph-name="emacron" unicode="&#x113;" horiz-adv-x="1095" 
d="M412 1065h450l199 -215l-84 -471h-522l-11 -62l43 -41h400l-47 -276h-615l-198 215l112 635zM520 748l-18 -103h143l19 103l-46 40h-40zM379 1229l51 287h574l-52 -287h-573z" />
    <glyph glyph-name="Edotaccent" unicode="&#x116;" horiz-adv-x="1300" 
d="M293 1434h1085l-61 -349h-645l-37 -204h461l-58 -328h-460l-37 -205h665l-59 -348h-1106zM1075 1597h-399l53 308h399z" />
    <glyph glyph-name="edotaccent" unicode="&#x117;" horiz-adv-x="1095" 
d="M412 1065h450l199 -215l-84 -471h-522l-11 -62l43 -41h400l-47 -276h-615l-198 215l112 635zM520 748l-18 -103h143l19 103l-46 40h-40zM864 1208h-399l57 328h400z" />
    <glyph glyph-name="Eogonek" unicode="&#x118;" horiz-adv-x="1300" 
d="M918 -195l-15 -81l43 -41h103l-33 -185h-246l-121 123l37 215l195 164h-840l252 1434h1085l-61 -349h-645l-37 -204h461l-58 -328h-460l-37 -205h665l-59 -348z" />
    <glyph glyph-name="eogonek" unicode="&#x119;" horiz-adv-x="1095" 
d="M610 -195l-14 -81l43 -41h102l-32 -185h-246l-121 123l37 215l194 164h-348l-198 215l112 635l273 215h450l199 -215l-84 -471h-522l-11 -62l43 -41h400l-47 -276zM520 748l-18 -103h143l19 103l-46 40h-40z" />
    <glyph glyph-name="Ecaron" unicode="&#x11a;" horiz-adv-x="1300" 
d="M293 1434h1085l-61 -349h-645l-37 -204h461l-58 -328h-460l-37 -205h665l-59 -348h-1106zM1044 1597h-337l-162 308h327l37 -82h11l65 82h328z" />
    <glyph glyph-name="ecaron" unicode="&#x11b;" horiz-adv-x="1095" 
d="M412 1065h450l199 -215l-84 -471h-522l-11 -62l43 -41h400l-47 -276h-615l-198 215l112 635zM520 748l-18 -103h143l19 103l-46 40h-40zM829 1188h-337l-150 368h328l28 -122h11l73 122h328z" />
    <glyph glyph-name="Gbreve" unicode="&#x11e;" horiz-adv-x="1474" 
d="M928 389l33 184h-185l58 328h604l-115 -655l-309 -246h-738l-223 246l166 942l309 246h891l-61 -349h-676l-49 -41l-115 -655l33 -41h328zM1307 1905l-29 -164l-188 -144h-328l-139 144l28 164h267l-9 -52l25 -30h61l37 30l8 52h267z" />
    <glyph glyph-name="gbreve" unicode="&#x11f;" horiz-adv-x="1167" 
d="M569 737l-59 -41l-57 -327l45 -41h102l72 409h-103zM530 -61l15 81h-318l-196 216l104 593l273 215h716l-217 -1239l-274 -215h-625l55 308h410zM1108 1556l-41 -225l-188 -143h-328l-139 143l41 225h266l-21 -112l25 -31h61l37 31l21 112h266z" />
    <glyph glyph-name="Gcommaaccent" unicode="&#x122;" horiz-adv-x="1474" 
d="M928 389l33 184h-185l58 328h604l-115 -655l-309 -246h-738l-223 246l166 942l309 246h891l-61 -349h-676l-49 -41l-115 -655l33 -41h328zM356 -655l142 174h-131l59 348h389l-61 -348l-269 -297z" />
    <glyph glyph-name="gcommaaccent" unicode="&#x123;" horiz-adv-x="1167" 
d="M569 737l-59 -41l-57 -327l45 -41h102l72 409h-103zM530 -61l15 81h-318l-196 216l104 593l273 215h716l-217 -1239l-274 -215h-625l55 308h410zM969 1731l-142 -175h134l-62 -348h-389l61 348l267 297z" />
    <glyph glyph-name="Imacron" unicode="&#x12a;" horiz-adv-x="1054" 
d="M870 0h-890l59 348h225l131 737h-225l61 349h891l-61 -349h-225l-131 -737h225zM420 1608l51 286h573l-51 -286h-573z" />
    <glyph glyph-name="imacron" unicode="&#x12b;" horiz-adv-x="655" 
d="M209 1044h399l-182 -1044h-399zM154 1229l51 287h573l-51 -287h-573z" />
    <glyph glyph-name="Iogonek" unicode="&#x12e;" horiz-adv-x="1054" 
d="M641 -195l-14 -81l43 -41h102l-33 -185h-245l-121 123l37 215l194 164h-624l59 348h225l131 737h-225l61 349h891l-61 -349h-225l-131 -737h225l-60 -348z" />
    <glyph glyph-name="iogonek" unicode="&#x12f;" horiz-adv-x="645" 
d="M190 -195l-14 -81l43 -41h103l-33 -185h-246l-121 123l37 215l195 164h-134l183 1044h399l-182 -1044zM633 1208h-400l58 328h399z" />
    <glyph glyph-name="Idotaccent" unicode="&#x130;" horiz-adv-x="1054" 
d="M870 0h-890l59 348h225l131 737h-225l61 349h891l-61 -349h-225l-131 -737h225zM905 1597h-399l53 308h399z" />
    <glyph glyph-name="dotlessi" unicode="&#x131;" horiz-adv-x="645" 
d="M203 1044h399l-182 -1044h-400z" />
    <glyph glyph-name="Kcommaaccent" unicode="&#x136;" horiz-adv-x="1413" 
d="M575 543l-94 -543h-440l252 1434h440l-96 -543h31l403 543h471l-532 -697l321 -737h-471l-223 543h-62zM381 -655l141 174h-131l60 348h389l-62 -348l-268 -297z" />
    <glyph glyph-name="kcommaaccent" unicode="&#x137;" horiz-adv-x="1187" 
d="M1106 0h-430l-137 389h-41l-68 -389h-399l252 1434h399l-131 -738h31l256 348h430l-375 -501zM266 -655l142 174h-132l60 348h389l-61 -348l-269 -297z" />
    <glyph glyph-name="Lacute" unicode="&#x139;" horiz-adv-x="1228" 
d="M293 1434h440l-192 -1086h604l-60 -348h-1044zM580 1905h419l-299 -308h-317z" />
    <glyph glyph-name="lacute" unicode="&#x13a;" horiz-adv-x="686" 
d="M461 0h-400l197 1126h-113l56 308h512zM580 1905h419l-299 -308h-317z" />
    <glyph glyph-name="Lcommaaccent" unicode="&#x13b;" horiz-adv-x="1228" 
d="M293 1434h440l-192 -1086h604l-60 -348h-1044zM274 -655l142 174h-131l59 348h389l-61 -348l-269 -297z" />
    <glyph glyph-name="lcommaaccent" unicode="&#x13c;" horiz-adv-x="686" 
d="M461 0h-400l197 1126h-113l56 308h512zM-27 -655l142 174h-131l59 348h389l-61 -348l-269 -297z" />
    <glyph glyph-name="Lcaron" unicode="&#x13d;" horiz-adv-x="1228" 
d="M293 1434h440l-192 -1086h604l-60 -348h-1044zM825 911l144 174h-133l61 349h389l-61 -349l-269 -297z" />
    <glyph glyph-name="lcaron" unicode="&#x13e;" horiz-adv-x="993" 
d="M461 0h-400l197 1126h-113l56 308h512zM723 911l143 174h-133l62 349h389l-62 -349l-268 -297z" />
    <glyph glyph-name="Lslash" unicode="&#x141;" horiz-adv-x="1269" 
d="M334 1434h440l-61 -349l192 103l-71 -410l-193 -102l-59 -328h604l-60 -348h-1044l74 420l-158 -82l72 410l157 81z" />
    <glyph glyph-name="lslash" unicode="&#x142;" horiz-adv-x="768" 
d="M492 0h-400l72 410l-146 -72l68 389l145 72l58 327h-113l55 308h512l-77 -441l145 72l-68 -389l-145 -72z" />
    <glyph glyph-name="Nacute" unicode="&#x143;" horiz-adv-x="1556" 
d="M1008 778l114 656h441l-252 -1434h-430l-275 655h-10l-115 -655h-440l252 1434h432l272 -656h11zM999 1905h420l-299 -308h-317z" />
    <glyph glyph-name="nacute" unicode="&#x144;" horiz-adv-x="1198" 
d="M530 1044l27 -81l96 81h297l183 -194l-150 -850h-399l121 696l-43 41h-62l-59 -41l-121 -696h-400l183 1044h327zM745 1556h420l-311 -368h-317z" />
    <glyph glyph-name="Ncommaaccent" unicode="&#x145;" horiz-adv-x="1556" 
d="M1008 778l114 656h441l-252 -1434h-430l-275 655h-10l-115 -655h-440l252 1434h432l272 -656h11zM397 -655l142 174h-131l59 348h389l-61 -348l-269 -297z" />
    <glyph glyph-name="ncommaaccent" unicode="&#x146;" horiz-adv-x="1198" 
d="M530 1044l27 -81l96 81h297l183 -194l-150 -850h-399l121 696l-43 41h-62l-59 -41l-121 -696h-400l183 1044h327zM213 -655l141 174h-131l60 348h389l-62 -348l-268 -297z" />
    <glyph glyph-name="Ncaron" unicode="&#x147;" horiz-adv-x="1556" 
d="M1008 778l114 656h441l-252 -1434h-430l-275 655h-10l-115 -655h-440l252 1434h432l272 -656h11zM1126 1597h-338l-161 308h327l37 -82h10l66 82h328z" />
    <glyph glyph-name="ncaron" unicode="&#x148;" horiz-adv-x="1198" 
d="M530 1044l27 -81l96 81h297l183 -194l-150 -850h-399l121 696l-43 41h-62l-59 -41l-121 -696h-400l183 1044h327zM881 1188h-338l-150 368h328l29 -122h10l74 122h327z" />
    <glyph glyph-name="Omacron" unicode="&#x14c;" 
d="M686 1106l-49 -41l-123 -696l35 -41h307l47 41l123 696l-33 41h-307zM532 1454h738l223 -246l-174 -983l-309 -245h-738l-223 245l174 983zM641 1608l51 286h574l-52 -286h-573z" />
    <glyph glyph-name="omacron" unicode="&#x14d;" horiz-adv-x="1157" 
d="M139 850l273 215h501l199 -215l-117 -655l-272 -215h-502l-198 215zM688 717l-43 41h-72l-59 -41l-68 -389l43 -41h72l60 41zM403 1229l52 287h573l-51 -287h-574z" />
    <glyph glyph-name="Ohungarumlaut" unicode="&#x150;" 
d="M686 1106l-49 -41l-123 -696l35 -41h307l47 41l123 696l-33 41h-307zM532 1454h738l223 -246l-174 -983l-309 -245h-738l-223 245l174 983zM754 1905h389l-289 -308h-276zM1184 1905h389l-289 -308h-276z" />
    <glyph glyph-name="ohungarumlaut" unicode="&#x151;" horiz-adv-x="1161" 
d="M139 850l273 215h501l199 -215l-117 -655l-272 -215h-502l-198 215zM688 717l-43 41h-72l-59 -41l-68 -389l43 -41h72l60 41zM514 1556h389l-301 -368h-276zM944 1556h389l-301 -368h-276z" />
    <glyph glyph-name="OE" unicode="&#x152;" horiz-adv-x="1976" 
d="M528 1434h1526l-61 -349h-563l-37 -204h379l-58 -328h-379l-37 -205h584l-59 -348h-1547l-223 246l166 942zM682 1085l-49 -41l-115 -655l33 -41h307l131 737h-307z" />
    <glyph glyph-name="oe" unicode="&#x153;" horiz-adv-x="1628" 
d="M995 1065h400l198 -215l-84 -471h-522l-10 -62l43 -41h399l-47 -276h-563l-70 72l-118 -92h-400l-198 215l116 655l273 215h399l78 -82zM647 717l-43 41h-31l-59 -41l-68 -389l43 -41h31l60 41zM1053 748l-19 -103h144l18 103l-45 40h-41z" />
    <glyph glyph-name="Racute" unicode="&#x154;" horiz-adv-x="1433" 
d="M860 0l-162 420h-143l-74 -420h-440l252 1434h942l207 -226l-92 -512l-236 -184l197 -512h-451zM971 1044l-33 41h-266l-56 -317h267l47 41zM938 1905h420l-299 -308h-318z" />
    <glyph glyph-name="racute" unicode="&#x155;" horiz-adv-x="870" 
d="M530 1044l27 -81l96 81h277l-53 -307h-277l-59 -41l-121 -696h-400l183 1044h327zM684 1556h420l-311 -368h-318z" />
    <glyph glyph-name="Rcommaaccent" unicode="&#x156;" horiz-adv-x="1433" 
d="M860 0l-162 420h-143l-74 -420h-440l252 1434h942l207 -226l-92 -512l-236 -184l197 -512h-451zM971 1044l-33 41h-266l-56 -317h267l47 41zM381 -655l141 174h-131l60 348h389l-62 -348l-268 -297z" />
    <glyph glyph-name="rcommaaccent" unicode="&#x157;" horiz-adv-x="870" 
d="M530 1044l27 -81l96 81h277l-53 -307h-277l-59 -41l-121 -696h-400l183 1044h327zM-68 -655l142 174h-131l59 348h389l-61 -348l-269 -297z" />
    <glyph glyph-name="Rcaron" unicode="&#x158;" horiz-adv-x="1433" 
d="M860 0l-162 420h-143l-74 -420h-440l252 1434h942l207 -226l-92 -512l-236 -184l197 -512h-451zM971 1044l-33 41h-266l-56 -317h267l47 41zM1065 1597h-338l-162 308h328l37 -82h10l66 82h327z" />
    <glyph glyph-name="rcaron" unicode="&#x159;" horiz-adv-x="870" 
d="M530 1044l27 -81l96 81h277l-53 -307h-277l-59 -41l-121 -696h-400l183 1044h327zM762 1188h-338l-150 368h328l29 -122h10l74 122h327z" />
    <glyph glyph-name="Sacute" unicode="&#x15a;" horiz-adv-x="1361" 
d="M324 563l-207 225l76 420l284 226h891l-61 -349h-656l-49 -41l-16 -92l35 -41h481l207 -225l-82 -461l-285 -225h-952l59 348h717l49 41l23 133l-33 41h-481zM897 1905h420l-299 -308h-318z" />
    <glyph glyph-name="sacute" unicode="&#x15b;" horiz-adv-x="1034" 
d="M516 666h287l164 -174l-58 -318l-223 -174h-717l47 276h471l48 31l8 51l-35 31h-287l-164 174l54 307l225 174h665l-47 -276h-419l-48 -31l-8 -41zM684 1556h420l-311 -368h-318z" />
    <glyph glyph-name="Scedilla" unicode="&#x15e;" horiz-adv-x="1361" 
d="M420 0h-430l59 348h717l49 41l23 133l-33 41h-481l-207 225l76 420l284 226h891l-61 -349h-656l-49 -41l-16 -92l35 -41h481l207 -225l-82 -461l-285 -225h-317l-13 -61h62l123 -123l-35 -195l-166 -123h-287l33 185h143l47 30l5 21l-37 30h-123z" />
    <glyph glyph-name="scedilla" unicode="&#x15f;" horiz-adv-x="1034" 
d="M246 0h-277l47 276h471l48 31l8 51l-35 31h-287l-164 174l54 307l225 174h665l-47 -276h-419l-48 -31l-8 -41l37 -30h287l164 -174l-58 -318l-223 -174h-235l-13 -61h62l123 -123l-35 -195l-166 -123h-287l33 185h143l47 30l4 21l-36 30h-123z" />
    <glyph glyph-name="Scaron" unicode="&#x160;" horiz-adv-x="1361" 
d="M324 563l-207 225l76 420l284 226h891l-61 -349h-656l-49 -41l-16 -92l35 -41h481l207 -225l-82 -461l-285 -225h-952l59 348h717l49 41l23 133l-33 41h-481zM1034 1597h-338l-161 308h327l37 -82h10l66 82h328z" />
    <glyph glyph-name="scaron" unicode="&#x161;" horiz-adv-x="1034" 
d="M516 666h287l164 -174l-58 -318l-223 -174h-717l47 276h471l48 31l8 51l-35 31h-287l-164 174l54 307l225 174h665l-47 -276h-419l-48 -31l-8 -41zM799 1188h-338l-150 368h328l29 -122h10l74 122h327z" />
    <glyph glyph-name="Tcommaaccent" unicode="&#x162;" horiz-adv-x="1198" 
d="M717 0h-441l191 1085h-338l61 349h1117l-62 -349h-338zM207 -655l141 174h-131l59 348h390l-62 -348l-268 -297z" />
    <glyph glyph-name="tcommaaccent" unicode="&#x163;" horiz-adv-x="819" 
d="M68 737l53 307h102l45 246h400l-45 -246h163l-53 -307h-164l-69 -389l45 -41h184l-53 -307h-400l-198 215l92 522h-102zM49 -655l141 174h-131l60 348h389l-62 -348l-268 -297z" />
    <glyph glyph-name="Tcaron" unicode="&#x164;" horiz-adv-x="1198" 
d="M717 0h-441l191 1085h-338l61 349h1117l-62 -349h-338zM946 1597h-338l-162 308h328l37 -82h10l66 82h327z" />
    <glyph glyph-name="tcaron" unicode="&#x165;" horiz-adv-x="1136" 
d="M68 737l53 307h102l45 246h400l-45 -246h163l-53 -307h-164l-69 -389l45 -41h184l-53 -307h-400l-198 215l92 522h-102zM866 911l144 174h-133l61 349h389l-61 -349l-269 -297z" />
    <glyph glyph-name="Umacron" unicode="&#x16a;" horiz-adv-x="1515" 
d="M893 369l188 1065h441l-213 -1209l-310 -245h-696l-223 245l213 1209h440l-188 -1065l35 -41h266zM651 1608l51 286h574l-51 -286h-574z" />
    <glyph glyph-name="umacron" unicode="&#x16b;" horiz-adv-x="1208" 
d="M655 0l-26 82l-97 -82h-296l-183 195l150 849h399l-123 -696l45 -41h62l57 41l123 696h399l-182 -1044h-328zM430 1229l51 287h574l-51 -287h-574z" />
    <glyph glyph-name="Uring" unicode="&#x16e;" horiz-adv-x="1515" 
d="M893 369l188 1065h441l-213 -1209l-310 -245h-696l-223 245l213 1209h440l-188 -1065l35 -41h266zM897 1720l16 -20h82l25 20l10 62l-16 20h-82l-25 -22zM657 1649l37 204l166 123h287l121 -123l-37 -204l-164 -123h-287z" />
    <glyph glyph-name="uring" unicode="&#x16f;" horiz-adv-x="1208" 
d="M655 0l-26 82l-97 -82h-296l-183 195l150 849h399l-123 -696l45 -41h62l57 41l123 696h399l-182 -1044h-328zM682 1372l25 -31h61l37 31l10 64l-24 28h-62l-37 -30zM438 1270l47 266l164 123h287l123 -123l-47 -266l-166 -123h-287z" />
    <glyph glyph-name="Uhungarumlaut" unicode="&#x170;" horiz-adv-x="1515" 
d="M893 369l188 1065h441l-213 -1209l-310 -245h-696l-223 245l213 1209h440l-188 -1065l35 -41h266zM754 1905h389l-289 -308h-276zM1184 1905h389l-289 -308h-276z" />
    <glyph glyph-name="uhungarumlaut" unicode="&#x171;" horiz-adv-x="1208" 
d="M655 0l-26 82l-97 -82h-296l-183 195l150 849h399l-123 -696l45 -41h62l57 41l123 696h399l-182 -1044h-328zM541 1556h389l-301 -368h-277zM971 1556h389l-301 -368h-277z" />
    <glyph glyph-name="Uogonek" unicode="&#x172;" horiz-adv-x="1515" 
d="M662 -195l-15 -81l43 -41h103l-33 -185h-246l-121 123l37 215l170 144h-297l-223 245l213 1209h440l-188 -1065l35 -41h266l47 41l188 1065h441l-213 -1209l-310 -245h-133z" />
    <glyph glyph-name="uogonek" unicode="&#x173;" horiz-adv-x="1208" 
d="M655 0l-26 82l-97 -82h-296l-183 195l150 849h399l-123 -696l45 -41h62l57 41l123 696h399l-182 -1044l-229 -195l-15 -81l43 -41h103l-33 -185h-246l-121 123l37 215l195 164h-62z" />
    <glyph glyph-name="Ydieresis" unicode="&#x178;" horiz-adv-x="1320" 
d="M778 0h-440l74 420l-283 1014h451l131 -533h10l319 533h451l-639 -1014zM788 1608h-348l52 286h348zM1239 1608h-348l51 286h348z" />
    <glyph glyph-name="Zacute" unicode="&#x179;" horiz-adv-x="1269" 
d="M1106 0h-1147l59 338l746 747h-594l61 349h1106l-59 -338l-748 -748h635zM856 1905h420l-299 -308h-318z" />
    <glyph glyph-name="zacute" unicode="&#x17a;" horiz-adv-x="993" 
d="M954 768l-491 -461h430l-53 -307h-891l47 276l471 461h-369l54 307h849zM643 1556h420l-311 -368h-318z" />
    <glyph glyph-name="Zdotaccent" unicode="&#x17b;" horiz-adv-x="1269" 
d="M1106 0h-1147l59 338l746 747h-594l61 349h1106l-59 -338l-748 -748h635zM1014 1597h-400l54 308h399z" />
    <glyph glyph-name="zdotaccent" unicode="&#x17c;" horiz-adv-x="993" 
d="M954 768l-491 -461h430l-53 -307h-891l47 276l471 461h-369l54 307h849zM803 1208h-400l58 328h399z" />
    <glyph glyph-name="Zcaron" unicode="&#x17d;" horiz-adv-x="1269" 
d="M1106 0h-1147l59 338l746 747h-594l61 349h1106l-59 -338l-748 -748h635zM983 1597h-338l-162 308h328l37 -82h10l66 82h327z" />
    <glyph glyph-name="zcaron" unicode="&#x17e;" horiz-adv-x="993" 
d="M954 768l-491 -461h430l-53 -307h-891l47 276l471 461h-369l54 307h849zM768 1188h-338l-149 368h327l29 -122h10l74 122h328z" />
    <glyph glyph-name="florin" unicode="&#x192;" horiz-adv-x="757" 
d="M25 666l53 307h102l43 246l275 215h460l-55 -308h-246l-57 -41l-20 -112h204l-53 -307h-205l-151 -861l-275 -215h-397l55 308h183l57 41l129 727h-102z" />
    <glyph glyph-name="Scommaaccent" unicode="&#x218;" horiz-adv-x="1361" 
d="M324 563l-207 225l76 420l284 226h891l-61 -349h-656l-49 -41l-16 -92l35 -41h481l207 -225l-82 -461l-285 -225h-952l59 348h717l49 41l23 133l-33 41h-481zM295 -655l141 174h-131l60 348h389l-62 -348l-268 -297z" />
    <glyph glyph-name="scommaaccent" unicode="&#x219;" horiz-adv-x="1034" 
d="M516 666h287l164 -174l-58 -318l-223 -174h-717l47 276h471l48 31l8 51l-35 31h-287l-164 174l54 307l225 174h665l-47 -276h-419l-48 -31l-8 -41zM133 -655l141 174h-131l60 348h389l-62 -348l-268 -297z" />
    <glyph glyph-name="afii57929" unicode="&#x2bc;" horiz-adv-x="512" 
d="M186 1178l144 174h-133l61 348h389l-61 -348l-269 -297z" />
    <glyph glyph-name="circumflex" unicode="&#x2c6;" horiz-adv-x="890" 
d="M449 1556h337l150 -368h-328l-30 123h-11l-71 -123h-328z" />
    <glyph glyph-name="caron" unicode="&#x2c7;" horiz-adv-x="890" 
d="M721 1188h-338l-150 368h328l29 -122h10l74 122h327z" />
    <glyph glyph-name="breve" unicode="&#x2d8;" horiz-adv-x="860" 
d="M930 1556l-41 -225l-189 -143h-327l-140 143l41 225h267l-21 -112l25 -31h61l37 31l21 112h266z" />
    <glyph glyph-name="dotaccent" unicode="&#x2d9;" horiz-adv-x="522" 
d="M571 1208h-399l57 328h400z" />
    <glyph glyph-name="ring" unicode="&#x2da;" horiz-adv-x="696" 
d="M426 1372l25 -31h61l37 31l10 64l-24 28h-62l-37 -30zM182 1270l47 266l164 123h287l123 -123l-47 -266l-166 -123h-287z" />
    <glyph glyph-name="ogonek" unicode="&#x2db;" horiz-adv-x="552" 
d="M160 -195l-15 -81l43 -41h103l-33 -185h-246l-118 123l34 215l195 164h266z" />
    <glyph glyph-name="tilde" unicode="&#x2dc;" horiz-adv-x="942" 
d="M487 1260l-161 -103l-103 236l324 204l184 -112l162 102l102 -235l-323 -205z" />
    <glyph glyph-name="hungarumlaut" unicode="&#x2dd;" horiz-adv-x="1064" 
d="M356 1556h389l-301 -368h-276zM786 1556h390l-302 -368h-276z" />
    <glyph glyph-name="afii10023" unicode="&#x401;" horiz-adv-x="1300" 
d="M293 1434h1085l-61 -349h-645l-37 -204h461l-58 -328h-460l-37 -205h665l-59 -348h-1106zM825 1608h-348l51 286h349zM1276 1608h-348l51 286h348z" />
    <glyph glyph-name="afii10051" unicode="&#x402;" horiz-adv-x="1484" 
d="M645 0h-444l190 1085h-262l61 349h1004l-61 -349h-297l-33 -184h440l180 -194l-100 -574l-225 -174h-369l62 348h81l48 41l32 184l-28 41h-179z" />
    <glyph glyph-name="afii10052" unicode="&#x403;" horiz-adv-x="1198" 
d="M293 1434h1034l-61 -349h-594l-191 -1085h-440zM866 1905h420l-299 -308h-317z" />
    <glyph glyph-name="afii10053" unicode="&#x404;" horiz-adv-x="1290" 
d="M1044 881l-57 -328h-440l-29 -164l33 -41h625l-60 -348h-840l-223 246l166 942l309 246h840l-61 -349h-625l-49 -41l-29 -163h440z" />
    <glyph glyph-name="afii10054" unicode="&#x405;" horiz-adv-x="1361" 
d="M324 563l-207 225l76 420l284 226h891l-61 -349h-656l-49 -41l-16 -92l35 -41h481l207 -225l-82 -461l-285 -225h-952l59 348h717l49 41l23 133l-33 41h-481z" />
    <glyph glyph-name="afii10055" unicode="&#x406;" horiz-adv-x="1054" 
d="M870 0h-890l59 348h225l131 737h-225l61 349h891l-61 -349h-225l-131 -737h225z" />
    <glyph glyph-name="afii10056" unicode="&#x407;" horiz-adv-x="1054" 
d="M870 0h-890l59 348h225l131 737h-225l61 349h891l-61 -349h-225l-131 -737h225zM655 1608h-348l51 286h349zM1106 1608h-348l51 286h348z" />
    <glyph glyph-name="afii10057" unicode="&#x408;" horiz-adv-x="1095" 
d="M477 389l185 1045h440l-209 -1188l-309 -246h-666l59 348h451z" />
    <glyph glyph-name="afii10058" unicode="&#x409;" horiz-adv-x="2170" 
d="M229 440l238 994h1044l-79 -451h481l207 -225l-95 -533l-284 -225h-922l191 1085h-195l-203 -860l-309 -245h-389l61 348h103zM1565 348l49 41l37 205l-35 41h-246l-51 -287h246z" />
    <glyph glyph-name="afii10059" unicode="&#x40a;" horiz-adv-x="2119" 
d="M584 584l-103 -584h-440l252 1434h440l-88 -502h287l88 502h440l-88 -502h481l205 -225l-84 -482l-284 -225h-922l102 584h-286zM1513 348l50 41l26 154l-33 41h-245l-43 -236h245z" />
    <glyph glyph-name="afii10060" unicode="&#x40b;" horiz-adv-x="1505" 
d="M645 0h-444l190 1085h-262l61 349h1004l-61 -349h-297l-33 -184h440l180 -194l-123 -707h-440l92 532l-28 41h-179z" />
    <glyph glyph-name="afii10061" unicode="&#x40c;" horiz-adv-x="1413" 
d="M575 543l-94 -543h-440l252 1434h440l-96 -543h31l403 543h471l-532 -697l321 -737h-471l-223 543h-62zM969 1905h420l-299 -308h-318z" />
    <glyph glyph-name="afii10062" unicode="&#x40e;" horiz-adv-x="1351" 
d="M1081 1434h441l-754 -1434h-440l166 307h-154l-211 1127h440l125 -748h11zM1042 1556h-389l-147 154l39 225h276l-14 -82l45 -41h82l57 41l15 82h276l-39 -225z" />
    <glyph glyph-name="afii10145" unicode="&#x40f;" horiz-adv-x="1484" 
d="M1239 0h-399l-52 -287h-399l51 287h-399l252 1434h420l-193 -1086h359l192 1086h420z" />
    <glyph glyph-name="afii10017" unicode="&#x410;" 
d="M899 287h-410l-141 -287h-450l712 1434h574l209 -1434h-451zM811 952l-147 -317h184z" />
    <glyph glyph-name="afii10018" unicode="&#x411;" horiz-adv-x="1454" 
d="M1034 0h-993l252 1434h1137l-62 -349h-696l-29 -163h553l205 -226l-82 -471zM858 348l49 41l29 164l-33 41h-317l-45 -246h317z" />
    <glyph glyph-name="afii10019" unicode="&#x412;" horiz-adv-x="1464" 
d="M1249 758l146 -164l-60 -338l-321 -256h-973l252 1434h911l232 -256l-56 -318zM868 348l50 41l18 103l-70 71h-286l-39 -215h327zM971 1044l-33 41h-266l-35 -194h246l71 51z" />
    <glyph glyph-name="afii10020" unicode="&#x413;" horiz-adv-x="1198" 
d="M293 1434h1034l-61 -349h-594l-191 -1085h-440z" />
    <glyph glyph-name="afii10021" unicode="&#x414;" horiz-adv-x="1505" 
d="M-43 348h61l168 133l230 953h1044l-192 -1086h153l-114 -655h-441l56 307h-584l-55 -307h-439zM608 440l-119 -92h338l131 737h-194z" />
    <glyph glyph-name="afii10022" unicode="&#x415;" horiz-adv-x="1300" 
d="M293 1434h1085l-61 -349h-645l-37 -204h461l-58 -328h-460l-37 -205h665l-59 -348h-1106z" />
    <glyph glyph-name="afii10024" unicode="&#x416;" horiz-adv-x="2058" 
d="M707 0l94 543h-41l-412 -543h-471l580 737l-287 697h471l201 -543h20l96 543h441l-96 -543h20l393 543h471l-532 -697l321 -737h-471l-223 543h-41l-94 -543h-440z" />
    <glyph glyph-name="afii10025" unicode="&#x417;" horiz-adv-x="1280" 
d="M684 573h-379l57 328h338l95 72l12 71l-33 41h-604l61 349h871l180 -195l-65 -379l-144 -112l129 -144l-74 -409l-247 -195h-922l59 348h656l49 41l20 113z" />
    <glyph glyph-name="afii10026" unicode="&#x418;" horiz-adv-x="1525" 
d="M1280 0h-440l114 655h-10l-493 -655h-410l252 1434h440l-115 -656h11l493 656h410z" />
    <glyph glyph-name="afii10027" unicode="&#x419;" horiz-adv-x="1525" 
d="M1280 0h-440l114 655h-10l-493 -655h-410l252 1434h440l-115 -656h11l493 656h410zM1128 1556h-389l-147 154l39 225h276l-14 -82l45 -41h82l57 41l15 82h276l-39 -225z" />
    <glyph glyph-name="afii10028" unicode="&#x41a;" horiz-adv-x="1413" 
d="M575 543l-94 -543h-440l252 1434h440l-96 -543h31l403 543h471l-532 -697l321 -737h-471l-223 543h-62z" />
    <glyph glyph-name="afii10029" unicode="&#x41b;" horiz-adv-x="1525" 
d="M229 440l238 994h1065l-252 -1434h-440l190 1085h-215l-203 -860l-309 -245h-389l61 348h103z" />
    <glyph glyph-name="afii10030" unicode="&#x41c;" horiz-adv-x="1792" 
d="M961 287h-236l-121 358h-10l-113 -645h-440l252 1434h440l205 -584h10l410 584h440l-252 -1434h-440l113 645h-11z" />
    <glyph glyph-name="afii10031" unicode="&#x41d;" horiz-adv-x="1505" 
d="M575 543l-94 -543h-440l252 1434h440l-96 -543h338l96 543h440l-251 -1434h-441l94 543h-338z" />
    <glyph glyph-name="afii10032" unicode="&#x41e;" 
d="M686 1106l-49 -41l-123 -696l35 -41h307l47 41l123 696l-33 41h-307zM532 1454h738l223 -246l-174 -983l-309 -245h-738l-223 245l174 983z" />
    <glyph glyph-name="afii10033" unicode="&#x41f;" horiz-adv-x="1505" 
d="M293 1434h1218l-251 -1434h-441l191 1085h-338l-191 -1085h-440z" />
    <glyph glyph-name="afii10034" unicode="&#x420;" horiz-adv-x="1433" 
d="M1069 379h-522l-66 -379h-440l252 1434h962l207 -226l-106 -604zM991 1044l-33 41h-286l-64 -358h287l49 41z" />
    <glyph glyph-name="afii10035" unicode="&#x421;" horiz-adv-x="1290" 
d="M1176 348l-60 -348h-840l-223 246l166 942l309 246h840l-61 -349h-625l-49 -41l-115 -655l33 -41h625z" />
    <glyph glyph-name="afii10036" unicode="&#x422;" horiz-adv-x="1198" 
d="M717 0h-441l191 1085h-338l61 349h1117l-62 -349h-338z" />
    <glyph glyph-name="afii10037" unicode="&#x423;" horiz-adv-x="1351" 
d="M1081 1434h441l-754 -1434h-440l166 307h-154l-211 1127h440l125 -748h11z" />
    <glyph glyph-name="afii10038" unicode="&#x424;" horiz-adv-x="1832" 
d="M770 1004h-123l-49 -41l-78 -451l33 -41h123zM1022 -61h-440l32 184h-389l-180 194l148 840l249 195h389l33 184h441l-33 -184h389l180 -195l-147 -840l-250 -194h-389zM1333 1004h-123l-94 -533h123l49 41l78 451z" />
    <glyph glyph-name="afii10039" unicode="&#x425;" horiz-adv-x="1402" 
d="M680 430h-10l-342 -430h-451l578 727l-295 707h450l166 -400h10l306 400h450l-545 -707l324 -727h-451z" />
    <glyph glyph-name="afii10040" unicode="&#x426;" horiz-adv-x="1525" 
d="M1481 1434l-193 -1086h154l-115 -655h-440l55 307h-901l252 1434h440l-192 -1086h307l192 1086h441z" />
    <glyph glyph-name="afii10041" unicode="&#x427;" horiz-adv-x="1433" 
d="M117 666l135 768h440l-100 -564l70 -71h225l112 635h441l-252 -1434h-440l77 451h-512z" />
    <glyph glyph-name="afii10042" unicode="&#x428;" horiz-adv-x="2037" 
d="M1604 1434h440l-252 -1434h-1751l252 1434h440l-192 -1086h215l192 1086h441l-193 -1086h215z" />
    <glyph glyph-name="afii10043" unicode="&#x429;" horiz-adv-x="2048" 
d="M2003 1434l-193 -1086h154l-115 -655h-440l55 307h-1423l252 1434h440l-192 -1086h194l193 1086h440l-192 -1086h194l193 1086h440z" />
    <glyph glyph-name="afii10044" unicode="&#x42a;" horiz-adv-x="1536" 
d="M797 983h481l207 -225l-94 -533l-285 -225h-922l191 1085h-266l61 349h707zM930 348l49 41l37 205l-35 41h-246l-51 -287h246z" />
    <glyph glyph-name="afii10045" unicode="&#x42b;" horiz-adv-x="2058" 
d="M2064 1434l-252 -1434h-440l252 1434h440zM786 348l50 41l36 205l-34 41h-246l-51 -287h245zM653 983h482l206 -225l-94 -533l-284 -225h-922l252 1434h440z" />
    <glyph glyph-name="afii10046" unicode="&#x42c;" horiz-adv-x="1413" 
d="M807 348l49 41l37 205l-35 41h-266l-51 -287h266zM653 983h502l207 -225l-94 -533l-285 -225h-942l252 1434h440z" />
    <glyph glyph-name="afii10047" unicode="&#x42d;" horiz-adv-x="1280" 
d="M270 553l58 328h450l29 163l-33 41h-624l61 349h840l223 -246l-166 -942l-309 -246h-840l59 348h625l49 41l29 164h-451z" />
    <glyph glyph-name="afii10048" unicode="&#x42e;" horiz-adv-x="2068" 
d="M575 543l-94 -543h-440l252 1434h440l-96 -543h154l57 317l309 246h686l223 -246l-174 -983l-309 -245h-686l-223 245l55 318h-154zM1311 1106l-49 -41l-123 -696l35 -41h256l47 41l122 696l-32 41h-256z" />
    <glyph glyph-name="afii10049" unicode="&#x42f;" horiz-adv-x="1474" 
d="M344 502l-192 194l92 512l284 226h953l-252 -1434h-441l74 420h-143l-330 -420h-461zM702 1085l-49 -41l-41 -235l35 -41h277l55 317h-277z" />
    <glyph glyph-name="afii10065" unicode="&#x430;" horiz-adv-x="1146" 
d="M578 82l-97 -82h-327l-166 174l51 287l262 205h348l10 61l-32 41h-410l47 276h625l190 -204l-147 -840h-328zM586 307l16 92h-133l-49 -41l-8 -51l32 -41h82z" />
    <glyph glyph-name="afii10066" unicode="&#x431;" horiz-adv-x="1208" 
d="M233 1219l275 215h686l-55 -308h-471l-58 -41l-24 -143h358l197 -215l-94 -532l-273 -215h-522l-199 215zM719 594l-45 41h-144l-53 -307l43 -41h92l60 41z" />
    <glyph glyph-name="afii10067" unicode="&#x432;" horiz-adv-x="1126" 
d="M924 543l112 -123l-45 -246l-223 -174h-748l183 1044h717l155 -163l-45 -256zM489 399l-24 -133h102l49 41l9 51l-33 41h-103zM557 778l-25 -133h82l50 41l8 51l-33 41h-82z" />
    <glyph glyph-name="afii10068" unicode="&#x433;" horiz-adv-x="921" 
d="M420 0h-400l183 1044h778l-53 -307h-379z" />
    <glyph glyph-name="afii10069" unicode="&#x434;" horiz-adv-x="1218" 
d="M147 440l158 604h819l-129 -737h133l-100 -573h-399l47 266h-379l-47 -266h-397l98 573h41zM528 389l-96 -82h164l76 430h-51z" />
    <glyph glyph-name="afii10070" unicode="&#x435;" horiz-adv-x="1095" 
d="M412 1065h450l199 -215l-84 -471h-522l-11 -62l43 -41h400l-47 -276h-615l-198 215l112 635zM520 748l-18 -103h143l19 103l-46 40h-40z" />
    <glyph glyph-name="afii10072" unicode="&#x436;" horiz-adv-x="1669" 
d="M307 0h-430l402 543l-199 501h430l123 -348h20l62 348h399l-61 -348h20l246 348h430l-375 -501l213 -543h-430l-127 389h-31l-67 -389h-400l68 389h-31z" />
    <glyph glyph-name="afii10073" unicode="&#x437;" horiz-adv-x="1013" 
d="M211 389l47 266h225l47 41l9 41l-33 41h-389l45 266h645l156 -163l-45 -256l-119 -93l104 -112l-45 -246l-223 -174h-676l45 266h430l49 41l6 41l-32 41h-246z" />
    <glyph glyph-name="afii10074" unicode="&#x438;" horiz-adv-x="1198" 
d="M420 0h-400l183 1044h399l-61 -348h10l205 348h399l-182 -1044h-400l60 348h-10z" />
    <glyph glyph-name="afii10075" unicode="&#x439;" horiz-adv-x="1198" 
d="M420 0h-400l183 1044h399l-61 -348h10l205 348h399l-182 -1044h-400l60 348h-10zM1104 1597l-43 -245l-189 -144h-327l-139 144l43 245h266l-21 -112l27 -31h61l35 31l21 112h266z" />
    <glyph glyph-name="afii10076" unicode="&#x43a;" horiz-adv-x="1177" 
d="M1096 0h-430l-138 389h-41l-67 -389h-400l183 1044h399l-61 -348h30l256 348h430l-374 -501z" />
    <glyph glyph-name="afii10077" unicode="&#x43b;" horiz-adv-x="1187" 
d="M137 379l168 665h840l-182 -1044h-400l133 758h-71l-140 -553l-284 -225h-287l57 327h72z" />
    <glyph glyph-name="afii10078" unicode="&#x43c;" horiz-adv-x="1423" 
d="M731 205h-174l-57 194h-11l-69 -399h-400l183 1044h399l121 -368h10l248 368h399l-182 -1044h-399l69 399h-10z" />
    <glyph glyph-name="afii10079" unicode="&#x43d;" horiz-adv-x="1177" 
d="M420 0h-400l183 1044h399l-65 -378h133l65 378h400l-183 -1044h-399l61 358h-133z" />
    <glyph glyph-name="afii10080" unicode="&#x43e;" horiz-adv-x="1157" 
d="M139 850l273 215h501l199 -215l-117 -655l-272 -215h-502l-198 215zM688 717l-43 41h-72l-59 -41l-68 -389l43 -41h72l60 41z" />
    <glyph glyph-name="afii10081" unicode="&#x43f;" horiz-adv-x="1177" 
d="M420 0h-400l183 1044h932l-183 -1044h-399l129 737h-133z" />
    <glyph glyph-name="afii10082" unicode="&#x440;" horiz-adv-x="1177" 
d="M653 1044h277l198 -215l-108 -614l-272 -215h-328l-74 -410h-399l256 1454h327l27 -81zM705 696l-43 41h-62l-59 -41l-68 -389h113l57 41z" />
    <glyph glyph-name="afii10083" unicode="&#x441;" horiz-adv-x="983" 
d="M449 348l45 -41h378l-53 -307h-594l-198 215l108 614l273 215h593l-53 -307h-379l-59 -41z" />
    <glyph glyph-name="afii10084" unicode="&#x442;" horiz-adv-x="952" 
d="M573 0h-399l129 737h-256l53 307h912l-54 -307h-256z" />
    <glyph glyph-name="afii10085" unicode="&#x443;" horiz-adv-x="1116" 
d="M100 -410l197 410h-92l-105 1044h420l8 -593h11l227 593h410l-666 -1454h-410z" />
    <glyph glyph-name="afii10086" unicode="&#x444;" horiz-adv-x="1566" 
d="M807 -410h-399l73 410h-256l-198 215l108 614l273 215h256l69 390h400l-70 -390h256l199 -215l-109 -614l-272 -215h-256zM1094 696l-43 41h-41l-76 -430h41l57 41zM449 348l45 -41h41l75 430h-41l-59 -41z" />
    <glyph glyph-name="afii10087" unicode="&#x445;" horiz-adv-x="1095" 
d="M594 819l151 225h410l-354 -501l203 -543h-431l-79 246h-11l-166 -246h-430l392 543l-179 501h410l74 -225h10z" />
    <glyph glyph-name="afii10088" unicode="&#x446;" horiz-adv-x="1218" 
d="M676 0h-656l183 1044h399l-129 -737h123l129 737h399l-129 -737h133l-100 -573h-399z" />
    <glyph glyph-name="afii10089" unicode="&#x447;" horiz-adv-x="1105" 
d="M481 0l49 287h-286l-181 194l99 563h399l-72 -409l46 -41h51l78 450h399l-182 -1044h-400z" />
    <glyph glyph-name="afii10090" unicode="&#x448;" horiz-adv-x="1628" 
d="M694 1044h400l-129 -737h92l129 737h399l-182 -1044h-1383l183 1044h399l-129 -737h92z" />
    <glyph glyph-name="afii10091" unicode="&#x449;" horiz-adv-x="1679" 
d="M1137 0h-1117l183 1044h399l-129 -737h92l129 737h400l-129 -737h92l129 737h399l-129 -737h133l-100 -573h-399z" />
    <glyph glyph-name="afii10092" unicode="&#x44a;" horiz-adv-x="1177" 
d="M819 0h-706l129 737h-195l53 307h594l-53 -307h307l164 -174l-70 -389zM588 440l-25 -143h62l49 41l10 61l-35 41h-61z" />
    <glyph glyph-name="afii10093" unicode="&#x44b;" horiz-adv-x="1638" 
d="M1413 0h-399l180 1024h399zM727 0h-707l183 1044h399l-53 -307h307l164 -174l-70 -389zM496 440l-25 -143h61l50 41l10 61l-35 41h-61z" />
    <glyph glyph-name="afii10094" unicode="&#x44c;" horiz-adv-x="1105" 
d="M748 0h-728l183 1044h399l-53 -307h328l163 -174l-69 -389zM496 440l-25 -143h82l49 41l10 61l-34 41h-82z" />
    <glyph glyph-name="afii10095" unicode="&#x44d;" horiz-adv-x="993" 
d="M385 276l59 41l13 72h-277l49 277h277l10 61l-43 41h-379l47 276h594l199 -215l-109 -614l-272 -215h-594l47 276h379z" />
    <glyph glyph-name="afii10096" unicode="&#x44e;" horiz-adv-x="1607" 
d="M420 0h-400l183 1044h399l-65 -378h81l33 184l273 215h440l199 -215l-117 -655l-272 -215h-441l-198 215l28 163h-82zM1141 727l-35 31h-31l-47 -31l-72 -410l35 -30h31l47 30z" />
    <glyph glyph-name="afii10097" unicode="&#x44f;" horiz-adv-x="1177" 
d="M397 1044h738l-183 -1044h-399l55 317h-41l-239 -317h-389l278 369l-111 123l66 378zM657 594l31 174h-92l-49 -41l-17 -92l35 -41h92z" />
    <glyph glyph-name="afii10071" unicode="&#x451;" horiz-adv-x="1095" 
d="M412 1065h450l199 -215l-84 -471h-522l-11 -62l43 -41h400l-47 -276h-615l-198 215l112 635zM520 748l-18 -103h143l19 103l-46 40h-40zM612 1208h-348l58 328h348zM1063 1208h-348l57 328h348z" />
    <glyph glyph-name="afii10099" unicode="&#x452;" horiz-adv-x="1249" 
d="M1094 174l-273 -215h-286l40 236h72l60 41l51 296l-43 41h-154l-100 -573h-400l177 1004h-123l53 307h123l22 123h400l-23 -123h205l-53 -307h-205l-23 -123h390l182 -195z" />
    <glyph glyph-name="afii10100" unicode="&#x453;" horiz-adv-x="921" 
d="M420 0h-400l183 1044h778l-53 -307h-379zM664 1556h419l-311 -368h-317z" />
    <glyph glyph-name="afii10101" unicode="&#x454;" horiz-adv-x="983" 
d="M444 317l43 -41h379l-47 -276h-594l-198 215l108 614l273 215h593l-47 -276h-379l-59 -41l-10 -61h266l-49 -277h-266z" />
    <glyph glyph-name="afii10102" unicode="&#x455;" horiz-adv-x="1034" 
d="M516 666h287l164 -174l-58 -318l-223 -174h-717l47 276h471l48 31l8 51l-35 31h-287l-164 174l54 307l225 174h665l-47 -276h-419l-48 -31l-8 -41z" />
    <glyph glyph-name="afii10103" unicode="&#x456;" horiz-adv-x="645" 
d="M203 1044h399l-182 -1044h-400zM633 1208h-400l58 328h399z" />
    <glyph glyph-name="afii10104" unicode="&#x457;" horiz-adv-x="645" 
d="M203 1044h399l-182 -1044h-400zM381 1208h-348l57 328h348zM831 1208h-348l58 328h348z" />
    <glyph glyph-name="afii10105" unicode="&#x458;" horiz-adv-x="645" 
d="M-49 -102l57 41l195 1105h399l-217 -1239l-274 -215h-408l55 308h193zM633 1208h-400l56 318h399z" />
    <glyph glyph-name="afii10106" unicode="&#x459;" horiz-adv-x="1648" 
d="M1290 0h-727l133 758h-71l-140 -553l-284 -225h-287l57 327h72l94 72l168 665h840l-53 -307h327l164 -174l-70 -389zM1038 440l-24 -143h82l49 41l10 61l-35 41h-82z" />
    <glyph glyph-name="afii10107" unicode="&#x45a;" horiz-adv-x="1658" 
d="M420 0h-400l183 1044h399l-57 -327h133l57 327h400l-58 -327h328l164 -174l-66 -369l-223 -174h-727l72 410h-133zM1026 420l-22 -123h81l50 41l6 41l-33 41h-82z" />
    <glyph glyph-name="afii10108" unicode="&#x45b;" horiz-adv-x="1249" 
d="M1065 0h-399l92 532l-43 41h-154l-100 -573h-400l177 1004h-123l53 307h123l22 123h400l-23 -123h205l-53 -307h-205l-23 -123h390l182 -195z" />
    <glyph glyph-name="afii10109" unicode="&#x45c;" horiz-adv-x="1177" 
d="M1096 0h-430l-138 389h-41l-67 -389h-400l183 1044h399l-61 -348h30l256 348h430l-374 -501zM797 1556h420l-312 -368h-317z" />
    <glyph glyph-name="afii10110" unicode="&#x45e;" horiz-adv-x="1116" 
d="M100 -410l197 410h-92l-105 1044h420l8 -593h11l227 593h410l-666 -1454h-410zM1063 1597l-43 -245l-189 -144h-327l-139 144l43 245h266l-21 -112l27 -31h61l35 31l21 112h266z" />
    <glyph glyph-name="afii10193" unicode="&#x45f;" horiz-adv-x="1177" 
d="M287 0h-267l181 1024h399l-127 -717h133l127 717h400l-181 -1024h-266l-47 -266h-399z" />
    <glyph glyph-name="afii10050" unicode="&#x490;" horiz-adv-x="1198" 
d="M293 1434h665l37 204h369l-98 -553h-594l-191 -1085h-440z" />
    <glyph glyph-name="afii10098" unicode="&#x491;" horiz-adv-x="921" 
d="M420 0h-400l183 1044h481l31 164h297l-80 -450h-379z" />
    <glyph glyph-name="uni1E9E" unicode="&#x1e9e;" horiz-adv-x="1454" 
d="M631 563l53 297l207 246h-184l-50 -41l-186 -1065h-430l213 1208l309 246h819l-59 -328l-195 -235h72l207 -225l-78 -441l-285 -225h-512l60 348h276l50 41l22 133l-33 41h-276z" />
    <glyph glyph-name="endash" unicode="&#x2013;" horiz-adv-x="1105" 
d="M55 553l58 328h983l-58 -328h-983z" />
    <glyph glyph-name="emdash" unicode="&#x2014;" horiz-adv-x="1454" 
d="M55 553l58 328h1331l-58 -328h-1331z" />
    <glyph glyph-name="quoteleft" unicode="&#x2018;" horiz-adv-x="593" 
d="M598 1311l-143 -174h133l-62 -349h-389l62 349l268 297z" />
    <glyph glyph-name="quoteright" unicode="&#x2019;" horiz-adv-x="593" 
d="M180 911l144 174h-134l62 349h389l-61 -349l-269 -297z" />
    <glyph glyph-name="quotesinglbase" unicode="&#x201a;" horiz-adv-x="593" 
d="M-10 -174l143 174h-133l59 348h390l-60 -348l-268 -297z" />
    <glyph glyph-name="quotedblleft" unicode="&#x201c;" horiz-adv-x="1095" 
d="M598 1311l-143 -174h133l-62 -349h-389l62 349l268 297zM1100 1311l-144 -174h134l-62 -349h-389l61 349l269 297z" />
    <glyph glyph-name="quotedblright" unicode="&#x201d;" horiz-adv-x="1095" 
d="M180 911l144 174h-134l62 349h389l-61 -349l-269 -297zM682 911l143 174h-133l62 349h389l-62 -349l-268 -297z" />
    <glyph glyph-name="quotedblbase" unicode="&#x201e;" horiz-adv-x="1095" 
d="M-10 -174l143 174h-133l59 348h390l-60 -348l-268 -297zM492 -174l143 174h-133l59 348h389l-59 -348l-268 -297z" />
    <glyph glyph-name="dagger" unicode="&#x2020;" horiz-adv-x="1075" 
d="M104 829l62 349h256l63 358h441l-64 -358h256l-61 -349h-256l-164 -931h-440l163 931h-256z" />
    <glyph glyph-name="daggerdbl" unicode="&#x2021;" horiz-adv-x="1116" 
d="M975 246h-256l-62 -348h-440l62 348h-256l61 348h256l43 246h-256l61 348h256l62 348h440l-61 -348h256l-62 -348h-256l-43 -246h256z" />
    <glyph glyph-name="bullet" unicode="&#x2022;" horiz-adv-x="839" 
d="M618 492h-430l80 450h430z" />
    <glyph glyph-name="ellipsis" unicode="&#x2026;" horiz-adv-x="1740" 
d="M389 0h-389l59 348h390zM963 0h-390l60 348h389zM1536 0h-389l59 348h389z" />
    <glyph glyph-name="perthousand" unicode="&#x2030;" horiz-adv-x="2467" 
d="M418 983l8 -10h41l12 10l41 225l-10 11h-41l-10 -11zM115 891l71 409l203 154h285l147 -154l-71 -409l-203 -154h-285zM1268 225l8 -10h41l12 10l39 226l-8 10h-41l-12 -10zM965 133l71 410l201 153h285l149 -153l-72 -410l-202 -153h-285zM1532 1434l-969 -1434h-307
l969 1434h307zM1995 225l8 -10h41l12 10l39 226l-8 10h-41l-12 -10zM1692 133l71 410l201 153h285l149 -153l-71 -410l-203 -153h-285z" />
    <glyph glyph-name="guilsinglleft" unicode="&#x2039;" horiz-adv-x="829" 
d="M29 522l608 604l184 -235l-372 -369l243 -368l-268 -236z" />
    <glyph glyph-name="guilsinglright" unicode="&#x203a;" horiz-adv-x="829" 
d="M776 522l-608 -604l-182 236l370 368l-241 369l266 235z" />
    <glyph glyph-name="fraction" unicode="&#x2044;" horiz-adv-x="1064" 
d="M1194 1434l-969 -1434h-307l969 1434h307z" />
    <glyph glyph-name="foursuperior" unicode="&#x2074;" horiz-adv-x="768" 
d="M420 758l18 102h-327l30 174l326 400h328l-68 -379h72l-33 -195h-72l-18 -102h-256zM471 1055l23 123h-11l-94 -123h82z" />
    <glyph glyph-name="Euro" unicode="&#x20ac;" horiz-adv-x="1361" 
d="M92 758l41 235h143l35 195l310 246h829l-57 -328h-615l-49 -41l-12 -72h430l-41 -235h-430l-14 -82h430l-43 -236h-431l-12 -71l35 -41h614l-57 -328h-829l-224 246l33 194h-143l43 236h143l15 82h-144z" />
    <glyph glyph-name="uni20B4" unicode="&#x20b4;" horiz-adv-x="1372" 
d="M1341 758h-1249l37 215h635l37 31l6 40l-33 41h-420l62 349h655l207 -226l-35 -194l-49 -41h184zM78 676h1249l-39 -215h-635l-35 -31l-8 -41l33 -41h481l-59 -348h-717l-207 225l35 195l47 41h-184z" />
    <glyph glyph-name="uni20BD" unicode="&#x20bd;" horiz-adv-x="1536" 
d="M604 184l-31 -184h-440l31 184h-154l45 246h154l16 102h-153l45 246h153l115 656h973l207 -226l-80 -450l-287 -226h-532l-17 -102h533l-45 -246h-533zM1094 1044l-33 41h-297l-53 -307h297l47 41z" />
    <glyph glyph-name="afii61352" unicode="&#x2116;" horiz-adv-x="2170" 
d="M1450 328l49 286h553l-49 -286h-553zM936 840l104 594h441l-252 -1434h-430l-203 594h-10l-105 -594h-440l252 1434h432l201 -594h10zM1808 973l9 -10h41l12 10l43 235l-10 11h-41l-11 -11zM1505 881l74 419l203 154h284l148 -154l-74 -419l-203 -154h-284z" />
    <glyph glyph-name="trademark" unicode="&#x2122;" horiz-adv-x="1843" 
d="M551 635h-297l98 553h-205l43 246h707l-43 -246h-205zM1397 778h-154l-51 123h-10l-47 -266h-297l141 799h297l102 -287h11l204 287h297l-141 -799h-297l47 266h-10z" />
    <glyph glyph-name="minus" unicode="&#x2212;" horiz-adv-x="1054" 
d="M74 543l61 348h891l-61 -348h-891z" />
    <glyph glyph-name="Breve" unicode="&#xf406;" horiz-adv-x="778" 
d="M948 1905l-28 -164l-189 -144h-328l-139 144l29 164h266l-8 -52l24 -30h62l37 30l8 52h266z" />
    <glyph glyph-name="Circumflex" unicode="&#xf408;" horiz-adv-x="890" 
d="M508 1905h338l162 -308h-328l-37 82h-10l-66 -82h-327z" />
    <glyph glyph-name="Dotaccent" unicode="&#xf40b;" horiz-adv-x="522" 
d="M639 1597h-399l53 308h399z" />
    <glyph glyph-name="Ring" unicode="&#xf40c;" horiz-adv-x="696" 
d="M487 1720l17 -20h82l24 20l11 62l-17 20h-82l-24 -22zM248 1649l37 204l166 123h286l121 -123l-37 -204l-164 -123h-286z" />
    <glyph glyph-name="Tilde" unicode="&#xf40d;" horiz-adv-x="901" 
d="M535 1638l-158 -71l-101 235l312 144l190 -82l156 71l102 -235l-311 -144z" />
    <glyph glyph-name="commaaccent" unicode="&#xf6c3;" horiz-adv-x="512" 
d="M-135 -655l141 174h-131l59 348h390l-62 -348l-268 -297z" />
    <glyph glyph-name="Acute" unicode="&#xf6c9;" horiz-adv-x="686" 
d="M436 1905h420l-299 -308h-317z" />
    <glyph glyph-name="Caron" unicode="&#xf6ca;" horiz-adv-x="890" 
d="M793 1597h-338l-162 308h328l36 -82h11l65 82h328z" />
    <glyph glyph-name="Dieresis" unicode="&#xf6cb;" horiz-adv-x="921" 
d="M590 1608h-348l51 286h348zM1040 1608h-348l51 286h349z" />
    <glyph glyph-name="Grave" unicode="&#xf6ce;" horiz-adv-x="686" 
d="M293 1905h420l90 -308h-318z" />
    <glyph glyph-name="Hungarumlaut" unicode="&#xf6cf;" horiz-adv-x="1064" 
d="M416 1905h389l-289 -308h-276zM846 1905h389l-289 -308h-276z" />
    <glyph glyph-name="Macron" unicode="&#xf6d0;" horiz-adv-x="696" 
d="M242 1608l51 286h573l-51 -286h-573z" />
    <glyph glyph-name="cyrBreve" unicode="&#xf6d1;" horiz-adv-x="860" 
d="M797 1556h-389l-148 154l39 225h276l-14 -82l45 -41h82l57 41l15 82h276l-39 -225z" />
    <glyph glyph-name="cyrbreve" unicode="&#xf6d4;" horiz-adv-x="778" 
d="M895 1597l-43 -245l-188 -144h-328l-139 144l43 245h266l-21 -112l27 -31h61l35 31l21 112h266z" />
    <glyph glyph-name="Germandbls" horiz-adv-x="1454" 
d="M631 563l53 297l207 246h-184l-50 -41l-186 -1065h-430l213 1208l309 246h819l-59 -328l-195 -235h72l207 -225l-78 -441l-285 -225h-512l60 348h276l50 41l22 133l-33 41h-276z" />
    <glyph glyph-name="foundryicon" horiz-adv-x="2519" 
d="M205 -225v1884h2109v-1884h-2109zM2273 -184v1802h-2027v-1802h2027zM1300 1249h226q74 0 119 -38.5t45 -94.5t-45 -94.5t-119 -38.5h-113v-164h-113v430zM1300 614h226q74 0 119 -38.5t45 -94.5t-45 -94.5t-119 -38.5h-113v-164h-113v430zM1014 348l-154 266h123
l82 -153h10l82 153h133l-164 -266v-164h-112v164zM1014 983l-154 266h123l82 -153h10l82 153h133l-164 -266v-164h-112v164zM614 522h-133v92h338l51 -92h-143v-338h-113v338zM614 1157h-133v92h338l51 -92h-143v-338h-113v338zM1618 819v133q40 8 78 43.5t45 79.5h164v-92
h-174v-72h245v-92h-358zM1618 184v133q40 8 78 43.5t45 79.5h164v-92h-174v-72h245v-92h-358zM1659 614h317v-92h-235q-8 32 -30 58.5t-52 33.5zM1659 1249h317v-92h-235q-8 32 -30 58.5t-52 33.5zM1567 1116q0 15 -13 28t-28 13h-113v-82h113q16 0 28.5 12t12.5 29z
M1567 481q0 15 -13 28t-28 13h-113v-82h113q16 0 28.5 12t12.5 29z" />
    </font>
</defs>
</svg>
