<?xml version="1.0" standalone="no"?>
<!DOCTYPE svg PUBLIC "-//W3C//DTD SVG 1.1//EN" "http://www.w3.org/Graphics/SVG/1.1/DTD/svg11.dtd" >
<svg xmlns="http://www.w3.org/2000/svg" xmlns:xlink="http://www.w3.org/1999/xlink" version="1.1">
<metadata>
Created by FontForge 20170731 at Tue Apr  6 15:18:44 2021
 By Aleksey,,,
Copyright (c) 2016 by Typetype. Designer Ivan Gladkikh, technical designer Olexa Volochay. All rights reserved.
</metadata>
<defs>
<font id="TTSquaresCondensed-BoldItalic" horiz-adv-x="1198" >
  <font-face 
    font-family="TT Squares Condensed"
    font-weight="700"
    font-style="italic"
    font-stretch="normal"
    units-per-em="2048"
    panose-1="2 0 8 3 4 0 0 9 0 3"
    ascent="1638"
    descent="-410"
    x-height="1024"
    cap-height="1434"
    bbox="-328 -717 2314 1956"
    underline-thickness="102"
    underline-position="-307"
    unicode-range="U+000D-F6D4"
  />
<missing-glyph horiz-adv-x="0" 
 />
    <glyph glyph-name=".notdef" horiz-adv-x="0" 
 />
    <glyph glyph-name=".null" horiz-adv-x="0" 
 />
    <glyph glyph-name=".null" horiz-adv-x="0" 
 />
    <glyph glyph-name="nonmarkingreturn" horiz-adv-x="682" 
 />
    <glyph glyph-name="CR" unicode="&#xd;" horiz-adv-x="0" 
 />
    <glyph glyph-name="space" unicode=" " horiz-adv-x="430" 
 />
    <glyph glyph-name="exclam" unicode="!" horiz-adv-x="614" 
d="M600 1434l-113 -635l-112 -348h-185l11 348l112 635h287zM338 0h-266l47 276h266z" />
    <glyph glyph-name="quotedbl" unicode="&#x22;" horiz-adv-x="808" 
d="M459 1208l-99 -266h-143l-4 266l39 226h246zM817 1208l-98 -266h-144l-4 266l39 226h246z" />
    <glyph glyph-name="numbersign" unicode="#" horiz-adv-x="1536" 
d="M262 1085h256l133 349h287l-133 -349h256l133 349h287l-133 -349h194l-43 -245h-246l-94 -246h205l-45 -246h-256l-131 -348h-287l131 348h-256l-131 -348h-287l131 348h-194l45 246h246l94 246h-205zM711 840l-95 -246h256l95 246h-256z" />
    <glyph glyph-name="dollar" unicode="$" horiz-adv-x="1320" 
d="M408 -184l32 184h-424l43 246h732l106 82l33 194l-74 82h-504l-207 225l68 379l285 226h194l33 184h246l-33 -184h371l-43 -246h-678l-107 -82l-30 -174l77 -82h502l205 -225l-70 -400l-284 -225h-195l-33 -184h-245z" />
    <glyph glyph-name="percent" unicode="%" horiz-adv-x="1669" 
d="M352 963l54 -52h61l70 52l47 266l-52 51h-61l-72 -51zM125 891l72 409l202 154h267l145 -154l-72 -409l-200 -154h-267zM1491 1434l-1051 -1434h-215l1051 1434h215zM1362 471l-53 51h-62l-69 -51l-48 -266l54 -51h61l70 51zM1589 543l-71 -410l-201 -153h-266l-148 153
l72 410l201 153h266z" />
    <glyph glyph-name="ampersand" unicode="&#x26;" horiz-adv-x="1320" 
d="M842 594h-359l-106 -82l-39 -215l53 -51h389zM1315 840l-43 -246h-144l-104 -594h-809l-182 195l71 399l166 133l4 21l-86 92l70 399l250 195h645l-43 -246h-512l-72 -51l-37 -215l78 -82h318l24 143h287l-25 -143h144z" />
    <glyph glyph-name="quotesingle" unicode="'" horiz-adv-x="450" 
d="M459 1208l-99 -266h-143l-4 266l39 226h246z" />
    <glyph glyph-name="parenleft" unicode="(" horiz-adv-x="727" 
d="M649 1311l-69 -51l-242 -1373l51 -51h143l-43 -246h-276l-180 195l278 1577l250 194h277l-45 -245h-144z" />
    <glyph glyph-name="parenright" unicode=")" horiz-adv-x="727" 
d="M72 -164l71 51l242 1373l-53 51h-144l45 245h277l180 -194l-278 -1577l-250 -195h-275l41 246h144z" />
    <glyph glyph-name="asterisk" unicode="*" horiz-adv-x="880" 
d="M598 901l-37 -205h-205l37 205l-172 -102l-71 174l172 102l-136 103l133 174l136 -103l37 205h204l-37 -205l172 103l72 -174l-172 -103l135 -102l-133 -174z" />
    <glyph glyph-name="plus" unicode="+" horiz-adv-x="1167" 
d="M104 594l43 246h359l67 389h246l-67 -389h358l-43 -246h-358l-70 -389h-246l70 389h-359z" />
    <glyph glyph-name="comma" unicode="," horiz-adv-x="491" 
d="M-10 -164l123 164h-103l47 276h267l-48 -276l-196 -236z" />
    <glyph glyph-name="hyphen" unicode="-" horiz-adv-x="983" 
d="M104 594l43 246h779l-43 -246h-779z" />
    <glyph glyph-name="period" unicode="." horiz-adv-x="491" 
d="M276 0h-266l47 276h267z" />
    <glyph glyph-name="slash" unicode="/" horiz-adv-x="1054" 
d="M1204 1434l-1020 -1434h-286l1020 1434h286z" />
    <glyph glyph-name="zero" unicode="0" horiz-adv-x="1454" 
d="M653 1208l-131 -102l-137 -778l94 -103h369l131 103l137 778l-94 102h-369zM563 1454h635l223 -246l-174 -983l-309 -245h-635l-223 245l174 983z" />
    <glyph glyph-name="one" unicode="1" horiz-adv-x="1024" 
d="M840 0h-820l43 246h267l166 942h-267l43 246h553l-209 -1188h267z" />
    <glyph glyph-name="two" unicode="2" horiz-adv-x="1310" 
d="M100 573l310 246h440l131 103l37 215l-51 51h-717l43 246h850l180 -195l-74 -420l-309 -246h-440l-131 -102l-39 -225h788l-43 -246h-1075z" />
    <glyph glyph-name="three" unicode="3" horiz-adv-x="1290" 
d="M209 1188l43 246h829l181 -195l-66 -379l-131 -102l-2 -10l119 -134l-74 -419l-248 -195h-880l43 246h747l70 51l41 235l-78 82h-451l45 246h420l107 82l32 195l-51 51h-696z" />
    <glyph glyph-name="four" unicode="4" horiz-adv-x="1320" 
d="M717 0l53 307h-778l37 205l909 922h317l-155 -881h164l-43 -246h-164l-53 -307h-287zM813 553l88 502h-10l-485 -492l-3 -10h410z" />
    <glyph glyph-name="five" unicode="5" horiz-adv-x="1320" 
d="M881 0h-830l43 246h697l106 82l43 245l-78 82h-676l138 779h972l-43 -246h-686l-51 -287h522l207 -225l-80 -451z" />
    <glyph glyph-name="six" unicode="6" horiz-adv-x="1361" 
d="M283 -20l-207 225l174 983l309 246h768l-43 -246h-635l-131 -103l-33 -184h594l207 -225l-84 -471l-284 -225h-635zM981 573l-78 82h-461l-61 -348l78 -82h368l107 82z" />
    <glyph glyph-name="seven" unicode="7" horiz-adv-x="1167" 
d="M158 1188l43 246h1065l-37 -205l-768 -1229h-297l749 1178l2 10h-757z" />
    <glyph glyph-name="eight" unicode="8" horiz-adv-x="1361" 
d="M938 -20h-727l-182 194l77 430l179 144l2 10l-105 112l70 390l250 194h665l181 -194l-70 -390l-141 -112l-2 -10l129 -144l-78 -430zM387 225h461l70 51l45 256l-78 82h-400l-106 -82l-45 -256zM592 1208l-72 -51l-37 -215l78 -82h338l107 82l36 215l-51 51h-399z" />
    <glyph glyph-name="nine" unicode="9" horiz-adv-x="1361" 
d="M1126 1454l205 -225l-172 -983l-309 -246h-768l43 246h635l129 102l33 184h-594l-205 226l82 471l287 225h634zM428 860l78 -82h461l59 348l-76 82h-368l-109 -82z" />
    <glyph glyph-name="colon" unicode=":" horiz-adv-x="532" 
d="M297 0h-266l47 276h266zM428 748h-266l47 276h266z" />
    <glyph glyph-name="semicolon" unicode=";" horiz-adv-x="532" 
d="M10 -164l123 164h-102l47 276h266l-47 -276l-197 -236zM428 748h-266l47 276h266z" />
    <glyph glyph-name="less" unicode="&#x3c;" horiz-adv-x="798" 
d="M436 -20l-387 542l578 543l143 -174l-393 -369l264 -368z" />
    <glyph glyph-name="equal" unicode="=" horiz-adv-x="1105" 
d="M168 788l45 246h840l-45 -246h-840zM86 317l43 246h840l-43 -246h-840z" />
    <glyph glyph-name="greater" unicode="&#x3e;" horiz-adv-x="798" 
d="M725 522l-575 -542l-144 174l391 368l-262 369l205 174z" />
    <glyph glyph-name="question" unicode="?" horiz-adv-x="1157" 
d="M725 809l119 92l35 195l-86 92h-646l43 246h779l215 -236l-72 -399l-297 -236h-215l-20 -112h-287l43 245l143 113h246zM494 0h-277l47 276h277z" />
    <glyph glyph-name="at" unicode="@" horiz-adv-x="1832" 
d="M641 1495h911l275 -307l-121 -686l-240 -195h-276l-70 72l-94 -72h-307l-139 144l90 512l190 143h502l-102 -574l45 -40h102l94 71l92 522l-170 195h-727l-239 -195l-133 -757l170 -195h901l-39 -215h-1024l-242 307l170 963zM819 532l45 -40h115l55 40l70 390h-164
l-59 -41z" />
    <glyph glyph-name="A" unicode="A" horiz-adv-x="1433" 
d="M1024 0l-78 379h-532l-209 -379h-307l784 1434h369l280 -1434h-307zM807 1096l-258 -471h348z" />
    <glyph glyph-name="B" unicode="B" horiz-adv-x="1484" 
d="M1219 758l145 -164l-72 -399l-248 -195h-972l252 1434h911l180 -195l-65 -379zM954 246l70 51l39 225l-76 82h-522l-64 -358h553zM1110 1137l-51 51h-492l-59 -338h461l106 82z" />
    <glyph glyph-name="C" unicode="C" horiz-adv-x="1320" 
d="M1169 246l-43 -246h-819l-223 246l166 942l309 246h819l-43 -246h-686l-131 -103l-131 -737l96 -102h686z" />
    <glyph glyph-name="D" unicode="D" horiz-adv-x="1505" 
d="M72 0l252 1434h921l223 -246l-165 -942l-310 -246h-921zM401 246h502l129 102l131 737l-94 103h-502z" />
    <glyph glyph-name="E" unicode="E" horiz-adv-x="1331" 
d="M324 1434h1065l-43 -246h-779l-61 -348h594l-43 -246h-594l-62 -348h799l-43 -246h-1085z" />
    <glyph glyph-name="F" unicode="F" horiz-adv-x="1290" 
d="M324 1434h1065l-43 -246h-779l-69 -389h583l-43 -246h-583l-97 -553h-286z" />
    <glyph glyph-name="G" unicode="G" horiz-adv-x="1495" 
d="M1042 348l45 246h-296l43 246h583l-104 -594l-309 -246h-697l-223 246l166 942l309 246h830l-43 -246h-697l-131 -103l-131 -737l96 -102h430z" />
    <glyph glyph-name="H" unicode="H" horiz-adv-x="1515" 
d="M463 594l-105 -594h-286l252 1434h286l-104 -594h594l104 594h287l-252 -1434h-287l105 594h-594z" />
    <glyph glyph-name="I" unicode="I" horiz-adv-x="962" 
d="M768 0h-778l43 246h246l165 942h-245l43 246h778l-43 -246h-246l-166 -942h246z" />
    <glyph glyph-name="J" unicode="J" horiz-adv-x="1116" 
d="M612 348l193 1086h287l-209 -1188l-310 -246h-634l43 246h501z" />
    <glyph glyph-name="K" unicode="K" horiz-adv-x="1372" 
d="M463 594l-105 -594h-286l252 1434h286l-104 -594h184l473 594h328l-563 -697l342 -737h-328l-274 594h-205z" />
    <glyph glyph-name="L" unicode="L" horiz-adv-x="1228" 
d="M324 1434h286l-209 -1188h727l-43 -246h-1013z" />
    <glyph glyph-name="M" unicode="M" horiz-adv-x="1792" 
d="M948 328h-194l-232 553h-10l-154 -881h-286l252 1434h286l301 -727h11l559 727h286l-251 -1434h-287l153 881h-10z" />
    <glyph glyph-name="N" unicode="N" horiz-adv-x="1536" 
d="M1063 522l162 912h286l-251 -1434h-277l-455 911h-10l-160 -911h-286l252 1434h276l453 -912h10z" />
    <glyph glyph-name="O" unicode="O" horiz-adv-x="1515" 
d="M653 1208l-131 -102l-137 -778l94 -103h430l131 103l138 778l-95 102h-430zM563 1454h697l223 -246l-174 -983l-310 -245h-696l-223 245l174 983z" />
    <glyph glyph-name="P" unicode="P" horiz-adv-x="1423" 
d="M1059 430h-625l-76 -430h-286l252 1434h911l207 -226l-99 -553zM1137 1106l-78 82h-492l-90 -512h492l106 82z" />
    <glyph glyph-name="Q" unicode="Q" horiz-adv-x="1515" 
d="M563 1454h697l223 -246l-174 -983l-179 -135l148 -274h-307l-84 164h-584l-223 245l174 983zM655 410h308l53 -103l24 21l138 778l-95 102h-430l-131 -102l-137 -778l94 -103h277z" />
    <glyph glyph-name="R" unicode="R" horiz-adv-x="1454" 
d="M973 0l-215 471h-318l-82 -471h-286l252 1434h890l207 -226l-92 -512l-272 -215l243 -481h-327zM1116 1106l-78 82h-471l-84 -471h471l107 82z" />
    <glyph glyph-name="S" unicode="S" horiz-adv-x="1361" 
d="M352 604l-207 225l68 379l285 226h839l-43 -246h-706l-107 -82l-30 -174l77 -82h533l205 -225l-70 -400l-285 -225h-891l43 246h758l107 82l33 194l-76 82h-533z" />
    <glyph glyph-name="T" unicode="T" horiz-adv-x="1228" 
d="M655 0h-286l209 1188h-431l43 246h1147l-43 -246h-430z" />
    <glyph glyph-name="U" unicode="U" horiz-adv-x="1525" 
d="M1020 328l194 1106h287l-213 -1209l-309 -245h-645l-223 245l213 1209h286l-194 -1106l94 -103h379z" />
    <glyph glyph-name="V" unicode="V" horiz-adv-x="1382" 
d="M768 0h-358l-260 1434h307l186 -1096h10l572 1096h307z" />
    <glyph glyph-name="W" unicode="W" horiz-adv-x="1996" 
d="M1327 1434l62 -1045h10l430 1045h297l-610 -1434h-390l-49 1004h-10l-401 -1004h-390l-106 1434h297l61 -1045h11l430 1045h358z" />
    <glyph glyph-name="X" unicode="X" horiz-adv-x="1341" 
d="M739 942l404 492h317l-573 -697l352 -737h-317l-256 532h-11l-440 -532h-317l610 737l-328 697h318l231 -492h10z" />
    <glyph glyph-name="Y" unicode="Y" horiz-adv-x="1290" 
d="M686 0h-287l82 471l-352 963h307l234 -656h20l463 656h307l-692 -963z" />
    <glyph glyph-name="Z" unicode="Z" horiz-adv-x="1259" 
d="M1085 0h-1116l39 225l905 953l2 10h-706l43 246h1065l-39 -226l-905 -952l-2 -10h757z" />
    <glyph glyph-name="bracketleft" unicode="[" horiz-adv-x="768" 
d="M530 -410h-532l348 1966h533l-45 -245h-246l-260 -1475h245z" />
    <glyph glyph-name="backslash" unicode="\" horiz-adv-x="1054" 
d="M436 1434l516 -1434h-286l-516 1434h286z" />
    <glyph glyph-name="bracketright" unicode="]" horiz-adv-x="768" 
d="M233 1556h533l-348 -1966h-531l41 246h246l260 1475h-246z" />
    <glyph glyph-name="asciicircum" unicode="^" horiz-adv-x="839" 
d="M672 1434l207 -451h-267l-77 195h-21l-147 -195h-267l367 451h205z" />
    <glyph glyph-name="underscore" unicode="_" horiz-adv-x="768" 
d="M-162 -348l43 246h766l-43 -246h-766z" />
    <glyph glyph-name="grave" unicode="`" horiz-adv-x="552" 
d="M211 1434h287l86 -328h-205z" />
    <glyph glyph-name="a" unicode="a" horiz-adv-x="1116" 
d="M639 92l-117 -92h-358l-166 174l51 287l225 174h441l18 102l-53 51h-451l43 236h584l172 -184l-147 -840h-236zM655 297l19 102h-307l-60 -41l-14 -82l45 -40h235z" />
    <glyph glyph-name="b" unicode="b" horiz-adv-x="1187" 
d="M303 1434h277l-72 -410h410l196 -215l-104 -594l-273 -215h-686zM819 707l-78 81h-276l-96 -552h276l107 81z" />
    <glyph glyph-name="c" unicode="c" horiz-adv-x="993" 
d="M342 317l78 -81h440l-41 -236h-573l-199 215l105 594l274 215h573l-43 -236h-440l-106 -81z" />
    <glyph glyph-name="d" unicode="d" horiz-adv-x="1187" 
d="M696 0l-6 92l-117 -92h-327l-199 215l105 594l274 215h410l71 410h277l-252 -1434h-236zM342 317l78 -81h205l82 61l86 491h-277l-106 -81z" />
    <glyph glyph-name="e" unicode="e" horiz-adv-x="1105" 
d="M428 1044h420l199 -215l-76 -430h-615l-14 -82l78 -81h440l-41 -236h-573l-199 215l109 614zM414 727l-21 -123h338l21 123l-78 82h-154z" />
    <glyph glyph-name="f" unicode="f" horiz-adv-x="768" 
d="M68 737l41 236h143l43 246l274 215h410l-41 -236h-276l-107 -82l-27 -143h256l-41 -236h-256l-129 -737h-276l129 737h-143z" />
    <glyph glyph-name="g" unicode="g" horiz-adv-x="1177" 
d="M516 788l-106 -81l-68 -390l78 -81h276l97 552h-277zM639 -92l16 92h-409l-199 215l105 594l274 215h686l-215 -1219l-274 -215h-594l43 236h460z" />
    <glyph glyph-name="h" unicode="h" 
d="M303 1434h277l-72 -410h420l180 -195l-145 -829h-277l127 727l-61 61h-287l-137 -788h-277z" />
    <glyph glyph-name="i" unicode="i" horiz-adv-x="563" 
d="M221 1024h277l-181 -1024h-276zM530 1219h-276l47 266h277z" />
    <glyph glyph-name="j" unicode="j" horiz-adv-x="563" 
d="M-82 -174l107 82l196 1116h277l-215 -1219l-275 -215h-336l43 236h203zM530 1219h-276l47 266h277z" />
    <glyph glyph-name="k" unicode="k" horiz-adv-x="1126" 
d="M1024 0h-307l-185 410h-133l-71 -410h-277l252 1434h277l-140 -789h123l303 379h308l-396 -492z" />
    <glyph glyph-name="l" unicode="l" horiz-adv-x="624" 
d="M369 0h-277l211 1198h-143l41 236h420z" />
    <glyph glyph-name="m" unicode="m" horiz-adv-x="1720" 
d="M1274 788h-164l-82 -61l-127 -727h-276l127 727l-62 61h-164l-82 -61l-127 -727h-276l180 1024h236l4 -92l119 92h245l95 -102h10l131 102h389l180 -195l-145 -829h-277l127 727z" />
    <glyph glyph-name="n" unicode="n" horiz-adv-x="1187" 
d="M457 1024l4 -92l119 92h338l180 -195l-146 -829h-276l127 727l-62 61h-215l-82 -61l-127 -727h-276l180 1024h236z" />
    <glyph glyph-name="o" unicode="o" horiz-adv-x="1167" 
d="M156 829l272 215h471l199 -215l-113 -634l-272 -215h-471l-199 215zM803 727l-78 82h-205l-106 -82l-76 -430l78 -82h205l106 82z" />
    <glyph glyph-name="p" unicode="p" horiz-adv-x="1177" 
d="M580 1024h327l197 -215l-105 -594l-272 -215h-410l-73 -410h-277l254 1434h236l4 -92zM809 707l-78 81h-205l-82 -61l-86 -491h277l106 81z" />
    <glyph glyph-name="q" unicode="q" horiz-adv-x="1177" 
d="M858 -410h-276l73 410h-409l-199 215l105 594l274 215h686zM342 317l78 -81h276l97 552h-277l-106 -81z" />
    <glyph glyph-name="r" unicode="r" horiz-adv-x="880" 
d="M457 1024l4 -92l119 92h338l-44 -236h-348l-82 -61l-127 -727h-276l180 1024h236z" />
    <glyph glyph-name="s" unicode="s" horiz-adv-x="1034" 
d="M418 635h358l164 -174l-51 -287l-223 -174h-676l41 236h542l58 40l14 82l-43 41h-358l-164 174l49 277l225 174h625l-43 -236h-492l-57 -40l-12 -72z" />
    <glyph glyph-name="t" unicode="t" horiz-adv-x="808" 
d="M76 788l43 236h143l47 266h277l-47 -266h256l-43 -236h-256l-82 -471l78 -81h204l-41 -236h-338l-198 215l100 573h-143z" />
    <glyph glyph-name="u" unicode="u" 
d="M717 0l-6 92l-117 -92h-338l-182 195l147 829h277l-129 -727l61 -61h215l82 61l129 727h277l-181 -1024h-235z" />
    <glyph glyph-name="v" unicode="v" horiz-adv-x="1044" 
d="M573 0h-307l-188 1024h287l114 -686l357 686h286z" />
    <glyph glyph-name="w" unicode="w" horiz-adv-x="1505" 
d="M969 1024l43 -625h10l244 625h297l-437 -1024h-307l-55 625h-10l-273 -625h-307l-76 1024h297l23 -625h10l264 625h277z" />
    <glyph glyph-name="x" unicode="x" horiz-adv-x="1013" 
d="M467 328h-10l-262 -328h-297l430 532l-219 492h297l122 -287h11l225 287h297l-395 -492l245 -532h-297z" />
    <glyph glyph-name="y" unicode="y" 
d="M676 0h-420l-182 195l147 829h277l-129 -727l61 -61h287l139 788h277l-215 -1219l-275 -215h-584l43 236h451l106 82z" />
    <glyph glyph-name="z" unicode="z" horiz-adv-x="972" 
d="M930 809l-570 -563l-2 -10h492l-41 -236h-850l37 215l571 563v10h-450l43 236h809z" />
    <glyph glyph-name="braceleft" unicode="{" horiz-adv-x="798" 
d="M711 1311l-58 -41l-96 -543l-180 -154l127 -153l-96 -543l43 -41h153l-43 -246h-287l-172 185l109 614l-111 123l21 123l155 123l109 614l238 184h286l-45 -245h-153z" />
    <glyph glyph-name="bar" unicode="|" horiz-adv-x="696" 
d="M29 -410l348 1966h287l-349 -1966h-286z" />
    <glyph glyph-name="braceright" unicode="}" horiz-adv-x="798" 
d="M387 1270l-45 41h-154l45 245h287l172 -184l-108 -614l110 -123l-20 -123l-156 -123l-108 -614l-238 -185h-285l41 246h154l59 41l97 543l180 153l-127 154z" />
    <glyph glyph-name="asciitilde" unicode="~" horiz-adv-x="1136" 
d="M492 932l229 -205l225 174l129 -194l-401 -308l-230 205l-225 -174l-131 195z" />
    <glyph glyph-name="nbspace" unicode="&#xa0;" horiz-adv-x="471" 
 />
    <glyph glyph-name="exclamdown" unicode="&#xa1;" horiz-adv-x="614" 
d="M-12 -410l112 635l113 348h184l-10 -348l-113 -635h-286zM252 1024h266l-49 -276h-266z" />
    <glyph glyph-name="cent" unicode="&#xa2;" horiz-adv-x="1013" 
d="M377 -184l33 184h-164l-199 215l105 594l274 215h164l33 184h245l-32 -184h184l-43 -236h-184l-97 -552h185l-41 -236h-185l-32 -184h-246zM342 317l78 -81h31l96 552h-31l-106 -81z" />
    <glyph glyph-name="sterling" unicode="&#xa3;" horiz-adv-x="1208" 
d="M412 246h696l-43 -246h-1106l43 246h61l203 164l35 204h-164l39 215h164l63 359l310 246h469l-43 -246h-336l-131 -103l-45 -256h440l-39 -215h-440l-47 -266z" />
    <glyph glyph-name="currency" unicode="&#xa4;" horiz-adv-x="1474" 
d="M459 225l-39 -225h-287l39 225h-154l37 205h154l24 143h-153l39 226h153l113 635h881l207 -226l-74 -409l-285 -226h-594l-24 -143h614l-37 -205h-614zM1167 1106l-77 82h-461l-70 -389h461l106 82z" />
    <glyph glyph-name="yen" unicode="&#xa5;" horiz-adv-x="1290" 
d="M1165 573h-327l-70 -102l-6 -41h379l-37 -205h-379l-39 -225h-287l39 225h-379l37 205h379l6 41l-32 102h-328l37 205h215l-244 656h307l234 -656h20l463 656h307l-473 -656h215z" />
    <glyph glyph-name="brokenbar" unicode="&#xa6;" horiz-adv-x="675" 
d="M18 -410l146 820h287l-146 -820h-287zM653 1556l-145 -819h-287l146 819h286z" />
    <glyph glyph-name="section" unicode="&#xa7;" horiz-adv-x="1249" 
d="M922 932l204 -225l-67 -390l-121 -102l-2 -10l86 -92l-51 -297l-287 -226h-696l43 246h563l106 82l17 92l-78 82h-338l-205 225l68 390l121 102l2 10l-86 92l53 297l285 226h647l-43 -246h-514l-107 -82l-16 -92l78 -82h338zM401 420l78 -82h205l107 82l32 184l-78 82
h-204l-107 -82z" />
    <glyph glyph-name="dieresis" unicode="&#xa8;" horiz-adv-x="768" 
d="M418 1219h-246l45 256h246zM817 1219h-246l45 256h246z" />
    <glyph glyph-name="copyright" unicode="&#xa9;" horiz-adv-x="1853" 
d="M313 328l170 -195h727l240 195l133 757l-170 195h-727l-240 -195zM1264 -82h-912l-272 307l170 963l381 307h911l275 -307l-170 -963zM1212 492l-32 -185h-461l-139 144l90 512l190 143h461l-33 -184h-348l-59 -41l-62 -349l45 -40h348z" />
    <glyph glyph-name="ordfeminine" unicode="&#xaa;" horiz-adv-x="860" 
d="M608 901l13 72h-205l-47 -41l-11 -51l37 -31h144zM590 737l-82 -61h-256l-123 123l41 225l164 123h317l13 61l-35 41h-348l32 185h441l139 -144l-109 -614h-190z" />
    <glyph glyph-name="guillemotleft" unicode="&#xab;" horiz-adv-x="1187" 
d="M348 10l-289 502l467 502l148 -144l-328 -358l203 -358zM819 10l-289 502l467 502l148 -144l-328 -358l203 -358z" />
    <glyph glyph-name="logicalnot" unicode="&#xac;" horiz-adv-x="1064" 
d="M104 594l43 246h861l-76 -430h-246l33 184h-615z" />
    <glyph glyph-name="uni00AD" unicode="&#xad;" horiz-adv-x="983" 
d="M104 594l43 246h779l-43 -246h-779z" />
    <glyph glyph-name="registered" unicode="&#xae;" horiz-adv-x="1853" 
d="M1016 307l-70 246h-143l-43 -246h-225l141 799h522l137 -143l-47 -267l-129 -102l92 -287h-235zM1053 922h-185l-32 -185h184l59 41l17 103zM313 328l170 -195h727l240 195l133 757l-170 195h-727l-240 -195zM1264 -82h-912l-272 307l170 963l381 307h911l275 -307
l-170 -963z" />
    <glyph glyph-name="macron" unicode="&#xaf;" horiz-adv-x="665" 
d="M176 1239l41 225h543l-41 -225h-543z" />
    <glyph glyph-name="degree" unicode="&#xb0;" horiz-adv-x="839" 
d="M391 952l53 -51h62l69 51l50 277l-52 51h-61l-72 -51zM164 881l74 419l202 154h267l145 -154l-74 -419l-200 -154h-267z" />
    <glyph glyph-name="plusminus" unicode="&#xb1;" horiz-adv-x="1167" 
d="M27 41l43 246h921l-43 -246h-921zM121 696l45 246h358l68 389h246l-68 -389h358l-45 -246h-358l-61 -348h-246l61 348h-358z" />
    <glyph glyph-name="twosuperior" unicode="&#xb2;" horiz-adv-x="727" 
d="M344 911h348l-26 -153h-564l50 286l155 123h205l37 31l8 51l-25 31h-317l27 154h471l78 -82l-43 -246l-119 -92h-226l-49 -41z" />
    <glyph glyph-name="threesuperior" unicode="&#xb3;" horiz-adv-x="737" 
d="M483 1178l37 30l8 52l-16 20h-307l26 154h441l86 -93l-33 -184l-70 -51l70 -72l-33 -184l-119 -92h-471l27 153h338l25 21l10 61l-25 31h-194l26 154h174z" />
    <glyph glyph-name="acute" unicode="&#xb4;" horiz-adv-x="552" 
d="M369 1516h286l-282 -328h-205z" />
    <glyph glyph-name="mu" unicode="&#xb5;" 
d="M332 82l-88 -492h-277l254 1434h277l-129 -727l61 -61h215l82 61l129 727h277l-181 -1024h-235l-6 92l-117 -92h-184z" />
    <glyph glyph-name="paragraph" unicode="&#xb6;" horiz-adv-x="1382" 
d="M485 553h-123l-204 225l75 430l285 226h389l-325 -1844h-267zM1061 1434h266l-326 -1844h-266z" />
    <glyph glyph-name="periodcentered" unicode="&#xb7;" horiz-adv-x="430" 
d="M346 573h-266l47 277h266z" />
    <glyph glyph-name="cedilla" unicode="&#xb8;" horiz-adv-x="512" 
d="M-20 0h163l-12 -61h62l122 -123l-32 -185l-166 -123h-244l25 144h163l58 41l10 61l-43 41h-143z" />
    <glyph glyph-name="onesuperior" unicode="&#xb9;" horiz-adv-x="604" 
d="M563 758h-440l27 153h112l66 369h-113l27 154h327l-92 -523h113z" />
    <glyph glyph-name="ordmasculine" unicode="&#xba;" horiz-adv-x="849" 
d="M217 1290l189 144h337l140 -144l-84 -471l-189 -143h-338l-139 143zM649 1188l-51 61h-113l-71 -61l-49 -277l53 -51h112l70 51z" />
    <glyph glyph-name="guillemotright" unicode="&#xbb;" horiz-adv-x="1187" 
d="M1104 512l-469 -502l-148 144l330 358l-205 358l201 144zM633 512l-469 -502l-148 144l330 358l-205 358l201 144z" />
    <glyph glyph-name="onequarter" unicode="&#xbc;" horiz-adv-x="1607" 
d="M1450 1434l-1051 -1434h-215l1051 1434h215zM543 758h-441l27 153h113l65 369h-112l26 154h328l-92 -523h112zM1135 0l24 143h-358l24 133l387 400h256l-67 -379h82l-27 -154h-82l-24 -143h-215zM1186 297l35 195h-11l-176 -185l-2 -10h154z" />
    <glyph glyph-name="onehalf" unicode="&#xbd;" horiz-adv-x="1669" 
d="M1450 1434l-1051 -1434h-215l1051 1434h215zM543 758h-441l27 153h113l65 369h-112l26 154h328l-92 -523h112zM1130 154h349l-27 -154h-563l49 287l156 123h204l37 30l8 52l-24 30h-318l27 154h471l78 -82l-43 -246l-119 -92h-225l-49 -41z" />
    <glyph glyph-name="threequarters" unicode="&#xbe;" horiz-adv-x="1658" 
d="M1501 1434l-1050 -1434h-215l1050 1434h215zM483 1178l37 30l8 52l-16 20h-307l26 154h441l86 -93l-33 -184l-70 -51l70 -72l-33 -184l-119 -92h-471l27 153h338l25 21l10 61l-25 31h-194l26 154h174zM1186 0l24 143h-358l25 133l387 400h256l-68 -379h82l-27 -154h-82
l-24 -143h-215zM1237 297l35 195h-10l-177 -185l-2 -10h154z" />
    <glyph glyph-name="questiondown" unicode="&#xbf;" horiz-adv-x="1167" 
d="M426 215l-119 -92l-35 -195l86 -92h646l-43 -246h-779l-213 236l70 399l297 236h215l20 112h287l-43 -245l-143 -113h-246zM659 1024h277l-49 -276h-277z" />
    <glyph glyph-name="Agrave" unicode="&#xc0;" horiz-adv-x="1433" 
d="M1024 0l-78 379h-532l-209 -379h-307l784 1434h369l280 -1434h-307zM807 1096l-258 -471h348zM618 1884h287l92 -287h-204z" />
    <glyph glyph-name="Aacute" unicode="&#xc1;" horiz-adv-x="1433" 
d="M1024 0l-78 379h-532l-209 -379h-307l784 1434h369l280 -1434h-307zM807 1096l-258 -471h348zM987 1884h287l-277 -287h-204z" />
    <glyph glyph-name="Acircumflex" unicode="&#xc2;" horiz-adv-x="1433" 
d="M1024 0l-78 379h-532l-209 -379h-307l784 1434h369l280 -1434h-307zM807 1096l-258 -471h348zM834 1884h225l164 -287h-236l-69 123l-115 -123h-236z" />
    <glyph glyph-name="Atilde" unicode="&#xc3;" horiz-adv-x="1433" 
d="M1024 0l-78 379h-532l-209 -379h-307l784 1434h369l280 -1434h-307zM807 1096l-258 -471h348zM817 1679l-166 -71l-51 174l254 102l170 -82l166 72l51 -174l-254 -103z" />
    <glyph glyph-name="Adieresis" unicode="&#xc4;" horiz-adv-x="1433" 
d="M1024 0l-78 379h-532l-209 -379h-307l784 1434h369l280 -1434h-307zM807 1096l-258 -471h348zM825 1628h-245l38 225h246zM1225 1628h-246l39 225h246z" />
    <glyph glyph-name="Aring" unicode="&#xc5;" horiz-adv-x="1433" 
d="M1024 0l-78 379h-532l-209 -379h-307l784 1434h369l280 -1434h-307zM807 1096l-258 -471h348zM829 1690l27 -21h102l35 21l19 102l-27 20h-102l-35 -20zM647 1638l35 205l141 103h267l104 -103l-35 -205l-141 -102h-266z" />
    <glyph glyph-name="AE" unicode="&#xc6;" horiz-adv-x="2058" 
d="M1884 0h-1055l66 381h-522l-178 -381h-297l682 1434h1536l-43 -246h-748l-61 -348h563l-43 -246h-563l-62 -348h768zM1038 1188h-276l-275 -561h451z" />
    <glyph glyph-name="Ccedilla" unicode="&#xc7;" horiz-adv-x="1320" 
d="M512 0h-205l-223 246l166 942l309 246h819l-43 -246h-686l-131 -103l-131 -737l96 -102h686l-43 -246h-450l-12 -61h61l123 -123l-33 -185l-166 -123h-246l27 144h164l57 41l11 61l-44 41h-143z" />
    <glyph glyph-name="Egrave" unicode="&#xc8;" horiz-adv-x="1331" 
d="M324 1434h1065l-43 -246h-779l-61 -348h594l-43 -246h-594l-62 -348h799l-43 -246h-1085zM608 1884h287l92 -287h-205z" />
    <glyph glyph-name="Eacute" unicode="&#xc9;" horiz-adv-x="1331" 
d="M324 1434h1065l-43 -246h-779l-61 -348h594l-43 -246h-594l-62 -348h799l-43 -246h-1085zM977 1884h287l-277 -287h-205z" />
    <glyph glyph-name="Ecircumflex" unicode="&#xca;" horiz-adv-x="1331" 
d="M324 1434h1065l-43 -246h-779l-61 -348h594l-43 -246h-594l-62 -348h799l-43 -246h-1085zM823 1884h226l163 -287h-235l-70 123l-114 -123h-236z" />
    <glyph glyph-name="Edieresis" unicode="&#xcb;" horiz-adv-x="1331" 
d="M324 1434h1065l-43 -246h-779l-61 -348h594l-43 -246h-594l-62 -348h799l-43 -246h-1085zM815 1628h-246l39 225h246zM1214 1628h-245l39 225h245z" />
    <glyph glyph-name="Igrave" unicode="&#xcc;" horiz-adv-x="962" 
d="M768 0h-778l43 246h246l165 942h-245l43 246h778l-43 -246h-246l-166 -942h246zM393 1884h287l92 -287h-205z" />
    <glyph glyph-name="Iacute" unicode="&#xcd;" horiz-adv-x="962" 
d="M768 0h-778l43 246h246l165 942h-245l43 246h778l-43 -246h-246l-166 -942h246zM762 1884h287l-277 -287h-205z" />
    <glyph glyph-name="Icircumflex" unicode="&#xce;" horiz-adv-x="962" 
d="M768 0h-778l43 246h246l165 942h-245l43 246h778l-43 -246h-246l-166 -942h246zM598 1884h225l164 -287h-235l-70 123l-115 -123h-235z" />
    <glyph glyph-name="Idieresis" unicode="&#xcf;" horiz-adv-x="962" 
d="M768 0h-778l43 246h246l165 942h-245l43 246h778l-43 -246h-246l-166 -942h246zM590 1628h-246l39 225h246zM989 1628h-246l39 225h246z" />
    <glyph glyph-name="Eth" unicode="&#xd0;" horiz-adv-x="1525" 
d="M92 0l105 594h-154l43 246h154l104 594h922l223 -246l-166 -942l-309 -246h-922zM422 246h502l129 102l131 737l-94 103h-502l-62 -348h236l-43 -246h-236z" />
    <glyph glyph-name="Ntilde" unicode="&#xd1;" horiz-adv-x="1536" 
d="M1063 522l162 912h286l-251 -1434h-277l-455 911h-10l-160 -911h-286l252 1434h276l453 -912h10zM868 1679l-166 -71l-51 174l254 102l170 -82l166 72l51 -174l-254 -103z" />
    <glyph glyph-name="Ograve" unicode="&#xd2;" horiz-adv-x="1515" 
d="M653 1208l-131 -102l-137 -778l94 -103h430l131 103l138 778l-95 102h-430zM563 1454h697l223 -246l-174 -983l-310 -245h-696l-223 245l174 983zM659 1884h287l92 -287h-204z" />
    <glyph glyph-name="Oacute" unicode="&#xd3;" horiz-adv-x="1515" 
d="M653 1208l-131 -102l-137 -778l94 -103h430l131 103l138 778l-95 102h-430zM563 1454h697l223 -246l-174 -983l-310 -245h-696l-223 245l174 983zM1028 1884h287l-277 -287h-204z" />
    <glyph glyph-name="Ocircumflex" unicode="&#xd4;" horiz-adv-x="1515" 
d="M653 1208l-131 -102l-137 -778l94 -103h430l131 103l138 778l-95 102h-430zM563 1454h697l223 -246l-174 -983l-310 -245h-696l-223 245l174 983zM874 1884h226l164 -287h-236l-70 123l-114 -123h-236z" />
    <glyph glyph-name="Otilde" unicode="&#xd5;" horiz-adv-x="1515" 
d="M653 1208l-131 -102l-137 -778l94 -103h430l131 103l138 778l-95 102h-430zM563 1454h697l223 -246l-174 -983l-310 -245h-696l-223 245l174 983zM858 1679l-166 -71l-51 174l254 102l170 -82l166 72l51 -174l-254 -103z" />
    <glyph glyph-name="Odieresis" unicode="&#xd6;" horiz-adv-x="1515" 
d="M653 1208l-131 -102l-137 -778l94 -103h430l131 103l138 778l-95 102h-430zM563 1454h697l223 -246l-174 -983l-310 -245h-696l-223 245l174 983zM866 1628h-245l38 225h246zM1266 1628h-246l39 225h246z" />
    <glyph glyph-name="multiply" unicode="&#xd7;" horiz-adv-x="1085" 
d="M391 717l-194 287l204 174l195 -287l297 287l143 -174l-297 -287l197 -287l-205 -174l-196 287l-295 -287l-144 174z" />
    <glyph glyph-name="Oslash" unicode="&#xd8;" horiz-adv-x="1515" 
d="M563 1454h697l49 -61l63 61h225l-176 -184l62 -62l-174 -983l-310 -245h-696l-51 61l-62 -61h-225l176 184l-61 61l174 983zM653 1208l-131 -102l-116 -655h10l692 727l-25 30h-430zM909 225l131 103l115 655h-10l-690 -727l24 -31h430z" />
    <glyph glyph-name="Ugrave" unicode="&#xd9;" horiz-adv-x="1525" 
d="M1020 328l194 1106h287l-213 -1209l-309 -245h-645l-223 245l213 1209h286l-194 -1106l94 -103h379zM659 1884h287l92 -287h-204z" />
    <glyph glyph-name="Uacute" unicode="&#xda;" horiz-adv-x="1525" 
d="M1020 328l194 1106h287l-213 -1209l-309 -245h-645l-223 245l213 1209h286l-194 -1106l94 -103h379zM1028 1884h287l-277 -287h-204z" />
    <glyph glyph-name="Ucircumflex" unicode="&#xdb;" horiz-adv-x="1525" 
d="M1020 328l194 1106h287l-213 -1209l-309 -245h-645l-223 245l213 1209h286l-194 -1106l94 -103h379zM879 1884h225l164 -287h-236l-69 123l-115 -123h-236z" />
    <glyph glyph-name="Udieresis" unicode="&#xdc;" horiz-adv-x="1525" 
d="M1020 328l194 1106h287l-213 -1209l-309 -245h-645l-223 245l213 1209h286l-194 -1106l94 -103h379zM870 1628h-245l39 225h245zM1270 1628h-246l39 225h246z" />
    <glyph glyph-name="Yacute" unicode="&#xdd;" horiz-adv-x="1290" 
d="M686 0h-287l82 471l-352 963h307l234 -656h20l463 656h307l-692 -963zM918 1884h286l-276 -287h-205z" />
    <glyph glyph-name="Thorn" unicode="&#xde;" horiz-adv-x="1433" 
d="M1022 225h-625l-39 -225h-286l252 1434h286l-37 -205h625l207 -225l-98 -553zM1100 901l-78 82h-492l-90 -512h492l106 82z" />
    <glyph glyph-name="germandbls" unicode="&#xdf;" horiz-adv-x="1187" 
d="M41 0l217 1239l274 215h410l197 -215l-56 -317l-118 -95l-2 -8l129 -143l-82 -461l-273 -215h-307l41 236h174l107 81l49 277l-78 82h-174l41 235h123l106 82l25 144l-78 82h-143l-107 -82l-199 -1137h-276z" />
    <glyph glyph-name="agrave" unicode="&#xe0;" horiz-adv-x="1116" 
d="M639 92l-117 -92h-358l-166 174l51 287l225 174h441l18 102l-53 51h-451l43 236h584l172 -184l-147 -840h-236zM655 297l19 102h-307l-60 -41l-14 -82l45 -40h235zM389 1516h287l86 -328h-205z" />
    <glyph glyph-name="aacute" unicode="&#xe1;" horiz-adv-x="1116" 
d="M639 92l-117 -92h-358l-166 174l51 287l225 174h441l18 102l-53 51h-451l43 236h584l172 -184l-147 -840h-236zM655 297l19 102h-307l-60 -41l-14 -82l45 -40h235zM737 1516h287l-283 -328h-204z" />
    <glyph glyph-name="acircumflex" unicode="&#xe2;" horiz-adv-x="1116" 
d="M639 92l-117 -92h-358l-166 174l51 287l225 174h441l18 102l-53 51h-451l43 236h584l172 -184l-147 -840h-236zM655 297l19 102h-307l-60 -41l-14 -82l45 -40h235zM625 1516h225l158 -328h-236l-65 153l-119 -153h-236z" />
    <glyph glyph-name="atilde" unicode="&#xe3;" horiz-adv-x="1116" 
d="M639 92l-117 -92h-358l-166 174l51 287l225 174h441l18 102l-53 51h-451l43 236h584l172 -184l-147 -840h-236zM655 297l19 102h-307l-60 -41l-14 -82l45 -40h235zM602 1270l-145 -72l-72 174l260 144l170 -82l146 71l71 -174l-260 -143z" />
    <glyph glyph-name="adieresis" unicode="&#xe4;" horiz-adv-x="1116" 
d="M639 92l-117 -92h-358l-166 174l51 287l225 174h441l18 102l-53 51h-451l43 236h584l172 -184l-147 -840h-236zM655 297l19 102h-307l-60 -41l-14 -82l45 -40h235zM602 1219h-246l45 256h246zM1001 1219h-245l45 256h246z" />
    <glyph glyph-name="aring" unicode="&#xe5;" horiz-adv-x="1116" 
d="M639 92l-117 -92h-358l-166 174l51 287l225 174h441l18 102l-53 51h-451l43 236h584l172 -184l-147 -840h-236zM655 297l19 102h-307l-60 -41l-14 -82l45 -40h235zM625 1341l43 -41h61l59 41l21 113l-45 41h-62l-57 -41zM442 1290l37 215l166 123h225l121 -123l-37 -215
l-166 -123h-225z" />
    <glyph glyph-name="ae" unicode="&#xe6;" horiz-adv-x="1658" 
d="M819 0l-78 92h-20l-107 -92h-450l-166 174l51 287l225 174h420l19 102l-54 51h-430l43 236h564l49 -61h20l96 81h400l198 -215l-75 -430h-594l-15 -82l78 -81h420l-41 -236h-553zM553 236l82 61l18 102h-286l-60 -41l-14 -82l45 -40h215zM987 727l-20 -123h317l21 123
l-78 82h-133z" />
    <glyph glyph-name="ccedilla" unicode="&#xe7;" horiz-adv-x="993" 
d="M379 0h-133l-199 215l105 594l274 215h573l-43 -236h-440l-106 -81l-68 -390l78 -81h440l-41 -236h-276l-13 -61h62l123 -123l-33 -185l-166 -123h-246l27 144h164l57 41l10 61l-43 41h-143z" />
    <glyph glyph-name="egrave" unicode="&#xe8;" horiz-adv-x="1105" 
d="M428 1044h420l199 -215l-76 -430h-615l-14 -82l78 -81h440l-41 -236h-573l-199 215l109 614zM414 727l-21 -123h338l21 123l-78 82h-154zM389 1516h287l86 -328h-205z" />
    <glyph glyph-name="eacute" unicode="&#xe9;" horiz-adv-x="1105" 
d="M428 1044h420l199 -215l-76 -430h-615l-14 -82l78 -81h440l-41 -236h-573l-199 215l109 614zM414 727l-21 -123h338l21 123l-78 82h-154zM758 1516h286l-282 -328h-205z" />
    <glyph glyph-name="ecircumflex" unicode="&#xea;" horiz-adv-x="1105" 
d="M428 1044h420l199 -215l-76 -430h-615l-14 -82l78 -81h440l-41 -236h-573l-199 215l109 614zM414 727l-21 -123h338l21 123l-78 82h-154zM604 1516h225l158 -328h-235l-66 153l-119 -153h-235z" />
    <glyph glyph-name="edieresis" unicode="&#xeb;" horiz-adv-x="1105" 
d="M428 1044h420l199 -215l-76 -430h-615l-14 -82l78 -81h440l-41 -236h-573l-199 215l109 614zM414 727l-21 -123h338l21 123l-78 82h-154zM592 1219h-246l45 256h246zM991 1219h-246l46 256h245z" />
    <glyph glyph-name="igrave" unicode="&#xec;" horiz-adv-x="563" 
d="M221 1024h277l-181 -1024h-276zM115 1516h286l86 -328h-204z" />
    <glyph glyph-name="iacute" unicode="&#xed;" horiz-adv-x="563" 
d="M221 1024h277l-181 -1024h-276zM481 1516h287l-283 -328h-204z" />
    <glyph glyph-name="icircumflex" unicode="&#xee;" horiz-adv-x="573" 
d="M227 1024h277l-180 -1024h-277zM338 1516h225l158 -328h-236l-65 153l-119 -153h-235z" />
    <glyph glyph-name="idieresis" unicode="&#xef;" horiz-adv-x="563" 
d="M221 1024h277l-181 -1024h-276zM315 1219h-245l45 256h245zM715 1219h-246l45 256h246z" />
    <glyph glyph-name="eth" unicode="&#xf0;" horiz-adv-x="1116" 
d="M514 1290l-57 144h286l58 -144h266l-43 -235h-123l143 -348l-90 -512l-272 -215h-471l-199 215l84 471l273 215h317l-72 174h-276l43 235h133zM461 645l-107 -82l-47 -266l78 -82h205l106 82l62 348h-297z" />
    <glyph glyph-name="ntilde" unicode="&#xf1;" horiz-adv-x="1187" 
d="M457 1024l4 -92l119 92h338l180 -195l-146 -829h-276l127 727l-62 61h-215l-82 -61l-127 -727h-276l180 1024h236zM627 1270l-146 -72l-71 174l260 144l170 -82l145 71l72 -174l-260 -143z" />
    <glyph glyph-name="ograve" unicode="&#xf2;" horiz-adv-x="1167" 
d="M156 829l272 215h471l199 -215l-113 -634l-272 -215h-471l-199 215zM803 727l-78 82h-205l-106 -82l-76 -430l78 -82h205l106 82zM420 1516h287l86 -328h-205z" />
    <glyph glyph-name="oacute" unicode="&#xf3;" horiz-adv-x="1167" 
d="M156 829l272 215h471l199 -215l-113 -634l-272 -215h-471l-199 215zM803 727l-78 82h-205l-106 -82l-76 -430l78 -82h205l106 82zM788 1516h287l-282 -328h-205z" />
    <glyph glyph-name="ocircumflex" unicode="&#xf4;" horiz-adv-x="1167" 
d="M156 829l272 215h471l199 -215l-113 -634l-272 -215h-471l-199 215zM803 727l-78 82h-205l-106 -82l-76 -430l78 -82h205l106 82zM635 1516h225l158 -328h-236l-65 153l-119 -153h-236z" />
    <glyph glyph-name="otilde" unicode="&#xf5;" horiz-adv-x="1167" 
d="M156 829l272 215h471l199 -215l-113 -634l-272 -215h-471l-199 215zM803 727l-78 82h-205l-106 -82l-76 -430l78 -82h205l106 82zM612 1270l-145 -72l-72 174l260 144l170 -82l146 71l71 -174l-260 -143z" />
    <glyph glyph-name="odieresis" unicode="&#xf6;" horiz-adv-x="1167" 
d="M156 829l272 215h471l199 -215l-113 -634l-272 -215h-471l-199 215zM803 727l-78 82h-205l-106 -82l-76 -430l78 -82h205l106 82zM618 1219h-245l45 256h246zM1018 1219h-246l45 256h246z" />
    <glyph glyph-name="divide" unicode="&#xf7;" horiz-adv-x="1116" 
d="M104 594l43 246h912l-43 -246h-912zM610 154h-256l45 256h256zM764 1024h-256l45 256h256z" />
    <glyph glyph-name="oslash" unicode="&#xf8;" horiz-adv-x="1167" 
d="M156 829l272 215h471l43 -51l49 51h215l-162 -163l54 -52l-113 -634l-272 -215h-471l-43 51l-49 -51h-216l162 163l-53 52zM621 215l106 82l55 317h-10l-373 -378l17 -21h205zM414 727l-56 -317h11l372 378l-16 21h-205z" />
    <glyph glyph-name="ugrave" unicode="&#xf9;" 
d="M717 0l-6 92l-117 -92h-338l-182 195l147 829h277l-129 -727l61 -61h215l82 61l129 727h277l-181 -1024h-235zM430 1516h287l86 -328h-205z" />
    <glyph glyph-name="uacute" unicode="&#xfa;" 
d="M717 0l-6 92l-117 -92h-338l-182 195l147 829h277l-129 -727l61 -61h215l82 61l129 727h277l-181 -1024h-235zM809 1516h287l-283 -328h-205z" />
    <glyph glyph-name="ucircumflex" unicode="&#xfb;" 
d="M717 0l-6 92l-117 -92h-338l-182 195l147 829h277l-129 -727l61 -61h215l82 61l129 727h277l-181 -1024h-235zM649 1516h225l158 -328h-235l-66 153l-119 -153h-235z" />
    <glyph glyph-name="udieresis" unicode="&#xfc;" 
d="M717 0l-6 92l-117 -92h-338l-182 195l147 829h277l-129 -727l61 -61h215l82 61l129 727h277l-181 -1024h-235zM633 1219h-246l45 256h246zM1032 1219h-246l45 256h246z" />
    <glyph glyph-name="yacute" unicode="&#xfd;" 
d="M676 0h-420l-182 195l147 829h277l-129 -727l61 -61h287l139 788h277l-215 -1219l-275 -215h-584l43 236h451l106 82zM809 1516h287l-283 -328h-205z" />
    <glyph glyph-name="thorn" unicode="&#xfe;" horiz-adv-x="1187" 
d="M508 1024h410l196 -215l-104 -594l-273 -215h-409l-74 -410h-277l326 1844h277zM819 707l-78 81h-276l-96 -552h276l107 81z" />
    <glyph glyph-name="ydieresis" unicode="&#xff;" 
d="M676 0h-420l-182 195l147 829h277l-129 -727l61 -61h287l139 788h277l-215 -1219l-275 -215h-584l43 236h451l106 82zM633 1219h-246l45 256h246zM1032 1219h-246l45 256h246z" />
    <glyph glyph-name="Amacron" unicode="&#x100;" horiz-adv-x="1433" 
d="M1024 0l-78 379h-532l-209 -379h-307l784 1434h369l280 -1434h-307zM807 1096l-258 -471h348zM631 1628l39 225h542l-38 -225h-543z" />
    <glyph glyph-name="amacron" unicode="&#x101;" horiz-adv-x="1116" 
d="M639 92l-117 -92h-358l-166 174l51 287l225 174h441l18 102l-53 51h-451l43 236h584l172 -184l-147 -840h-236zM655 297l19 102h-307l-60 -41l-14 -82l45 -40h235zM412 1239l41 225h542l-41 -225h-542z" />
    <glyph glyph-name="Abreve" unicode="&#x102;" horiz-adv-x="1433" 
d="M1024 0l-78 379h-532l-209 -379h-307l784 1434h369l280 -1434h-307zM807 1096l-258 -471h348zM1055 1597h-318l-131 134l29 153h215l-12 -72l34 -30h113l47 30l12 72h216l-29 -153z" />
    <glyph glyph-name="abreve" unicode="&#x103;" horiz-adv-x="1116" 
d="M639 92l-117 -92h-358l-166 174l51 287l225 174h441l18 102l-53 51h-451l43 236h584l172 -184l-147 -840h-236zM655 297l19 102h-307l-60 -41l-14 -82l45 -40h235zM834 1188h-318l-131 133l35 195h215l-21 -113l37 -31h113l45 31l20 113h215l-34 -195z" />
    <glyph glyph-name="Aogonek" unicode="&#x104;" horiz-adv-x="1433" 
d="M1024 0l-78 379h-532l-209 -379h-307l784 1434h369l280 -1434l-239 -195l-15 -81l35 -31h143l-26 -154h-215l-123 123l35 195l190 143h-92zM807 1096l-258 -471h348z" />
    <glyph glyph-name="aogonek" unicode="&#x105;" horiz-adv-x="1116" 
d="M641 -195l-14 -81l35 -31h143l-27 -154h-215l-123 123l35 195l180 143l-16 92l-117 -92h-358l-166 174l51 287l225 174h441l18 102l-53 51h-451l43 236h584l172 -184l-147 -840zM655 297l19 102h-307l-60 -41l-14 -82l45 -40h235z" />
    <glyph glyph-name="Cacute" unicode="&#x106;" horiz-adv-x="1320" 
d="M1169 246l-43 -246h-819l-223 246l166 942l309 246h819l-43 -246h-686l-131 -103l-131 -737l96 -102h686zM1018 1884h287l-277 -287h-205z" />
    <glyph glyph-name="cacute" unicode="&#x107;" horiz-adv-x="993" 
d="M342 317l78 -81h440l-41 -236h-573l-199 215l105 594l274 215h573l-43 -236h-440l-106 -81zM778 1516h287l-283 -328h-204z" />
    <glyph glyph-name="Ccircumflex" unicode="&#x108;" horiz-adv-x="1320" 
d="M1169 246l-43 -246h-819l-223 246l166 942l309 246h819l-43 -246h-686l-131 -103l-131 -737l96 -102h686zM854 1884h225l164 -287h-235l-70 123l-115 -123h-235z" />
    <glyph glyph-name="ccircumflex" unicode="&#x109;" horiz-adv-x="993" 
d="M342 317l78 -81h440l-41 -236h-573l-199 215l105 594l274 215h573l-43 -236h-440l-106 -81zM635 1516h225l158 -328h-236l-65 153l-119 -153h-236z" />
    <glyph glyph-name="Ccaron" unicode="&#x10c;" horiz-adv-x="1320" 
d="M1169 246l-43 -246h-819l-223 246l166 942l309 246h819l-43 -246h-686l-131 -103l-131 -737l96 -102h686zM1028 1597h-225l-164 287h235l70 -123l115 123h235z" />
    <glyph glyph-name="ccaron" unicode="&#x10d;" horiz-adv-x="993" 
d="M342 317l78 -81h440l-41 -236h-573l-199 215l105 594l274 215h573l-43 -236h-440l-106 -81zM799 1167h-226l-157 328h235l66 -154l119 154h235z" />
    <glyph glyph-name="Dcaron" unicode="&#x10e;" horiz-adv-x="1505" 
d="M72 0l252 1434h921l223 -246l-165 -942l-310 -246h-921zM401 246h502l129 102l131 737l-94 103h-502zM997 1597h-225l-164 287h236l69 -123l115 123h236z" />
    <glyph glyph-name="dcaron" unicode="&#x10f;" horiz-adv-x="1372" 
d="M696 0l-6 92l-117 -92h-327l-199 215l105 594l274 215h410l71 410h277l-252 -1434h-236zM342 317l78 -81h205l82 61l86 491h-277l-106 -81zM1229 1004l121 163h-103l49 277h267l-50 -277l-194 -235z" />
    <glyph glyph-name="Dcroat" unicode="&#x110;" horiz-adv-x="1525" 
d="M92 0l105 594h-154l43 246h154l104 594h922l223 -246l-166 -942l-309 -246h-922zM422 246h502l129 102l131 737l-94 103h-502l-62 -348h236l-43 -246h-236z" />
    <glyph glyph-name="dcroat" unicode="&#x111;" horiz-adv-x="1187" 
d="M696 0l-6 92l-117 -92h-327l-199 215l86 492l275 215h409l27 153h-205l39 215h205l24 144h277l-25 -144h133l-39 -215h-133l-188 -1075h-236zM342 317l78 -81h205l82 61l69 389h-276l-107 -82z" />
    <glyph glyph-name="Emacron" unicode="&#x112;" horiz-adv-x="1331" 
d="M324 1434h1065l-43 -246h-779l-61 -348h594l-43 -246h-594l-62 -348h799l-43 -246h-1085zM621 1628l38 225h543l-39 -225h-542z" />
    <glyph glyph-name="emacron" unicode="&#x113;" horiz-adv-x="1105" 
d="M428 1044h420l199 -215l-76 -430h-615l-14 -82l78 -81h440l-41 -236h-573l-199 215l109 614zM414 727l-21 -123h338l21 123l-78 82h-154zM401 1239l41 225h543l-41 -225h-543z" />
    <glyph glyph-name="Edotaccent" unicode="&#x116;" horiz-adv-x="1331" 
d="M324 1434h1065l-43 -246h-779l-61 -348h594l-43 -246h-594l-62 -348h799l-43 -246h-1085zM1030 1628h-276l39 225h276z" />
    <glyph glyph-name="edotaccent" unicode="&#x117;" horiz-adv-x="1105" 
d="M428 1044h420l199 -215l-76 -430h-615l-14 -82l78 -81h440l-41 -236h-573l-199 215l109 614zM414 727l-21 -123h338l21 123l-78 82h-154zM807 1219h-277l48 266h276z" />
    <glyph glyph-name="Eogonek" unicode="&#x118;" horiz-adv-x="1331" 
d="M918 -195l-15 -81l35 -31h143l-26 -154h-215l-123 123l35 195l190 143h-870l252 1434h1065l-43 -246h-779l-61 -348h594l-43 -246h-594l-62 -348h799l-43 -246z" />
    <glyph glyph-name="eogonek" unicode="&#x119;" horiz-adv-x="1105" 
d="M580 -195l-15 -81l35 -31h143l-26 -154h-215l-123 123l35 195l190 143h-358l-199 215l109 614l272 215h420l199 -215l-76 -430h-615l-14 -82l78 -81h440l-41 -236zM414 727l-21 -123h338l21 123l-78 82h-154z" />
    <glyph glyph-name="Ecaron" unicode="&#x11a;" horiz-adv-x="1331" 
d="M324 1434h1065l-43 -246h-779l-61 -348h594l-43 -246h-594l-62 -348h799l-43 -246h-1085zM997 1597h-225l-164 287h236l69 -123l115 123h236z" />
    <glyph glyph-name="ecaron" unicode="&#x11b;" horiz-adv-x="1105" 
d="M428 1044h420l199 -215l-76 -430h-615l-14 -82l78 -81h440l-41 -236h-573l-199 215l109 614zM414 727l-21 -123h338l21 123l-78 82h-154zM772 1188h-225l-158 328h236l65 -154l119 154h235z" />
    <glyph glyph-name="Gbreve" unicode="&#x11e;" horiz-adv-x="1495" 
d="M1042 348l45 246h-296l43 246h583l-104 -594l-309 -246h-697l-223 246l166 942l309 246h830l-43 -246h-697l-131 -103l-131 -737l96 -102h430zM1085 1597h-317l-131 134l29 153h215l-13 -72l35 -30h113l47 30l12 72h215l-28 -153z" />
    <glyph glyph-name="gbreve" unicode="&#x11f;" horiz-adv-x="1177" 
d="M516 788l-106 -81l-68 -390l78 -81h276l97 552h-277zM639 -92l16 92h-409l-199 215l105 594l274 215h686l-215 -1219l-274 -215h-594l43 236h460zM881 1188h-318l-131 133l35 195h215l-20 -113l36 -31h113l45 31l21 113h215l-35 -195z" />
    <glyph glyph-name="Gcommaaccent" unicode="&#x122;" horiz-adv-x="1495" 
d="M1042 348l45 246h-296l43 246h583l-104 -594l-309 -246h-697l-223 246l166 942l309 246h830l-43 -246h-697l-131 -103l-131 -737l96 -102h430zM426 -604l121 164h-101l46 276h266l-47 -276l-197 -236z" />
    <glyph glyph-name="gcommaaccent" unicode="&#x123;" horiz-adv-x="1177" 
d="M516 788l-106 -81l-68 -390l78 -81h276l97 552h-277zM639 -92l16 92h-409l-199 215l105 594l274 215h686l-215 -1219l-274 -215h-594l43 236h460zM913 1649l-120 -164h102l-47 -277h-266l47 277l196 235z" />
    <glyph glyph-name="Imacron" unicode="&#x12a;" horiz-adv-x="962" 
d="M768 0h-778l43 246h246l165 942h-245l43 246h778l-43 -246h-246l-166 -942h246zM395 1628l39 225h543l-39 -225h-543z" />
    <glyph glyph-name="imacron" unicode="&#x12b;" horiz-adv-x="563" 
d="M221 1024h277l-181 -1024h-276zM125 1239l41 225h543l-41 -225h-543z" />
    <glyph glyph-name="Iogonek" unicode="&#x12e;" horiz-adv-x="962" 
d="M528 -195l-14 -81l35 -31h143l-26 -154h-215l-123 123l34 195l191 143h-563l43 246h246l165 942h-245l43 246h778l-43 -246h-246l-166 -942h246l-43 -246z" />
    <glyph glyph-name="iogonek" unicode="&#x12f;" horiz-adv-x="563" 
d="M78 -195l-15 -81l35 -31h144l-27 -154h-215l-121 123l33 195l190 143h-61l180 1024h277l-181 -1024zM530 1219h-276l47 266h277z" />
    <glyph glyph-name="Idotaccent" unicode="&#x130;" horiz-adv-x="962" 
d="M768 0h-778l43 246h246l165 942h-245l43 246h778l-43 -246h-246l-166 -942h246zM805 1628h-277l39 225h277z" />
    <glyph glyph-name="dotlessi" unicode="&#x131;" horiz-adv-x="563" 
d="M221 1024h277l-181 -1024h-276z" />
    <glyph glyph-name="Kcommaaccent" unicode="&#x136;" horiz-adv-x="1372" 
d="M463 594l-105 -594h-286l252 1434h286l-104 -594h184l473 594h328l-563 -697l342 -737h-328l-274 594h-205zM416 -604l121 164h-101l45 276h267l-48 -276l-196 -236z" />
    <glyph glyph-name="kcommaaccent" unicode="&#x137;" horiz-adv-x="1126" 
d="M1024 0h-307l-185 410h-133l-71 -410h-277l252 1434h277l-140 -789h123l303 379h308l-396 -492zM293 -604l121 164h-101l45 276h267l-47 -276l-197 -236z" />
    <glyph glyph-name="Lacute" unicode="&#x139;" horiz-adv-x="1228" 
d="M324 1434h286l-209 -1188h727l-43 -246h-1013zM588 1884h286l-276 -287h-205z" />
    <glyph glyph-name="lacute" unicode="&#x13a;" horiz-adv-x="624" 
d="M369 0h-277l211 1198h-143l41 236h420zM598 1884h287l-277 -287h-205z" />
    <glyph glyph-name="Lcommaaccent" unicode="&#x13b;" horiz-adv-x="1228" 
d="M324 1434h286l-209 -1188h727l-43 -246h-1013zM348 -604l121 164h-100l45 276h266l-47 -276l-197 -236z" />
    <glyph glyph-name="lcommaaccent" unicode="&#x13c;" horiz-adv-x="624" 
d="M369 0h-277l211 1198h-143l41 236h420zM0 -604l121 164h-101l46 276h266l-47 -276l-197 -236z" />
    <glyph glyph-name="Lcaron" unicode="&#x13d;" horiz-adv-x="1228" 
d="M324 1434h286l-209 -1188h727l-43 -246h-1013zM778 1004l121 163h-102l49 277h266l-49 -277l-195 -235z" />
    <glyph glyph-name="lcaron" unicode="&#x13e;" horiz-adv-x="808" 
d="M369 0h-277l211 1198h-143l41 236h420zM666 1004l120 163h-102l49 277h266l-49 -277l-194 -235z" />
    <glyph glyph-name="Lslash" unicode="&#x141;" horiz-adv-x="1249" 
d="M344 1438h287l-86 -496l227 129l-49 -276l-227 -129l-74 -416h727l-43 -246h-1014l86 488l-160 -93l50 277l159 92z" />
    <glyph glyph-name="lslash" unicode="&#x142;" horiz-adv-x="675" 
d="M369 0h-277l84 481l-158 -82l48 267l157 82l80 450h-143l41 236h420l-91 -512l158 82l-47 -267l-158 -82z" />
    <glyph glyph-name="Nacute" unicode="&#x143;" horiz-adv-x="1536" 
d="M1063 522l162 912h286l-251 -1434h-277l-455 911h-10l-160 -911h-286l252 1434h276l453 -912h10zM1038 1884h287l-276 -287h-205z" />
    <glyph glyph-name="nacute" unicode="&#x144;" horiz-adv-x="1187" 
d="M457 1024l4 -92l119 92h338l180 -195l-146 -829h-276l127 727l-62 61h-215l-82 -61l-127 -727h-276l180 1024h236zM799 1516h286l-282 -328h-205z" />
    <glyph glyph-name="Ncommaaccent" unicode="&#x145;" horiz-adv-x="1536" 
d="M1063 522l162 912h286l-251 -1434h-277l-455 911h-10l-160 -911h-286l252 1434h276l453 -912h10zM436 -604l121 164h-100l45 276h266l-47 -276l-197 -236z" />
    <glyph glyph-name="ncommaaccent" unicode="&#x146;" horiz-adv-x="1187" 
d="M457 1024l4 -92l119 92h338l180 -195l-146 -829h-276l127 727l-62 61h-215l-82 -61l-127 -727h-276l180 1024h236zM266 -604l121 164h-100l45 276h266l-47 -276l-197 -236z" />
    <glyph glyph-name="Ncaron" unicode="&#x147;" horiz-adv-x="1536" 
d="M1063 522l162 912h286l-251 -1434h-277l-455 911h-10l-160 -911h-286l252 1434h276l453 -912h10zM1059 1597h-225l-164 287h235l70 -123l115 123h235z" />
    <glyph glyph-name="ncaron" unicode="&#x148;" horiz-adv-x="1187" 
d="M457 1024l4 -92l119 92h338l180 -195l-146 -829h-276l127 727l-62 61h-215l-82 -61l-127 -727h-276l180 1024h236zM817 1188h-225l-158 328h236l65 -154l119 154h236z" />
    <glyph glyph-name="Omacron" unicode="&#x14c;" horiz-adv-x="1515" 
d="M653 1208l-131 -102l-137 -778l94 -103h430l131 103l138 778l-95 102h-430zM563 1454h697l223 -246l-174 -983l-310 -245h-696l-223 245l174 983zM672 1628l39 225h542l-39 -225h-542z" />
    <glyph glyph-name="omacron" unicode="&#x14d;" horiz-adv-x="1167" 
d="M156 829l272 215h471l199 -215l-113 -634l-272 -215h-471l-199 215zM803 727l-78 82h-205l-106 -82l-76 -430l78 -82h205l106 82zM428 1239l41 225h543l-41 -225h-543z" />
    <glyph glyph-name="Ohungarumlaut" unicode="&#x150;" horiz-adv-x="1515" 
d="M653 1208l-131 -102l-137 -778l94 -103h430l131 103l138 778l-95 102h-430zM563 1454h697l223 -246l-174 -983l-310 -245h-696l-223 245l174 983zM831 1884h277l-256 -287h-205zM1200 1884h277l-256 -287h-205z" />
    <glyph glyph-name="ohungarumlaut" unicode="&#x151;" horiz-adv-x="1167" 
d="M156 829l272 215h471l199 -215l-113 -634l-272 -215h-471l-199 215zM803 727l-78 82h-205l-106 -82l-76 -430l78 -82h205l106 82zM594 1516h276l-262 -328h-205zM963 1516h276l-262 -328h-205z" />
    <glyph glyph-name="OE" unicode="&#x152;" horiz-adv-x="2037" 
d="M559 1434h1536l-43 -246h-696l-62 -348h512l-43 -246h-512l-61 -348h717l-43 -246h-1557l-223 246l166 942zM649 1188l-131 -103l-131 -737l96 -102h420l166 942h-420z" />
    <glyph glyph-name="oe" unicode="&#x153;" horiz-adv-x="1730" 
d="M1073 1044h400l198 -215l-76 -430h-594l-14 -82l78 -81h420l-41 -236h-553l-68 82h-10l-121 -102h-450l-199 215l113 634l272 215h451l75 -92h11zM782 727l-77 82h-185l-106 -82l-76 -430l78 -82h184l107 82zM1059 727l-21 -123h318l20 123l-78 82h-133z" />
    <glyph glyph-name="Racute" unicode="&#x154;" horiz-adv-x="1454" 
d="M973 0l-215 471h-318l-82 -471h-286l252 1434h890l207 -226l-92 -512l-272 -215l243 -481h-327zM1116 1106l-78 82h-471l-84 -471h471l107 82zM967 1884h286l-276 -287h-205z" />
    <glyph glyph-name="racute" unicode="&#x155;" horiz-adv-x="880" 
d="M457 1024l4 -92l119 92h338l-44 -236h-348l-82 -61l-127 -727h-276l180 1024h236zM717 1516h287l-283 -328h-205z" />
    <glyph glyph-name="Rcommaaccent" unicode="&#x156;" horiz-adv-x="1454" 
d="M973 0l-215 471h-318l-82 -471h-286l252 1434h890l207 -226l-92 -512l-272 -215l243 -481h-327zM1116 1106l-78 82h-471l-84 -471h471l107 82zM436 -604l121 164h-100l45 276h266l-47 -276l-197 -236z" />
    <glyph glyph-name="rcommaaccent" unicode="&#x157;" horiz-adv-x="880" 
d="M457 1024l4 -92l119 92h338l-44 -236h-348l-82 -61l-127 -727h-276l180 1024h236zM-57 -645l120 164h-100l45 276h266l-47 -276l-196 -236z" />
    <glyph glyph-name="Rcaron" unicode="&#x158;" horiz-adv-x="1454" 
d="M973 0l-215 471h-318l-82 -471h-286l252 1434h890l207 -226l-92 -512l-272 -215l243 -481h-327zM1116 1106l-78 82h-471l-84 -471h471l107 82zM989 1597h-225l-164 287h236l69 -123l115 123h235z" />
    <glyph glyph-name="rcaron" unicode="&#x159;" horiz-adv-x="880" 
d="M457 1024l4 -92l119 92h338l-44 -236h-348l-82 -61l-127 -727h-276l180 1024h236zM711 1188h-226l-157 328h235l66 -154l119 154h235z" />
    <glyph glyph-name="Sacute" unicode="&#x15a;" horiz-adv-x="1361" 
d="M352 604l-207 225l68 379l285 226h839l-43 -246h-706l-107 -82l-30 -174l77 -82h533l205 -225l-70 -400l-285 -225h-891l43 246h758l107 82l33 194l-76 82h-533zM946 1884h287l-277 -287h-204z" />
    <glyph glyph-name="sacute" unicode="&#x15b;" horiz-adv-x="1034" 
d="M418 635h358l164 -174l-51 -287l-223 -174h-676l41 236h542l58 40l14 82l-43 41h-358l-164 174l49 277l225 174h625l-43 -236h-492l-57 -40l-12 -72zM727 1516h287l-283 -328h-205z" />
    <glyph glyph-name="Scedilla" unicode="&#x15e;" horiz-adv-x="1361" 
d="M440 0h-420l43 246h758l107 82l33 194l-76 82h-533l-207 225l68 379l285 226h839l-43 -246h-706l-107 -82l-30 -174l77 -82h533l205 -225l-70 -400l-285 -225h-307l-12 -61h61l123 -123l-33 -185l-165 -123h-246l26 144h164l58 41l10 61l-43 41h-144z" />
    <glyph glyph-name="scedilla" unicode="&#x15f;" horiz-adv-x="1034" 
d="M276 0h-286l41 236h542l58 40l14 82l-43 41h-358l-164 174l49 277l225 174h625l-43 -236h-492l-57 -40l-12 -72l43 -41h358l164 -174l-51 -287l-223 -174h-226l-12 -61h61l123 -123l-32 -185l-166 -123h-246l27 144h163l58 41l10 61l-43 41h-143z" />
    <glyph glyph-name="Scaron" unicode="&#x160;" horiz-adv-x="1361" 
d="M352 604l-207 225l68 379l285 226h839l-43 -246h-706l-107 -82l-30 -174l77 -82h533l205 -225l-70 -400l-285 -225h-891l43 246h758l107 82l33 194l-76 82h-533zM967 1597h-226l-163 287h235l70 -123l114 123h236z" />
    <glyph glyph-name="scaron" unicode="&#x161;" horiz-adv-x="1034" 
d="M418 635h358l164 -174l-51 -287l-223 -174h-676l41 236h542l58 40l14 82l-43 41h-358l-164 174l49 277l225 174h625l-43 -236h-492l-57 -40l-12 -72zM741 1188h-225l-158 328h236l65 -154l119 154h236z" />
    <glyph glyph-name="Tcommaaccent" unicode="&#x162;" horiz-adv-x="1228" 
d="M655 0h-286l209 1188h-431l43 246h1147l-43 -246h-430zM283 -604l120 164h-100l45 276h266l-47 -276l-196 -236z" />
    <glyph glyph-name="tcommaaccent" unicode="&#x163;" horiz-adv-x="808" 
d="M76 788l43 236h143l47 266h277l-47 -266h256l-43 -236h-256l-82 -471l78 -81h204l-41 -236h-338l-198 215l100 573h-143zM129 -604l121 164h-100l45 276h266l-47 -276l-197 -236z" />
    <glyph glyph-name="Tcaron" unicode="&#x164;" horiz-adv-x="1228" 
d="M655 0h-286l209 1188h-431l43 246h1147l-43 -246h-430zM905 1597h-225l-164 287h236l69 -123l115 123h235z" />
    <glyph glyph-name="tcaron" unicode="&#x165;" horiz-adv-x="1003" 
d="M76 788l43 236h143l47 266h277l-47 -266h256l-43 -236h-256l-82 -471l78 -81h204l-41 -236h-338l-198 215l100 573h-143zM860 1004l121 163h-102l49 277h266l-49 -277l-195 -235z" />
    <glyph glyph-name="Umacron" unicode="&#x16a;" horiz-adv-x="1525" 
d="M1020 328l194 1106h287l-213 -1209l-309 -245h-645l-223 245l213 1209h286l-194 -1106l94 -103h379zM676 1628l39 225h542l-38 -225h-543z" />
    <glyph glyph-name="umacron" unicode="&#x16b;" 
d="M717 0l-6 92l-117 -92h-338l-182 195l147 829h277l-129 -727l61 -61h215l82 61l129 727h277l-181 -1024h-235zM442 1239l41 225h543l-41 -225h-543z" />
    <glyph glyph-name="Uring" unicode="&#x16e;" horiz-adv-x="1525" 
d="M1020 328l194 1106h287l-213 -1209l-309 -245h-645l-223 245l213 1209h286l-194 -1106l94 -103h379zM874 1690l27 -21h103l34 21l19 102l-27 20h-102l-35 -20zM692 1638l35 205l141 103h267l104 -103l-35 -205l-141 -102h-266z" />
    <glyph glyph-name="uring" unicode="&#x16f;" 
d="M717 0l-6 92l-117 -92h-338l-182 195l147 829h277l-129 -727l61 -61h215l82 61l129 727h277l-181 -1024h-235zM649 1341l43 -41h62l59 41l21 113l-46 41h-61l-57 -41zM467 1290l37 215l166 123h225l121 -123l-37 -215l-166 -123h-225z" />
    <glyph glyph-name="Uhungarumlaut" unicode="&#x170;" horiz-adv-x="1525" 
d="M1020 328l194 1106h287l-213 -1209l-309 -245h-645l-223 245l213 1209h286l-194 -1106l94 -103h379zM838 1884h276l-256 -287h-205zM1206 1884h277l-256 -287h-205z" />
    <glyph glyph-name="uhungarumlaut" unicode="&#x171;" 
d="M717 0l-6 92l-117 -92h-338l-182 195l147 829h277l-129 -727l61 -61h215l82 61l129 727h277l-181 -1024h-235zM608 1516h277l-262 -328h-205zM977 1516h276l-262 -328h-205z" />
    <glyph glyph-name="Uogonek" unicode="&#x172;" horiz-adv-x="1525" 
d="M641 -195l-14 -81l35 -31h143l-27 -154h-215l-123 123l35 195l166 123h-307l-223 245l213 1209h286l-194 -1106l94 -103h379l131 103l194 1106h287l-213 -1209l-309 -245h-123z" />
    <glyph glyph-name="uogonek" unicode="&#x173;" 
d="M727 0l-16 92l-117 -92h-338l-182 195l147 829h277l-129 -727l61 -61h215l82 61l129 727h277l-181 -1024l-239 -195l-15 -81l35 -31h144l-27 -154h-215l-123 123l35 195z" />
    <glyph glyph-name="Ydieresis" unicode="&#x178;" horiz-adv-x="1290" 
d="M686 0h-287l82 471l-352 963h307l234 -656h20l463 656h307l-692 -963zM754 1628h-246l39 225h246zM1153 1628h-246l39 225h246z" />
    <glyph glyph-name="Zacute" unicode="&#x179;" horiz-adv-x="1259" 
d="M1085 0h-1116l39 225l905 953l2 10h-706l43 246h1065l-39 -226l-905 -952l-2 -10h757zM909 1884h287l-276 -287h-205z" />
    <glyph glyph-name="zacute" unicode="&#x17a;" horiz-adv-x="972" 
d="M930 809l-570 -563l-2 -10h492l-41 -236h-850l37 215l571 563v10h-450l43 236h809zM686 1516h287l-283 -328h-205z" />
    <glyph glyph-name="Zdotaccent" unicode="&#x17b;" horiz-adv-x="1259" 
d="M1085 0h-1116l39 225l905 953l2 10h-706l43 246h1065l-39 -226l-905 -952l-2 -10h757zM954 1628h-276l39 225h276z" />
    <glyph glyph-name="zdotaccent" unicode="&#x17c;" horiz-adv-x="972" 
d="M930 809l-570 -563l-2 -10h492l-41 -236h-850l37 215l571 563v10h-450l43 236h809zM735 1219h-276l47 266h276z" />
    <glyph glyph-name="Zcaron" unicode="&#x17d;" horiz-adv-x="1259" 
d="M1085 0h-1116l39 225l905 953l2 10h-706l43 246h1065l-39 -226l-905 -952l-2 -10h757zM922 1597h-226l-164 287h236l70 -123l114 123h236z" />
    <glyph glyph-name="zcaron" unicode="&#x17e;" horiz-adv-x="972" 
d="M930 809l-570 -563l-2 -10h492l-41 -236h-850l37 215l571 563v10h-450l43 236h809zM705 1188h-226l-157 328h235l66 -154l118 154h236z" />
    <glyph glyph-name="florin" unicode="&#x192;" horiz-adv-x="808" 
d="M109 737l41 236h143l43 246l274 215h410l-41 -236h-277l-106 -82l-27 -143h256l-41 -236h-256l-163 -932l-275 -215h-336l43 236h203l106 82l146 829h-143z" />
    <glyph glyph-name="Scommaaccent" unicode="&#x218;" horiz-adv-x="1361" 
d="M352 604l-207 225l68 379l285 226h839l-43 -246h-706l-107 -82l-30 -174l77 -82h533l205 -225l-70 -400l-285 -225h-891l43 246h758l107 82l33 194l-76 82h-533zM344 -604l121 164h-100l45 276h266l-47 -276l-197 -236z" />
    <glyph glyph-name="scommaaccent" unicode="&#x219;" horiz-adv-x="1034" 
d="M418 635h358l164 -174l-51 -287l-223 -174h-676l41 236h542l58 40l14 82l-43 41h-358l-164 174l49 277l225 174h625l-43 -236h-492l-57 -40l-12 -72zM190 -604l121 164h-100l45 276h266l-47 -276l-196 -236z" />
    <glyph glyph-name="afii57929" unicode="&#x2bc;" horiz-adv-x="389" 
d="M184 1229l121 164h-102l49 276h266l-49 -276l-195 -236z" />
    <glyph glyph-name="circumflex" unicode="&#x2c6;" horiz-adv-x="778" 
d="M440 1516h226l157 -328h-235l-66 153l-119 -153h-235z" />
    <glyph glyph-name="caron" unicode="&#x2c7;" horiz-adv-x="778" 
d="M608 1188h-225l-158 328h236l65 -154l119 154h236z" />
    <glyph glyph-name="breve" unicode="&#x2d8;" horiz-adv-x="747" 
d="M639 1188h-317l-132 133l35 195h215l-20 -113l37 -31h112l45 31l21 113h215l-35 -195z" />
    <glyph glyph-name="dotaccent" unicode="&#x2d9;" horiz-adv-x="399" 
d="M449 1219h-277l47 266h277z" />
    <glyph glyph-name="ring" unicode="&#x2da;" horiz-adv-x="634" 
d="M369 1341l43 -41h61l59 41l21 113l-45 41h-62l-57 -41zM186 1290l37 215l166 123h225l121 -123l-37 -215l-166 -123h-225z" />
    <glyph glyph-name="ogonek" unicode="&#x2db;" horiz-adv-x="522" 
d="M98 -195l-14 -81l35 -31h143l-26 -154h-216l-122 123l34 195l191 143h215z" />
    <glyph glyph-name="tilde" unicode="&#x2dc;" horiz-adv-x="778" 
d="M418 1270l-146 -72l-71 174l260 144l170 -82l145 71l72 -174l-260 -143z" />
    <glyph glyph-name="hungarumlaut" unicode="&#x2dd;" horiz-adv-x="901" 
d="M358 1516h277l-262 -328h-205zM727 1516h277l-263 -328h-204z" />
    <glyph glyph-name="afii10023" unicode="&#x401;" horiz-adv-x="1331" 
d="M324 1434h1065l-43 -246h-779l-61 -348h594l-43 -246h-594l-62 -348h799l-43 -246h-1085zM809 1628h-246l39 225h246zM1208 1628h-245l38 225h246z" />
    <glyph glyph-name="afii10051" unicode="&#x402;" horiz-adv-x="1433" 
d="M502 0h-287l209 1188h-297l43 246h911l-43 -246h-327l-47 -266h512l180 -195l-105 -594l-225 -174h-297l43 246h164l47 31l68 389l-52 51h-378z" />
    <glyph glyph-name="afii10052" unicode="&#x403;" 
d="M324 1434h1003l-43 -246h-717l-209 -1188h-286zM946 1884h287l-277 -287h-204z" />
    <glyph glyph-name="afii10053" unicode="&#x404;" horiz-adv-x="1320" 
d="M1049 840l-43 -246h-574l-45 -246l96 -102h686l-43 -246h-819l-223 246l166 942l309 246h819l-43 -246h-686l-131 -103l-43 -245h574z" />
    <glyph glyph-name="afii10054" unicode="&#x405;" horiz-adv-x="1361" 
d="M352 604l-207 225l68 379l285 226h839l-43 -246h-706l-107 -82l-30 -174l77 -82h533l205 -225l-70 -400l-285 -225h-891l43 246h758l107 82l33 194l-76 82h-533z" />
    <glyph glyph-name="afii10055" unicode="&#x406;" horiz-adv-x="962" 
d="M768 0h-778l43 246h246l165 942h-245l43 246h778l-43 -246h-246l-166 -942h246z" />
    <glyph glyph-name="afii10056" unicode="&#x407;" horiz-adv-x="962" 
d="M768 0h-778l43 246h246l165 942h-245l43 246h778l-43 -246h-246l-166 -942h246zM584 1628h-246l39 225h246zM983 1628h-246l39 225h246z" />
    <glyph glyph-name="afii10057" unicode="&#x408;" horiz-adv-x="1116" 
d="M612 348l193 1086h287l-209 -1188l-310 -246h-634l43 246h501z" />
    <glyph glyph-name="afii10058" unicode="&#x409;" horiz-adv-x="2129" 
d="M211 328l276 1106h912l-86 -492h542l205 -225l-86 -492l-284 -225h-830l209 1188h-348l-242 -963l-309 -245h-256l43 245h123zM1599 246l107 82l49 286l-78 82h-409l-78 -450h409z" />
    <glyph glyph-name="afii10059" unicode="&#x40a;" horiz-adv-x="2119" 
d="M469 635l-111 -635h-286l252 1434h286l-98 -553h492l98 553h287l-99 -553h543l207 -226l-76 -430l-285 -225h-829l111 635h-492zM1589 246l107 82l39 225l-78 82h-410l-67 -389h409z" />
    <glyph glyph-name="afii10060" unicode="&#x40b;" horiz-adv-x="1474" 
d="M502 0h-287l209 1188h-297l43 246h911l-43 -246h-327l-47 -266h512l180 -195l-127 -727h-287l109 625l-52 51h-378z" />
    <glyph glyph-name="afii10061" unicode="&#x40c;" horiz-adv-x="1372" 
d="M463 594l-105 -594h-286l252 1434h286l-104 -594h184l473 594h328l-563 -697l342 -737h-328l-274 594h-205zM1008 1884h286l-276 -287h-205z" />
    <glyph glyph-name="afii10062" unicode="&#x40e;" horiz-adv-x="1351" 
d="M1204 1434h297l-866 -1434h-297l213 348h-113l-288 1086h307l217 -861h10zM1040 1956h226l-33 -184l-201 -154h-348l-147 154l32 184h226l-17 -92l53 -52h123l70 52z" />
    <glyph glyph-name="afii10145" unicode="&#x40f;" horiz-adv-x="1505" 
d="M1229 0h-441l-51 -287h-276l51 287h-440l252 1434h286l-209 -1188h584l209 1188h287z" />
    <glyph glyph-name="afii10017" unicode="&#x410;" horiz-adv-x="1433" 
d="M1024 0l-78 379h-532l-209 -379h-307l784 1434h369l280 -1434h-307zM807 1096l-258 -471h348z" />
    <glyph glyph-name="afii10018" unicode="&#x411;" horiz-adv-x="1464" 
d="M1004 0h-932l252 1434h1075l-43 -246h-789l-51 -287h645l207 -225l-80 -451zM915 246l105 82l43 245l-76 82h-514l-72 -409h514z" />
    <glyph glyph-name="afii10019" unicode="&#x412;" horiz-adv-x="1484" 
d="M1219 758l145 -164l-72 -399l-248 -195h-972l252 1434h911l180 -195l-65 -379zM954 246l70 51l39 225l-76 82h-522l-64 -358h553zM1110 1137l-51 51h-492l-59 -338h461l106 82z" />
    <glyph glyph-name="afii10020" unicode="&#x413;" 
d="M324 1434h1003l-43 -246h-717l-209 -1188h-286z" />
    <glyph glyph-name="afii10021" unicode="&#x414;" horiz-adv-x="1505" 
d="M-39 246h62l202 164l252 1024h953l-209 -1188h163l-98 -553h-287l56 307h-850l-55 -307h-285zM500 348l-127 -102h561l166 942h-389z" />
    <glyph glyph-name="afii10022" unicode="&#x415;" horiz-adv-x="1331" 
d="M324 1434h1065l-43 -246h-779l-61 -348h594l-43 -246h-594l-62 -348h799l-43 -246h-1085z" />
    <glyph glyph-name="afii10024" unicode="&#x416;" horiz-adv-x="2048" 
d="M1169 594l-104 -594h-287l105 594h-174l-484 -594h-327l600 737l-318 697h328l264 -594h154l104 594h287l-105 -594h154l473 594h328l-563 -697l342 -737h-328l-275 594h-174z" />
    <glyph glyph-name="afii10025" unicode="&#x417;" horiz-adv-x="1300" 
d="M803 614h-471l45 246h461l106 82l33 195l-51 51h-738l43 246h871l180 -195l-65 -379l-144 -112l-2 -11l111 -123l-74 -419l-248 -195h-901l43 246h768l70 51l41 235z" />
    <glyph glyph-name="afii10026" unicode="&#x418;" horiz-adv-x="1525" 
d="M1249 0h-286l159 911h-10l-774 -911h-266l252 1434h286l-161 -912h10l776 912h266z" />
    <glyph glyph-name="afii10027" unicode="&#x419;" horiz-adv-x="1525" 
d="M1249 0h-286l159 911h-10l-774 -911h-266l252 1434h286l-161 -912h10l776 912h266zM1122 1956h226l-33 -184l-201 -154h-348l-148 154l33 184h226l-17 -92l53 -52h123l70 52z" />
    <glyph glyph-name="afii10028" unicode="&#x41a;" horiz-adv-x="1372" 
d="M463 594l-105 -594h-286l252 1434h286l-104 -594h184l473 594h328l-563 -697l342 -737h-328l-274 594h-205z" />
    <glyph glyph-name="afii10029" unicode="&#x41b;" horiz-adv-x="1484" 
d="M211 328l276 1106h973l-252 -1434h-286l208 1188h-409l-242 -963l-309 -245h-256l43 245h123z" />
    <glyph glyph-name="afii10030" unicode="&#x41c;" horiz-adv-x="1792" 
d="M948 328h-194l-232 553h-10l-154 -881h-286l252 1434h286l301 -727h11l559 727h286l-251 -1434h-287l153 881h-10z" />
    <glyph glyph-name="afii10031" unicode="&#x41d;" horiz-adv-x="1515" 
d="M463 594l-105 -594h-286l252 1434h286l-104 -594h594l104 594h287l-252 -1434h-287l105 594h-594z" />
    <glyph glyph-name="afii10032" unicode="&#x41e;" horiz-adv-x="1515" 
d="M653 1208l-131 -102l-137 -778l94 -103h430l131 103l138 778l-95 102h-430zM563 1454h697l223 -246l-174 -983l-310 -245h-696l-223 245l174 983z" />
    <glyph glyph-name="afii10033" unicode="&#x41f;" horiz-adv-x="1515" 
d="M324 1434h1167l-252 -1434h-287l209 1188h-594l-209 -1188h-286z" />
    <glyph glyph-name="afii10034" unicode="&#x420;" horiz-adv-x="1423" 
d="M1059 430h-625l-76 -430h-286l252 1434h911l207 -226l-99 -553zM1137 1106l-78 82h-492l-90 -512h492l106 82z" />
    <glyph glyph-name="afii10035" unicode="&#x421;" horiz-adv-x="1320" 
d="M1169 246l-43 -246h-819l-223 246l166 942l309 246h819l-43 -246h-686l-131 -103l-131 -737l96 -102h686z" />
    <glyph glyph-name="afii10036" unicode="&#x422;" horiz-adv-x="1228" 
d="M655 0h-286l209 1188h-431l43 246h1147l-43 -246h-430z" />
    <glyph glyph-name="afii10037" unicode="&#x423;" horiz-adv-x="1351" 
d="M1204 1434h297l-866 -1434h-297l213 348h-113l-288 1086h307l217 -861h10z" />
    <glyph glyph-name="afii10038" unicode="&#x424;" horiz-adv-x="1863" 
d="M1485 1106h-318l-131 -737h318l71 51l111 635zM924 1352l32 184h287l-33 -184h451l180 -195l-147 -840l-250 -194h-451l-32 -184h-287l33 184h-451l-180 194l147 840l250 195h451zM881 1106h-318l-71 -51l-111 -635l51 -51h318z" />
    <glyph glyph-name="afii10039" unicode="&#x425;" horiz-adv-x="1341" 
d="M739 942l404 492h317l-573 -697l352 -737h-317l-256 532h-11l-440 -532h-317l610 737l-328 697h318l231 -492h10z" />
    <glyph glyph-name="afii10040" unicode="&#x426;" horiz-adv-x="1525" 
d="M1450 1434l-209 -1188h164l-98 -553h-287l55 307h-1003l252 1434h286l-209 -1188h553l209 1188h287z" />
    <glyph glyph-name="afii10041" unicode="&#x427;" horiz-adv-x="1433" 
d="M152 686l131 748h286l-114 -646l69 -71h471l127 717h287l-252 -1434h-287l82 471h-604z" />
    <glyph glyph-name="afii10042" unicode="&#x428;" horiz-adv-x="2068" 
d="M1757 1434h287l-252 -1434h-1720l252 1434h286l-209 -1188h430l209 1188h287l-209 -1188h430z" />
    <glyph glyph-name="afii10043" unicode="&#x429;" horiz-adv-x="2119" 
d="M2044 1434l-209 -1188h164l-98 -553h-287l55 307h-1597l252 1434h286l-209 -1188h430l209 1188h287l-209 -1188h430l209 1188h287z" />
    <glyph glyph-name="afii10044" unicode="&#x42a;" horiz-adv-x="1515" 
d="M127 1188l43 246h573l-86 -492h584l205 -225l-86 -492l-285 -225h-870l209 1188h-287zM985 246l107 82l49 286l-78 82h-451l-77 -450h450z" />
    <glyph glyph-name="afii10045" unicode="&#x42b;" horiz-adv-x="1945" 
d="M1921 1434l-252 -1434h-287l252 1434h287zM324 1434h286l-86 -492h584l205 -225l-86 -492l-285 -225h-870zM852 246l106 82l50 286l-78 82h-451l-78 -450h451z" />
    <glyph glyph-name="afii10046" unicode="&#x42c;" horiz-adv-x="1402" 
d="M872 246l107 82l49 286l-78 82h-471l-78 -450h471zM524 942h604l205 -225l-86 -492l-284 -225h-891l252 1434h286z" />
    <glyph glyph-name="afii10047" unicode="&#x42d;" horiz-adv-x="1300" 
d="M299 594l43 246h573l43 245l-94 103h-686l43 246h819l224 -246l-166 -942l-310 -246h-819l43 246h686l129 102l45 246h-573z" />
    <glyph glyph-name="afii10048" unicode="&#x42e;" horiz-adv-x="1996" 
d="M463 594l-105 -594h-286l252 1434h286l-104 -594h256l65 368l310 246h604l223 -246l-174 -983l-309 -245h-604l-224 245l66 369h-256zM1227 1208l-131 -102l-138 -778l95 -103h338l131 103l137 778l-94 102h-338z" />
    <glyph glyph-name="afii10049" unicode="&#x42f;" horiz-adv-x="1454" 
d="M362 492l-190 204l92 512l285 226h881l-252 -1434h-287l82 471h-307l-379 -471h-338zM639 1188l-107 -82l-55 -307l78 -82h461l84 471h-461z" />
    <glyph glyph-name="afii10065" unicode="&#x430;" horiz-adv-x="1116" 
d="M639 92l-117 -92h-358l-166 174l51 287l225 174h441l18 102l-53 51h-451l43 236h584l172 -184l-147 -840h-236zM655 297l19 102h-307l-60 -41l-14 -82l45 -40h235z" />
    <glyph glyph-name="afii10066" unicode="&#x431;" horiz-adv-x="1208" 
d="M264 1219l275 215h635l-41 -236h-502l-107 -82l-35 -194h431l196 -215l-90 -512l-272 -215h-471l-199 215zM823 604l-78 82h-296l-70 -389l78 -82h205l106 82z" />
    <glyph glyph-name="afii10067" unicode="&#x432;" horiz-adv-x="1126" 
d="M901 532l113 -122l-43 -236l-223 -174h-707l180 1024h666l155 -164l-45 -246l-94 -71zM389 410l-31 -174h297l58 40l16 93l-43 41h-297zM455 788l-29 -163h256l47 30l19 103l-37 30h-256z" />
    <glyph glyph-name="afii10068" unicode="&#x433;" horiz-adv-x="911" 
d="M317 0h-276l180 1024h748l-43 -236h-471z" />
    <glyph glyph-name="afii10069" unicode="&#x434;" 
d="M166 369l158 655h768l-140 -788h133l-88 -502h-276l47 266h-594l-47 -266h-274l86 502h63zM424 317l-107 -81h359l96 552h-235z" />
    <glyph glyph-name="afii10070" unicode="&#x435;" horiz-adv-x="1105" 
d="M428 1044h420l199 -215l-76 -430h-615l-14 -82l78 -81h440l-41 -236h-573l-199 215l109 614zM414 727l-21 -123h338l21 123l-78 82h-154z" />
    <glyph glyph-name="afii10072" unicode="&#x436;" horiz-adv-x="1566" 
d="M205 0h-307l430 532l-219 492h307l168 -379h71l68 379h276l-67 -379h72l303 379h307l-395 -492l245 -532h-307l-184 410h-82l-72 -410h-276l71 410h-82z" />
    <glyph glyph-name="afii10073" unicode="&#x437;" horiz-adv-x="1003" 
d="M233 399l39 226h318l47 30l18 103l-37 30h-491l43 236h625l155 -164l-45 -246l-129 -92l105 -112l-43 -236l-224 -174h-655l41 236h522l58 40l16 93l-35 30h-328z" />
    <glyph glyph-name="afii10074" unicode="&#x438;" 
d="M311 0h-270l180 1024h277l-101 -563h11l446 563h279l-181 -1024h-276l98 563h-10l-455 -565z" />
    <glyph glyph-name="afii10075" unicode="&#x439;" 
d="M311 0h-270l180 1024h277l-101 -563h11l446 563h279l-181 -1024h-276l98 563h-10l-455 -565zM868 1208h-317l-131 133l35 195h215l-21 -113l35 -30h113l47 30l20 113h215l-35 -195z" />
    <glyph glyph-name="afii10076" unicode="&#x43a;" horiz-adv-x="1116" 
d="M1014 0h-307l-185 410h-133l-72 -410h-276l180 1024h277l-68 -379h123l303 379h307l-395 -492z" />
    <glyph glyph-name="afii10077" unicode="&#x43b;" horiz-adv-x="1177" 
d="M154 297l180 727h778l-180 -1024h-277l138 788h-236l-145 -593l-273 -215h-225l41 235h92z" />
    <glyph glyph-name="afii10078" unicode="&#x43c;" horiz-adv-x="1402" 
d="M727 236h-174l-133 296h-10l-93 -532h-276l180 1024h277l196 -451h11l356 451h276l-180 -1024h-276l92 532h-10z" />
    <glyph glyph-name="afii10079" unicode="&#x43d;" horiz-adv-x="1177" 
d="M317 0h-276l180 1024h277l-74 -410h338l74 410h276l-180 -1024h-277l66 379h-338z" />
    <glyph glyph-name="afii10080" unicode="&#x43e;" horiz-adv-x="1167" 
d="M156 829l272 215h471l199 -215l-113 -634l-272 -215h-471l-199 215zM803 727l-78 82h-205l-106 -82l-76 -430l78 -82h205l106 82z" />
    <glyph glyph-name="afii10081" unicode="&#x43f;" horiz-adv-x="1177" 
d="M317 0h-276l180 1024h891l-180 -1024h-277l138 788h-338z" />
    <glyph glyph-name="afii10082" unicode="&#x440;" horiz-adv-x="1177" 
d="M580 1024h327l197 -215l-105 -594l-272 -215h-410l-73 -410h-277l254 1434h236l4 -92zM809 707l-78 81h-205l-82 -61l-86 -491h277l106 81z" />
    <glyph glyph-name="afii10083" unicode="&#x441;" horiz-adv-x="993" 
d="M342 317l78 -81h440l-41 -236h-573l-199 215l105 594l274 215h573l-43 -236h-440l-106 -81z" />
    <glyph glyph-name="afii10084" unicode="&#x442;" horiz-adv-x="952" 
d="M512 0h-276l137 788h-307l43 236h890l-43 -236h-307z" />
    <glyph glyph-name="afii10085" unicode="&#x443;" horiz-adv-x="1024" 
d="M90 -410l207 410h-61l-158 1024h287l90 -707h10l350 707h287l-725 -1434h-287z" />
    <glyph glyph-name="afii10086" unicode="&#x444;" horiz-adv-x="1484" 
d="M705 -410h-277l74 410h-256l-199 215l105 594l274 215h256l72 410h276l-72 -410h256l197 -215l-104 -594l-273 -215h-256zM1116 707l-78 81h-123l-96 -552h123l107 81zM342 317l78 -81h123l96 552h-123l-106 -81z" />
    <glyph glyph-name="afii10087" unicode="&#x445;" horiz-adv-x="1013" 
d="M467 328h-10l-262 -328h-297l430 532l-219 492h297l122 -287h11l225 287h297l-395 -492l245 -532h-297z" />
    <glyph glyph-name="afii10088" unicode="&#x446;" horiz-adv-x="1208" 
d="M778 0h-737l180 1024h277l-140 -788h328l139 788h277l-139 -788h133l-88 -502h-277z" />
    <glyph glyph-name="afii10089" unicode="&#x447;" horiz-adv-x="1126" 
d="M604 0l53 307h-378l-181 195l92 522h277l-74 -420l60 -61h245l86 481h277l-180 -1024h-277z" />
    <glyph glyph-name="afii10090" unicode="&#x448;" horiz-adv-x="1628" 
d="M754 1024h276l-139 -788h256l139 788h277l-181 -1024h-1341l180 1024h277l-140 -788h256z" />
    <glyph glyph-name="afii10091" unicode="&#x449;" horiz-adv-x="1669" 
d="M1239 0h-1198l180 1024h277l-140 -788h256l140 788h276l-139 -788h256l139 788h277l-140 -788h133l-88 -502h-276z" />
    <glyph glyph-name="afii10092" unicode="&#x44a;" horiz-adv-x="1167" 
d="M799 0h-656l138 788h-226l43 236h502l-57 -317h379l163 -175l-63 -358zM502 471l-41 -235h246l57 40l29 154l-45 41h-246z" />
    <glyph glyph-name="afii10093" unicode="&#x44b;" horiz-adv-x="1546" 
d="M1300 0h-276l180 1024h277zM696 0h-655l180 1024h277l-58 -317h379l164 -175l-63 -358zM399 471l-41 -235h246l58 40l28 154l-45 41h-246z" />
    <glyph glyph-name="afii10094" unicode="&#x44c;" horiz-adv-x="1085" 
d="M717 0h-676l180 1024h277l-58 -317h400l164 -175l-64 -358zM399 471l-41 -235h267l57 40l29 154l-45 41h-267z" />
    <glyph glyph-name="afii10095" unicode="&#x44d;" horiz-adv-x="993" 
d="M451 236l106 81l16 93h-368l37 215h368l15 82l-78 81h-441l44 236h573l197 -215l-105 -594l-272 -215h-574l41 236h441z" />
    <glyph glyph-name="afii10096" unicode="&#x44e;" horiz-adv-x="1566" 
d="M317 0h-276l180 1024h277l-74 -410h154l38 215l271 215h411l199 -215l-113 -634l-272 -215h-412l-196 215l33 184h-154zM1202 727l-78 82h-143l-107 -82l-75 -430l78 -82h143l106 82z" />
    <glyph glyph-name="afii10097" unicode="&#x44f;" horiz-adv-x="1116" 
d="M233 348l-145 154l62 348l225 174h676l-181 -1024h-276l57 328h-143l-272 -328h-297zM692 563l39 225h-266l-57 -40l-25 -144l43 -41h266z" />
    <glyph glyph-name="afii10071" unicode="&#x451;" horiz-adv-x="1105" 
d="M428 1044h420l199 -215l-76 -430h-615l-14 -82l78 -81h440l-41 -236h-573l-199 215l109 614zM414 727l-21 -123h338l21 123l-78 82h-154zM592 1219h-246l45 256h246zM991 1219h-246l46 256h245z" />
    <glyph glyph-name="afii10099" unicode="&#x452;" horiz-adv-x="1218" 
d="M1032 174l-272 -215h-246l41 236h113l106 81l55 308l-61 61h-287l-112 -645h-277l184 1055h-143l43 235h143l25 144h277l-25 -144h225l-43 -235h-225l-31 -174h420l182 -195z" />
    <glyph glyph-name="afii10100" unicode="&#x453;" horiz-adv-x="911" 
d="M317 0h-276l180 1024h748l-43 -236h-471zM717 1516h287l-283 -328h-205z" />
    <glyph glyph-name="afii10101" unicode="&#x454;" horiz-adv-x="993" 
d="M342 317l78 -81h440l-41 -236h-573l-199 215l105 594l274 215h573l-43 -236h-440l-106 -81l-15 -82h369l-37 -215h-369z" />
    <glyph glyph-name="afii10102" unicode="&#x455;" horiz-adv-x="1034" 
d="M418 635h358l164 -174l-51 -287l-223 -174h-676l41 236h542l58 40l14 82l-43 41h-358l-164 174l49 277l225 174h625l-43 -236h-492l-57 -40l-12 -72z" />
    <glyph glyph-name="afii10103" unicode="&#x456;" horiz-adv-x="563" 
d="M221 1024h277l-181 -1024h-276zM530 1219h-276l47 266h277z" />
    <glyph glyph-name="afii10104" unicode="&#x457;" horiz-adv-x="563" 
d="M221 1024h277l-181 -1024h-276zM315 1219h-245l45 256h245zM715 1219h-246l45 256h246z" />
    <glyph glyph-name="afii10105" unicode="&#x458;" horiz-adv-x="563" 
d="M-82 -174l107 82l196 1116h277l-215 -1219l-275 -215h-336l43 236h203zM530 1219h-276l47 266h277z" />
    <glyph glyph-name="afii10106" unicode="&#x459;" horiz-adv-x="1658" 
d="M1290 0h-655l137 788h-215l-145 -593l-273 -215h-225l41 235h92l107 82l180 727h758l-58 -317h379l164 -175l-64 -358zM993 471l-41 -235h246l57 40l29 154l-45 41h-246z" />
    <glyph glyph-name="afii10107" unicode="&#x45a;" horiz-adv-x="1658" 
d="M317 0h-276l180 1024h277l-64 -358h318l63 358h277l-64 -358h379l164 -174l-58 -318l-223 -174h-655l76 430h-318zM987 430l-35 -194h246l57 40l21 113l-43 41h-246z" />
    <glyph glyph-name="afii10108" unicode="&#x45b;" horiz-adv-x="1228" 
d="M1004 0h-277l102 584l-61 61h-287l-112 -645h-277l184 1055h-143l43 235h143l25 144h277l-25 -144h225l-43 -235h-225l-31 -174h420l182 -195z" />
    <glyph glyph-name="afii10109" unicode="&#x45c;" horiz-adv-x="1116" 
d="M1014 0h-307l-185 410h-133l-72 -410h-276l180 1024h277l-68 -379h123l303 379h307l-395 -492zM799 1516h286l-282 -328h-205z" />
    <glyph glyph-name="afii10110" unicode="&#x45e;" horiz-adv-x="1024" 
d="M776 1208h-317l-131 133l34 195h216l-21 -113l35 -30h113l47 30l20 113h215l-35 -195zM90 -410l207 410h-61l-158 1024h287l90 -707h10l350 707h287l-725 -1434h-287z" />
    <glyph glyph-name="afii10193" unicode="&#x45f;" horiz-adv-x="1177" 
d="M348 0h-307l180 1024h277l-140 -788h338l140 788h276l-180 -1024h-307l-47 -266h-277z" />
    <glyph glyph-name="afii10050" unicode="&#x490;" horiz-adv-x="1208" 
d="M324 1434h737l37 204h256l-80 -450h-707l-209 -1188h-286z" />
    <glyph glyph-name="afii10098" unicode="&#x491;" horiz-adv-x="901" 
d="M317 0h-276l180 1024h502l33 184h235l-76 -420h-460z" />
    <glyph glyph-name="uni1E9E" unicode="&#x1e9e;" horiz-adv-x="1464" 
d="M688 717l43 246l227 235l3 10h-287l-131 -102l-195 -1106h-287l213 1208l310 246h778l-41 -225l-250 -256l-2 -10h102l207 -226l-90 -512l-284 -225h-533l43 246h399l107 82l53 307l-78 82h-307z" />
    <glyph glyph-name="endash" unicode="&#x2013;" horiz-adv-x="1095" 
d="M63 594l43 246h973l-43 -246h-973z" />
    <glyph glyph-name="emdash" unicode="&#x2014;" horiz-adv-x="1474" 
d="M63 594l43 246h1352l-43 -246h-1352z" />
    <glyph glyph-name="quoteleft" unicode="&#x2018;" horiz-adv-x="491" 
d="M506 1362l-121 -164h102l-49 -276h-266l49 276l195 236z" />
    <glyph glyph-name="quoteright" unicode="&#x2019;" horiz-adv-x="491" 
d="M195 993l120 164h-102l49 277h266l-49 -277l-194 -235z" />
    <glyph glyph-name="quotesinglbase" unicode="&#x201a;" horiz-adv-x="491" 
d="M-10 -164l123 164h-103l47 276h267l-48 -276l-196 -236z" />
    <glyph glyph-name="quotedblleft" unicode="&#x201c;" horiz-adv-x="870" 
d="M506 1362l-121 -164h102l-49 -276h-266l49 276l195 236zM885 1362l-121 -164h102l-49 -276h-266l49 276l195 236z" />
    <glyph glyph-name="quotedblright" unicode="&#x201d;" horiz-adv-x="870" 
d="M195 993l120 164h-102l49 277h266l-49 -277l-194 -235zM573 993l121 164h-102l49 277h266l-49 -277l-194 -235z" />
    <glyph glyph-name="quotedblbase" unicode="&#x201e;" horiz-adv-x="870" 
d="M-10 -164l123 164h-103l47 276h267l-48 -276l-196 -236zM369 -164l123 164h-103l47 276h266l-47 -276l-196 -236z" />
    <glyph glyph-name="dagger" unicode="&#x2020;" horiz-adv-x="1167" 
d="M154 881l43 245h338l73 410h287l-74 -410h338l-43 -245h-338l-172 -983h-287l173 983h-338z" />
    <glyph glyph-name="daggerdbl" unicode="&#x2021;" horiz-adv-x="1208" 
d="M1026 246h-338l-61 -348h-287l61 348h-338l43 246h338l80 450h-338l43 246h338l62 348h286l-61 -348h338l-43 -246h-338l-80 -450h338z" />
    <glyph glyph-name="bullet" unicode="&#x2022;" horiz-adv-x="706" 
d="M512 532h-338l66 369h338z" />
    <glyph glyph-name="ellipsis" unicode="&#x2026;" horiz-adv-x="1454" 
d="M276 0h-266l47 276h267zM758 0h-266l47 276h266zM1239 0h-266l47 276h266z" />
    <glyph glyph-name="perthousand" unicode="&#x2030;" horiz-adv-x="2385" 
d="M352 963l54 -52h61l70 52l47 266l-52 51h-61l-72 -51zM125 891l72 409l202 154h267l145 -154l-72 -409l-200 -154h-267zM1491 1434l-1051 -1434h-215l1051 1434h215zM1362 471l-53 51h-62l-69 -51l-48 -266l54 -51h61l70 51zM1589 543l-71 -410l-201 -153h-266l-148 153
l72 410l201 153h266zM2079 471l-54 51h-61l-70 -51l-47 -266l54 -51h61l70 51zM2306 543l-72 -410l-200 -153h-267l-147 153l72 410l200 153h267z" />
    <glyph glyph-name="guilsinglleft" unicode="&#x2039;" horiz-adv-x="819" 
d="M59 522l578 543l143 -174l-393 -369l264 -368l-205 -174z" />
    <glyph glyph-name="guilsinglright" unicode="&#x203a;" horiz-adv-x="819" 
d="M350 1065l385 -543l-575 -542l-144 174l392 368l-263 369z" />
    <glyph glyph-name="fraction" unicode="&#x2044;" horiz-adv-x="1013" 
d="M1163 1434l-1050 -1434h-215l1050 1434h215z" />
    <glyph glyph-name="foursuperior" unicode="&#x2074;" horiz-adv-x="737" 
d="M430 758l25 143h-359l25 133l387 400h256l-68 -379h82l-26 -154h-82l-25 -143h-215zM481 1055l35 194h-10l-176 -184l-2 -10h153z" />
    <glyph glyph-name="Euro" unicode="&#x20ac;" horiz-adv-x="1413" 
d="M117 778l37 215h153l35 195l309 246h819l-43 -246h-686l-131 -103l-16 -92h502l-37 -215h-502l-22 -123h501l-39 -215h-501l-17 -92l96 -102h687l-43 -246h-820l-223 246l33 194h-154l39 215h154l22 123h-153z" />
    <glyph glyph-name="uni20B4" unicode="&#x20b4;" horiz-adv-x="1320" 
d="M1264 778h-1137l31 185h645l84 61l14 82l-78 82h-430l43 246h563l207 -226l-37 -204l-49 -41h174zM104 655h1137l-33 -184h-645l-82 -61l-14 -82l78 -82h481l-43 -246h-614l-207 225l37 205l47 41h-174z" />
    <glyph glyph-name="uni20BD" unicode="&#x20bd;" horiz-adv-x="1474" 
d="M459 225l-39 -225h-287l39 225h-154l37 205h154l24 143h-153l39 226h153l113 635h881l207 -226l-74 -409l-285 -226h-594l-24 -143h614l-37 -205h-614zM1167 1106l-77 82h-461l-70 -389h461l106 82z" />
    <glyph glyph-name="afii61352" unicode="&#x2116;" horiz-adv-x="2181" 
d="M1462 348l37 205h533l-37 -205h-533zM1743 952l53 -51h62l69 51l49 277l-51 51h-61l-72 -51zM1516 881l73 419l203 154h266l146 -154l-74 -419l-201 -154h-266zM1004 532l159 902h287l-252 -1434h-276l-396 901h-10l-158 -901h-286l252 1434h276l393 -902h11z" />
    <glyph glyph-name="trademark" unicode="&#x2122;" horiz-adv-x="1853" 
d="M520 635h-246l105 594h-225l36 205h697l-37 -205h-225zM1378 799h-133l-94 215h-10l-68 -379h-246l142 799h235l154 -349h10l277 349h235l-141 -799h-246l68 379h-11z" />
    <glyph glyph-name="minus" unicode="&#x2212;" horiz-adv-x="1105" 
d="M104 594l43 246h902l-43 -246h-902z" />
    <glyph glyph-name="Breve" unicode="&#xf406;" horiz-adv-x="747" 
d="M711 1597h-318l-131 134l29 153h215l-12 -72l34 -30h113l47 30l12 72h215l-28 -153z" />
    <glyph glyph-name="Circumflex" unicode="&#xf408;" horiz-adv-x="778" 
d="M506 1884h225l164 -287h-236l-69 123l-115 -123h-235z" />
    <glyph glyph-name="Dotaccent" unicode="&#xf40b;" horiz-adv-x="399" 
d="M522 1628h-276l39 225h276z" />
    <glyph glyph-name="Ring" unicode="&#xf40c;" horiz-adv-x="634" 
d="M430 1690l27 -21h102l35 21l18 102l-26 20h-103l-34 -20zM248 1638l35 205l141 103h266l105 -103l-35 -205l-142 -102h-266z" />
    <glyph glyph-name="Tilde" unicode="&#xf40d;" horiz-adv-x="778" 
d="M489 1679l-165 -71l-52 174l254 102l170 -82l166 72l51 -174l-254 -103z" />
    <glyph glyph-name="commaaccent" unicode="&#xf6c3;" horiz-adv-x="389" 
d="M-137 -604l121 164h-101l45 276h267l-48 -276l-196 -236z" />
    <glyph glyph-name="Acute" unicode="&#xf6c9;" horiz-adv-x="552" 
d="M434 1884h287l-277 -287h-204z" />
    <glyph glyph-name="Caron" unicode="&#xf6ca;" horiz-adv-x="778" 
d="M680 1597h-225l-164 287h235l70 -123l115 123h235z" />
    <glyph glyph-name="Dieresis" unicode="&#xf6cb;" horiz-adv-x="768" 
d="M492 1628h-246l39 225h245zM891 1628h-246l39 225h246z" />
    <glyph glyph-name="Grave" unicode="&#xf6ce;" horiz-adv-x="552" 
d="M291 1884h287l92 -287h-205z" />
    <glyph glyph-name="Hungarumlaut" unicode="&#xf6cf;" horiz-adv-x="901" 
d="M424 1884h276l-256 -287h-204zM793 1884h276l-256 -287h-205z" />
    <glyph glyph-name="Macron" unicode="&#xf6d0;" horiz-adv-x="665" 
d="M246 1628l39 225h542l-39 -225h-542z" />
    <glyph glyph-name="cyrBreve" unicode="&#xf6d1;" horiz-adv-x="819" 
d="M774 1956h225l-32 -184l-201 -154h-348l-148 154l33 184h225l-16 -92l53 -52h123l70 52z" />
    <glyph glyph-name="cyrbreve" unicode="&#xf6d4;" horiz-adv-x="747" 
d="M643 1208h-317l-131 133l34 195h215l-20 -113l35 -30h112l47 30l21 113h215l-35 -195z" />
    <glyph glyph-name="Germandbls" horiz-adv-x="1464" 
d="M688 717l43 246l227 235l3 10h-287l-131 -102l-195 -1106h-287l213 1208l310 246h778l-41 -225l-250 -256l-2 -10h102l207 -226l-90 -512l-284 -225h-533l43 246h399l107 82l53 307l-78 82h-307z" />
    <glyph glyph-name="foundryicon" horiz-adv-x="2519" 
d="M205 -225v1884h2109v-1884h-2109zM2273 -184v1802h-2027v-1802h2027zM1300 1249h226q74 0 119 -38.5t45 -94.5t-45 -94.5t-119 -38.5h-113v-164h-113v430zM1300 614h226q74 0 119 -38.5t45 -94.5t-45 -94.5t-119 -38.5h-113v-164h-113v430zM1014 348l-154 266h123
l82 -153h10l82 153h133l-164 -266v-164h-112v164zM1014 983l-154 266h123l82 -153h10l82 153h133l-164 -266v-164h-112v164zM614 522h-133v92h338l51 -92h-143v-338h-113v338zM614 1157h-133v92h338l51 -92h-143v-338h-113v338zM1618 819v133q40 8 78 43.5t45 79.5h164v-92
h-174v-72h245v-92h-358zM1618 184v133q40 8 78 43.5t45 79.5h164v-92h-174v-72h245v-92h-358zM1659 614h317v-92h-235q-8 32 -30 58.5t-52 33.5zM1659 1249h317v-92h-235q-8 32 -30 58.5t-52 33.5zM1567 1116q0 15 -13 28t-28 13h-113v-82h113q16 0 28.5 12t12.5 29z
M1567 481q0 15 -13 28t-28 13h-113v-82h113q16 0 28.5 12t12.5 29z" />
    </font>
</defs>
</svg>
