<?xml version="1.0" standalone="no"?>
<!DOCTYPE svg PUBLIC "-//W3C//DTD SVG 1.1//EN" "http://www.w3.org/Graphics/SVG/1.1/DTD/svg11.dtd" >
<svg xmlns="http://www.w3.org/2000/svg" xmlns:xlink="http://www.w3.org/1999/xlink" version="1.1">
<metadata>
Created by FontForge 20170731 at Tue Apr  6 15:18:44 2021
 By Aleksey,,,
Copyright (c) 2016 by Typetype. Designer Ivan Gladkikh, technical designer Olexa Volochay. All rights reserved.
</metadata>
<defs>
<font id="TTSquaresCondensed-LightItalic" horiz-adv-x="1464" >
  <font-face 
    font-family="TT Squares Condensed Thin"
    font-weight="300"
    font-style="italic"
    font-stretch="normal"
    units-per-em="2048"
    panose-1="2 0 8 3 3 0 0 9 0 3"
    ascent="1638"
    descent="-410"
    x-height="1024"
    cap-height="1434"
    bbox="-328 -543 2314 1905"
    underline-thickness="102"
    underline-position="-307"
    unicode-range="U+000D-F6D4"
  />
<missing-glyph horiz-adv-x="563" 
 />
    <glyph glyph-name=".notdef" horiz-adv-x="563" 
 />
    <glyph glyph-name=".null" horiz-adv-x="0" 
 />
    <glyph glyph-name=".null" horiz-adv-x="0" 
 />
    <glyph glyph-name="nonmarkingreturn" horiz-adv-x="682" 
 />
    <glyph glyph-name="CR" unicode="&#xd;" horiz-adv-x="0" 
 />
    <glyph glyph-name="space" unicode=" " horiz-adv-x="368" 
 />
    <glyph glyph-name="exclam" unicode="!" horiz-adv-x="512" 
d="M467 1434l-135 -768l-80 -277h-62l19 277l135 768h123zM225 0h-143l29 174h143z" />
    <glyph glyph-name="quotedbl" unicode="&#x22;" horiz-adv-x="645" 
d="M344 1147l-65 -205h-62l4 205l51 287h123zM621 1147l-66 -205h-61l4 205l51 287h123z" />
    <glyph glyph-name="numbersign" unicode="#" 
d="M1245 1434h123l-164 -410h256l-22 -123h-277l-147 -369h266l-20 -122h-287l-164 -410h-123l164 410h-420l-164 -410h-123l164 410h-256l21 122h276l148 369h-267l23 123h287l163 410h123l-163 -410h419zM618 901l-147 -369h420l147 369h-420z" />
    <glyph glyph-name="dollar" unicode="$" horiz-adv-x="1290" 
d="M469 -184l33 184h-441l19 113h706l201 153l45 246l-147 154h-482l-206 225l57 317l285 226h215l32 184h113l-33 -184h389l-20 -113h-666l-200 -154l-41 -235l147 -154h481l205 -225l-57 -328l-285 -225h-205l-32 -184h-113z" />
    <glyph glyph-name="percent" unicode="%" horiz-adv-x="1576" 
d="M276 932l86 -92h123l119 92l58 328l-87 92h-122l-119 -92zM156 891l71 409l193 154h225l135 -154l-71 -409l-191 -154h-225zM1389 1434l-1031 -1434h-122l1030 1434h123zM1348 502l-86 92h-123l-119 -92l-59 -328l88 -92h122l117 92zM1466 543l-71 -410l-191 -153h-225
l-137 153l71 410l191 153h225z" />
    <glyph glyph-name="ampersand" unicode="&#x26;" horiz-adv-x="1300" 
d="M979 676h-563l-154 -113l-57 -327l121 -123h553zM1264 788l-19 -112h-143l-119 -676h-727l-182 195l73 409l177 133l-103 113l68 389l250 195h573l-20 -113h-523l-163 -123l-56 -307l105 -103h542l35 195h123l-35 -195h144z" />
    <glyph glyph-name="quotesingle" unicode="'" horiz-adv-x="368" 
d="M344 1147l-65 -205h-62l4 205l51 287h123z" />
    <glyph glyph-name="parenleft" unicode="(" horiz-adv-x="624" 
d="M623 1444l-166 -123l-262 -1495l120 -123h62l-21 -113h-112l-181 195l279 1577l250 194h113l-21 -112h-61z" />
    <glyph glyph-name="parenright" unicode=")" horiz-adv-x="624" 
d="M426 1321l-121 123h-61l20 112h113l180 -194l-278 -1577l-250 -195h-113l21 113h61l166 123z" />
    <glyph glyph-name="asterisk" unicode="*" horiz-adv-x="901" 
d="M604 1167l262 154l35 -92l-262 -154l209 -153l-68 -93l-209 154l-51 -287h-102l51 287l-262 -154l-35 93l262 153l-209 154l68 92l209 -154l51 287h102z" />
    <glyph glyph-name="plus" unicode="+" horiz-adv-x="1034" 
d="M117 666l20 112h359l67 389h113l-68 -389h359l-21 -112h-358l-70 -390h-112l69 390h-358z" />
    <glyph glyph-name="comma" unicode="," horiz-adv-x="389" 
d="M-20 -164l102 164h-62l29 174h144l-29 -174l-127 -195z" />
    <glyph glyph-name="hyphen" unicode="-" horiz-adv-x="921" 
d="M117 666l20 112h717l-20 -112h-717z" />
    <glyph glyph-name="period" unicode="." horiz-adv-x="389" 
d="M164 0h-144l29 174h144z" />
    <glyph glyph-name="slash" unicode="/" horiz-adv-x="890" 
d="M1040 1434l-1020 -1434h-122l1020 1434h122z" />
    <glyph glyph-name="zero" unicode="0" horiz-adv-x="1413" 
d="M625 1341l-226 -174l-159 -901l163 -174h431l225 174l160 901l-164 174h-430zM594 1454h532l224 -246l-174 -983l-310 -245h-532l-223 245l174 983z" />
    <glyph glyph-name="one" unicode="1" horiz-adv-x="880" 
d="M686 0h-655l18 113h266l213 1208h-266l21 113h389l-234 -1321h267z" />
    <glyph glyph-name="two" unicode="2" horiz-adv-x="1290" 
d="M121 512l309 246h440l226 174l47 266l-123 123h-715l21 113h766l180 -195l-62 -348l-309 -246h-440l-225 -174l-64 -358h870l-18 -113h-993z" />
    <glyph glyph-name="three" unicode="3" horiz-adv-x="1259" 
d="M242 1321l20 113h768l164 -174l-70 -390l-141 -112l-2 -10l139 -144l-73 -409l-248 -195h-809l18 113h758l166 123l57 327l-121 123h-491l18 113h461l154 112l53 303l-105 107h-716z" />
    <glyph glyph-name="four" unicode="4" horiz-adv-x="1280" 
d="M809 0l53 307h-850l19 103l1009 1024h144l-178 -1014h163l-20 -113h-164l-53 -307h-123zM883 420l149 850h-10l-836 -850h697z" />
    <glyph glyph-name="five" unicode="5" horiz-adv-x="1290" 
d="M819 0h-737l18 113h686l201 153l55 307l-147 154h-666l125 707h881l-21 -113h-757l-84 -481h594l204 -226l-67 -389z" />
    <glyph glyph-name="six" unicode="6" horiz-adv-x="1320" 
d="M313 -20l-207 225l175 983l309 246h665l-20 -113h-614l-226 -174l-49 -277h658l204 -225l-78 -440l-284 -225h-533zM1079 604l-147 154h-604l-90 -512l145 -154h430l203 154z" />
    <glyph glyph-name="seven" unicode="7" horiz-adv-x="1064" 
d="M150 1321l20 113h1004l-17 -93l-891 -1341h-123l875 1311l2 10h-870z" />
    <glyph glyph-name="eight" unicode="8" horiz-adv-x="1331" 
d="M866 -20h-614l-182 194l75 420l191 154l2 10l-113 123l68 379l250 194h553l180 -194l-68 -379l-153 -123l-2 -10l137 -154l-76 -420zM322 92h512l165 123l60 338l-129 143h-492l-178 -143l-59 -338zM573 1341l-165 -122l-52 -297l103 -113h491l144 113l51 297l-121 122
h-451z" />
    <glyph glyph-name="nine" unicode="9" horiz-adv-x="1320" 
d="M1055 1454l205 -225l-173 -983l-309 -246h-665l18 113h614l226 174l49 276h-658l-204 225l78 441l286 225h533zM289 829l147 -153h604l90 512l-147 153h-430l-201 -153z" />
    <glyph glyph-name="colon" unicode=":" horiz-adv-x="389" 
d="M164 0h-144l29 174h144zM313 850h-143l29 174h143z" />
    <glyph glyph-name="semicolon" unicode=";" horiz-adv-x="389" 
d="M-20 -164l102 164h-62l29 174h144l-29 -174l-127 -195zM313 850h-143l29 174h143z" />
    <glyph glyph-name="less" unicode="&#x3c;" horiz-adv-x="757" 
d="M467 -20l-377 542l567 543l68 -82l-481 -461l319 -461z" />
    <glyph glyph-name="equal" unicode="=" horiz-adv-x="1003" 
d="M96 430l19 113h757l-18 -113h-758zM162 809l20 113h758l-20 -113h-758z" />
    <glyph glyph-name="greater" unicode="&#x3e;" horiz-adv-x="757" 
d="M643 522l-565 -542l-68 81l479 461l-317 461l96 82z" />
    <glyph glyph-name="question" unicode="?" horiz-adv-x="1136" 
d="M727 707l213 163l51 287l-155 164h-666l20 113h717l215 -236l-65 -369l-297 -235h-256l-37 -205h-123l45 256l82 62h256zM410 0h-144l29 174h143z" />
    <glyph glyph-name="at" unicode="@" horiz-adv-x="1822" 
d="M662 1495h839l275 -307l-119 -676l-252 -205h-215l-78 82h-10l-107 -82h-264l-141 144l90 512l190 143h420l-110 -625l69 -71h123l178 143l105 592l-213 237h-758l-299 -235l-156 -881l215 -235h861l-21 -113h-901l-272 307l170 963zM711 492l77 -82h185l94 71l92 523
h-266l-107 -82z" />
    <glyph glyph-name="A" unicode="A" horiz-adv-x="1310" 
d="M1055 0l-99 430h-655l-250 -430h-133l825 1434h123l322 -1434h-133zM768 1249l-408 -706h574l-158 706h-8z" />
    <glyph glyph-name="B" unicode="B" horiz-adv-x="1433" 
d="M1139 768l155 -164l-73 -409l-248 -195h-871l252 1434h809l180 -195l-63 -358zM940 113l166 123l57 327l-121 123h-696l-102 -573h696zM1214 1198l-122 123h-635l-92 -522h634l166 123z" />
    <glyph glyph-name="C" unicode="C" horiz-adv-x="1290" 
d="M1094 113l-19 -113h-737l-223 246l166 942l309 246h737l-20 -113h-686l-226 -174l-151 -860l164 -174h686z" />
    <glyph glyph-name="D" unicode="D" horiz-adv-x="1454" 
d="M102 0l252 1434h809l223 -246l-165 -942l-310 -246h-809zM244 113h635l225 174l151 860l-163 174h-635z" />
    <glyph glyph-name="E" unicode="E" horiz-adv-x="1320" 
d="M354 1434h994l-21 -113h-870l-95 -543h687l-21 -112h-686l-98 -553h891l-19 -113h-1014z" />
    <glyph glyph-name="F" unicode="F" horiz-adv-x="1259" 
d="M354 1434h973l-20 -113h-850l-107 -604h676l-18 -113h-676l-107 -604h-123z" />
    <glyph glyph-name="G" unicode="G" horiz-adv-x="1443" 
d="M1114 287l70 389h-389l18 112h512l-94 -542l-309 -246h-584l-223 246l166 942l309 246h727l-21 -113h-675l-226 -174l-151 -860l164 -174h481z" />
    <glyph glyph-name="H" unicode="H" 
d="M342 666l-117 -666h-123l252 1434h123l-115 -656h809l115 656h123l-252 -1434h-123l117 666h-809z" />
    <glyph glyph-name="I" unicode="I" horiz-adv-x="880" 
d="M645 0h-614l18 113h246l213 1208h-246l21 113h614l-20 -113h-246l-213 -1208h246z" />
    <glyph glyph-name="J" unicode="J" horiz-adv-x="1044" 
d="M664 287l202 1147h123l-209 -1188l-309 -246h-532l18 113h481z" />
    <glyph glyph-name="K" unicode="K" horiz-adv-x="1290" 
d="M342 666l-117 -666h-123l252 1434h123l-115 -656h349l524 656h143l-563 -697l352 -737h-143l-313 666h-369z" />
    <glyph glyph-name="L" unicode="L" horiz-adv-x="1167" 
d="M354 1434h123l-233 -1321h798l-18 -113h-922z" />
    <glyph glyph-name="M" unicode="M" horiz-adv-x="1730" 
d="M862 369h-71l-349 809h-10l-207 -1178h-123l252 1434h123l377 -881h10l688 881h123l-252 -1434h-123l207 1178h-10z" />
    <glyph glyph-name="N" unicode="N" 
d="M1077 246l209 1188h123l-252 -1434h-113l-600 1188h-10l-209 -1188h-123l252 1434h113l600 -1188h10z" />
    <glyph glyph-name="O" unicode="O" 
d="M625 1341l-226 -174l-159 -901l163 -174h482l225 174l160 901l-164 174h-481zM594 1454h584l223 -246l-174 -983l-309 -245h-584l-223 245l174 983z" />
    <glyph glyph-name="P" unicode="P" horiz-adv-x="1382" 
d="M989 502h-676l-88 -502h-123l252 1434h799l207 -226l-86 -481zM1229 1167l-148 154h-624l-125 -707h624l203 154z" />
    <glyph glyph-name="Q" unicode="Q" 
d="M594 1454h584l223 -246l-174 -983l-119 -92l149 -317h-133l-112 235l-94 -71h-584l-223 245l174 983zM625 1341l-226 -174l-159 -901l163 -174h482l84 62l-119 256h133l80 -185l47 41l160 901l-164 174h-481z" />
    <glyph glyph-name="R" unicode="R" horiz-adv-x="1413" 
d="M1075 0l-225 532h-533l-92 -532h-123l252 1434h789l207 -226l-80 -450l-287 -226l225 -532h-133zM1219 1167l-148 154h-614l-119 -676h614l201 154z" />
    <glyph glyph-name="S" unicode="S" horiz-adv-x="1320" 
d="M403 666l-206 225l57 317l285 226h737l-21 -113h-686l-200 -154l-41 -235l147 -154h512l205 -225l-57 -328l-285 -225h-789l19 113h737l201 153l45 246l-148 154h-512z" />
    <glyph glyph-name="T" unicode="T" horiz-adv-x="1146" 
d="M532 0h-122l231 1321h-471l20 113h1065l-20 -113h-471z" />
    <glyph glyph-name="U" unicode="U" horiz-adv-x="1484" 
d="M1100 266l207 1168h123l-213 -1209l-310 -245h-542l-224 245l213 1209h123l-207 -1168l164 -174h440z" />
    <glyph glyph-name="V" unicode="V" horiz-adv-x="1259" 
d="M604 0h-153l-281 1434h133l246 -1280h10l696 1280h134z" />
    <glyph glyph-name="W" unicode="W" horiz-adv-x="1894" 
d="M1184 1434l114 -1260h11l561 1260h133l-641 -1434h-174l-117 1260h-10l-559 -1260h-174l-138 1434h134l114 -1260h11l561 1260h174z" />
    <glyph glyph-name="X" unicode="X" horiz-adv-x="1177" 
d="M602 635h-10l-531 -635h-143l623 748l-340 686h143l287 -584h10l492 584h143l-582 -686l361 -748h-144z" />
    <glyph glyph-name="Y" unicode="Y" horiz-adv-x="1208" 
d="M563 0h-123l92 532l-382 902h143l323 -758h9l589 758h144l-703 -902z" />
    <glyph glyph-name="Z" unicode="Z" horiz-adv-x="1187" 
d="M1004 0h-1024l14 92l1055 1219l2 10h-809l20 113h973l-16 -93l-1055 -1218l-2 -10h860z" />
    <glyph glyph-name="bracketleft" unicode="[" horiz-adv-x="665" 
d="M397 -410h-368l348 1966h368l-20 -112h-246l-307 -1741h246z" />
    <glyph glyph-name="backslash" unicode="\" horiz-adv-x="890" 
d="M272 1434l516 -1434h-122l-516 1434h122z" />
    <glyph glyph-name="bracketright" unicode="]" horiz-adv-x="665" 
d="M264 1556h369l-348 -1966h-369l21 113h245l307 1741h-245z" />
    <glyph glyph-name="asciicircum" unicode="^" horiz-adv-x="839" 
d="M610 1434l238 -451h-133l-170 317l-281 -317h-133l397 451h82z" />
    <glyph glyph-name="underscore" unicode="_" horiz-adv-x="706" 
d="M-147 -256l20 113h705l-21 -113h-704z" />
    <glyph glyph-name="grave" unicode="`" horiz-adv-x="399" 
d="M211 1434h143l82 -287h-92z" />
    <glyph glyph-name="a" unicode="a" horiz-adv-x="1075" 
d="M713 102l-129 -102h-389l-166 174l45 246l225 174h492l34 205l-112 112h-451l21 113h501l172 -184l-147 -840h-92zM727 236l43 245h-440l-142 -102l-28 -164l104 -102h297z" />
    <glyph glyph-name="b" unicode="b" horiz-adv-x="1136" 
d="M334 1434h123l-72 -410h461l196 -215l-104 -594l-272 -215h-584zM913 768l-139 143h-409l-142 -798h410l190 143z" />
    <glyph glyph-name="c" unicode="c" horiz-adv-x="962" 
d="M199 256l137 -143h450l-18 -113h-502l-198 215l104 594l274 215h502l-20 -113h-451l-188 -143z" />
    <glyph glyph-name="d" unicode="d" horiz-adv-x="1136" 
d="M758 0l-4 102l-129 -102h-359l-198 215l104 594l274 215h461l72 410h123l-252 -1434h-92zM199 256l137 -143h266l166 123l119 675h-410l-188 -143z" />
    <glyph glyph-name="e" unicode="e" horiz-adv-x="1054" 
d="M449 1044h327l199 -215l-68 -378h-676l-32 -195l137 -143h450l-18 -113h-502l-198 215l108 614zM291 788l-39 -225h553l39 225l-137 144h-226z" />
    <glyph glyph-name="f" unicode="f" horiz-adv-x="727" 
d="M131 860l19 113h184l43 246l274 215h287l-20 -113h-236l-188 -143l-37 -205h286l-18 -113h-287l-151 -860h-123l151 860h-184z" />
    <glyph glyph-name="g" unicode="g" horiz-adv-x="1136" 
d="M477 911l-188 -143l-90 -512l137 -143h420l141 798h-420zM709 -154l28 154h-471l-198 215l104 594l274 215h594l-215 -1219l-274 -215h-502l21 113h450z" />
    <glyph glyph-name="h" unicode="h" horiz-adv-x="1157" 
d="M334 1434h123l-72 -410h471l180 -195l-145 -829h-123l137 788l-121 123h-419l-160 -911h-123z" />
    <glyph glyph-name="i" unicode="i" horiz-adv-x="481" 
d="M256 1024h123l-180 -1024h-123zM428 1270h-133l29 164h133z" />
    <glyph glyph-name="j" unicode="j" horiz-adv-x="466" 
d="M-154 -297l187 143l209 1178h123l-215 -1219l-273 -215h-205l21 113h153zM414 1270h-133l28 164h133z" />
    <glyph glyph-name="k" unicode="k" horiz-adv-x="1003" 
d="M881 0h-133l-205 471h-256l-82 -471h-123l252 1434h123l-150 -850h256l344 440h133l-385 -492z" />
    <glyph glyph-name="l" unicode="l" horiz-adv-x="532" 
d="M246 0h-123l231 1321h-143l20 113h267z" />
    <glyph glyph-name="m" unicode="m" horiz-adv-x="1648" 
d="M1276 911h-195l-153 -112l-140 -799h-122l139 799l-113 112h-194l-166 -123l-137 -788h-123l180 1024h92l2 -102l131 102h287l110 -123h21l156 123h297l180 -195l-146 -829h-122l137 788z" />
    <glyph glyph-name="n" unicode="n" horiz-adv-x="1146" 
d="M344 1024l2 -102l131 102h369l180 -195l-145 -829h-123l137 788l-121 123h-276l-166 -123l-137 -788h-123l180 1024h92z" />
    <glyph glyph-name="o" unicode="o" horiz-adv-x="1116" 
d="M176 829l273 215h378l199 -215l-113 -634l-272 -215h-379l-199 215zM895 788l-137 144h-277l-190 -144l-96 -552l137 -144h276l191 144z" />
    <glyph glyph-name="p" unicode="p" horiz-adv-x="1126" 
d="M477 1024h359l196 -215l-104 -594l-273 -215h-460l-74 -410h-123l254 1434h92l2 -102zM903 768l-139 143h-266l-166 -123l-119 -675h410l190 143z" />
    <glyph glyph-name="q" unicode="q" horiz-adv-x="1126" 
d="M776 -410h-123l74 410h-461l-198 215l104 594l274 215h584zM199 256l137 -143h409l142 798h-410l-188 -143z" />
    <glyph glyph-name="r" unicode="r" horiz-adv-x="808" 
d="M344 1024l2 -102l131 102h389l-20 -113h-348l-166 -123l-137 -788h-123l180 1024h92z" />
    <glyph glyph-name="s" unicode="s" horiz-adv-x="993" 
d="M356 573h349l163 -174l-41 -225l-223 -174h-584l19 113h532l142 102l24 143l-104 103h-348l-164 174l39 215l225 174h543l-21 -113h-491l-142 -102l-22 -133z" />
    <glyph glyph-name="t" unicode="t" horiz-adv-x="788" 
d="M119 911l20 113h185l47 266h123l-48 -266h287l-20 -113h-287l-115 -655l138 -143h194l-18 -113h-246l-199 215l123 696h-184z" />
    <glyph glyph-name="u" unicode="u" horiz-adv-x="1157" 
d="M788 0l-4 102l-129 -102h-368l-183 195l148 829h123l-139 -788l120 -123h277l166 123l139 788h123l-180 -1024h-93z" />
    <glyph glyph-name="v" unicode="v" horiz-adv-x="962" 
d="M451 0h-144l-209 1024h133l177 -860l479 860h133z" />
    <glyph glyph-name="w" unicode="w" horiz-adv-x="1382" 
d="M825 1024l93 -809h10l368 809h123l-467 -1024h-123l-94 809h-10l-377 -809h-123l-106 1024h123l82 -809h10l379 809h112z" />
    <glyph glyph-name="x" unicode="x" horiz-adv-x="890" 
d="M424 440h-10l-363 -440h-133l440 532l-239 492h133l194 -399h11l338 399h133l-416 -492l256 -532h-133z" />
    <glyph glyph-name="y" unicode="y" horiz-adv-x="1157" 
d="M758 0h-471l-183 195l148 829h123l-139 -788l120 -123h420l162 911h123l-215 -1219l-275 -215h-481l21 113h430l188 143z" />
    <glyph glyph-name="z" unicode="z" horiz-adv-x="880" 
d="M860 932l-727 -809l-2 -10h604l-18 -113h-758l14 92l727 809l2 10h-563l21 113h717z" />
    <glyph glyph-name="braceleft" unicode="{" horiz-adv-x="706" 
d="M705 1444l-166 -123l-109 -614l-166 -134l119 -133l-107 -614l121 -123h62l-21 -113h-112l-181 195l109 614l-121 133l14 82l168 134l109 614l250 194h112l-20 -112h-61z" />
    <glyph glyph-name="bar" unicode="|" horiz-adv-x="614" 
d="M70 -410l348 1966h123l-348 -1966h-123z" />
    <glyph glyph-name="braceright" unicode="}" horiz-adv-x="706" 
d="M426 1321l-121 123h-61l20 112h113l180 -194l-108 -614l118 -134l-14 -82l-166 -133l-108 -614l-250 -195h-113l21 113h61l166 123l106 614l168 133l-121 134z" />
    <glyph glyph-name="asciitilde" unicode="~" horiz-adv-x="962" 
d="M395 850l226 -225l227 184l57 -82l-309 -246l-227 226l-228 -185l-55 82z" />
    <glyph glyph-name="nbspace" unicode="&#xa0;" horiz-adv-x="0" 
 />
    <glyph glyph-name="exclamdown" unicode="&#xa1;" horiz-adv-x="512" 
d="M18 -410l136 768l79 277h62l-19 -277l-135 -768h-123zM262 1024h144l-31 -174h-144z" />
    <glyph glyph-name="cent" unicode="&#xa2;" horiz-adv-x="983" 
d="M397 -184l33 184h-164l-198 215l104 594l274 215h164l33 184h113l-33 -184h246l-21 -113h-246l-141 -798h246l-19 -113h-245l-33 -184h-113zM199 256l137 -143h113l141 798h-113l-188 -143zM199 256l137 -143h450l-18 -113h-502l-198 215l104 594l274 215h502l-20 -113
h-451l-188 -143z" />
    <glyph glyph-name="sterling" unicode="&#xa3;" horiz-adv-x="1157" 
d="M254 113h758l-19 -113h-1013l18 113h92l215 174l68 379h-205l20 112h205l72 410l309 246h348l-20 -113h-297l-225 -174l-64 -369h481l-20 -112h-481l-74 -420z" />
    <glyph glyph-name="currency" unicode="&#xa4;" horiz-adv-x="1402" 
d="M334 276l-47 -276h-123l47 276h-154l21 113h153l33 184h-153l20 113h154l131 748h768l207 -226l-74 -409l-285 -226h-645l-33 -184h666l-21 -113h-665zM1260 1167l-148 154h-594l-110 -635h593l201 154z" />
    <glyph glyph-name="yen" unicode="&#xa5;" horiz-adv-x="1208" 
d="M1073 573h-389l-29 -41l-24 -143h409l-20 -113h-410l-47 -276h-123l47 276h-409l20 113h410l24 143l-12 41h-389l21 113h317l-319 748h143l323 -758h9l589 758h144l-582 -748h318z" />
    <glyph glyph-name="brokenbar" unicode="&#xa6;" horiz-adv-x="573" 
d="M252 737l145 819h123l-145 -819h-123zM317 410l-145 -820h-123l146 820h122z" />
    <glyph glyph-name="section" unicode="&#xa7;" horiz-adv-x="1218" 
d="M850 881l207 -226l-64 -358l-131 -102l94 -103l-47 -276l-286 -226h-605l21 113h553l201 154l34 194l-86 92h-399l-207 226l64 358l131 102l-94 103l49 276l284 226h564l-21 -113h-512l-201 -154l-34 -194l86 -92h399zM266 410l148 -154h358l107 82l47 276l-146 154h-358
l-107 -82z" />
    <glyph glyph-name="dieresis" unicode="&#xa8;" horiz-adv-x="593" 
d="M315 1270h-133l29 164h133zM653 1270h-133l29 164h133z" />
    <glyph glyph-name="copyright" unicode="&#xa9;" horiz-adv-x="1843" 
d="M229 266l215 -235h758l297 235l156 881l-213 235h-758l-299 -235zM1223 -82h-840l-272 307l170 963l381 307h839l275 -307l-170 -963zM1167 410l-18 -103h-420l-139 144l90 512l190 143h420l-18 -102h-379l-107 -82l-75 -430l77 -82h379z" />
    <glyph glyph-name="ordfeminine" unicode="&#xaa;" horiz-adv-x="829" 
d="M664 860l28 164h-317l-94 -61l-21 -123l72 -62h215zM653 748l-94 -72h-297l-123 123l37 205l164 122h369l22 123l-88 82h-338l19 103h389l139 -144l-109 -614h-81z" />
    <glyph glyph-name="guillemotleft" unicode="&#xab;" horiz-adv-x="1003" 
d="M369 10l-279 502l457 502l69 -72l-393 -430l242 -430zM717 10l-279 502l457 502l70 -72l-394 -430l242 -430z" />
    <glyph glyph-name="logicalnot" unicode="&#xac;" horiz-adv-x="983" 
d="M117 666l20 112h778l-53 -297h-112l32 185h-665z" />
    <glyph glyph-name="uni00AD" unicode="&#xad;" horiz-adv-x="911" 
d="M117 666l20 112h707l-21 -112h-706z" />
    <glyph glyph-name="registered" unicode="&#xae;" horiz-adv-x="1843" 
d="M1077 307l-102 287h-246l-51 -287h-113l142 799h462l119 -123l-47 -266l-151 -113l100 -297h-113zM1108 1004h-307l-56 -308h308l84 62l32 184zM684 1382l-299 -235l-156 -881l215 -235h758l297 235l156 881l-213 235h-758zM662 1495h839l275 -307l-170 -963l-383 -307
h-840l-272 307l170 963z" />
    <glyph glyph-name="macron" unicode="&#xaf;" horiz-adv-x="655" 
d="M186 1290l19 113h532l-18 -113h-533z" />
    <glyph glyph-name="degree" unicode="&#xb0;" horiz-adv-x="870" 
d="M315 922l86 -93h154l119 93l59 338l-86 92h-153l-119 -92zM195 881l73 419l193 154h256l135 -154l-74 -419l-190 -154h-256z" />
    <glyph glyph-name="plusminus" unicode="&#xb1;" horiz-adv-x="1034" 
d="M47 154l19 112h788l-18 -112h-789zM145 829l21 113h358l68 389h113l-68 -389h358l-20 -113h-359l-69 -389h-113l70 389h-359z" />
    <glyph glyph-name="twosuperior" unicode="&#xb2;" horiz-adv-x="747" 
d="M264 860h406l-19 -102h-518l47 266l142 113h256l59 41l20 112l-45 41h-358l18 103h410l94 -103l-35 -194l-129 -103h-256l-71 -51z" />
    <glyph glyph-name="threesuperior" unicode="&#xb3;" horiz-adv-x="716" 
d="M539 1147l59 41l18 112l-43 41h-348l17 93h411l84 -93l-32 -184l-70 -51l59 -62l-30 -184l-132 -102h-419l18 102h369l57 41l21 113l-46 41h-225l17 92h215z" />
    <glyph glyph-name="acute" unicode="&#xb4;" horiz-adv-x="399" 
d="M354 1495h144l-234 -287h-92z" />
    <glyph glyph-name="mu" unicode="&#xb5;" horiz-adv-x="1157" 
d="M209 92l-88 -502h-123l254 1434h123l-139 -788l120 -123h277l166 123l139 788h123l-180 -1024h-93l-4 102l-129 -102h-358z" />
    <glyph glyph-name="paragraph" unicode="&#xb6;" horiz-adv-x="1126" 
d="M506 553h-113l-205 225l76 430l285 226h235l-325 -1844h-123zM928 1434h123l-326 -1844h-123z" />
    <glyph glyph-name="periodcentered" unicode="&#xb7;" horiz-adv-x="389" 
d="M272 625h-143l29 174h143z" />
    <glyph glyph-name="cedilla" unicode="&#xb8;" horiz-adv-x="440" 
d="M-20 0h102l-12 -61h51l121 -134l-27 -153l-168 -133h-172l16 92h132l94 72l16 92l-70 71h-112z" />
    <glyph glyph-name="onesuperior" unicode="&#xb9;" horiz-adv-x="563" 
d="M492 758h-338l18 102h113l82 471h-113l18 103h226l-101 -574h113z" />
    <glyph glyph-name="ordmasculine" unicode="&#xba;" horiz-adv-x="829" 
d="M227 1290l189 144h297l139 -144l-84 -471l-188 -143h-297l-140 143zM731 1249l-88 82h-194l-117 -82l-68 -389l88 -82h195l117 82z" />
    <glyph glyph-name="guillemotright" unicode="&#xbb;" horiz-adv-x="1003" 
d="M608 1014l281 -502l-459 -502l-68 72l394 430l-242 430zM260 1014l281 -502l-459 -502l-68 72l394 430l-242 430z" />
    <glyph glyph-name="onequarter" unicode="&#xbc;" horiz-adv-x="1484" 
d="M1337 1434l-1030 -1434h-123l1030 1434h123zM471 758h-338l19 102h112l82 471h-113l19 103h225l-100 -574h112zM1083 0l25 143h-389l16 93l457 440h123l-76 -430h82l-18 -103h-82l-25 -143h-113zM1126 246l52 297h-11l-295 -287l-2 -10h256z" />
    <glyph glyph-name="onehalf" unicode="&#xbd;" horiz-adv-x="1597" 
d="M1337 1434l-1030 -1434h-123l1030 1434h123zM471 758h-338l19 102h112l82 471h-113l19 103h225l-100 -574h112zM958 102h406l-18 -102h-519l47 266l142 113h256l59 41l21 112l-45 41h-359l19 103h409l94 -103l-34 -194l-129 -103h-256l-72 -51z" />
    <glyph glyph-name="threequarters" unicode="&#xbe;" horiz-adv-x="1566" 
d="M1419 1434l-1030 -1434h-123l1030 1434h123zM1165 0l25 143h-389l16 93l457 440h123l-76 -430h82l-19 -103h-81l-25 -143h-113zM1208 246l52 297h-11l-295 -287l-2 -10h256zM559 1147l59 41l19 112l-43 41h-348l16 93h412l84 -93l-33 -184l-70 -51l60 -62l-31 -184
l-131 -102h-420l19 102h368l58 41l20 113l-45 41h-225l16 92h215z" />
    <glyph glyph-name="questiondown" unicode="&#xbf;" horiz-adv-x="1136" 
d="M383 317l-213 -163l-51 -287l155 -164h666l-20 -113h-717l-213 236l63 369l299 235h256l35 205h123l-45 -256l-82 -62h-256zM702 1024h144l-31 -174h-143z" />
    <glyph glyph-name="Agrave" unicode="&#xc0;" horiz-adv-x="1310" 
d="M1055 0l-99 430h-655l-250 -430h-133l825 1434h123l322 -1434h-133zM768 1249l-408 -706h574l-158 706h-8zM641 1843h143l90 -246h-92z" />
    <glyph glyph-name="Aacute" unicode="&#xc1;" horiz-adv-x="1310" 
d="M1055 0l-99 430h-655l-250 -430h-133l825 1434h123l322 -1434h-133zM768 1249l-408 -706h574l-158 706h-8zM958 1843h144l-228 -246h-92z" />
    <glyph glyph-name="Acircumflex" unicode="&#xc2;" horiz-adv-x="1310" 
d="M1055 0l-99 430h-655l-250 -430h-133l825 1434h123l322 -1434h-133zM768 1249l-408 -706h574l-158 706h-8zM938 1843l172 -246h-133l-115 164l-172 -164h-133l258 246h123z" />
    <glyph glyph-name="Atilde" unicode="&#xc3;" horiz-adv-x="1310" 
d="M1055 0l-99 430h-655l-250 -430h-133l825 1434h123l322 -1434h-133zM768 1249l-408 -706h574l-158 706h-8zM760 1700l-146 -72l-34 92l200 103l170 -82l148 71l35 -92l-203 -102z" />
    <glyph glyph-name="Adieresis" unicode="&#xc4;" horiz-adv-x="1310" 
d="M1055 0l-99 430h-655l-250 -430h-133l825 1434h123l322 -1434h-133zM768 1249l-408 -706h574l-158 706h-8zM739 1649h-133l27 143h133zM1077 1649h-133l27 143h133z" />
    <glyph glyph-name="Aring" unicode="&#xc5;" horiz-adv-x="1310" 
d="M1055 0l-99 430h-655l-250 -430h-133l825 1434h123l322 -1434h-133zM768 1249l-408 -706h574l-158 706h-8zM735 1679l53 -51h103l70 51l14 82l-51 51h-103l-71 -51zM627 1638l28 164l140 103h184l106 -103l-28 -164l-142 -102h-184z" />
    <glyph glyph-name="AE" unicode="&#xc6;" horiz-adv-x="1945" 
d="M1761 0h-942l76 430h-604l-240 -430h-133l795 1434h1280l-21 -113h-798l-95 -543h615l-21 -112h-614l-98 -553h819zM1051 1321h-267l-434 -778h563z" />
    <glyph glyph-name="Ccedilla" unicode="&#xc7;" horiz-adv-x="1290" 
d="M584 0h-246l-223 246l166 942l309 246h737l-20 -113h-686l-226 -174l-151 -860l164 -174h686l-19 -113h-389l-12 -61h51l121 -134l-27 -153l-168 -133h-174l17 92h133l94 72l16 92l-69 71h-113z" />
    <glyph glyph-name="Egrave" unicode="&#xc8;" horiz-adv-x="1320" 
d="M354 1434h994l-21 -113h-870l-95 -543h687l-21 -112h-686l-98 -553h891l-19 -113h-1014zM702 1843h144l90 -246h-92z" />
    <glyph glyph-name="Eacute" unicode="&#xc9;" horiz-adv-x="1320" 
d="M354 1434h994l-21 -113h-870l-95 -543h687l-21 -112h-686l-98 -553h891l-19 -113h-1014zM1020 1843h143l-227 -246h-92z" />
    <glyph glyph-name="Ecircumflex" unicode="&#xca;" horiz-adv-x="1320" 
d="M354 1434h994l-21 -113h-870l-95 -543h687l-21 -112h-686l-98 -553h891l-19 -113h-1014zM983 1843l172 -246h-133l-115 164l-172 -164h-133l258 246h123z" />
    <glyph glyph-name="Edieresis" unicode="&#xcb;" horiz-adv-x="1320" 
d="M354 1434h994l-21 -113h-870l-95 -543h687l-21 -112h-686l-98 -553h891l-19 -113h-1014zM791 1679h-134l29 164h133zM1128 1679h-133l29 164h133z" />
    <glyph glyph-name="Igrave" unicode="&#xcc;" horiz-adv-x="880" 
d="M645 0h-614l18 113h246l213 1208h-246l21 113h614l-20 -113h-246l-213 -1208h246zM426 1843h143l90 -246h-92z" />
    <glyph glyph-name="Iacute" unicode="&#xcd;" horiz-adv-x="880" 
d="M645 0h-614l18 113h246l213 1208h-246l21 113h614l-20 -113h-246l-213 -1208h246zM754 1843h143l-227 -246h-92z" />
    <glyph glyph-name="Icircumflex" unicode="&#xce;" horiz-adv-x="880" 
d="M645 0h-614l18 113h246l213 1208h-246l21 113h614l-20 -113h-246l-213 -1208h246zM723 1843l172 -246h-133l-115 164l-172 -164h-133l258 246h123z" />
    <glyph glyph-name="Idieresis" unicode="&#xcf;" horiz-adv-x="880" 
d="M645 0h-614l18 113h246l213 1208h-246l21 113h614l-20 -113h-246l-213 -1208h246zM524 1649h-133l27 143h133zM862 1649h-133l27 143h133z" />
    <glyph glyph-name="Eth" unicode="&#xd0;" horiz-adv-x="1484" 
d="M133 0l117 666h-144l21 112h143l115 656h809l223 -246l-166 -942l-309 -246h-809zM274 113h635l226 174l151 860l-162 174h-637l-94 -543h379l-20 -112h-379z" />
    <glyph glyph-name="Ntilde" unicode="&#xd1;" 
d="M1077 246l209 1188h123l-252 -1434h-113l-600 1188h-10l-209 -1188h-123l252 1434h113l600 -1188h10zM836 1700l-146 -72l-35 92l201 103l170 -82l148 71l34 -92l-202 -102z" />
    <glyph glyph-name="Ograve" unicode="&#xd2;" 
d="M625 1341l-226 -174l-159 -901l163 -174h482l225 174l160 901l-164 174h-481zM594 1454h584l223 -246l-174 -983l-309 -245h-584l-223 245l174 983zM723 1843h143l90 -246h-92z" />
    <glyph glyph-name="Oacute" unicode="&#xd3;" 
d="M625 1341l-226 -174l-159 -901l163 -174h482l225 174l160 901l-164 174h-481zM594 1454h584l223 -246l-174 -983l-309 -245h-584l-223 245l174 983zM1040 1843h144l-228 -246h-92z" />
    <glyph glyph-name="Ocircumflex" unicode="&#xd4;" 
d="M625 1341l-226 -174l-159 -901l163 -174h482l225 174l160 901l-164 174h-481zM594 1454h584l223 -246l-174 -983l-309 -245h-584l-223 245l174 983zM1014 1843l172 -246h-133l-115 164l-172 -164h-133l258 246h123z" />
    <glyph glyph-name="Otilde" unicode="&#xd5;" 
d="M625 1341l-226 -174l-159 -901l163 -174h482l225 174l160 901l-164 174h-481zM594 1454h584l223 -246l-174 -983l-309 -245h-584l-223 245l174 983zM836 1700l-146 -72l-35 92l201 103l170 -82l148 71l34 -92l-202 -102z" />
    <glyph glyph-name="Odieresis" unicode="&#xd6;" 
d="M625 1341l-226 -174l-159 -901l163 -174h482l225 174l160 901l-164 174h-481zM594 1454h584l223 -246l-174 -983l-309 -245h-584l-223 245l174 983zM815 1649h-133l27 143h133zM1153 1649h-133l27 143h133z" />
    <glyph glyph-name="multiply" unicode="&#xd7;" horiz-adv-x="921" 
d="M401 717l-204 287l96 81l205 -286l307 286l67 -81l-307 -287l207 -287l-98 -82l-205 287l-307 -287l-66 82z" />
    <glyph glyph-name="Oslash" unicode="&#xd8;" 
d="M594 1454h584l102 -113l102 113h123l-164 -174l60 -72l-174 -983l-309 -245h-584l-105 112l-100 -112h-123l164 174l-59 71l174 983zM1270 1167l-17 21l-936 -1004l86 -92h482l225 174zM625 1341l-226 -174l-159 -901l18 -20l934 1003l-86 92h-481z" />
    <glyph glyph-name="Ugrave" unicode="&#xd9;" horiz-adv-x="1484" 
d="M1100 266l207 1168h123l-213 -1209l-310 -245h-542l-224 245l213 1209h123l-207 -1168l164 -174h440zM733 1843h144l90 -246h-93z" />
    <glyph glyph-name="Uacute" unicode="&#xda;" horiz-adv-x="1484" 
d="M1100 266l207 1168h123l-213 -1209l-310 -245h-542l-224 245l213 1209h123l-207 -1168l164 -174h440zM1051 1843h143l-227 -246h-93z" />
    <glyph glyph-name="Ucircumflex" unicode="&#xdb;" horiz-adv-x="1484" 
d="M1100 266l207 1168h123l-213 -1209l-310 -245h-542l-224 245l213 1209h123l-207 -1168l164 -174h440zM1024 1843l172 -246h-133l-115 164l-172 -164h-133l258 246h123z" />
    <glyph glyph-name="Udieresis" unicode="&#xdc;" horiz-adv-x="1484" 
d="M1100 266l207 1168h123l-213 -1209l-310 -245h-542l-224 245l213 1209h123l-207 -1168l164 -174h440zM825 1649h-133l27 143h133zM1163 1649h-133l27 143h133z" />
    <glyph glyph-name="Yacute" unicode="&#xdd;" horiz-adv-x="1208" 
d="M563 0h-123l92 532l-382 902h143l323 -758h9l589 758h144l-703 -902zM907 1843h144l-228 -246h-92z" />
    <glyph glyph-name="Thorn" unicode="&#xde;" horiz-adv-x="1392" 
d="M946 266h-676l-45 -266h-123l252 1434h123l-41 -236h676l205 -225l-84 -481zM1188 932l-148 153h-624l-125 -706h624l201 153z" />
    <glyph glyph-name="germandbls" unicode="&#xdf;" horiz-adv-x="1157" 
d="M82 0l217 1239l274 215h308l196 -215l-55 -317l-119 -93l-2 -10l129 -143l-82 -461l-272 -215h-297l18 113h246l191 143l65 379l-121 123h-266l18 112h256l119 93l43 235l-139 143h-205l-188 -143l-211 -1198h-123z" />
    <glyph glyph-name="agrave" unicode="&#xe0;" horiz-adv-x="1075" 
d="M713 102l-129 -102h-389l-166 174l45 246l225 174h492l34 205l-112 112h-451l21 113h501l172 -184l-147 -840h-92zM727 236l43 245h-440l-142 -102l-28 -164l104 -102h297zM436 1495h144l82 -287h-93z" />
    <glyph glyph-name="aacute" unicode="&#xe1;" horiz-adv-x="1075" 
d="M713 102l-129 -102h-389l-166 174l45 246l225 174h492l34 205l-112 112h-451l21 113h501l172 -184l-147 -840h-92zM727 236l43 245h-440l-142 -102l-28 -164l104 -102h297zM754 1495h143l-233 -287h-93z" />
    <glyph glyph-name="acircumflex" unicode="&#xe2;" horiz-adv-x="1075" 
d="M713 102l-129 -102h-389l-166 174l45 246l225 174h492l34 205l-112 112h-451l21 113h501l172 -184l-147 -840h-92zM727 236l43 245h-440l-142 -102l-28 -164l104 -102h297zM795 1495l166 -287h-134l-110 195l-176 -195h-133l264 287h123z" />
    <glyph glyph-name="atilde" unicode="&#xe3;" horiz-adv-x="1075" 
d="M713 102l-129 -102h-389l-166 174l45 246l225 174h492l34 205l-112 112h-451l21 113h501l172 -184l-147 -840h-92zM727 236l43 245h-440l-142 -102l-28 -164l104 -102h297zM612 1331l-149 -92l-35 92l209 133l166 -102l149 92l35 -92l-209 -133z" />
    <glyph glyph-name="adieresis" unicode="&#xe4;" horiz-adv-x="1075" 
d="M713 102l-129 -102h-389l-166 174l45 246l225 174h492l34 205l-112 112h-451l21 113h501l172 -184l-147 -840h-92zM727 236l43 245h-440l-142 -102l-28 -164l104 -102h297zM592 1270h-133l28 164h134zM930 1270h-133l28 164h133z" />
    <glyph glyph-name="aring" unicode="&#xe5;" horiz-adv-x="1075" 
d="M713 102l-129 -102h-389l-166 174l45 246l225 174h492l34 205l-112 112h-451l21 113h501l172 -184l-147 -840h-92zM727 236l43 245h-440l-142 -102l-28 -164l104 -102h297zM586 1300l61 -61h82l82 61l18 103l-59 61h-82l-84 -61zM477 1260l33 184l154 112h163l113 -112
l-33 -184l-153 -113h-164z" />
    <glyph glyph-name="ae" unicode="&#xe6;" horiz-adv-x="1679" 
d="M891 0l-121 133h-10l-187 -133h-378l-166 174l43 236l225 174h481l37 215l-113 112h-440l21 113h491l119 -133h10l191 153h307l198 -215l-63 -358h-655l-41 -235l121 -123h440l-19 -113h-491zM551 113l166 123l41 235h-430l-142 -102l-26 -154l104 -102h287zM936 788
l-35 -204h533l34 204l-137 144h-205z" />
    <glyph glyph-name="ccedilla" unicode="&#xe7;" horiz-adv-x="962" 
d="M410 0h-144l-198 215l104 594l274 215h502l-20 -113h-451l-188 -143l-90 -512l137 -143h450l-18 -113h-256l-12 -61h51l121 -134l-27 -153l-168 -133h-174l16 92h134l94 72l16 92l-69 71h-113z" />
    <glyph glyph-name="egrave" unicode="&#xe8;" horiz-adv-x="1054" 
d="M449 1044h327l199 -215l-68 -378h-676l-32 -195l137 -143h450l-18 -113h-502l-198 215l108 614zM291 788l-39 -225h553l39 225l-137 144h-226zM487 1495h144l82 -287h-92z" />
    <glyph glyph-name="eacute" unicode="&#xe9;" horiz-adv-x="1054" 
d="M449 1044h327l199 -215l-68 -378h-676l-32 -195l137 -143h450l-18 -113h-502l-198 215l108 614zM291 788l-39 -225h553l39 225l-137 144h-226zM784 1495h144l-234 -287h-92z" />
    <glyph glyph-name="ecircumflex" unicode="&#xea;" horiz-adv-x="1054" 
d="M449 1044h327l199 -215l-68 -378h-676l-32 -195l137 -143h450l-18 -113h-502l-198 215l108 614zM291 788l-39 -225h553l39 225l-137 144h-226zM754 1495l166 -287h-134l-110 195l-176 -195h-133l264 287h123z" />
    <glyph glyph-name="edieresis" unicode="&#xeb;" horiz-adv-x="1054" 
d="M449 1044h327l199 -215l-68 -378h-676l-32 -195l137 -143h450l-18 -113h-502l-198 215l108 614zM291 788l-39 -225h553l39 225l-137 144h-226zM551 1270h-133l28 164h134zM889 1270h-133l28 164h134z" />
    <glyph glyph-name="igrave" unicode="&#xec;" horiz-adv-x="471" 
d="M252 1024h123l-180 -1024h-123zM162 1495h143l82 -287h-92z" />
    <glyph glyph-name="iacute" unicode="&#xed;" horiz-adv-x="466" 
d="M252 1024h123l-180 -1024h-123zM483 1495h144l-234 -287h-92z" />
    <glyph glyph-name="icircumflex" unicode="&#xee;" horiz-adv-x="471" 
d="M252 1024h123l-180 -1024h-123zM457 1495l166 -287h-134l-110 195l-176 -195h-133l264 287h123z" />
    <glyph glyph-name="idieresis" unicode="&#xef;" horiz-adv-x="471" 
d="M252 1024h123l-180 -1024h-123zM254 1270h-133l29 164h133zM592 1270h-133l28 164h134z" />
    <glyph glyph-name="eth" unicode="&#xf0;" horiz-adv-x="1064" 
d="M594 1229l-107 205h134l106 -205h266l-18 -113h-184l186 -338l-105 -583l-272 -215h-369l-198 215l84 471l272 215h399l-131 235h-276l18 113h195zM422 768l-191 -145l-67 -387l137 -144h266l191 144l94 532h-430z" />
    <glyph glyph-name="ntilde" unicode="&#xf1;" horiz-adv-x="1146" 
d="M344 1024l2 -102l131 102h369l180 -195l-145 -829h-123l137 788l-121 123h-276l-166 -123l-137 -788h-123l180 1024h92zM616 1331l-149 -92l-35 92l209 133l166 -102l149 92l35 -92l-209 -133z" />
    <glyph glyph-name="ograve" unicode="&#xf2;" horiz-adv-x="1116" 
d="M176 829l273 215h378l199 -215l-113 -634l-272 -215h-379l-199 215zM895 788l-137 144h-277l-190 -144l-96 -552l137 -144h276l191 144zM487 1495h144l82 -287h-92z" />
    <glyph glyph-name="oacute" unicode="&#xf3;" horiz-adv-x="1116" 
d="M176 829l273 215h378l199 -215l-113 -634l-272 -215h-379l-199 215zM895 788l-137 144h-277l-190 -144l-96 -552l137 -144h276l191 144zM805 1495h143l-233 -287h-92z" />
    <glyph glyph-name="ocircumflex" unicode="&#xf4;" horiz-adv-x="1116" 
d="M176 829l273 215h378l199 -215l-113 -634l-272 -215h-379l-199 215zM895 788l-137 144h-277l-190 -144l-96 -552l137 -144h276l191 144zM778 1495l166 -287h-133l-111 195l-176 -195h-133l264 287h123z" />
    <glyph glyph-name="otilde" unicode="&#xf5;" horiz-adv-x="1116" 
d="M176 829l273 215h378l199 -215l-113 -634l-272 -215h-379l-199 215zM895 788l-137 144h-277l-190 -144l-96 -552l137 -144h276l191 144zM596 1331l-150 -92l-34 92l209 133l165 -102l150 92l35 -92l-209 -133z" />
    <glyph glyph-name="odieresis" unicode="&#xf6;" horiz-adv-x="1116" 
d="M176 829l273 215h378l199 -215l-113 -634l-272 -215h-379l-199 215zM895 788l-137 144h-277l-190 -144l-96 -552l137 -144h276l191 144zM575 1270h-133l29 164h133zM913 1270h-133l29 164h133z" />
    <glyph glyph-name="divide" unicode="&#xf7;" horiz-adv-x="983" 
d="M117 666l20 112h778l-20 -112h-778zM504 246h-144l31 174h144zM641 1024h-143l30 174h144z" />
    <glyph glyph-name="oslash" unicode="&#xf8;" horiz-adv-x="1116" 
d="M176 829l273 215h378l78 -81l76 81h123l-139 -153l61 -62l-113 -634l-272 -215h-379l-78 81l-75 -81h-123l139 153l-62 62zM895 788l-16 21l-607 -655l60 -62h276l191 144zM291 788l-96 -552l16 -21l606 655l-59 62h-277z" />
    <glyph glyph-name="ugrave" unicode="&#xf9;" horiz-adv-x="1157" 
d="M788 0l-4 102l-129 -102h-368l-183 195l148 829h123l-139 -788l120 -123h277l166 123l139 788h123l-180 -1024h-93zM508 1495h143l82 -287h-92z" />
    <glyph glyph-name="uacute" unicode="&#xfa;" horiz-adv-x="1157" 
d="M788 0l-4 102l-129 -102h-368l-183 195l148 829h123l-139 -788l120 -123h277l166 123l139 788h123l-180 -1024h-93zM825 1495h144l-234 -287h-92z" />
    <glyph glyph-name="ucircumflex" unicode="&#xfb;" horiz-adv-x="1157" 
d="M788 0l-4 102l-129 -102h-368l-183 195l148 829h123l-139 -788l120 -123h277l166 123l139 788h123l-180 -1024h-93zM799 1497l166 -287h-134l-110 195l-176 -195h-133l264 287h123z" />
    <glyph glyph-name="udieresis" unicode="&#xfc;" horiz-adv-x="1157" 
d="M788 0l-4 102l-129 -102h-368l-183 195l148 829h123l-139 -788l120 -123h277l166 123l139 788h123l-180 -1024h-93zM596 1270h-133l29 164h133zM934 1270h-133l28 164h134z" />
    <glyph glyph-name="yacute" unicode="&#xfd;" horiz-adv-x="1157" 
d="M758 0h-471l-183 195l148 829h123l-139 -788l120 -123h420l162 911h123l-215 -1219l-275 -215h-481l21 113h430l188 143zM825 1495h144l-234 -287h-92z" />
    <glyph glyph-name="thorn" unicode="&#xfe;" horiz-adv-x="1136" 
d="M385 1024h461l196 -215l-104 -594l-272 -215h-461l-74 -410h-123l326 1844h123zM913 768l-139 143h-409l-142 -798h410l190 143z" />
    <glyph glyph-name="ydieresis" unicode="&#xff;" horiz-adv-x="1157" 
d="M758 0h-471l-183 195l148 829h123l-139 -788l120 -123h420l162 911h123l-215 -1219l-275 -215h-481l21 113h430l188 143zM596 1270h-133l29 164h133zM934 1270h-133l28 164h134z" />
    <glyph glyph-name="Amacron" unicode="&#x100;" horiz-adv-x="1310" 
d="M1055 0l-99 430h-655l-250 -430h-133l825 1434h123l322 -1434h-133zM768 1249l-408 -706h574l-158 706h-8zM578 1659l20 113h532l-20 -113h-532z" />
    <glyph glyph-name="amacron" unicode="&#x101;" horiz-adv-x="1075" 
d="M713 102l-129 -102h-389l-166 174l45 246l225 174h492l34 205l-112 112h-451l21 113h501l172 -184l-147 -840h-92zM727 236l43 245h-440l-142 -102l-28 -164l104 -102h297zM432 1290l19 113h532l-18 -113h-533z" />
    <glyph glyph-name="Abreve" unicode="&#x102;" horiz-adv-x="1310" 
d="M1055 0l-99 430h-655l-250 -430h-133l825 1434h123l322 -1434h-133zM768 1249l-408 -706h574l-158 706h-8zM1139 1843l-25 -143l-131 -103h-297l-94 103l24 143h113l-16 -92l45 -41h194l58 41l16 92h113z" />
    <glyph glyph-name="abreve" unicode="&#x103;" horiz-adv-x="1075" 
d="M713 102l-129 -102h-389l-166 174l45 246l225 174h492l34 205l-112 112h-451l21 113h501l172 -184l-147 -840h-92zM727 236l43 245h-440l-142 -102l-28 -164l104 -102h297zM993 1485l-30 -174l-129 -103h-297l-97 103l31 174h113l-21 -123l43 -41h195l59 41l21 123h112z
" />
    <glyph glyph-name="Aogonek" unicode="&#x104;" horiz-adv-x="1310" 
d="M961 -184l-19 -103l70 -71h92l-17 -93h-133l-120 134l28 163l193 154l-99 430h-655l-250 -430h-133l825 1434h123l322 -1434zM768 1249l-408 -706h574l-158 706h-8z" />
    <glyph glyph-name="aogonek" unicode="&#x105;" horiz-adv-x="1075" 
d="M713 102l-129 -102h-389l-166 174l45 246l225 174h492l34 205l-112 112h-451l21 113h501l172 -184l-147 -840l-227 -184l-19 -103l70 -71h92l-16 -93h-134l-120 134l28 163l228 185zM727 236l43 245h-440l-142 -102l-28 -164l104 -102h297z" />
    <glyph glyph-name="Cacute" unicode="&#x106;" horiz-adv-x="1290" 
d="M1094 113l-19 -113h-737l-223 246l166 942l309 246h737l-20 -113h-686l-226 -174l-151 -860l164 -174h686zM1040 1843h144l-228 -246h-92z" />
    <glyph glyph-name="cacute" unicode="&#x107;" horiz-adv-x="962" 
d="M199 256l137 -143h450l-18 -113h-502l-198 215l104 594l274 215h502l-20 -113h-451l-188 -143zM815 1495h143l-233 -287h-92z" />
    <glyph glyph-name="Ccircumflex" unicode="&#x108;" horiz-adv-x="1290" 
d="M1094 113l-19 -113h-737l-223 246l166 942l309 246h737l-20 -113h-686l-226 -174l-151 -860l164 -174h686zM1020 1843l172 -246h-133l-115 164l-172 -164h-133l258 246h123z" />
    <glyph glyph-name="ccircumflex" unicode="&#x109;" horiz-adv-x="962" 
d="M199 256l137 -143h450l-18 -113h-502l-198 215l104 594l274 215h502l-20 -113h-451l-188 -143zM784 1495l166 -287h-133l-110 195l-177 -195h-133l265 287h122z" />
    <glyph glyph-name="Ccaron" unicode="&#x10c;" horiz-adv-x="1290" 
d="M1094 113l-19 -113h-737l-223 246l166 942l309 246h737l-20 -113h-686l-226 -174l-151 -860l164 -174h686zM854 1597l-172 246h133l115 -164l172 164h133l-258 -246h-123z" />
    <glyph glyph-name="ccaron" unicode="&#x10d;" horiz-adv-x="962" 
d="M199 256l137 -143h450l-18 -113h-502l-198 215l104 594l274 215h502l-20 -113h-451l-188 -143zM612 1208l-166 287h134l108 -195l178 195h133l-264 -287h-123z" />
    <glyph glyph-name="Dcaron" unicode="&#x10e;" horiz-adv-x="1454" 
d="M102 0l252 1434h809l223 -246l-165 -942l-310 -246h-809zM244 113h635l225 174l151 860l-163 174h-635zM803 1597l-172 246h133l115 -164l172 164h133l-258 -246h-123z" />
    <glyph glyph-name="dcaron" unicode="&#x10f;" horiz-adv-x="1208" 
d="M758 0l-4 102l-129 -102h-359l-198 215l104 594l274 215h461l72 410h123l-252 -1434h-92zM199 256l137 -143h266l166 123l119 675h-410l-188 -143zM1188 1116l100 164h-61l30 174h144l-31 -174l-125 -195z" />
    <glyph glyph-name="Dcroat" unicode="&#x110;" horiz-adv-x="1484" 
d="M133 0l117 666h-144l21 112h143l115 656h809l223 -246l-166 -942l-309 -246h-809zM274 113h635l226 174l151 860l-162 174h-637l-94 -543h379l-20 -112h-379z" />
    <glyph glyph-name="dcroat" unicode="&#x111;" horiz-adv-x="1116" 
d="M1190 1126h-143l-197 -1126h-92l-4 102l-129 -102h-359l-198 215l86 492l274 215h461l35 204h-287l20 113h287l35 195h123l-35 -195h143zM199 256l137 -143h266l166 123l100 573h-409l-189 -143z" />
    <glyph glyph-name="Emacron" unicode="&#x112;" horiz-adv-x="1320" 
d="M354 1434h994l-21 -113h-870l-95 -543h687l-21 -112h-686l-98 -553h891l-19 -113h-1014zM623 1659l20 113h533l-21 -113h-532z" />
    <glyph glyph-name="emacron" unicode="&#x113;" horiz-adv-x="1054" 
d="M449 1044h327l199 -215l-68 -378h-676l-32 -195l137 -143h450l-18 -113h-502l-198 215l108 614zM291 788l-39 -225h553l39 225l-137 144h-226zM391 1290l19 113h532l-18 -113h-533z" />
    <glyph glyph-name="Edotaccent" unicode="&#x116;" horiz-adv-x="1320" 
d="M354 1434h994l-21 -113h-870l-95 -543h687l-21 -112h-686l-98 -553h891l-19 -113h-1014zM954 1649h-133l27 143h133z" />
    <glyph glyph-name="edotaccent" unicode="&#x117;" horiz-adv-x="1054" 
d="M449 1044h327l199 -215l-68 -378h-676l-32 -195l137 -143h450l-18 -113h-502l-198 215l108 614zM291 788l-39 -225h553l39 225l-137 144h-226zM721 1270h-133l28 164h134z" />
    <glyph glyph-name="Eogonek" unicode="&#x118;" horiz-adv-x="1320" 
d="M889 -184l-19 -103l70 -71h92l-16 -93h-133l-121 134l29 163l192 154h-881l252 1434h994l-21 -113h-870l-95 -543h687l-21 -112h-686l-98 -553h891l-19 -113z" />
    <glyph glyph-name="eogonek" unicode="&#x119;" horiz-adv-x="1054" 
d="M541 -184l-19 -103l70 -71h92l-16 -93h-133l-121 134l28 163l193 154h-369l-198 215l108 614l273 215h327l199 -215l-68 -378h-676l-32 -195l137 -143h450l-18 -113zM291 788l-39 -225h553l39 225l-137 144h-226z" />
    <glyph glyph-name="Ecaron" unicode="&#x11a;" horiz-adv-x="1320" 
d="M354 1434h994l-21 -113h-870l-95 -543h687l-21 -112h-686l-98 -553h891l-19 -113h-1014zM817 1597l-172 246h133l115 -164l172 164h133l-258 -246h-123z" />
    <glyph glyph-name="ecaron" unicode="&#x11b;" horiz-adv-x="1054" 
d="M449 1044h327l199 -215l-68 -378h-676l-32 -195l137 -143h450l-18 -113h-502l-198 215l108 614zM291 788l-39 -225h553l39 225l-137 144h-226zM582 1208l-166 287h133l108 -195l179 195h133l-264 -287h-123z" />
    <glyph glyph-name="Gbreve" unicode="&#x11e;" horiz-adv-x="1443" 
d="M1114 287l70 389h-389l18 112h512l-94 -542l-309 -246h-584l-223 246l166 942l309 246h727l-21 -113h-675l-226 -174l-151 -860l164 -174h481zM1214 1843l-24 -143l-131 -103h-297l-94 103l24 143h113l-17 -92l46 -41h194l57 41l17 92h112z" />
    <glyph glyph-name="gbreve" unicode="&#x11f;" horiz-adv-x="1136" 
d="M477 911l-188 -143l-90 -512l137 -143h420l141 798h-420zM709 -154l28 154h-471l-198 215l104 594l274 215h594l-215 -1219l-274 -215h-502l21 113h450zM1028 1485l-31 -174l-129 -103h-297l-96 103l31 174h112l-20 -123l43 -41h195l59 41l20 123h113z" />
    <glyph glyph-name="Gcommaaccent" unicode="&#x122;" horiz-adv-x="1443" 
d="M1114 287l70 389h-389l18 112h512l-94 -542l-309 -246h-584l-223 246l166 942l309 246h727l-21 -113h-675l-226 -174l-151 -860l164 -174h481zM457 -512l100 164h-61l30 174h144l-31 -174l-127 -195z" />
    <glyph glyph-name="gcommaaccent" unicode="&#x123;" horiz-adv-x="1136" 
d="M477 911l-188 -143l-90 -512l137 -143h420l141 798h-420zM709 -154l28 154h-471l-198 215l104 594l274 215h594l-215 -1219l-274 -215h-502l21 113h450zM842 1546l-101 -164h62l-31 -174h-143l30 174l125 195z" />
    <glyph glyph-name="Imacron" unicode="&#x12a;" horiz-adv-x="880" 
d="M645 0h-614l18 113h246l213 1208h-246l21 113h614l-20 -113h-246l-213 -1208h246zM362 1659l21 113h532l-20 -113h-533z" />
    <glyph glyph-name="imacron" unicode="&#x12b;" horiz-adv-x="471" 
d="M252 1024h123l-180 -1024h-123zM94 1290l19 113h532l-18 -113h-533z" />
    <glyph glyph-name="Iogonek" unicode="&#x12e;" horiz-adv-x="880" 
d="M418 -184l-19 -103l70 -71h92l-16 -93h-133l-121 134l28 163l193 154h-481l18 113h246l213 1208h-246l21 113h614l-20 -113h-246l-213 -1208h246l-19 -113z" />
    <glyph glyph-name="iogonek" unicode="&#x12f;" horiz-adv-x="481" 
d="M-33 -184l-18 -103l69 -71h93l-17 -93h-133l-119 134l29 163l205 164l180 1014h123l-180 -1024zM428 1270h-133l29 164h133z" />
    <glyph glyph-name="Idotaccent" unicode="&#x130;" horiz-adv-x="880" 
d="M645 0h-614l18 113h246l213 1208h-246l21 113h614l-20 -113h-246l-213 -1208h246zM694 1649h-133l27 143h133z" />
    <glyph glyph-name="dotlessi" unicode="&#x131;" horiz-adv-x="471" 
d="M252 1024h123l-180 -1024h-123z" />
    <glyph glyph-name="Kcommaaccent" unicode="&#x136;" horiz-adv-x="1290" 
d="M342 666l-117 -666h-123l252 1434h123l-115 -656h349l524 656h143l-563 -697l352 -737h-143l-313 666h-369zM446 -512l101 164h-62l31 174h143l-30 -174l-127 -195z" />
    <glyph glyph-name="kcommaaccent" unicode="&#x137;" horiz-adv-x="1003" 
d="M881 0h-133l-205 471h-256l-82 -471h-123l252 1434h123l-150 -850h256l344 440h133l-385 -492zM309 -512l101 164h-62l31 174h143l-30 -174l-127 -195z" />
    <glyph glyph-name="Lacute" unicode="&#x139;" horiz-adv-x="1167" 
d="M354 1434h123l-233 -1321h798l-18 -113h-922zM575 1843h144l-227 -246h-93z" />
    <glyph glyph-name="lacute" unicode="&#x13a;" horiz-adv-x="536" 
d="M246 0h-123l231 1321h-143l20 113h267zM594 1843h143l-227 -246h-92z" />
    <glyph glyph-name="Lcommaaccent" unicode="&#x13b;" horiz-adv-x="1167" 
d="M354 1434h123l-233 -1321h798l-18 -113h-922zM395 -512l101 164h-62l31 174h143l-30 -174l-127 -195z" />
    <glyph glyph-name="lcommaaccent" unicode="&#x13c;" horiz-adv-x="532" 
d="M246 0h-123l231 1321h-143l20 113h267zM12 -512l101 164h-62l31 174h143l-30 -174l-127 -195z" />
    <glyph glyph-name="Lcaron" unicode="&#x13d;" horiz-adv-x="1167" 
d="M354 1434h123l-233 -1321h798l-18 -113h-922zM717 1116l100 164h-61l30 174h144l-31 -174l-125 -195z" />
    <glyph glyph-name="lcaron" unicode="&#x13e;" horiz-adv-x="604" 
d="M246 0h-123l231 1321h-143l20 113h267zM584 1116l100 164h-61l30 174h144l-31 -174l-125 -195z" />
    <glyph glyph-name="Lslash" unicode="&#x141;" horiz-adv-x="1187" 
d="M375 1434h123l-117 -666l387 225l-23 -133l-389 -225l-92 -522h799l-19 -113h-921l96 553l-160 -92l25 133l160 92z" />
    <glyph glyph-name="lslash" unicode="&#x142;" horiz-adv-x="593" 
d="M266 0h-123l103 584l-166 -123l26 143l164 123l105 594h-144l21 113h266l-108 -615l165 123l-26 -143l-164 -123z" />
    <glyph glyph-name="Nacute" unicode="&#x143;" 
d="M1077 246l209 1188h123l-252 -1434h-113l-600 1188h-10l-209 -1188h-123l252 1434h113l600 -1188h10zM1040 1843h144l-228 -246h-92z" />
    <glyph glyph-name="nacute" unicode="&#x144;" horiz-adv-x="1146" 
d="M344 1024l2 -102l131 102h369l180 -195l-145 -829h-123l137 788l-121 123h-276l-166 -123l-137 -788h-123l180 1024h92zM836 1495h143l-234 -287h-92z" />
    <glyph glyph-name="Ncommaaccent" unicode="&#x145;" 
d="M1077 246l209 1188h123l-252 -1434h-113l-600 1188h-10l-209 -1188h-123l252 1434h113l600 -1188h10zM457 -512l100 164h-61l30 174h144l-31 -174l-127 -195z" />
    <glyph glyph-name="ncommaaccent" unicode="&#x146;" horiz-adv-x="1146" 
d="M344 1024l2 -102l131 102h369l180 -195l-145 -829h-123l137 788l-121 123h-276l-166 -123l-137 -788h-123l180 1024h92zM303 -512l100 164h-61l31 174h143l-31 -174l-127 -195z" />
    <glyph glyph-name="Ncaron" unicode="&#x147;" 
d="M1077 246l209 1188h123l-252 -1434h-113l-600 1188h-10l-209 -1188h-123l252 1434h113l600 -1188h10zM848 1597l-172 246h133l115 -164l172 164h133l-258 -246h-123z" />
    <glyph glyph-name="ncaron" unicode="&#x148;" horiz-adv-x="1146" 
d="M344 1024l2 -102l131 102h369l180 -195l-145 -829h-123l137 788l-121 123h-276l-166 -123l-137 -788h-123l180 1024h92zM627 1208l-166 287h133l108 -195l179 195h133l-264 -287h-123z" />
    <glyph glyph-name="Omacron" unicode="&#x14c;" 
d="M625 1341l-226 -174l-159 -901l163 -174h482l225 174l160 901l-164 174h-481zM594 1454h584l223 -246l-174 -983l-309 -245h-584l-223 245l174 983zM653 1659l21 113h532l-20 -113h-533z" />
    <glyph glyph-name="omacron" unicode="&#x14d;" horiz-adv-x="1116" 
d="M176 829l273 215h378l199 -215l-113 -634l-272 -215h-379l-199 215zM895 788l-137 144h-277l-190 -144l-96 -552l137 -144h276l191 144zM416 1290l18 113h533l-19 -113h-532z" />
    <glyph glyph-name="Ohungarumlaut" unicode="&#x150;" 
d="M625 1341l-226 -174l-159 -901l163 -174h482l225 174l160 901l-164 174h-481zM594 1454h584l223 -246l-174 -983l-309 -245h-584l-223 245l174 983zM891 1843h133l-217 -246h-82zM1178 1843h133l-217 -246h-82z" />
    <glyph glyph-name="ohungarumlaut" unicode="&#x151;" horiz-adv-x="1116" 
d="M176 829l273 215h378l199 -215l-113 -634l-272 -215h-379l-199 215zM895 788l-137 144h-277l-190 -144l-96 -552l137 -144h276l191 144zM655 1495h133l-223 -287h-82zM942 1495h133l-223 -287h-82z" />
    <glyph glyph-name="OE" unicode="&#x152;" horiz-adv-x="2027" 
d="M590 1434h1464l-20 -113h-789l-94 -543h604l-20 -112h-605l-98 -553h809l-18 -113h-1485l-223 246l166 942zM621 1321l-226 -174l-151 -860l164 -174h501l213 1208h-501z" />
    <glyph glyph-name="oe" unicode="&#x153;" horiz-adv-x="1730" 
d="M1145 1044h307l199 -215l-68 -378h-655l-33 -195l137 -143h420l-18 -113h-471l-129 143h-21l-203 -163h-348l-199 215l113 634l273 215h348l137 -153h20zM864 788l-137 144h-246l-190 -144l-96 -552l137 -144h246l190 144zM987 788l-39 -225h533l39 225l-138 144h-204z
" />
    <glyph glyph-name="Racute" unicode="&#x154;" horiz-adv-x="1413" 
d="M1075 0l-225 532h-533l-92 -532h-123l252 1434h789l207 -226l-80 -450l-287 -226l225 -532h-133zM1219 1167l-148 154h-614l-119 -676h614l201 154zM958 1843h144l-228 -246h-92z" />
    <glyph glyph-name="racute" unicode="&#x155;" horiz-adv-x="808" 
d="M344 1024l2 -102l131 102h389l-20 -113h-348l-166 -123l-137 -788h-123l180 1024h92zM733 1495h144l-234 -287h-92z" />
    <glyph glyph-name="Rcommaaccent" unicode="&#x156;" horiz-adv-x="1413" 
d="M1075 0l-225 532h-533l-92 -532h-123l252 1434h789l207 -226l-80 -450l-287 -226l225 -532h-133zM1219 1167l-148 154h-614l-119 -676h614l201 154zM483 -512l101 164h-62l31 174h143l-30 -174l-127 -195z" />
    <glyph glyph-name="rcommaaccent" unicode="&#x157;" horiz-adv-x="808" 
d="M344 1024l2 -102l131 102h389l-20 -113h-348l-166 -123l-137 -788h-123l180 1024h92zM-39 -512l100 164h-61l31 174h143l-31 -174l-127 -195z" />
    <glyph glyph-name="Rcaron" unicode="&#x158;" horiz-adv-x="1413" 
d="M1075 0l-225 532h-533l-92 -532h-123l252 1434h789l207 -226l-80 -450l-287 -226l225 -532h-133zM1219 1167l-148 154h-614l-119 -676h614l201 154zM776 1597l-172 246h133l115 -164l172 164h133l-258 -246h-123z" />
    <glyph glyph-name="rcaron" unicode="&#x159;" horiz-adv-x="808" 
d="M344 1024l2 -102l131 102h389l-20 -113h-348l-166 -123l-137 -788h-123l180 1024h92zM530 1208l-165 287h133l108 -195l178 195h134l-265 -287h-123z" />
    <glyph glyph-name="Sacute" unicode="&#x15a;" horiz-adv-x="1320" 
d="M403 666l-206 225l57 317l285 226h737l-21 -113h-686l-200 -154l-41 -235l147 -154h512l205 -225l-57 -328l-285 -225h-789l19 113h737l201 153l45 246l-148 154h-512zM979 1843h143l-227 -246h-92z" />
    <glyph glyph-name="sacute" unicode="&#x15b;" horiz-adv-x="993" 
d="M356 573h349l163 -174l-41 -225l-223 -174h-584l19 113h532l142 102l24 143l-104 103h-348l-164 174l39 215l225 174h543l-21 -113h-491l-142 -102l-22 -133zM754 1495h143l-233 -287h-93z" />
    <glyph glyph-name="Scedilla" unicode="&#x15e;" horiz-adv-x="1320" 
d="M471 0h-410l19 113h737l201 153l45 246l-148 154h-512l-206 225l57 317l285 226h737l-21 -113h-686l-200 -154l-41 -235l147 -154h512l205 -225l-57 -328l-285 -225h-277l-12 -61h51l121 -134l-26 -153l-168 -133h-174l16 92h133l94 72l17 92l-70 71h-113z" />
    <glyph glyph-name="scedilla" unicode="&#x15f;" horiz-adv-x="993" 
d="M307 0h-287l19 113h532l142 102l24 143l-104 103h-348l-164 174l39 215l225 174h543l-21 -113h-491l-142 -102l-22 -133l104 -103h349l163 -174l-41 -225l-223 -174h-194l-13 -61h52l120 -134l-26 -153l-168 -133h-174l16 92h133l94 72l17 92l-70 71h-112z" />
    <glyph glyph-name="Scaron" unicode="&#x160;" horiz-adv-x="1320" 
d="M403 666l-206 225l57 317l285 226h737l-21 -113h-686l-200 -154l-41 -235l147 -154h512l205 -225l-57 -328l-285 -225h-789l19 113h737l201 153l45 246l-148 154h-512zM793 1597l-172 246h133l114 -164l172 164h134l-259 -246h-122z" />
    <glyph glyph-name="scaron" unicode="&#x161;" horiz-adv-x="993" 
d="M356 573h349l163 -174l-41 -225l-223 -174h-584l19 113h532l142 102l24 143l-104 103h-348l-164 174l39 215l225 174h543l-21 -113h-491l-142 -102l-22 -133zM555 1208l-166 287h133l109 -195l178 195h133l-264 -287h-123z" />
    <glyph glyph-name="Tcommaaccent" unicode="&#x162;" horiz-adv-x="1146" 
d="M532 0h-122l231 1321h-471l20 113h1065l-20 -113h-471zM299 -512l100 164h-61l31 174h143l-31 -174l-127 -195z" />
    <glyph glyph-name="tcommaaccent" unicode="&#x163;" horiz-adv-x="788" 
d="M119 911l20 113h185l47 266h123l-48 -266h287l-20 -113h-287l-115 -655l138 -143h194l-18 -113h-246l-199 215l123 696h-184zM207 -512l100 164h-61l30 174h144l-31 -174l-127 -195z" />
    <glyph glyph-name="Tcaron" unicode="&#x164;" horiz-adv-x="1146" 
d="M532 0h-122l231 1321h-471l20 113h1065l-20 -113h-471zM690 1597l-172 246h133l115 -164l172 164h133l-258 -246h-123z" />
    <glyph glyph-name="tcaron" unicode="&#x165;" horiz-adv-x="870" 
d="M119 911l20 113h185l47 266h123l-48 -266h287l-20 -113h-287l-115 -655l138 -143h194l-18 -113h-246l-199 215l123 696h-184zM850 1116l100 164h-61l31 174h143l-31 -174l-125 -195z" />
    <glyph glyph-name="Umacron" unicode="&#x16a;" horiz-adv-x="1484" 
d="M1100 266l207 1168h123l-213 -1209l-310 -245h-542l-224 245l213 1209h123l-207 -1168l164 -174h440zM664 1659l20 113h533l-21 -113h-532z" />
    <glyph glyph-name="umacron" unicode="&#x16b;" horiz-adv-x="1157" 
d="M788 0l-4 102l-129 -102h-368l-183 195l148 829h123l-139 -788l120 -123h277l166 123l139 788h123l-180 -1024h-93zM436 1290l19 113h532l-18 -113h-533z" />
    <glyph glyph-name="Uring" unicode="&#x16e;" horiz-adv-x="1484" 
d="M1100 266l207 1168h123l-213 -1209l-310 -245h-542l-224 245l213 1209h123l-207 -1168l164 -174h440zM821 1679l53 -51h103l70 51l14 82l-51 51h-103l-71 -51zM713 1638l28 164l140 103h184l106 -103l-28 -164l-142 -102h-184z" />
    <glyph glyph-name="uring" unicode="&#x16f;" horiz-adv-x="1157" 
d="M788 0l-4 102l-129 -102h-368l-183 195l148 829h123l-139 -788l120 -123h277l166 123l139 788h123l-180 -1024h-93zM590 1300l61 -61h82l82 61l19 103l-60 61h-82l-84 -61zM481 1260l33 184l154 112h163l113 -112l-33 -184l-153 -113h-164z" />
    <glyph glyph-name="Uhungarumlaut" unicode="&#x170;" horiz-adv-x="1484" 
d="M1100 266l207 1168h123l-213 -1209l-310 -245h-542l-224 245l213 1209h123l-207 -1168l164 -174h440zM901 1843h133l-217 -246h-82zM1188 1843h133l-217 -246h-82z" />
    <glyph glyph-name="uhungarumlaut" unicode="&#x171;" horiz-adv-x="1157" 
d="M788 0l-4 102l-129 -102h-368l-183 195l148 829h123l-139 -788l120 -123h277l166 123l139 788h123l-180 -1024h-93zM676 1495h133l-223 -287h-82zM963 1495h133l-224 -287h-81z" />
    <glyph glyph-name="Uogonek" unicode="&#x172;" horiz-adv-x="1484" 
d="M582 -184l-19 -103l70 -71h92l-16 -93h-134l-120 134l28 163l168 134h-286l-224 245l213 1209h123l-207 -1168l164 -174h440l226 174l207 1168h123l-213 -1209l-310 -245h-123z" />
    <glyph glyph-name="uogonek" unicode="&#x173;" horiz-adv-x="1157" 
d="M784 102l-129 -102h-368l-183 195l148 829h123l-139 -788l120 -123h277l166 123l139 788h123l-180 -1024l-228 -184l-18 -103l70 -71h92l-17 -93h-133l-121 134l29 163l227 185z" />
    <glyph glyph-name="Ydieresis" unicode="&#x178;" horiz-adv-x="1208" 
d="M563 0h-123l92 532l-382 902h143l323 -758h9l589 758h144l-703 -902zM688 1649h-133l27 143h133zM1026 1649h-133l27 143h133z" />
    <glyph glyph-name="Zacute" unicode="&#x179;" horiz-adv-x="1187" 
d="M1004 0h-1024l14 92l1055 1219l2 10h-809l20 113h973l-16 -93l-1055 -1218l-2 -10h860zM897 1843h143l-227 -246h-92z" />
    <glyph glyph-name="zacute" unicode="&#x17a;" horiz-adv-x="880" 
d="M860 932l-727 -809l-2 -10h604l-18 -113h-758l14 92l727 809l2 10h-563l21 113h717zM696 1495h144l-234 -287h-92z" />
    <glyph glyph-name="Zdotaccent" unicode="&#x17b;" horiz-adv-x="1187" 
d="M1004 0h-1024l14 92l1055 1219l2 10h-809l20 113h973l-16 -93l-1055 -1218l-2 -10h860zM848 1649h-133l26 143h133z" />
    <glyph glyph-name="zdotaccent" unicode="&#x17c;" horiz-adv-x="880" 
d="M860 932l-727 -809l-2 -10h604l-18 -113h-758l14 92l727 809l2 10h-563l21 113h717zM629 1270h-133l28 164h133z" />
    <glyph glyph-name="Zcaron" unicode="&#x17d;" horiz-adv-x="1187" 
d="M1004 0h-1024l14 92l1055 1219l2 10h-809l20 113h973l-16 -93l-1055 -1218l-2 -10h860zM711 1597l-172 246h133l114 -164l172 164h134l-258 -246h-123z" />
    <glyph glyph-name="zcaron" unicode="&#x17e;" horiz-adv-x="880" 
d="M860 932l-727 -809l-2 -10h604l-18 -113h-758l14 92l727 809l2 10h-563l21 113h717zM489 1208l-165 287h133l108 -195l178 195h134l-265 -287h-123z" />
    <glyph glyph-name="florin" unicode="&#x192;" horiz-adv-x="727" 
d="M131 860l19 113h184l43 246l274 215h287l-20 -113h-236l-188 -143l-37 -205h286l-18 -113h-287l-186 -1055l-275 -215h-202l20 113h152l188 143l180 1014h-184z" />
    <glyph glyph-name="Scommaaccent" unicode="&#x218;" horiz-adv-x="1320" 
d="M403 666l-206 225l57 317l285 226h737l-21 -113h-686l-200 -154l-41 -235l147 -154h512l205 -225l-57 -328l-285 -225h-789l19 113h737l201 153l45 246l-148 154h-512zM412 -512l100 164h-61l30 174h144l-31 -174l-127 -195z" />
    <glyph glyph-name="scommaaccent" unicode="&#x219;" horiz-adv-x="993" 
d="M356 573h349l163 -174l-41 -225l-223 -174h-584l19 113h532l142 102l24 143l-104 103h-348l-164 174l39 215l225 174h543l-21 -113h-491l-142 -102l-22 -133zM231 -512l101 164h-62l31 174h143l-30 -174l-127 -195z" />
    <glyph glyph-name="afii57929" unicode="&#x2bc;" horiz-adv-x="276" 
d="M174 1229l100 164h-61l31 174h143l-31 -174l-125 -195z" />
    <glyph glyph-name="circumflex" unicode="&#x2c6;" horiz-adv-x="675" 
d="M559 1495l166 -287h-133l-111 195l-176 -195h-133l264 287h123z" />
    <glyph glyph-name="caron" unicode="&#x2c7;" horiz-adv-x="675" 
d="M387 1208l-166 287h133l109 -195l178 195h133l-264 -287h-123z" />
    <glyph glyph-name="breve" unicode="&#x2d8;" horiz-adv-x="645" 
d="M741 1485l-30 -174l-129 -103h-297l-97 103l31 174h113l-21 -123l43 -41h195l59 41l21 123h112z" />
    <glyph glyph-name="dotaccent" unicode="&#x2d9;" horiz-adv-x="256" 
d="M315 1270h-133l29 164h133z" />
    <glyph glyph-name="ring" unicode="&#x2da;" horiz-adv-x="552" 
d="M289 1300l61 -61h82l82 61l18 103l-59 61h-82l-84 -61zM180 1260l33 184l154 112h163l113 -112l-33 -184l-153 -113h-164z" />
    <glyph glyph-name="ogonek" unicode="&#x2db;" horiz-adv-x="419" 
d="M29 -184l-19 -103l70 -71h92l-16 -93h-133l-121 134l28 163l193 154h133z" />
    <glyph glyph-name="tilde" unicode="&#x2dc;" horiz-adv-x="675" 
d="M377 1331l-150 -92l-34 92l208 133l166 -102l150 92l35 -92l-209 -133z" />
    <glyph glyph-name="hungarumlaut" unicode="&#x2dd;" horiz-adv-x="665" 
d="M344 1495h133l-223 -287h-82zM631 1495h133l-223 -287h-82z" />
    <glyph glyph-name="afii10023" unicode="&#x401;" horiz-adv-x="1320" 
d="M354 1434h994l-21 -113h-870l-95 -543h687l-21 -112h-686l-98 -553h891l-19 -113h-1014zM784 1649h-133l27 143h133zM1122 1649h-133l27 143h133z" />
    <glyph glyph-name="afii10051" unicode="&#x402;" horiz-adv-x="1443" 
d="M379 0h-123l231 1321h-337l20 113h829l-20 -113h-369l-80 -461h584l180 -194l-94 -533l-215 -174h-182l20 113h131l129 102l80 451l-121 123h-532z" />
    <glyph glyph-name="afii10052" unicode="&#x403;" horiz-adv-x="1146" 
d="M354 1434h922l-21 -113h-798l-232 -1321h-123zM979 1843h143l-227 -246h-92z" />
    <glyph glyph-name="afii10053" unicode="&#x404;" horiz-adv-x="1290" 
d="M1008 778l-21 -112h-676l-67 -379l164 -174h686l-19 -113h-737l-223 246l166 942l309 246h737l-20 -113h-686l-226 -174l-63 -369h676z" />
    <glyph glyph-name="afii10054" unicode="&#x405;" horiz-adv-x="1320" 
d="M403 666l-206 225l57 317l285 226h737l-21 -113h-686l-200 -154l-41 -235l147 -154h512l205 -225l-57 -328l-285 -225h-789l19 113h737l201 153l45 246l-148 154h-512z" />
    <glyph glyph-name="afii10055" unicode="&#x406;" horiz-adv-x="880" 
d="M645 0h-614l18 113h246l213 1208h-246l21 113h614l-20 -113h-246l-213 -1208h246z" />
    <glyph glyph-name="afii10056" unicode="&#x407;" horiz-adv-x="880" 
d="M645 0h-614l18 113h246l213 1208h-246l21 113h614l-20 -113h-246l-213 -1208h246zM524 1649h-133l27 143h133zM862 1649h-133l27 143h133z" />
    <glyph glyph-name="afii10057" unicode="&#x408;" horiz-adv-x="1044" 
d="M664 287l202 1147h123l-209 -1188l-309 -246h-532l18 113h481z" />
    <glyph glyph-name="afii10058" unicode="&#x409;" horiz-adv-x="2048" 
d="M240 266l288 1168h738l-99 -553h564l206 -226l-75 -430l-285 -225h-686l231 1321h-501l-265 -1096l-309 -245h-133l18 112h82zM1544 113l201 153l61 348l-145 154h-512l-117 -655h512z" />
    <glyph glyph-name="afii10059" unicode="&#x40a;" horiz-adv-x="2058" 
d="M348 707l-123 -707h-123l252 1434h123l-108 -615h665l109 615h123l-109 -615h574l206 -225l-65 -369l-285 -225h-696l123 707h-666zM1554 113l201 153l51 287l-147 154h-522l-105 -594h522z" />
    <glyph glyph-name="afii10060" unicode="&#x40b;" horiz-adv-x="1443" 
d="M379 0h-123l231 1321h-337l20 113h829l-20 -113h-369l-80 -461h584l180 -194l-116 -666h-123l108 625l-121 123h-532z" />
    <glyph glyph-name="afii10061" unicode="&#x40c;" horiz-adv-x="1290" 
d="M342 666l-117 -666h-123l252 1434h123l-115 -656h349l524 656h143l-563 -697l352 -737h-143l-313 666h-369zM1010 1843h143l-227 -246h-92z" />
    <glyph glyph-name="afii10062" unicode="&#x40e;" horiz-adv-x="1228" 
d="M1214 1434h144l-928 -1434h-143l264 399h-51l-330 1035h133l297 -932h10zM1055 1884h112l-26 -143l-154 -123h-358l-113 123l27 143h112l-18 -102l51 -51h277l71 51z" />
    <glyph glyph-name="afii10145" unicode="&#x40f;" horiz-adv-x="1474" 
d="M1167 0h-471l-51 -287h-123l51 287h-471l252 1434h123l-233 -1321h819l233 1321h123z" />
    <glyph glyph-name="afii10017" unicode="&#x410;" horiz-adv-x="1310" 
d="M1055 0l-99 430h-655l-250 -430h-133l825 1434h123l322 -1434h-133zM768 1249l-408 -706h574l-158 706h-8z" />
    <glyph glyph-name="afii10018" unicode="&#x411;" horiz-adv-x="1423" 
d="M932 0h-830l252 1434h983l-20 -113h-860l-80 -461h706l205 -225l-71 -410zM899 113l201 153l59 328l-147 154h-656l-112 -635h655z" />
    <glyph glyph-name="afii10019" unicode="&#x412;" horiz-adv-x="1433" 
d="M1139 768l155 -164l-73 -409l-248 -195h-871l252 1434h809l180 -195l-63 -358zM940 113l166 123l57 327l-121 123h-696l-102 -573h696zM1214 1198l-122 123h-635l-92 -522h634l166 123z" />
    <glyph glyph-name="afii10020" unicode="&#x413;" horiz-adv-x="1146" 
d="M354 1434h922l-21 -113h-798l-232 -1321h-123z" />
    <glyph glyph-name="afii10021" unicode="&#x414;" horiz-adv-x="1413" 
d="M-84 113h61l228 184l282 1137h850l-233 -1321h164l-74 -420h-123l55 307h-1106l-55 -307h-121zM322 256l-181 -143h840l213 1208h-614z" />
    <glyph glyph-name="afii10022" unicode="&#x415;" horiz-adv-x="1320" 
d="M354 1434h994l-21 -113h-870l-95 -543h687l-21 -112h-686l-98 -553h891l-19 -113h-1014z" />
    <glyph glyph-name="afii10024" unicode="&#x416;" horiz-adv-x="1925" 
d="M1038 666l-116 -666h-123l116 666h-307l-547 -666h-143l610 737l-317 697h143l295 -656h287l115 656h123l-115 -656h287l524 656h143l-563 -697l352 -737h-143l-313 666h-308z" />
    <glyph glyph-name="afii10025" unicode="&#x417;" horiz-adv-x="1259" 
d="M868 686h-491l18 113h492l153 112l52 287l-123 123h-738l21 113h788l181 -195l-66 -369l-154 -122l-2 -11l121 -133l-73 -409l-248 -195h-819l18 113h768l166 123l57 327z" />
    <glyph glyph-name="afii10026" unicode="&#x418;" horiz-adv-x="1484" 
d="M1178 0h-123l213 1208h-11l-1042 -1208h-113l252 1434h123l-213 -1209h10l1043 1209h113z" />
    <glyph glyph-name="afii10027" unicode="&#x419;" horiz-adv-x="1484" 
d="M1171 1884h113l-27 -143l-153 -123h-359l-112 123l26 143h113l-18 -102l51 -51h276l72 51zM1178 0h-123l213 1208h-11l-1042 -1208h-113l252 1434h123l-213 -1209h10l1043 1209h113z" />
    <glyph glyph-name="afii10028" unicode="&#x41a;" horiz-adv-x="1290" 
d="M342 666l-117 -666h-123l252 1434h123l-115 -656h349l524 656h143l-563 -697l352 -737h-143l-313 666h-369z" />
    <glyph glyph-name="afii10029" unicode="&#x41b;" horiz-adv-x="1443" 
d="M240 266l288 1168h861l-252 -1434h-123l231 1321h-624l-265 -1096l-309 -245h-133l18 112h82z" />
    <glyph glyph-name="afii10030" unicode="&#x41c;" horiz-adv-x="1730" 
d="M862 369h-71l-349 809h-10l-207 -1178h-123l252 1434h123l377 -881h10l688 881h123l-252 -1434h-123l207 1178h-10z" />
    <glyph glyph-name="afii10031" unicode="&#x41d;" 
d="M342 666l-117 -666h-123l252 1434h123l-115 -656h809l115 656h123l-252 -1434h-123l117 666h-809z" />
    <glyph glyph-name="afii10032" unicode="&#x41e;" 
d="M625 1341l-226 -174l-159 -901l163 -174h482l225 174l160 901l-164 174h-481zM594 1454h584l223 -246l-174 -983l-309 -245h-584l-223 245l174 983z" />
    <glyph glyph-name="afii10033" unicode="&#x41f;" 
d="M354 1434h1055l-252 -1434h-123l232 1321h-809l-232 -1321h-123z" />
    <glyph glyph-name="afii10034" unicode="&#x420;" horiz-adv-x="1382" 
d="M989 502h-676l-88 -502h-123l252 1434h799l207 -226l-86 -481zM1229 1167l-148 154h-624l-125 -707h624l203 154z" />
    <glyph glyph-name="afii10035" unicode="&#x421;" horiz-adv-x="1290" 
d="M1094 113l-19 -113h-737l-223 246l166 942l309 246h737l-20 -113h-686l-226 -174l-151 -860l164 -174h686z" />
    <glyph glyph-name="afii10036" unicode="&#x422;" horiz-adv-x="1146" 
d="M532 0h-122l231 1321h-471l20 113h1065l-20 -113h-471z" />
    <glyph glyph-name="afii10037" unicode="&#x423;" horiz-adv-x="1228" 
d="M1214 1434h144l-928 -1434h-143l264 399h-51l-330 1035h133l297 -932h10z" />
    <glyph glyph-name="afii10038" unicode="&#x424;" horiz-adv-x="1802" 
d="M1497 1239h-420l-176 -1003h420l164 122l135 758zM975 1352l33 184h122l-32 -184h471l180 -195l-147 -840l-250 -194h-471l-33 -184h-123l33 184h-471l-181 194l148 840l250 195h471zM954 1239h-419l-164 -123l-135 -758l122 -122h420z" />
    <glyph glyph-name="afii10039" unicode="&#x425;" horiz-adv-x="1177" 
d="M602 635h-10l-531 -635h-143l623 748l-340 686h143l287 -584h10l492 584h143l-582 -686l361 -748h-144z" />
    <glyph glyph-name="afii10040" unicode="&#x426;" horiz-adv-x="1443" 
d="M1368 1434l-233 -1321h163l-73 -420h-123l55 307h-1055l252 1434h123l-233 -1321h768l233 1321h123z" />
    <glyph glyph-name="afii10041" unicode="&#x427;" horiz-adv-x="1413" 
d="M215 758l119 676h123l-113 -635l139 -144h615l137 779h123l-252 -1434h-123l94 543h-665z" />
    <glyph glyph-name="afii10042" unicode="&#x428;" horiz-adv-x="1986" 
d="M1808 1434h123l-252 -1434h-1577l252 1434h123l-233 -1321h604l233 1321h123l-233 -1321h604z" />
    <glyph glyph-name="afii10043" unicode="&#x429;" horiz-adv-x="2007" 
d="M1931 1434l-233 -1321h164l-74 -420h-123l55 307h-1618l252 1434h123l-233 -1321h604l233 1321h123l-233 -1321h604l233 1321h123z" />
    <glyph glyph-name="afii10044" unicode="&#x42a;" 
d="M150 1321l20 113h440l-98 -553h635l207 -226l-76 -430l-285 -225h-757l231 1321h-317zM961 113l200 153l62 348l-146 154h-583l-117 -655h584z" />
    <glyph glyph-name="afii10045" unicode="&#x42b;" horiz-adv-x="1802" 
d="M1747 1434l-252 -1434h-123l252 1434h123zM354 1434h123l-98 -553h635l207 -226l-76 -430l-285 -225h-758zM827 113l201 153l62 348l-146 154h-584l-116 -655h583z" />
    <glyph glyph-name="afii10046" unicode="&#x42c;" horiz-adv-x="1361" 
d="M858 113l201 153l61 348l-145 154h-615l-116 -655h614zM379 881h665l207 -226l-75 -430l-285 -225h-789l252 1434h123z" />
    <glyph glyph-name="afii10047" unicode="&#x42d;" horiz-adv-x="1259" 
d="M322 666l20 112h655l64 369l-164 174h-686l20 113h738l223 -246l-166 -942l-309 -246h-737l18 113h686l225 174l68 379h-655z" />
    <glyph glyph-name="afii10048" unicode="&#x42e;" horiz-adv-x="1904" 
d="M342 666l-117 -666h-123l252 1434h123l-115 -656h359l76 430l309 246h512l223 -246l-174 -983l-309 -245h-512l-223 245l77 441h-358zM1137 1341l-226 -174l-159 -901l163 -174h410l225 174l160 901l-164 174h-409z" />
    <glyph glyph-name="afii10049" unicode="&#x42f;" horiz-adv-x="1402" 
d="M397 573l-188 205l76 430l284 226h779l-252 -1434h-123l96 553h-543l-403 -553h-143zM600 1321l-201 -154l-61 -348l147 -153q103 0 303 1t302 1l114 653h-604z" />
    <glyph glyph-name="afii10065" unicode="&#x430;" horiz-adv-x="1075" 
d="M713 102l-129 -102h-389l-166 174l45 246l225 174h492l34 205l-112 112h-451l21 113h501l172 -184l-147 -840h-92zM727 236l43 245h-440l-142 -102l-28 -164l104 -102h297z" />
    <glyph glyph-name="afii10066" unicode="&#x431;" horiz-adv-x="1157" 
d="M295 1219l274 215h553l-20 -113h-502l-188 -143l-50 -277h492l199 -215l-88 -491l-273 -215h-379l-198 215zM922 645l-140 143h-440l-96 -552l137 -144h276l191 144z" />
    <glyph glyph-name="afii10067" unicode="&#x432;" horiz-adv-x="1085" 
d="M838 522l104 -112l-43 -236l-223 -174h-604l180 1024h584l155 -164l-45 -246l-106 -82zM354 911l-57 -327h440l94 71l29 164l-96 92h-410zM276 471l-63 -358h430l141 102l27 154l-94 102h-441z" />
    <glyph glyph-name="afii10068" unicode="&#x433;" horiz-adv-x="860" 
d="M195 0h-123l180 1024h666l-21 -113h-543z" />
    <glyph glyph-name="afii10069" unicode="&#x434;" horiz-adv-x="1116" 
d="M145 246l199 778h645l-162 -911h144l-66 -379h-123l47 266h-809l-47 -266h-120l63 379h51zM262 215l-131 -102h574l141 798h-410z" />
    <glyph glyph-name="afii10070" unicode="&#x435;" horiz-adv-x="1054" 
d="M449 1044h327l199 -215l-68 -378h-676l-32 -195l137 -143h450l-18 -113h-502l-198 215l108 614zM291 788l-39 -225h553l39 225l-137 144h-226z" />
    <glyph glyph-name="afii10072" unicode="&#x436;" horiz-adv-x="1433" 
d="M51 0h-133l410 532l-209 492h133l188 -440h215l78 440h123l-78 -440h215l344 440h133l-385 -492l226 -532h-133l-205 471h-215l-82 -471h-123l82 471h-215z" />
    <glyph glyph-name="afii10073" unicode="&#x437;" horiz-adv-x="962" 
d="M250 461l20 112h332l117 82l29 164l-97 92h-495l20 113h547l156 -164l-45 -246l-119 -92l104 -112l-43 -236l-223 -174h-584l19 113h532l142 102l26 154l-96 92h-342z" />
    <glyph glyph-name="afii10074" unicode="&#x438;" horiz-adv-x="1157" 
d="M195 0h-123l180 1024h123l-146 -819h11l698 819h123l-180 -1024h-123l143 819h-10z" />
    <glyph glyph-name="afii10075" unicode="&#x439;" horiz-adv-x="1157" 
d="M195 0h-123l180 1024h123l-146 -819h11l698 819h123l-180 -1024h-123l143 819h-10zM997 1485l-30 -174l-129 -103h-297l-97 103l31 174h113l-21 -123l43 -41h195l59 41l21 123h112z" />
    <glyph glyph-name="afii10076" unicode="&#x43a;" horiz-adv-x="993" 
d="M870 0h-133l-205 471h-256l-81 -471h-123l180 1024h123l-78 -440h256l344 440h133l-385 -492z" />
    <glyph glyph-name="afii10077" unicode="&#x43b;" horiz-adv-x="1146" 
d="M182 225l193 799h676l-181 -1024h-122l159 911h-440l-170 -727l-260 -204h-123l18 112h72z" />
    <glyph glyph-name="afii10078" unicode="&#x43c;" horiz-adv-x="1361" 
d="M659 266h-71l-246 522h-10l-137 -788h-123l180 1024h123l274 -594h10l484 594h123l-181 -1024h-122l137 788h-10z" />
    <glyph glyph-name="afii10079" unicode="&#x43d;" horiz-adv-x="1136" 
d="M195 0h-123l180 1024h123l-82 -461h543l82 461h122l-180 -1024h-123l78 451h-543z" />
    <glyph glyph-name="afii10080" unicode="&#x43e;" horiz-adv-x="1116" 
d="M176 829l273 215h378l199 -215l-113 -634l-272 -215h-379l-199 215zM895 788l-137 144h-277l-190 -144l-96 -552l137 -144h276l191 144z" />
    <glyph glyph-name="afii10081" unicode="&#x43f;" horiz-adv-x="1136" 
d="M195 0h-123l180 1024h788l-180 -1024h-123l160 911h-543z" />
    <glyph glyph-name="afii10082" unicode="&#x440;" horiz-adv-x="1126" 
d="M477 1024h359l196 -215l-104 -594l-273 -215h-460l-74 -410h-123l254 1434h92l2 -102zM903 768l-139 143h-266l-166 -123l-119 -675h410l190 143z" />
    <glyph glyph-name="afii10083" unicode="&#x441;" horiz-adv-x="962" 
d="M199 256l137 -143h450l-18 -113h-502l-198 215l104 594l274 215h502l-20 -113h-451l-188 -143z" />
    <glyph glyph-name="afii10084" unicode="&#x442;" horiz-adv-x="860" 
d="M389 0h-123l160 911h-348l20 113h820l-21 -113h-348z" />
    <glyph glyph-name="afii10085" unicode="&#x443;" horiz-adv-x="942" 
d="M131 -410l217 410h-51l-199 1024h123l170 -891h21l465 891h122l-747 -1434h-121z" />
    <glyph glyph-name="afii10086" unicode="&#x444;" horiz-adv-x="1392" 
d="M582 -410h-123l73 410h-266l-198 215l104 594l274 215h267l71 410h123l-71 -410h266l196 -215l-104 -594l-272 -215h-267zM1169 768l-139 143h-215l-141 -798h215l190 143zM199 256l137 -143h215l141 798h-215l-188 -143z" />
    <glyph glyph-name="afii10087" unicode="&#x445;" horiz-adv-x="890" 
d="M424 440h-10l-363 -440h-133l440 532l-239 492h133l194 -399h11l338 399h133l-416 -492l256 -532h-133z" />
    <glyph glyph-name="afii10088" unicode="&#x446;" horiz-adv-x="1136" 
d="M850 0h-778l180 1024h123l-162 -911h512l162 911h123l-162 -911h143l-65 -379h-123z" />
    <glyph glyph-name="afii10089" unicode="&#x447;" horiz-adv-x="1075" 
d="M676 0l63 369h-430l-180 194l82 461h123l-74 -420l121 -123h379l96 543h123l-180 -1024h-123z" />
    <glyph glyph-name="afii10090" unicode="&#x448;" horiz-adv-x="1556" 
d="M795 1024h123l-162 -911h420l161 911h123l-180 -1024h-1208l180 1024h123l-162 -911h420z" />
    <glyph glyph-name="afii10091" unicode="&#x449;" horiz-adv-x="1587" 
d="M1300 0h-1228l180 1024h123l-162 -911h420l162 911h123l-162 -911h420l161 911h123l-162 -911h144l-66 -379h-123z" />
    <glyph glyph-name="afii10092" unicode="&#x44a;" horiz-adv-x="1136" 
d="M737 0h-553l160 911h-266l20 113h389l-67 -379h430l164 -174l-53 -297zM399 532l-73 -419h379l141 102l39 215l-107 102h-379z" />
    <glyph glyph-name="afii10093" unicode="&#x44b;" horiz-adv-x="1392" 
d="M1116 0h-123l181 1024h122zM625 0h-553l180 1024h123l-68 -379h430l164 -174l-53 -297zM287 532l-74 -419h379l141 102l39 215l-106 102h-379z" />
    <glyph glyph-name="afii10094" unicode="&#x44c;" horiz-adv-x="1044" 
d="M645 0h-573l180 1024h123l-68 -379h451l164 -174l-54 -297zM287 532l-74 -419h399l142 102l39 215l-107 102h-399z" />
    <glyph glyph-name="afii10095" unicode="&#x44d;" horiz-adv-x="952" 
d="M449 113l190 143l35 205h-441l21 112h440l35 195l-139 143h-451l21 113h502l196 -215l-104 -594l-273 -215h-501l18 113h451z" />
    <glyph glyph-name="afii10096" unicode="&#x44e;" 
d="M195 0h-123l180 1024h123l-80 -451h256l45 256l272 215h308l198 -215l-112 -634l-273 -215h-307l-199 215l47 266h-256zM1243 788l-137 144h-205l-190 -144l-97 -552l138 -144h204l191 144z" />
    <glyph glyph-name="afii10097" unicode="&#x44f;" horiz-adv-x="1075" 
d="M274 399l-155 164l51 287l225 174h584l-180 -1024h-123l67 389h-348l-282 -389h-133zM764 502l72 409h-410l-141 -102l-35 -205l104 -102h410z" />
    <glyph glyph-name="afii10071" unicode="&#x451;" horiz-adv-x="1054" 
d="M449 1044h327l199 -215l-68 -378h-676l-32 -195l137 -143h450l-18 -113h-502l-198 215l108 614zM291 788l-39 -225h553l39 225l-137 144h-226zM551 1270h-133l28 164h134zM889 1270h-133l28 164h134z" />
    <glyph glyph-name="afii10099" unicode="&#x452;" horiz-adv-x="1136" 
d="M930 174l-273 -215h-133l21 113h82l188 143l76 430l-121 123h-389l-135 -768h-123l196 1116h-184l19 113h184l37 205h123l-37 -205h266l-18 -113h-267l-43 -235h441l182 -195z" />
    <glyph glyph-name="afii10100" unicode="&#x453;" horiz-adv-x="860" 
d="M195 0h-123l180 1024h666l-21 -113h-543zM754 1495h143l-233 -287h-93z" />
    <glyph glyph-name="afii10101" unicode="&#x454;" horiz-adv-x="962" 
d="M199 256l137 -143h450l-18 -113h-502l-198 215l104 594l274 215h502l-20 -113h-451l-188 -143l-37 -205h471l-18 -102h-472z" />
    <glyph glyph-name="afii10102" unicode="&#x455;" horiz-adv-x="993" 
d="M356 573h349l163 -174l-41 -225l-223 -174h-584l19 113h532l142 102l24 143l-104 103h-348l-164 174l39 215l225 174h543l-21 -113h-491l-142 -102l-22 -133z" />
    <glyph glyph-name="afii10103" unicode="&#x456;" horiz-adv-x="481" 
d="M256 1024h123l-180 -1024h-123zM428 1270h-133l29 164h133z" />
    <glyph glyph-name="afii10104" unicode="&#x457;" horiz-adv-x="471" 
d="M252 1024h123l-180 -1024h-123zM254 1270h-133l29 164h133zM592 1270h-133l28 164h134z" />
    <glyph glyph-name="afii10105" unicode="&#x458;" horiz-adv-x="466" 
d="M-154 -297l187 143l209 1178h123l-215 -1219l-273 -215h-205l21 113h153zM414 1270h-133l28 164h133z" />
    <glyph glyph-name="afii10106" unicode="&#x459;" horiz-adv-x="1597" 
d="M182 225l193 799h594l-68 -379h410l164 -174l-54 -297l-223 -174h-532l159 911h-358l-170 -727l-260 -204h-123l18 112h72zM881 532l-74 -419h358l142 102l39 215l-107 102h-358z" />
    <glyph glyph-name="afii10107" unicode="&#x45a;" horiz-adv-x="1617" 
d="M1219 0h-543l86 492h-471l-86 -492h-123l180 1024h123l-74 -420h471l74 420h123l-74 -420h420l164 -174l-47 -256zM885 492l-68 -379h369l141 102l31 174l-105 103h-368z" />
    <glyph glyph-name="afii10108" unicode="&#x45b;" horiz-adv-x="1157" 
d="M901 0h-123l113 645l-121 123h-389l-135 -768h-123l196 1116h-184l19 113h184l37 205h123l-37 -205h266l-18 -113h-267l-43 -235h441l182 -195z" />
    <glyph glyph-name="afii10109" unicode="&#x45c;" horiz-adv-x="993" 
d="M870 0h-133l-205 471h-256l-81 -471h-123l180 1024h123l-78 -440h256l344 440h133l-385 -492zM805 1495h143l-233 -287h-92z" />
    <glyph glyph-name="afii10110" unicode="&#x45e;" horiz-adv-x="942" 
d="M131 -410l217 410h-51l-199 1024h123l170 -891h21l465 891h122l-747 -1434h-121zM901 1485l-31 -174l-129 -103h-297l-96 103l31 174h113l-21 -123l43 -41h195l59 41l20 123h113z" />
    <glyph glyph-name="afii10193" unicode="&#x45f;" horiz-adv-x="1146" 
d="M410 0h-338l180 1024h123l-162 -911h553l162 911h123l-181 -1024h-338l-47 -266h-123z" />
    <glyph glyph-name="afii10050" unicode="&#x490;" horiz-adv-x="1146" 
d="M354 1434h799l39 225h123l-60 -338h-798l-232 -1321h-123z" />
    <glyph glyph-name="afii10098" unicode="&#x491;" horiz-adv-x="860" 
d="M195 0h-123l180 1024h543l34 205h123l-55 -318h-543z" />
    <glyph glyph-name="uni1E9E" unicode="&#x1e9e;" horiz-adv-x="1402" 
d="M702 799l21 112l412 420l2 10h-482l-225 -174l-205 -1167h-123l213 1208l310 246h696l-18 -96l-424 -436l-2 -11h194l207 -225l-82 -461l-285 -225h-510l19 113h459l200 153l68 379l-148 154h-297z" />
    <glyph glyph-name="endash" unicode="&#x2013;" horiz-adv-x="1054" 
d="M96 666l21 112h891l-21 -112h-891z" />
    <glyph glyph-name="emdash" unicode="&#x2014;" horiz-adv-x="1413" 
d="M96 666l21 112h1249l-20 -112h-1250z" />
    <glyph glyph-name="quoteleft" unicode="&#x2018;" horiz-adv-x="389" 
d="M420 1403l-101 -164h62l-31 -174h-143l31 174l127 195z" />
    <glyph glyph-name="quoteright" unicode="&#x2019;" horiz-adv-x="389" 
d="M203 1096l100 164h-61l30 174h144l-31 -174l-127 -195z" />
    <glyph glyph-name="quotesinglbase" unicode="&#x201a;" horiz-adv-x="389" 
d="M-20 -164l102 164h-62l29 174h144l-29 -174l-127 -195z" />
    <glyph glyph-name="quotedblleft" unicode="&#x201c;" horiz-adv-x="634" 
d="M420 1403l-101 -164h62l-31 -174h-143l31 174l127 195zM666 1403l-101 -164h62l-31 -174h-143l30 174l127 195z" />
    <glyph glyph-name="quotedblright" unicode="&#x201d;" horiz-adv-x="634" 
d="M203 1096l100 164h-61l30 174h144l-31 -174l-127 -195zM449 1096l100 164h-62l31 174h144l-31 -174l-127 -195z" />
    <glyph glyph-name="quotedblbase" unicode="&#x201e;" horiz-adv-x="634" 
d="M-20 -164l102 164h-62l29 174h144l-29 -174l-127 -195zM225 -164l103 164h-62l29 174h143l-28 -174l-127 -195z" />
    <glyph glyph-name="dagger" unicode="&#x2020;" horiz-adv-x="1024" 
d="M178 1014l19 112h348l73 410h123l-73 -410h348l-19 -112h-348l-196 -1116h-123l196 1116h-348z" />
    <glyph glyph-name="daggerdbl" unicode="&#x2021;" horiz-adv-x="1024" 
d="M862 246h-348l-61 -348h-123l61 348h-348l18 112h349l127 717h-349l21 113h348l61 348h123l-61 -348h348l-20 -113h-349l-127 -717h349z" />
    <glyph glyph-name="bullet" unicode="&#x2022;" horiz-adv-x="512" 
d="M352 614h-184l37 205h184z" />
    <glyph glyph-name="ellipsis" unicode="&#x2026;" horiz-adv-x="1126" 
d="M164 0h-144l29 174h144zM532 0h-143l29 174h143zM901 0h-143l28 174h144z" />
    <glyph glyph-name="perthousand" unicode="&#x2030;" horiz-adv-x="2242" 
d="M276 932l86 -92h123l119 92l58 328l-87 92h-122l-119 -92zM156 891l71 409l193 154h225l135 -154l-71 -409l-191 -154h-225zM1389 1434l-1031 -1434h-122l1030 1434h123zM1348 502l-86 92h-123l-119 -92l-59 -328l88 -92h122l117 92zM1466 543l-71 -410l-191 -153h-225
l-137 153l71 410l191 153h225zM2013 502l-86 92h-123l-118 -92l-60 -328l88 -92h123l117 92zM2132 543l-72 -410l-190 -153h-225l-138 153l72 410l190 153h226z" />
    <glyph glyph-name="guilsinglleft" unicode="&#x2039;" horiz-adv-x="757" 
d="M90 522l567 543l68 -82l-481 -461l319 -461l-96 -81z" />
    <glyph glyph-name="guilsinglright" unicode="&#x203a;" horiz-adv-x="757" 
d="M643 522l-565 -542l-68 81l479 461l-317 461l96 82z" />
    <glyph glyph-name="fraction" unicode="&#x2044;" horiz-adv-x="901" 
d="M1051 1434l-1031 -1434h-122l1030 1434h123z" />
    <glyph glyph-name="foursuperior" unicode="&#x2074;" horiz-adv-x="747" 
d="M502 758l24 143h-389l17 92l456 441h123l-76 -430h82l-18 -103h-82l-25 -143h-112zM545 1004l51 296h-10l-295 -286l-2 -10h256z" />
    <glyph glyph-name="Euro" unicode="&#x20ac;" horiz-adv-x="1310" 
d="M135 829l21 113h153l43 246l310 246h706l-20 -113h-656l-225 -174l-35 -205h563l-20 -113h-563l-39 -225h563l-21 -112h-563l-37 -205l164 -174h656l-19 -113h-706l-224 246l43 246h-153l20 112h154l39 225h-154z" />
    <glyph glyph-name="uni20B4" unicode="&#x20b4;" horiz-adv-x="1259" 
d="M113 645h1054l-20 -113h-737l-82 -61l-37 -205l147 -153h447l-19 -113h-497l-207 225l47 267l57 40h-174zM1192 788h-1055l21 113h737l72 62l37 204l-148 154h-428l21 113h479l207 -226l-48 -266l-49 -41h174z" />
    <glyph glyph-name="uni20BD" unicode="&#x20bd;" horiz-adv-x="1402" 
d="M334 276l-47 -276h-123l47 276h-154l21 113h153l33 184h-153l20 113h154l131 748h768l207 -226l-74 -409l-285 -226h-645l-33 -184h666l-21 -113h-665zM1260 1167l-148 154h-594l-110 -635h593l201 154z" />
    <glyph glyph-name="afii61352" unicode="&#x2116;" horiz-adv-x="2099" 
d="M1401 399l18 103h512l-18 -103h-512zM1028 256l207 1178h123l-252 -1434h-113l-551 1178h-10l-207 -1178h-123l252 1434h113l551 -1178h10zM1585 922l86 -93h123l119 93l59 338l-86 92h-123l-118 -92zM1464 881l74 419l193 154h225l135 -154l-74 -419l-190 -154h-225z
" />
    <glyph glyph-name="trademark" unicode="&#x2122;" horiz-adv-x="1730" 
d="M408 635h-123l121 686h-256l20 113h635l-21 -113h-256zM1280 819h-92l-166 389h-10l-103 -573h-123l142 799h123l202 -471h11l370 471h123l-141 -799h-123l102 573h-10z" />
    <glyph glyph-name="minus" unicode="&#x2212;" horiz-adv-x="1003" 
d="M117 666l20 112h799l-21 -112h-798z" />
    <glyph glyph-name="Breve" unicode="&#xf406;" horiz-adv-x="645" 
d="M805 1843l-25 -143l-131 -103h-297l-94 103l25 143h112l-16 -92l45 -41h194l58 41l16 92h113z" />
    <glyph glyph-name="Circumflex" unicode="&#xf408;" horiz-adv-x="675" 
d="M621 1843l172 -246h-134l-114 164l-172 -164h-133l258 246h123z" />
    <glyph glyph-name="Dotaccent" unicode="&#xf40b;" horiz-adv-x="256" 
d="M381 1649h-133l26 143h134z" />
    <glyph glyph-name="Ring" unicode="&#xf40c;" horiz-adv-x="552" 
d="M356 1679l54 -51h102l70 51l14 82l-51 51h-103l-71 -51zM248 1638l28 164l140 103h184l107 -103l-29 -164l-141 -102h-185z" />
    <glyph glyph-name="Tilde" unicode="&#xf40d;" horiz-adv-x="675" 
d="M442 1700l-145 -72l-35 92l201 103l170 -82l147 71l35 -92l-203 -102z" />
    <glyph glyph-name="commaaccent" unicode="&#xf6c3;" horiz-adv-x="276" 
d="M-131 -512l100 164h-61l31 174h143l-31 -174l-127 -195z" />
    <glyph glyph-name="Acute" unicode="&#xf6c9;" horiz-adv-x="399" 
d="M416 1843h143l-227 -246h-92z" />
    <glyph glyph-name="Caron" unicode="&#xf6ca;" horiz-adv-x="675" 
d="M455 1597l-172 246h133l114 -164l172 164h134l-258 -246h-123z" />
    <glyph glyph-name="Dieresis" unicode="&#xf6cb;" horiz-adv-x="593" 
d="M381 1649h-133l26 143h134zM719 1649h-133l26 143h133z" />
    <glyph glyph-name="Grave" unicode="&#xf6ce;" horiz-adv-x="399" 
d="M283 1843h143l90 -246h-92z" />
    <glyph glyph-name="Hungarumlaut" unicode="&#xf6cf;" horiz-adv-x="665" 
d="M406 1843h133l-217 -246h-82zM692 1843h133l-217 -246h-82z" />
    <glyph glyph-name="Macron" unicode="&#xf6d0;" horiz-adv-x="655" 
d="M250 1659l20 113h533l-21 -113h-532z" />
    <glyph glyph-name="cyrBreve" unicode="&#xf6d1;" horiz-adv-x="747" 
d="M803 1884h112l-26 -143l-154 -123h-358l-113 123l27 143h112l-18 -102l51 -51h277l71 51z" />
    <glyph glyph-name="cyrbreve" unicode="&#xf6d4;" horiz-adv-x="645" 
d="M741 1485l-30 -174l-129 -103h-297l-97 103l31 174h113l-21 -123l43 -41h195l59 41l21 123h112z" />
    <glyph glyph-name="Germandbls" horiz-adv-x="1402" 
d="M702 799l21 112l412 420l2 10h-482l-225 -174l-205 -1167h-123l213 1208l310 246h696l-18 -96l-424 -436l-2 -11h194l207 -225l-82 -461l-285 -225h-510l19 113h459l200 153l68 379l-148 154h-297z" />
    <glyph glyph-name="foundryicon" horiz-adv-x="2519" 
d="M205 -225v1884h2109v-1884h-2109zM2273 -184v1802h-2027v-1802h2027zM1300 1249h226q74 0 119 -38.5t45 -94.5t-45 -94.5t-119 -38.5h-113v-164h-113v430zM1300 614h226q74 0 119 -38.5t45 -94.5t-45 -94.5t-119 -38.5h-113v-164h-113v430zM1014 348l-154 266h123
l82 -153h10l82 153h133l-164 -266v-164h-112v164zM1014 983l-154 266h123l82 -153h10l82 153h133l-164 -266v-164h-112v164zM614 522h-133v92h338l51 -92h-143v-338h-113v338zM614 1157h-133v92h338l51 -92h-143v-338h-113v338zM1618 819v133q40 8 78 43.5t45 79.5h164v-92
h-174v-72h245v-92h-358zM1618 184v133q40 8 78 43.5t45 79.5h164v-92h-174v-72h245v-92h-358zM1659 614h317v-92h-235q-8 32 -30 58.5t-52 33.5zM1659 1249h317v-92h-235q-8 32 -30 58.5t-52 33.5zM1567 1116q0 15 -13 28t-28 13h-113v-82h113q16 0 28.5 12t12.5 29z
M1567 481q0 15 -13 28t-28 13h-113v-82h113q16 0 28.5 12t12.5 29z" />
    </font>
</defs>
</svg>
