<?xml version="1.0" standalone="no"?>
<!DOCTYPE svg PUBLIC "-//W3C//DTD SVG 1.1//EN" "http://www.w3.org/Graphics/SVG/1.1/DTD/svg11.dtd" >
<svg xmlns="http://www.w3.org/2000/svg" xmlns:xlink="http://www.w3.org/1999/xlink" version="1.1">
<metadata>
Created by FontForge 20170731 at Tue Apr  6 15:18:44 2021
 By Aleksey,,,
Copyright (c) 2016 by Typetype. Designer Ivan Gladkikh, technical designer Olexa Volochay. All rights reserved.
</metadata>
<defs>
<font id="TTSquaresCondensed-Black" horiz-adv-x="1495" >
  <font-face 
    font-family="TT Squares Condensed Black"
    font-weight="900"
    font-stretch="normal"
    units-per-em="2048"
    panose-1="2 0 5 3 5 0 0 2 0 3"
    ascent="1638"
    descent="-410"
    x-height="1044"
    cap-height="1434"
    bbox="-123 -778 2406 1976"
    underline-thickness="102"
    underline-position="-307"
    unicode-range="U+000D-F6D4"
  />
<missing-glyph horiz-adv-x="0" 
 />
    <glyph glyph-name=".notdef" horiz-adv-x="0" 
 />
    <glyph glyph-name=".null" horiz-adv-x="0" 
 />
    <glyph glyph-name=".null" horiz-adv-x="0" 
 />
    <glyph glyph-name="nonmarkingreturn" horiz-adv-x="682" 
 />
    <glyph glyph-name="CR" unicode="&#xd;" horiz-adv-x="0" 
 />
    <glyph glyph-name="space" unicode=" " horiz-adv-x="471" 
 />
    <glyph glyph-name="exclam" unicode="!" horiz-adv-x="686" 
d="M563 1434v-594l-71 -369h-297l-72 369v594h440zM543 0h-400v348h400v-348z" />
    <glyph glyph-name="quotedbl" unicode="&#x22;" horiz-adv-x="890" 
d="M399 1208l-71 -266h-174l-72 266v226h317v-226zM809 1208l-72 -266h-174l-71 266v226h317v-226z" />
    <glyph glyph-name="numbersign" unicode="#" horiz-adv-x="1515" 
d="M993 1434h359l-52 -267h154v-327h-225l-51 -246h184v-328h-256l-51 -266h-359l52 266h-175l-51 -266h-358l51 266h-154v328h226l51 246h-184v327h256l51 267h358l-51 -267h174zM696 840l-51 -246h174l51 246h-174z" />
    <glyph glyph-name="dollar" unicode="$" horiz-adv-x="1300" 
d="M502 -184v184h-400v348h646l40 41v133l-40 41h-420l-246 225v420l246 226h174v184h338v-184h327v-349h-604l-41 -41v-112l41 -41h420l246 -225v-441l-246 -225h-143v-184h-338z" />
    <glyph glyph-name="percent" unicode="%" horiz-adv-x="1740" 
d="M348 983l10 -10h41l11 10v225l-11 11h-41l-10 -11v-225zM61 891v409l175 154h284l176 -154v-409l-176 -154h-284zM1331 225l10 -10h41l11 10v226l-11 10h-41l-10 -10v-226zM1044 133v410l175 153h284l176 -153v-410l-176 -153h-284zM1382 1434l-716 -1434h-308l717 1434
h307z" />
    <glyph glyph-name="ampersand" unicode="&#x26;" horiz-adv-x="1320" 
d="M707 553h-134l-71 -72v-92l41 -41h164v205zM1280 881v-328h-133v-553h-871l-215 195v409l154 144l-123 112v379l215 195h727v-349h-461l-41 -41v-92l82 -71h93v102h440v-102h133z" />
    <glyph glyph-name="quotesingle" unicode="'" horiz-adv-x="481" 
d="M399 1208l-71 -266h-174l-72 266v226h317v-226z" />
    <glyph glyph-name="parenleft" unicode="(" horiz-adv-x="819" 
d="M625 1208l-41 -41v-1187l41 -41h153v-349h-420l-215 195v1577l215 194h420v-348h-153z" />
    <glyph glyph-name="parenright" unicode=")" horiz-adv-x="819" 
d="M195 -61l41 41v1187l-41 41h-154v348h420l215 -194v-1577l-215 -195h-420v349h154z" />
    <glyph glyph-name="asterisk" unicode="*" horiz-adv-x="952" 
d="M604 799v-205h-256v205l-153 -103l-134 226l156 102l-156 102l134 226l153 -103v205h256v-205l154 103l133 -226l-156 -102l156 -102l-133 -226z" />
    <glyph glyph-name="plus" unicode="+" horiz-adv-x="1167" 
d="M82 543v348h328v358h348v-358h327v-348h-327v-359h-348v359h-328z" />
    <glyph glyph-name="comma" unicode="," horiz-adv-x="593" 
d="M123 -174l113 174h-134v348h390v-348l-216 -297z" />
    <glyph glyph-name="hyphen" unicode="-" horiz-adv-x="942" 
d="M82 543v348h778v-348h-778z" />
    <glyph glyph-name="period" unicode="." horiz-adv-x="593" 
d="M492 0h-390v348h390v-348z" />
    <glyph glyph-name="slash" unicode="/" horiz-adv-x="1136" 
d="M1137 1434l-738 -1434h-399l737 1434h400z" />
    <glyph glyph-name="zero" unicode="0" horiz-adv-x="1443" 
d="M594 1106l-41 -41v-696l41 -41h256l41 41v696l-41 41h-256zM379 1454h686l266 -246v-983l-266 -245h-686l-266 245v983z" />
    <glyph glyph-name="one" unicode="1" horiz-adv-x="1136" 
d="M1055 0h-932v348h246v737h-246v349h686v-1086h246v-348z" />
    <glyph glyph-name="two" unicode="2" horiz-adv-x="1310" 
d="M72 614l266 246h379l71 62v112l-51 51h-624v349h901l215 -195v-461l-266 -246h-379l-72 -61v-123h666v-348h-1106v614z" />
    <glyph glyph-name="three" unicode="3" horiz-adv-x="1280" 
d="M82 1085v349h870l215 -195v-358l-133 -123l164 -154v-409l-215 -195h-922v348h656l41 41v123l-72 61h-360v328h329l72 62v81l-41 41h-604z" />
    <glyph glyph-name="four" unicode="4" horiz-adv-x="1280" 
d="M686 0v266h-666v287l615 881h491v-820h134v-348h-134v-266h-440zM686 614v287h-10l-195 -287h205z" />
    <glyph glyph-name="five" unicode="5" horiz-adv-x="1331" 
d="M1014 0h-891v348h645l51 51v144l-51 51h-625v840h1024v-349h-583v-163h430l246 -226v-471z" />
    <glyph glyph-name="six" unicode="6" horiz-adv-x="1361" 
d="M358 -20l-245 225v983l266 246h825v-349h-590l-61 -61v-102h491l246 -226v-491l-246 -225h-686zM850 532l-62 62h-235v-205l61 -61h174l62 61v143z" />
    <glyph glyph-name="seven" unicode="7" horiz-adv-x="1157" 
d="M41 1085v349h1075v-297l-440 -1137h-451l430 1085h-614z" />
    <glyph glyph-name="eight" unicode="8" horiz-adv-x="1351" 
d="M1065 -20h-778l-215 194v430l164 154l-134 123v379l215 194h717l215 -194v-379l-133 -123l164 -154v-430zM553 328h246l41 41v153l-52 51h-225l-51 -51v-153zM584 1106l-41 -41v-113l51 -51h164l51 51v113l-41 41h-184z" />
    <glyph glyph-name="nine" unicode="9" horiz-adv-x="1361" 
d="M1004 1454l245 -225v-983l-266 -246h-825v348h590l61 62v102h-492l-245 225v492l245 225h687zM512 901l61 -61h236v204l-61 62h-175l-61 -62v-143z" />
    <glyph glyph-name="colon" unicode=":" horiz-adv-x="593" 
d="M492 0h-390v348h390v-348zM492 696h-390v348h390v-348z" />
    <glyph glyph-name="semicolon" unicode=";" horiz-adv-x="593" 
d="M123 -174l113 174h-134v348h390v-348l-216 -297zM492 696h-390v348h390v-348z" />
    <glyph glyph-name="less" unicode="&#x3c;" horiz-adv-x="860" 
d="M553 -82l-512 604l512 604l246 -256l-297 -348l297 -348z" />
    <glyph glyph-name="equal" unicode="=" horiz-adv-x="1054" 
d="M102 758v327h850v-327h-850zM102 246v327h850v-327h-850z" />
    <glyph glyph-name="greater" unicode="&#x3e;" horiz-adv-x="860" 
d="M307 1126l512 -604l-512 -604l-246 256l297 348l-297 348z" />
    <glyph glyph-name="question" unicode="?" horiz-adv-x="1187" 
d="M655 891l41 41v112l-41 41h-614v349h840l256 -236v-399l-256 -236h-205v-71h-389v327l82 72h286zM676 0h-389v348h389v-348z" />
    <glyph glyph-name="at" unicode="@" horiz-adv-x="1863" 
d="M451 1495h983l327 -307v-666l-225 -215h-317l-82 82l-82 -82h-307l-154 144v512l154 143h542v-533l41 -41h64l49 52v481l-195 184h-616l-193 -184v-717l195 -184h737v-246h-921l-328 307v963zM881 553l20 -21h41l41 41v308h-82l-20 -21v-307z" />
    <glyph glyph-name="A" unicode="A" 
d="M952 287h-409l-92 -287h-451l461 1434h573l461 -1434h-451zM748 952l-93 -317h185z" />
    <glyph glyph-name="B" unicode="B" horiz-adv-x="1464" 
d="M1219 758l174 -164v-338l-277 -256h-973v1434h912l276 -256v-318zM911 348l41 41v103l-82 71h-286v-215h327zM891 1044l-41 41h-266v-194h245l62 51v102z" />
    <glyph glyph-name="C" unicode="C" horiz-adv-x="1290" 
d="M1219 348v-348h-840l-266 246v942l266 246h840v-349h-625l-41 -41v-655l41 -41h625z" />
    <glyph glyph-name="D" unicode="D" 
d="M143 0v1434h973l266 -246v-942l-266 -246h-973zM584 348h317l41 41v655l-41 41h-317v-737z" />
    <glyph glyph-name="E" unicode="E" horiz-adv-x="1300" 
d="M143 1434h1086v-349h-645v-204h460v-328h-460v-205h665v-348h-1106v1434z" />
    <glyph glyph-name="F" unicode="F" horiz-adv-x="1269" 
d="M143 1434h1096v-349h-655v-245h460v-348h-460v-492h-441v1434z" />
    <glyph glyph-name="G" unicode="G" horiz-adv-x="1474" 
d="M963 389v184h-185v328h604v-655l-266 -246h-737l-266 246v942l266 246h891v-349h-676l-41 -41v-655l41 -41h328z" />
    <glyph glyph-name="H" unicode="H" horiz-adv-x="1505" 
d="M584 543v-543h-441v1434h441v-543h338v543h440v-1434h-440v543h-338z" />
    <glyph glyph-name="I" unicode="I" horiz-adv-x="1054" 
d="M973 0h-891v348h225v737h-225v349h891v-349h-225v-737h225v-348z" />
    <glyph glyph-name="J" unicode="J" horiz-adv-x="1095" 
d="M512 389v1045h440v-1188l-266 -246h-666v348h451z" />
    <glyph glyph-name="K" unicode="K" horiz-adv-x="1413" 
d="M584 543v-543h-441v1434h441v-543h30l308 543h471l-410 -697l451 -737h-471l-318 543h-61z" />
    <glyph glyph-name="L" unicode="L" horiz-adv-x="1228" 
d="M143 1434h441v-1086h604v-348h-1045v1434z" />
    <glyph glyph-name="M" unicode="M" horiz-adv-x="1792" 
d="M1014 287h-236l-184 358h-10v-645h-441v1434h441l307 -584h10l307 584h441v-1434h-441v645h-10z" />
    <glyph glyph-name="N" unicode="N" horiz-adv-x="1556" 
d="M973 778v656h440v-1434h-430l-389 655h-10v-655h-441v1434h432l388 -656h10z" />
    <glyph glyph-name="O" unicode="O" 
d="M594 1106l-41 -41v-696l41 -41h307l41 41v696l-41 41h-307zM379 1454h737l266 -246v-983l-266 -245h-737l-266 245v983z" />
    <glyph glyph-name="P" unicode="P" horiz-adv-x="1433" 
d="M1106 379h-522v-379h-441v1434h963l246 -226v-604zM911 1044l-41 41h-286v-358h286l41 41v276z" />
    <glyph glyph-name="Q" unicode="Q" 
d="M379 1454h737l266 -246v-983l-184 -174l164 -276h-399l-123 205h-461l-266 245v983zM594 1106l-41 -41v-696l41 -41h307l41 41v696l-41 41h-307z" />
    <glyph glyph-name="R" unicode="R" horiz-adv-x="1433" 
d="M963 0l-236 420h-143v-420h-441v1434h942l246 -226v-512l-205 -184l287 -512h-450zM891 1044l-41 41h-266v-317h266l41 41v235z" />
    <glyph glyph-name="S" unicode="S" horiz-adv-x="1361" 
d="M328 563l-246 225v420l246 226h891v-349h-656l-41 -41v-92l41 -41h481l246 -225v-461l-246 -225h-952v348h717l41 41v133l-41 41h-481z" />
    <glyph glyph-name="T" unicode="T" horiz-adv-x="1198" 
d="M819 0h-440v1085h-338v349h1116v-349h-338v-1085z" />
    <glyph glyph-name="U" unicode="U" horiz-adv-x="1515" 
d="M932 369v1065h440v-1209l-266 -245h-696l-267 245v1209h441v-1065l41 -41h266z" />
    <glyph glyph-name="V" unicode="V" horiz-adv-x="1464" 
d="M1004 0h-543l-461 1434h451l276 -932h10l277 932h450z" />
    <glyph glyph-name="W" unicode="W" horiz-adv-x="1996" 
d="M1260 1434l122 -840h11l143 840h440l-307 -1434h-553l-112 778h-11l-112 -778h-553l-308 1434h441l143 -840h10l123 840h523z" />
    <glyph glyph-name="X" unicode="X" horiz-adv-x="1402" 
d="M707 430h-11l-266 -430h-450l450 727l-420 707h451l235 -400h11l235 400h451l-420 -707l450 -727h-450z" />
    <glyph glyph-name="Y" unicode="Y" horiz-adv-x="1320" 
d="M881 0h-441v420l-460 1014h450l225 -533h11l225 533h450l-460 -1014v-420z" />
    <glyph glyph-name="Z" unicode="Z" horiz-adv-x="1269" 
d="M1208 0h-1147v338l615 747h-594v349h1106v-338l-615 -748h635v-348z" />
    <glyph glyph-name="bracketleft" unicode="[" horiz-adv-x="870" 
d="M809 -410h-666v1966h666v-348h-225v-1269h225v-349z" />
    <glyph glyph-name="backslash" unicode="\" horiz-adv-x="1136" 
d="M737 0l-737 1434h399l738 -1434h-400z" />
    <glyph glyph-name="bracketright" unicode="]" horiz-adv-x="870" 
d="M61 1556h666v-1966h-666v349h226v1269h-226v348z" />
    <glyph glyph-name="asciicircum" unicode="^" horiz-adv-x="849" 
d="M584 1434l245 -451h-358l-41 102h-10l-41 -102h-359l246 451h318z" />
    <glyph glyph-name="underscore" unicode="_" horiz-adv-x="778" 
d="M0 -410v308h778v-308h-778z" />
    <glyph glyph-name="grave" unicode="`" horiz-adv-x="686" 
d="M61 1434h420l144 -369h-318z" />
    <glyph glyph-name="a" unicode="a" horiz-adv-x="1146" 
d="M666 82l-82 -82h-328l-195 174v287l226 205h348v61l-41 41h-410v276h625l225 -204v-840h-327zM635 307v92h-133l-41 -41v-51l41 -41h82z" />
    <glyph glyph-name="b" unicode="b" horiz-adv-x="1187" 
d="M860 0h-727v1434h399v-390h328l236 -215v-614zM645 307l51 41v348l-51 41h-113v-430h113z" />
    <glyph glyph-name="c" unicode="c" horiz-adv-x="983" 
d="M492 348l51 -41h379v-307h-594l-236 215v614l236 215h594v-307h-379l-51 -41v-348z" />
    <glyph glyph-name="d" unicode="d" horiz-adv-x="1187" 
d="M604 0h-276l-236 215v614l236 215h327v390h400v-1434h-328l-41 82zM492 348l51 -41h61l51 41v389h-112l-51 -41v-348z" />
    <glyph glyph-name="e" unicode="e" horiz-adv-x="1095" 
d="M328 1065h450l236 -215v-471h-522v-62l51 -41h399v-276h-614l-236 215v635zM492 748v-103h143v103l-51 40h-41z" />
    <glyph glyph-name="f" unicode="f" horiz-adv-x="788" 
d="M41 666v307h102v246l236 215h461v-308h-246l-51 -41v-112h205v-307h-205v-666h-400v666h-102z" />
    <glyph glyph-name="g" unicode="g" horiz-adv-x="1167" 
d="M543 737l-51 -41v-327l51 -41h102v409h-102zM645 -61v81h-317l-236 216v593l236 215h716v-1239l-235 -215h-625v308h410z" />
    <glyph glyph-name="h" unicode="h" horiz-adv-x="1198" 
d="M133 1434h399v-390h338l215 -194v-850h-399v696l-51 41h-103v-737h-399v1434z" />
    <glyph glyph-name="i" unicode="i" horiz-adv-x="645" 
d="M123 1044h399v-1044h-399v1044zM522 1208h-399v328h399v-328z" />
    <glyph glyph-name="j" unicode="j" horiz-adv-x="645" 
d="M72 -102l51 41v1105h399v-1239l-235 -215h-410v308h195zM522 1208h-399v318h399v-318z" />
    <glyph glyph-name="k" unicode="k" horiz-adv-x="1187" 
d="M1208 0h-430l-205 389h-41v-389h-399v1434h399v-738h31l195 348h430l-287 -501z" />
    <glyph glyph-name="l" unicode="l" horiz-adv-x="686" 
d="M563 0h-399v1126h-113v308h512v-1434z" />
    <glyph glyph-name="m" unicode="m" horiz-adv-x="1761" 
d="M451 1044l41 -81l81 81h277l123 -112h10l123 112h328l215 -194v-850h-400v696l-51 41h-61l-52 -41v-696h-399v696l-51 41h-62l-51 -41v-696h-399v1044h328z" />
    <glyph glyph-name="n" unicode="n" horiz-adv-x="1198" 
d="M451 1044l41 -81l81 81h297l215 -194v-850h-399v696l-51 41h-62l-51 -41v-696h-399v1044h328z" />
    <glyph glyph-name="o" unicode="o" horiz-adv-x="1157" 
d="M92 850l236 215h501l236 -215v-655l-236 -215h-501l-236 215v655zM666 717l-52 41h-71l-51 -41v-389l51 -41h71l52 41v389z" />
    <glyph glyph-name="p" unicode="p" horiz-adv-x="1177" 
d="M573 1044h277l235 -215v-614l-235 -215h-328v-410h-399v1454h328l41 -81zM686 696l-51 41h-62l-51 -41v-389h113l51 41v348z" />
    <glyph glyph-name="q" unicode="q" horiz-adv-x="1177" 
d="M328 1044h727v-1454h-400v410h-327l-236 215v614zM543 737l-51 -41v-348l51 -41h112v430h-112z" />
    <glyph glyph-name="r" unicode="r" horiz-adv-x="870" 
d="M451 1044l41 -81l81 81h277v-307h-277l-51 -41v-696h-399v1044h328z" />
    <glyph glyph-name="s" unicode="s" horiz-adv-x="1034" 
d="M502 666h286l195 -174v-318l-195 -174h-716v276h471l41 31v51l-41 31h-287l-195 174v307l195 174h666v-276h-420l-41 -31v-41z" />
    <glyph glyph-name="t" unicode="t" horiz-adv-x="819" 
d="M41 737v307h102v246h400v-246h164v-307h-164v-389l51 -41h184v-307h-399l-236 215v522h-102z" />
    <glyph glyph-name="u" unicode="u" horiz-adv-x="1208" 
d="M758 0l-41 82l-82 -82h-297l-215 195v849h399v-696l51 -41h62l51 41v696h399v-1044h-327z" />
    <glyph glyph-name="v" unicode="v" horiz-adv-x="1095" 
d="M758 0h-420l-338 1044h410l133 -573h10l133 573h410z" />
    <glyph glyph-name="w" unicode="w" horiz-adv-x="1587" 
d="M993 1044l72 -532h10l82 532h410l-205 -1044h-492l-71 532h-11l-71 -532h-492l-205 1044h410l82 -532h10l72 532h399z" />
    <glyph glyph-name="x" unicode="x" horiz-adv-x="1095" 
d="M553 819l113 225h409l-266 -501l297 -543h-430l-123 246h-10l-123 -246h-430l297 543l-267 501h410l113 -225h10z" />
    <glyph glyph-name="y" unicode="y" horiz-adv-x="1198" 
d="M676 20h-318l-235 216v808h399v-675l51 -41h103v716h399v-1239l-235 -215h-625v308h410l51 41v81z" />
    <glyph glyph-name="z" unicode="z" horiz-adv-x="993" 
d="M922 768l-410 -461h430v-307h-891v276l389 461h-368v307h850v-276z" />
    <glyph glyph-name="braceleft" unicode="{" horiz-adv-x="890" 
d="M686 1249l-51 -41v-481l-164 -154l164 -153v-481l51 -41h143v-308h-419l-205 185v624l-123 113v123l123 113v624l205 184h419v-307h-143z" />
    <glyph glyph-name="bar" unicode="|" horiz-adv-x="768" 
d="M184 -410v1966h400v-1966h-400z" />
    <glyph glyph-name="braceright" unicode="}" horiz-adv-x="890" 
d="M205 -102l51 41v481l164 153l-164 154v481l-51 41h-144v307h420l205 -184v-624l123 -113v-123l-123 -113v-624l-205 -185h-420v308h144z" />
    <glyph glyph-name="asciitilde" unicode="~" horiz-adv-x="1259" 
d="M481 1004l267 -216l215 195l235 -287l-420 -368l-266 215l-215 -195l-236 287z" />
    <glyph glyph-name="nbspace" unicode="&#xa0;" horiz-adv-x="471" 
 />
    <glyph glyph-name="exclamdown" unicode="&#xa1;" horiz-adv-x="686" 
d="M123 -389v594l72 368h297l71 -368v-594h-440zM143 1044h400v-348h-400v348z" />
    <glyph glyph-name="cent" unicode="&#xa2;" horiz-adv-x="993" 
d="M522 -184v184h-194l-236 215v614l236 215h194v164h297v-164h113v-307h-113v-430h113v-307h-113v-184h-297zM451 348l51 -41h20v430h-20l-51 -41v-348z" />
    <glyph glyph-name="sterling" unicode="&#xa3;" horiz-adv-x="1218" 
d="M594 348h573v-348h-1126v348h72l133 123v102h-144v297h144v318l266 246h532v-349h-317l-41 -41v-174h348v-297h-348v-143z" />
    <glyph glyph-name="currency" unicode="&#xa4;" horiz-adv-x="1536" 
d="M676 184v-184h-440v184h-154v246h154v102h-154v246h154v656h972l246 -226v-450l-246 -226h-532v-102h532v-246h-532zM1014 1044l-41 41h-297v-307h297l41 41v225z" />
    <glyph glyph-name="yen" unicode="&#xa5;" horiz-adv-x="1361" 
d="M901 0h-440v184h-338v236h338l-62 123h-276v235h174l-297 656h451l225 -533h10l225 533h451l-297 -656h174v-235h-276l-62 -123h338v-236h-338v-184z" />
    <glyph glyph-name="brokenbar" unicode="&#xa6;" horiz-adv-x="727" 
d="M164 -410v820h399v-820h-399zM563 1556v-819h-399v819h399z" />
    <glyph glyph-name="section" unicode="&#xa7;" horiz-adv-x="1249" 
d="M891 973l246 -225v-431l-113 -102l113 -92v-307l-246 -226h-758v328h522l41 41v61l-41 41h-297l-245 226v430l112 102l-112 92v297l245 226h707v-328h-492l-41 -41v-51l41 -41h318zM553 440l51 -51h41l51 51v154l-51 51h-41l-51 -51v-154z" />
    <glyph glyph-name="dieresis" unicode="&#xa8;" horiz-adv-x="921" 
d="M410 1208h-349v328h349v-328zM860 1208h-348v328h348v-328z" />
    <glyph glyph-name="copyright" unicode="&#xa9;" horiz-adv-x="1863" 
d="M430 348l195 -184h614l195 184v717l-195 184h-614l-195 -184v-717zM1423 -82h-983l-327 307v963l327 307h983l328 -307v-963zM1219 512v-205h-461l-154 144v512l154 143h461v-205h-277l-41 -41v-307l41 -41h277z" />
    <glyph glyph-name="ordfeminine" unicode="&#xaa;" horiz-adv-x="808" 
d="M461 922v51h-92l-21 -31v-41l21 -20h51zM481 737l-71 -61h-205l-144 123v245l144 123h256v39l-21 23h-317v205h461l164 -144v-614h-246z" />
    <glyph glyph-name="guillemotleft" unicode="&#xab;" horiz-adv-x="1239" 
d="M451 -51l-410 563l410 563l225 -205l-266 -358l266 -358zM952 -51l-409 563l409 563l226 -205l-267 -358l267 -358z" />
    <glyph glyph-name="logicalnot" unicode="&#xac;" horiz-adv-x="1095" 
d="M82 543v348h911v-594h-368v246h-543z" />
    <glyph glyph-name="uni00AD" unicode="&#xad;" horiz-adv-x="993" 
d="M102 543v348h789v-348h-789z" />
    <glyph glyph-name="registered" unicode="&#xae;" horiz-adv-x="1863" 
d="M1024 307l-123 225h-20v-225h-297v799h551l155 -143v-267l-112 -102l153 -287h-307zM952 901h-71v-164h71l41 41v82zM430 348l195 -184h614l195 184v717l-195 184h-614l-195 -184v-717zM1423 -82h-983l-327 307v963l327 307h983l328 -307v-963z" />
    <glyph glyph-name="macron" unicode="&#xaf;" horiz-adv-x="778" 
d="M102 1229v287h574v-287h-574z" />
    <glyph glyph-name="degree" unicode="&#xb0;" horiz-adv-x="798" 
d="M369 983l10 -10h41l10 10v225l-10 11h-41l-10 -11v-225zM82 891v409l174 154h285l176 -154v-409l-176 -154h-285z" />
    <glyph glyph-name="plusminus" unicode="&#xb1;" horiz-adv-x="1105" 
d="M102 0v348h902v-348h-902zM82 748v348h297v317h348v-317h297v-348h-297v-297h-348v297h-297z" />
    <glyph glyph-name="twosuperior" unicode="&#xb2;" horiz-adv-x="716" 
d="M317 952h328v-194h-584v307l123 113h185l30 20v21l-30 20h-287v195h471l102 -93v-235l-112 -102h-195l-31 -31v-21z" />
    <glyph glyph-name="threesuperior" unicode="&#xb3;" horiz-adv-x="696" 
d="M338 1178l31 30v11l-21 20h-276v195h450l103 -93v-163l-93 -72l103 -92v-164l-103 -92h-471v194h297l21 21v10l-21 21h-163v174h143z" />
    <glyph glyph-name="acute" unicode="&#xb4;" horiz-adv-x="686" 
d="M205 1556h420l-246 -368h-318z" />
    <glyph glyph-name="mu" unicode="&#xb5;" horiz-adv-x="1239" 
d="M522 61v-471h-399v1454h399v-696l51 -41h93l51 41v696h399v-1044h-328l-40 82l-82 -82h-72l-62 61h-10z" />
    <glyph glyph-name="paragraph" unicode="&#xb6;" horiz-adv-x="1474" 
d="M502 430h-154l-246 225v553l246 226h471v-1844h-317v840zM973 1434h317v-1844h-317v1844z" />
    <glyph glyph-name="periodcentered" unicode="&#xb7;" horiz-adv-x="471" 
d="M430 532h-389v349h389v-349z" />
    <glyph glyph-name="cedilla" unicode="&#xb8;" horiz-adv-x="552" 
d="M82 0h205v-61h61l144 -123v-195l-144 -123h-287v185h144l41 30v21l-41 30h-123v236z" />
    <glyph glyph-name="onesuperior" unicode="&#xb9;" horiz-adv-x="583" 
d="M522 758h-461v194h103v287h-103v195h359v-482h102v-194z" />
    <glyph glyph-name="ordmasculine" unicode="&#xba;" horiz-adv-x="808" 
d="M61 1290l164 144h359l164 -144v-471l-164 -143h-359l-164 143v471zM461 1188l-21 20h-71l-21 -20v-266l21 -21h71l21 21v266z" />
    <glyph glyph-name="guillemotright" unicode="&#xbb;" horiz-adv-x="1239" 
d="M788 1075l410 -563l-410 -563l-225 205l266 358l-266 358zM287 1075l409 -563l-409 -563l-226 205l267 358l-267 358z" />
    <glyph glyph-name="onequarter" unicode="&#xbc;" horiz-adv-x="1599" 
d="M1300 1434l-716 -1434h-308l717 1434h307zM522 758h-461v194h103v287h-103v195h359v-482h102v-194zM1231 0v102h-328v174l256 400h328v-379h72v-195h-72v-102h-256zM1231 297v123h-10l-72 -123h82z" />
    <glyph glyph-name="onehalf" unicode="&#xbd;" horiz-adv-x="1648" 
d="M1300 1434l-716 -1434h-308l717 1434h307zM522 758h-461v194h103v287h-103v195h359v-482h102v-194zM1249 195h328v-195h-584v307l123 113h184l31 20v21l-31 20h-286v195h471l102 -92v-236l-112 -102h-195l-31 -31v-20z" />
    <glyph glyph-name="threequarters" unicode="&#xbe;" horiz-adv-x="1681" 
d="M1382 1434l-716 -1434h-308l717 1434h307zM358 1178l31 30v11l-20 20h-277v195h451l102 -93v-163l-92 -72l102 -92v-164l-102 -92h-471v194h297l20 21v10l-20 21h-164v174h143zM1313 0v102h-328v174l256 400h328v-379h71v-195h-71v-102h-256zM1313 297v123h-10l-72 -123
h82z" />
    <glyph glyph-name="questiondown" unicode="&#xbf;" horiz-adv-x="1187" 
d="M532 154l-40 -41v-113l40 -41h615v-348h-840l-256 235v400l256 235h205v72h389v-328l-82 -71h-287zM512 1044h389v-348h-389v348z" />
    <glyph glyph-name="Agrave" unicode="&#xc0;" 
d="M952 287h-409l-92 -287h-451l461 1434h573l461 -1434h-451zM748 952l-93 -317h185zM348 1905h420l143 -308h-317z" />
    <glyph glyph-name="Aacute" unicode="&#xc1;" 
d="M952 287h-409l-92 -287h-451l461 1434h573l461 -1434h-451zM748 952l-93 -317h185zM737 1905h420l-246 -308h-317z" />
    <glyph glyph-name="Acircumflex" unicode="&#xc2;" 
d="M952 287h-409l-92 -287h-451l461 1434h573l461 -1434h-451zM748 952l-93 -317h185zM580 1905h338l215 -308h-328l-51 82h-11l-51 -82h-327z" />
    <glyph glyph-name="Atilde" unicode="&#xc3;" 
d="M952 287h-409l-92 -287h-451l461 1434h573l461 -1434h-451zM748 952l-93 -317h185zM645 1638l-143 -71l-144 235l287 144l205 -82l143 71l144 -235l-287 -144z" />
    <glyph glyph-name="Adieresis" unicode="&#xc4;" 
d="M952 287h-409l-92 -287h-451l461 1434h573l461 -1434h-451zM748 952l-93 -317h185zM696 1608h-348v286h348v-286zM1147 1608h-348v286h348v-286z" />
    <glyph glyph-name="Aring" unicode="&#xc5;" 
d="M952 287h-409l-92 -287h-451l461 1434h573l461 -1434h-451zM748 952l-93 -317h185zM686 1720l21 -20h81l21 20v62l-21 20h-81l-21 -22v-60zM461 1649v204l143 123h287l143 -123v-204l-143 -123h-287z" />
    <glyph glyph-name="AE" unicode="&#xc6;" horiz-adv-x="1986" 
d="M1935 0h-1065v287h-358l-72 -287h-440l369 1434h1546v-349h-604v-204h420v-328h-420v-205h624v-348zM870 1085h-153l-113 -450h266v450z" />
    <glyph glyph-name="Ccedilla" unicode="&#xc7;" horiz-adv-x="1290" 
d="M635 0h-256l-266 246v942l266 246h840v-349h-625l-41 -41v-655l41 -41h625v-348h-379v-61h61l143 -123v-195l-143 -123h-287v185h144l41 30v21l-41 30h-123v236z" />
    <glyph glyph-name="Egrave" unicode="&#xc8;" horiz-adv-x="1300" 
d="M143 1434h1086v-349h-645v-204h460v-328h-460v-205h665v-348h-1106v1434zM276 1905h420l144 -308h-318z" />
    <glyph glyph-name="Eacute" unicode="&#xc9;" horiz-adv-x="1300" 
d="M143 1434h1086v-349h-645v-204h460v-328h-460v-205h665v-348h-1106v1434zM676 1905h420l-246 -308h-318z" />
    <glyph glyph-name="Ecircumflex" unicode="&#xca;" horiz-adv-x="1300" 
d="M143 1434h1086v-349h-645v-204h460v-328h-460v-205h665v-348h-1106v1434zM528 1905h338l215 -308h-327l-52 82h-10l-51 -82h-328z" />
    <glyph glyph-name="Edieresis" unicode="&#xcb;" horiz-adv-x="1300" 
d="M143 1434h1086v-349h-645v-204h460v-328h-460v-205h665v-348h-1106v1434zM645 1608h-348v286h348v-286zM1096 1608h-348v286h348v-286z" />
    <glyph glyph-name="Igrave" unicode="&#xcc;" horiz-adv-x="1054" 
d="M973 0h-891v348h225v737h-225v349h891v-349h-225v-737h225v-348zM133 1905h420l143 -308h-317z" />
    <glyph glyph-name="Iacute" unicode="&#xcd;" horiz-adv-x="1054" 
d="M973 0h-891v348h225v737h-225v349h891v-349h-225v-737h225v-348zM522 1905h420l-246 -308h-317z" />
    <glyph glyph-name="Icircumflex" unicode="&#xce;" horiz-adv-x="1054" 
d="M973 0h-891v348h225v737h-225v349h891v-349h-225v-737h225v-348zM358 1905h338l215 -308h-327l-52 82h-10l-51 -82h-328z" />
    <glyph glyph-name="Idieresis" unicode="&#xcf;" horiz-adv-x="1054" 
d="M973 0h-891v348h225v737h-225v349h891v-349h-225v-737h225v-348zM475 1608h-348v286h348v-286zM926 1608h-348v286h348v-286z" />
    <glyph glyph-name="Eth" unicode="&#xd0;" horiz-adv-x="1536" 
d="M184 0v543h-143v348h143v543h973l266 -246v-942l-266 -246h-973zM625 348h317l41 41v655l-41 41h-317v-194h184v-348h-184v-195z" />
    <glyph glyph-name="Ntilde" unicode="&#xd1;" horiz-adv-x="1556" 
d="M973 778v656h440v-1434h-430l-389 655h-10v-655h-441v1434h432l388 -656h10zM676 1638l-144 -71l-143 235l287 144l205 -82l143 71l143 -235l-286 -144z" />
    <glyph glyph-name="Ograve" unicode="&#xd2;" 
d="M594 1106l-41 -41v-696l41 -41h307l41 41v696l-41 41h-307zM379 1454h737l266 -246v-983l-266 -245h-737l-266 245v983zM338 1905h420l143 -308h-317z" />
    <glyph glyph-name="Oacute" unicode="&#xd3;" 
d="M594 1106l-41 -41v-696l41 -41h307l41 41v696l-41 41h-307zM379 1454h737l266 -246v-983l-266 -245h-737l-266 245v983zM737 1905h420l-246 -308h-317z" />
    <glyph glyph-name="Ocircumflex" unicode="&#xd4;" 
d="M594 1106l-41 -41v-696l41 -41h307l41 41v696l-41 41h-307zM379 1454h737l266 -246v-983l-266 -245h-737l-266 245v983zM580 1905h338l215 -308h-328l-51 82h-11l-51 -82h-327z" />
    <glyph glyph-name="Otilde" unicode="&#xd5;" 
d="M594 1106l-41 -41v-696l41 -41h307l41 41v696l-41 41h-307zM379 1454h737l266 -246v-983l-266 -245h-737l-266 245v983zM645 1638l-143 -71l-144 235l287 144l205 -82l143 71l144 -235l-287 -144z" />
    <glyph glyph-name="Odieresis" unicode="&#xd6;" 
d="M594 1106l-41 -41v-696l41 -41h307l41 41v696l-41 41h-307zM379 1454h737l266 -246v-983l-266 -245h-737l-266 245v983zM696 1608h-348v286h348v-286zM1147 1608h-348v286h348v-286z" />
    <glyph glyph-name="multiply" unicode="&#xd7;" horiz-adv-x="1126" 
d="M328 717l-246 266l235 246l246 -266l246 266l235 -246l-245 -266l245 -266l-235 -246l-246 266l-246 -266l-235 246z" />
    <glyph glyph-name="Oslash" unicode="&#xd8;" 
d="M379 1454h737l51 -51l41 51h287l-164 -194l51 -52v-983l-266 -245h-737l-51 51l-41 -51h-287l164 194l-51 51v983zM901 328l41 41v409l-369 -450h328zM594 1106l-41 -41v-410l369 451h-328z" />
    <glyph glyph-name="Ugrave" unicode="&#xd9;" horiz-adv-x="1515" 
d="M932 369v1065h440v-1209l-266 -245h-696l-267 245v1209h441v-1065l41 -41h266zM348 1905h420l143 -308h-317z" />
    <glyph glyph-name="Uacute" unicode="&#xda;" horiz-adv-x="1515" 
d="M932 369v1065h440v-1209l-266 -245h-696l-267 245v1209h441v-1065l41 -41h266zM748 1905h419l-245 -308h-318z" />
    <glyph glyph-name="Ucircumflex" unicode="&#xdb;" horiz-adv-x="1515" 
d="M932 369v1065h440v-1209l-266 -245h-696l-267 245v1209h441v-1065l41 -41h266zM590 1905h338l215 -308h-328l-51 82h-10l-52 -82h-327z" />
    <glyph glyph-name="Udieresis" unicode="&#xdc;" horiz-adv-x="1515" 
d="M932 369v1065h440v-1209l-266 -245h-696l-267 245v1209h441v-1065l41 -41h266zM707 1608h-349v286h349v-286zM1157 1608h-348v286h348v-286z" />
    <glyph glyph-name="Yacute" unicode="&#xdd;" horiz-adv-x="1320" 
d="M881 0h-441v420l-460 1014h450l225 -533h11l225 533h450l-460 -1014v-420zM655 1905h420l-246 -308h-317z" />
    <glyph glyph-name="Thorn" unicode="&#xde;" horiz-adv-x="1443" 
d="M1106 195h-522v-195h-441v1434h441v-185h522l246 -225v-604zM911 860l-41 41h-286v-358h286l41 41v276z" />
    <glyph glyph-name="germandbls" unicode="&#xdf;" horiz-adv-x="1218" 
d="M133 0v1239l236 215h481l235 -215v-317l-102 -93l154 -143v-471l-236 -215h-297v307h82l51 41v246l-51 41h-82v307h31l51 41v123l-51 41h-51l-52 -41v-1106h-399z" />
    <glyph glyph-name="agrave" unicode="&#xe0;" horiz-adv-x="1146" 
d="M666 82l-82 -82h-328l-195 174v287l226 205h348v61l-41 41h-410v276h625l225 -204v-840h-327zM635 307v92h-133l-41 -41v-51l41 -41h82zM133 1556h420l143 -368h-317z" />
    <glyph glyph-name="aacute" unicode="&#xe1;" horiz-adv-x="1146" 
d="M666 82l-82 -82h-328l-195 174v287l226 205h348v61l-41 41h-410v276h625l225 -204v-840h-327zM635 307v92h-133l-41 -41v-51l41 -41h82zM492 1556h419l-245 -368h-318z" />
    <glyph glyph-name="acircumflex" unicode="&#xe2;" horiz-adv-x="1146" 
d="M666 82l-82 -82h-328l-195 174v287l226 205h348v61l-41 41h-410v276h625l225 -204v-840h-327zM635 307v92h-133l-41 -41v-51l41 -41h82zM406 1556h337l215 -368h-327l-51 123h-11l-51 -123h-328z" />
    <glyph glyph-name="atilde" unicode="&#xe3;" horiz-adv-x="1146" 
d="M666 82l-82 -82h-328l-195 174v287l226 205h348v61l-41 41h-410v276h625l225 -204v-840h-327zM635 307v92h-133l-41 -41v-51l41 -41h82zM471 1260l-143 -103l-144 236l287 204l205 -112l143 102l144 -235l-287 -205z" />
    <glyph glyph-name="adieresis" unicode="&#xe4;" horiz-adv-x="1146" 
d="M666 82l-82 -82h-328l-195 174v287l226 205h348v61l-41 41h-410v276h625l225 -204v-840h-327zM635 307v92h-133l-41 -41v-51l41 -41h82zM522 1208h-348v328h348v-328zM973 1208h-348v328h348v-328z" />
    <glyph glyph-name="aring" unicode="&#xe5;" horiz-adv-x="1146" 
d="M666 82l-82 -82h-328l-195 174v287l226 205h348v61l-41 41h-410v276h625l225 -204v-840h-327zM635 307v92h-133l-41 -41v-51l41 -41h82zM512 1372l31 -31h61l31 31v64l-31 28h-61l-31 -30v-62zM287 1270v266l143 123h287l143 -123v-266l-143 -123h-287z" />
    <glyph glyph-name="ae" unicode="&#xe6;" horiz-adv-x="1638" 
d="M840 82l-82 -82h-502l-195 174v287l226 205h348v61l-41 41h-410v276h604l72 -61l92 82h369l235 -215v-471h-522v-62l51 -41h400v-276h-553zM635 307v92h-133l-41 -41v-51l41 -41h82zM1034 748v-103h144v103l-52 40h-41z" />
    <glyph glyph-name="ccedilla" unicode="&#xe7;" horiz-adv-x="983" 
d="M461 0h-133l-236 215v614l236 215h594v-307h-379l-51 -41v-348l51 -41h379v-307h-256v-61h61l143 -123v-195l-143 -123h-287v185h144l41 30v21l-41 30h-123v236z" />
    <glyph glyph-name="egrave" unicode="&#xe8;" horiz-adv-x="1095" 
d="M328 1065h450l236 -215v-471h-522v-62l51 -41h399v-276h-614l-236 215v635zM492 748v-103h143v103l-51 40h-41zM143 1556h420l144 -368h-318z" />
    <glyph glyph-name="eacute" unicode="&#xe9;" horiz-adv-x="1095" 
d="M328 1065h450l236 -215v-471h-522v-62l51 -41h399v-276h-614l-236 215v635zM492 748v-103h143v103l-51 40h-41zM532 1556h420l-245 -368h-318z" />
    <glyph glyph-name="ecircumflex" unicode="&#xea;" horiz-adv-x="1095" 
d="M328 1065h450l236 -215v-471h-522v-62l51 -41h399v-276h-614l-236 215v635zM492 748v-103h143v103l-51 40h-41zM385 1556h338l215 -368h-328l-51 123h-10l-51 -123h-328z" />
    <glyph glyph-name="edieresis" unicode="&#xeb;" horiz-adv-x="1095" 
d="M328 1065h450l236 -215v-471h-522v-62l51 -41h399v-276h-614l-236 215v635zM492 748v-103h143v103l-51 40h-41zM502 1208h-348v328h348v-328zM952 1208h-348v328h348v-328z" />
    <glyph glyph-name="igrave" unicode="&#xec;" horiz-adv-x="645" 
d="M123 1044h399v-1044h-399v1044zM-82 1556h420l143 -368h-317z" />
    <glyph glyph-name="iacute" unicode="&#xed;" horiz-adv-x="645" 
d="M123 1044h399v-1044h-399v1044zM307 1556h420l-246 -368h-317z" />
    <glyph glyph-name="icircumflex" unicode="&#xee;" horiz-adv-x="645" 
d="M123 1044h399v-1044h-399v1044zM154 1556h338l215 -368h-328l-51 123h-11l-51 -123h-327z" />
    <glyph glyph-name="idieresis" unicode="&#xef;" horiz-adv-x="655" 
d="M129 1044h399v-1044h-399v1044zM276 1208h-348v328h348v-328zM727 1208h-348v328h348v-328z" />
    <glyph glyph-name="eth" unicode="&#xf0;" horiz-adv-x="1136" 
d="M358 1290l-71 144h379l71 -144h267v-286h-113l153 -297v-512l-235 -215h-502l-235 215v471l235 215h266l-61 123h-266v286h112zM522 573l-51 -41v-204l51 -41h72l51 41v245h-123z" />
    <glyph glyph-name="ntilde" unicode="&#xf1;" horiz-adv-x="1198" 
d="M451 1044l41 -81l81 81h297l215 -194v-850h-399v696l-51 41h-62l-51 -41v-696h-399v1044h328zM502 1260l-144 -103l-143 236l287 204l205 -112l143 102l143 -235l-286 -205z" />
    <glyph glyph-name="ograve" unicode="&#xf2;" horiz-adv-x="1157" 
d="M92 850l236 215h501l236 -215v-655l-236 -215h-501l-236 215v655zM666 717l-52 41h-71l-51 -41v-389l51 -41h71l52 41v389zM174 1556h420l143 -368h-317z" />
    <glyph glyph-name="oacute" unicode="&#xf3;" horiz-adv-x="1157" 
d="M92 850l236 215h501l236 -215v-655l-236 -215h-501l-236 215v655zM666 717l-52 41h-71l-51 -41v-389l51 -41h71l52 41v389zM573 1556h420l-245 -368h-318z" />
    <glyph glyph-name="ocircumflex" unicode="&#xf4;" horiz-adv-x="1157" 
d="M92 850l236 215h501l236 -215v-655l-236 -215h-501l-236 215v655zM666 717l-52 41h-71l-51 -41v-389l51 -41h71l52 41v389zM410 1556h338l215 -368h-328l-51 123h-11l-51 -123h-327z" />
    <glyph glyph-name="otilde" unicode="&#xf5;" horiz-adv-x="1157" 
d="M92 850l236 215h501l236 -215v-655l-236 -215h-501l-236 215v655zM666 717l-52 41h-71l-51 -41v-389l51 -41h71l52 41v389zM475 1260l-143 -103l-144 236l287 204l205 -112l143 102l144 -235l-287 -205z" />
    <glyph glyph-name="odieresis" unicode="&#xf6;" horiz-adv-x="1157" 
d="M92 850l236 215h501l236 -215v-655l-236 -215h-501l-236 215v655zM666 717l-52 41h-71l-51 -41v-389l51 -41h71l52 41v389zM526 1208h-348v328h348v-328zM977 1208h-348v328h348v-328z" />
    <glyph glyph-name="divide" unicode="&#xf7;" horiz-adv-x="1105" 
d="M82 563v307h942v-307h-942zM737 123h-368v307h368v-307zM737 1004h-368v307h368v-307z" />
    <glyph glyph-name="oslash" unicode="&#xf8;" horiz-adv-x="1157" 
d="M92 850l236 215h501l52 -51l41 51h266l-164 -174l41 -41v-655l-236 -215h-501l-52 51l-40 -51h-267l164 174l-41 41v655zM614 287l52 41v143l-164 -184h112zM492 717v-144l163 185h-112z" />
    <glyph glyph-name="ugrave" unicode="&#xf9;" horiz-adv-x="1208" 
d="M758 0l-41 82l-82 -82h-297l-215 195v849h399v-696l51 -41h62l51 41v696h399v-1044h-327zM195 1556h419l144 -368h-318z" />
    <glyph glyph-name="uacute" unicode="&#xfa;" horiz-adv-x="1208" 
d="M758 0l-41 82l-82 -82h-297l-215 195v849h399v-696l51 -41h62l51 41v696h399v-1044h-327zM594 1556h420l-246 -368h-317z" />
    <glyph glyph-name="ucircumflex" unicode="&#xfb;" horiz-adv-x="1208" 
d="M758 0l-41 82l-82 -82h-297l-215 195v849h399v-696l51 -41h62l51 41v696h399v-1044h-327zM436 1556h338l215 -368h-327l-52 123h-10l-51 -123h-328z" />
    <glyph glyph-name="udieresis" unicode="&#xfc;" horiz-adv-x="1208" 
d="M758 0l-41 82l-82 -82h-297l-215 195v849h399v-696l51 -41h62l51 41v696h399v-1044h-327zM553 1208h-348v328h348v-328zM1004 1208h-349v328h349v-328z" />
    <glyph glyph-name="yacute" unicode="&#xfd;" horiz-adv-x="1198" 
d="M676 20h-318l-235 216v808h399v-675l51 -41h103v716h399v-1239l-235 -215h-625v308h410l51 41v81zM584 1556h420l-246 -368h-318z" />
    <glyph glyph-name="thorn" unicode="&#xfe;" horiz-adv-x="1187" 
d="M532 1044h328l236 -215v-614l-236 -215h-328v-410h-399v1844h399v-390zM696 696l-51 41h-113v-430h113l51 41v348z" />
    <glyph glyph-name="ydieresis" unicode="&#xff;" horiz-adv-x="1198" 
d="M676 20h-318l-235 216v808h399v-675l51 -41h103v716h399v-1239l-235 -215h-625v308h410l51 41v81zM547 1208h-348v328h348v-328zM997 1208h-348v328h348v-328z" />
    <glyph glyph-name="Amacron" unicode="&#x100;" 
d="M952 287h-409l-92 -287h-451l461 1434h573l461 -1434h-451zM748 952l-93 -317h185zM461 1608v286h573v-286h-573z" />
    <glyph glyph-name="amacron" unicode="&#x101;" horiz-adv-x="1146" 
d="M666 82l-82 -82h-328l-195 174v287l226 205h348v61l-41 41h-410v276h625l225 -204v-840h-327zM635 307v92h-133l-41 -41v-51l41 -41h82zM287 1229v287h573v-287h-573z" />
    <glyph glyph-name="Abreve" unicode="&#x102;" 
d="M952 287h-409l-92 -287h-451l461 1434h573l461 -1434h-451zM748 952l-93 -317h185zM1075 1905v-164l-164 -144h-327l-164 144v164h266v-52l31 -30h61l31 30v52h266z" />
    <glyph glyph-name="abreve" unicode="&#x103;" horiz-adv-x="1146" 
d="M666 82l-82 -82h-328l-195 174v287l226 205h348v61l-41 41h-410v276h625l225 -204v-840h-327zM635 307v92h-133l-41 -41v-51l41 -41h82zM901 1556v-225l-164 -143h-327l-164 143v225h266v-112l31 -31h61l31 31v112h266z" />
    <glyph glyph-name="Aogonek" unicode="&#x104;" 
d="M1300 -195v-81l52 -41h102v-185h-246l-143 123v215l164 164h-185l-92 287h-409l-92 -287h-451l461 1434h573l461 -1434zM748 952l-93 -317h185z" />
    <glyph glyph-name="aogonek" unicode="&#x105;" horiz-adv-x="1146" 
d="M840 -195v-81l51 -41h102v-185h-245l-144 123v215l164 164h-61l-41 82l-82 -82h-328l-195 174v287l226 205h348v61l-41 41h-410v276h625l225 -204v-840zM635 307v92h-133l-41 -41v-51l41 -41h82z" />
    <glyph glyph-name="Cacute" unicode="&#x106;" horiz-adv-x="1290" 
d="M1219 348v-348h-840l-266 246v942l266 246h840v-349h-625l-41 -41v-655l41 -41h625zM737 1905h420l-246 -308h-317z" />
    <glyph glyph-name="cacute" unicode="&#x107;" horiz-adv-x="983" 
d="M492 348l51 -41h379v-307h-594l-236 215v614l236 215h594v-307h-379l-51 -41v-348zM573 1556h420l-245 -368h-318z" />
    <glyph glyph-name="Ccircumflex" unicode="&#x108;" horiz-adv-x="1290" 
d="M1219 348v-348h-840l-266 246v942l266 246h840v-349h-625l-41 -41v-655l41 -41h625zM580 1905h338l215 -308h-328l-51 82h-11l-51 -82h-327z" />
    <glyph glyph-name="ccircumflex" unicode="&#x109;" horiz-adv-x="983" 
d="M492 348l51 -41h379v-307h-594l-236 215v614l236 215h594v-307h-379l-51 -41v-348zM426 1556h338l215 -368h-328l-51 123h-10l-51 -123h-328z" />
    <glyph glyph-name="Ccaron" unicode="&#x10c;" horiz-adv-x="1290" 
d="M1219 348v-348h-840l-266 246v942l266 246h840v-349h-625l-41 -41v-655l41 -41h625zM918 1597h-338l-215 308h327l51 -82h11l51 82h328z" />
    <glyph glyph-name="ccaron" unicode="&#x10d;" horiz-adv-x="983" 
d="M492 348l51 -41h379v-307h-594l-236 215v614l236 215h594v-307h-379l-51 -41v-348zM764 1188h-338l-215 368h328l51 -122h10l51 122h328z" />
    <glyph glyph-name="Dcaron" unicode="&#x10e;" 
d="M143 0v1434h973l266 -246v-942l-266 -246h-973zM584 348h317l41 41v655l-41 41h-317v-737zM893 1597h-338l-215 308h328l51 -82h10l51 82h328z" />
    <glyph glyph-name="dcaron" unicode="&#x10f;" horiz-adv-x="1484" 
d="M604 0h-276l-236 215v614l236 215h327v390h400v-1434h-328l-41 82zM492 348l51 -41h61l51 41v389h-112l-51 -41v-348zM1157 911l113 174h-133v349h389v-349l-215 -297z" />
    <glyph glyph-name="Dcroat" unicode="&#x110;" horiz-adv-x="1536" 
d="M184 0v543h-143v348h143v543h973l266 -246v-942l-266 -246h-973zM625 348h317l41 41v655l-41 41h-317v-194h184v-348h-184v-195z" />
    <glyph glyph-name="dcroat" unicode="&#x111;" horiz-adv-x="1208" 
d="M1167 1004h-123v-1004h-327l-41 82l-82 -82h-266l-236 215v492l236 215h317v82h-168v307h168v123h399v-123h123v-307zM492 348l51 -41h51l51 41v266h-125l-28 -61v-205z" />
    <glyph glyph-name="Emacron" unicode="&#x112;" horiz-adv-x="1300" 
d="M143 1434h1086v-349h-645v-204h460v-328h-460v-205h665v-348h-1106v1434zM410 1608v286h573v-286h-573z" />
    <glyph glyph-name="emacron" unicode="&#x113;" horiz-adv-x="1095" 
d="M328 1065h450l236 -215v-471h-522v-62l51 -41h399v-276h-614l-236 215v635zM492 748v-103h143v103l-51 40h-41zM266 1229v287h574v-287h-574z" />
    <glyph glyph-name="Edotaccent" unicode="&#x116;" horiz-adv-x="1300" 
d="M143 1434h1086v-349h-645v-204h460v-328h-460v-205h665v-348h-1106v1434zM897 1597h-399v308h399v-308z" />
    <glyph glyph-name="edotaccent" unicode="&#x117;" horiz-adv-x="1095" 
d="M328 1065h450l236 -215v-471h-522v-62l51 -41h399v-276h-614l-236 215v635zM492 748v-103h143v103l-51 40h-41zM754 1208h-400v328h400v-328z" />
    <glyph glyph-name="Eogonek" unicode="&#x118;" horiz-adv-x="1300" 
d="M1055 -195v-81l51 -41h102v-185h-245l-144 123v215l164 164h-840v1434h1086v-349h-645v-204h460v-328h-460v-205h665v-348z" />
    <glyph glyph-name="eogonek" unicode="&#x119;" horiz-adv-x="1095" 
d="M748 -195v-81l51 -41h102v-185h-246l-143 123v215l164 164h-348l-236 215v635l236 215h450l236 -215v-471h-522v-62l51 -41h399v-276zM492 748v-103h143v103l-51 40h-41z" />
    <glyph glyph-name="Ecaron" unicode="&#x11a;" horiz-adv-x="1300" 
d="M143 1434h1086v-349h-645v-204h460v-328h-460v-205h665v-348h-1106v1434zM866 1597h-338l-215 308h328l51 -82h10l52 82h327z" />
    <glyph glyph-name="ecaron" unicode="&#x11b;" horiz-adv-x="1095" 
d="M328 1065h450l236 -215v-471h-522v-62l51 -41h399v-276h-614l-236 215v635zM492 748v-103h143v103l-51 40h-41zM723 1188h-338l-215 368h328l51 -122h10l51 122h328z" />
    <glyph glyph-name="Gbreve" unicode="&#x11e;" horiz-adv-x="1474" 
d="M963 389v184h-185v328h604v-655l-266 -246h-737l-266 246v942l266 246h891v-349h-676l-41 -41v-655l41 -41h328zM1075 1905v-164l-164 -144h-327l-164 144v164h266v-52l31 -30h61l31 30v52h266z" />
    <glyph glyph-name="gbreve" unicode="&#x11f;" horiz-adv-x="1167" 
d="M543 737l-51 -41v-327l51 -41h102v409h-102zM645 -61v81h-317l-236 216v593l236 215h716v-1239l-235 -215h-625v308h410zM936 1556v-225l-164 -143h-328l-163 143v225h266v-112l31 -31h61l31 31v112h266z" />
    <glyph glyph-name="Gcommaaccent" unicode="&#x122;" horiz-adv-x="1474" 
d="M963 389v184h-185v328h604v-655l-266 -246h-737l-266 246v942l266 246h891v-349h-676l-41 -41v-655l41 -41h328zM573 -655l113 174h-133v348h389v-348l-215 -297z" />
    <glyph glyph-name="gcommaaccent" unicode="&#x123;" horiz-adv-x="1167" 
d="M543 737l-51 -41v-327l51 -41h102v409h-102zM645 -61v81h-317l-236 216v593l236 215h716v-1239l-235 -215h-625v308h410zM768 1731l-113 -175h133v-348h-389v348l215 297z" />
    <glyph glyph-name="Imacron" unicode="&#x12a;" horiz-adv-x="1054" 
d="M973 0h-891v348h225v737h-225v349h891v-349h-225v-737h225v-348zM240 1608v286h573v-286h-573z" />
    <glyph glyph-name="imacron" unicode="&#x12b;" horiz-adv-x="655" 
d="M129 1044h399v-1044h-399v1044zM41 1229v287h573v-287h-573z" />
    <glyph glyph-name="Iogonek" unicode="&#x12e;" horiz-adv-x="1054" 
d="M778 -195v-81l51 -41h103v-185h-246l-143 123v215l164 164h-625v348h225v737h-225v349h891v-349h-225v-737h225v-348z" />
    <glyph glyph-name="iogonek" unicode="&#x12f;" horiz-adv-x="645" 
d="M328 -195v-81l51 -41h102v-185h-245l-144 123v215l164 164h-133v1044h399v-1044zM522 1208h-399v328h399v-328z" />
    <glyph glyph-name="Idotaccent" unicode="&#x130;" horiz-adv-x="1054" 
d="M973 0h-891v348h225v737h-225v349h891v-349h-225v-737h225v-348zM727 1597h-399v308h399v-308z" />
    <glyph glyph-name="dotlessi" unicode="&#x131;" horiz-adv-x="645" 
d="M123 1044h399v-1044h-399v1044z" />
    <glyph glyph-name="Kcommaaccent" unicode="&#x136;" horiz-adv-x="1413" 
d="M584 543v-543h-441v1434h441v-543h30l308 543h471l-410 -697l451 -737h-471l-318 543h-61zM598 -655l113 174h-133v348h389v-348l-215 -297z" />
    <glyph glyph-name="kcommaaccent" unicode="&#x137;" horiz-adv-x="1187" 
d="M1208 0h-430l-205 389h-41v-389h-399v1434h399v-738h31l195 348h430l-287 -501zM483 -655l113 174h-133v348h389v-348l-215 -297z" />
    <glyph glyph-name="Lacute" unicode="&#x139;" horiz-adv-x="1228" 
d="M143 1434h441v-1086h604v-348h-1045v1434zM348 1905h420l-246 -308h-317z" />
    <glyph glyph-name="lacute" unicode="&#x13a;" horiz-adv-x="686" 
d="M563 0h-399v1126h-113v308h512v-1434zM348 1905h420l-246 -308h-317z" />
    <glyph glyph-name="Lcommaaccent" unicode="&#x13b;" horiz-adv-x="1228" 
d="M143 1434h441v-1086h604v-348h-1045v1434zM492 -655l112 174h-133v348h389v-348l-215 -297z" />
    <glyph glyph-name="lcommaaccent" unicode="&#x13c;" horiz-adv-x="686" 
d="M563 0h-399v1126h-113v308h512v-1434zM190 -655l113 174h-133v348h389v-348l-215 -297z" />
    <glyph glyph-name="Lcaron" unicode="&#x13d;" horiz-adv-x="1228" 
d="M143 1434h441v-1086h604v-348h-1045v1434zM768 911l113 174h-133v349h389v-349l-215 -297z" />
    <glyph glyph-name="lcaron" unicode="&#x13e;" horiz-adv-x="993" 
d="M563 0h-399v1126h-113v308h512v-1434zM666 911l112 174h-133v349h389v-349l-215 -297z" />
    <glyph glyph-name="Lslash" unicode="&#x141;" horiz-adv-x="1269" 
d="M184 1434h441v-349l174 103v-410l-174 -102v-328h604v-348h-1045v420l-143 -82v410l143 81v605z" />
    <glyph glyph-name="lslash" unicode="&#x142;" horiz-adv-x="768" 
d="M594 0h-399v410l-134 -72v389l134 72v327h-113v308h512v-441l133 72v-389l-133 -72v-604z" />
    <glyph glyph-name="Nacute" unicode="&#x143;" horiz-adv-x="1556" 
d="M973 778v656h440v-1434h-430l-389 655h-10v-655h-441v1434h432l388 -656h10zM768 1905h420l-246 -308h-317z" />
    <glyph glyph-name="nacute" unicode="&#x144;" horiz-adv-x="1198" 
d="M451 1044l41 -81l81 81h297l215 -194v-850h-399v696l-51 41h-62l-51 -41v-696h-399v1044h328zM573 1556h420l-245 -368h-318z" />
    <glyph glyph-name="Ncommaaccent" unicode="&#x145;" horiz-adv-x="1556" 
d="M973 778v656h440v-1434h-430l-389 655h-10v-655h-441v1434h432l388 -656h10zM614 -655l113 174h-133v348h389v-348l-215 -297z" />
    <glyph glyph-name="ncommaaccent" unicode="&#x146;" horiz-adv-x="1198" 
d="M451 1044l41 -81l81 81h297l215 -194v-850h-399v696l-51 41h-62l-51 -41v-696h-399v1044h328zM430 -655l113 174h-133v348h389v-348l-215 -297z" />
    <glyph glyph-name="Ncaron" unicode="&#x147;" horiz-adv-x="1556" 
d="M973 778v656h440v-1434h-430l-389 655h-10v-655h-441v1434h432l388 -656h10zM948 1597h-338l-215 308h328l51 -82h10l52 82h327z" />
    <glyph glyph-name="ncaron" unicode="&#x148;" horiz-adv-x="1198" 
d="M451 1044l41 -81l81 81h297l215 -194v-850h-399v696l-51 41h-62l-51 -41v-696h-399v1044h328zM774 1188h-338l-215 368h328l51 -122h10l52 122h327z" />
    <glyph glyph-name="Omacron" unicode="&#x14c;" 
d="M594 1106l-41 -41v-696l41 -41h307l41 41v696l-41 41h-307zM379 1454h737l266 -246v-983l-266 -245h-737l-266 245v983zM461 1608v286h573v-286h-573z" />
    <glyph glyph-name="omacron" unicode="&#x14d;" horiz-adv-x="1157" 
d="M92 850l236 215h501l236 -215v-655l-236 -215h-501l-236 215v655zM666 717l-52 41h-71l-51 -41v-389l51 -41h71l52 41v389zM291 1229v287h573v-287h-573z" />
    <glyph glyph-name="Ohungarumlaut" unicode="&#x150;" 
d="M594 1106l-41 -41v-696l41 -41h307l41 41v696l-41 41h-307zM379 1454h737l266 -246v-983l-266 -245h-737l-266 245v983zM522 1905h389l-235 -308h-277zM952 1905h389l-235 -308h-277z" />
    <glyph glyph-name="ohungarumlaut" unicode="&#x151;" horiz-adv-x="1161" 
d="M92 850l236 215h501l236 -215v-655l-236 -215h-501l-236 215v655zM666 717l-52 41h-71l-51 -41v-389l51 -41h71l52 41v389zM342 1556h389l-235 -368h-277zM772 1556h389l-235 -368h-277z" />
    <glyph glyph-name="OE" unicode="&#x152;" horiz-adv-x="1976" 
d="M379 1434h1526v-349h-564v-204h379v-328h-379v-205h584v-348h-1546l-266 246v942zM594 1085l-41 -41v-655l41 -41h307v737h-307z" />
    <glyph glyph-name="oe" unicode="&#x153;" horiz-adv-x="1628" 
d="M911 1065h400l235 -215v-471h-522v-62l51 -41h400v-276h-564l-82 72l-102 -92h-399l-236 215v655l236 215h399l92 -82zM625 717l-52 41h-30l-51 -41v-389l51 -41h30l52 41v389zM1024 748v-103h143v103l-51 40h-41z" />
    <glyph glyph-name="Racute" unicode="&#x154;" horiz-adv-x="1433" 
d="M963 0l-236 420h-143v-420h-441v1434h942l246 -226v-512l-205 -184l287 -512h-450zM891 1044l-41 41h-266v-317h266l41 41v235zM707 1905h419l-245 -308h-318z" />
    <glyph glyph-name="racute" unicode="&#x155;" horiz-adv-x="870" 
d="M451 1044l41 -81l81 81h277v-307h-277l-51 -41v-696h-399v1044h328zM512 1556h420l-246 -368h-317z" />
    <glyph glyph-name="Rcommaaccent" unicode="&#x156;" horiz-adv-x="1433" 
d="M963 0l-236 420h-143v-420h-441v1434h942l246 -226v-512l-205 -184l287 -512h-450zM891 1044l-41 41h-266v-317h266l41 41v235zM598 -655l113 174h-133v348h389v-348l-215 -297z" />
    <glyph glyph-name="rcommaaccent" unicode="&#x157;" horiz-adv-x="870" 
d="M451 1044l41 -81l81 81h277v-307h-277l-51 -41v-696h-399v1044h328zM150 -655l112 174h-133v348h389v-348l-215 -297z" />
    <glyph glyph-name="Rcaron" unicode="&#x158;" horiz-adv-x="1433" 
d="M963 0l-236 420h-143v-420h-441v1434h942l246 -226v-512l-205 -184l287 -512h-450zM891 1044l-41 41h-266v-317h266l41 41v235zM887 1597h-338l-215 308h328l51 -82h10l51 82h328z" />
    <glyph glyph-name="rcaron" unicode="&#x159;" horiz-adv-x="870" 
d="M451 1044l41 -81l81 81h277v-307h-277l-51 -41v-696h-399v1044h328zM655 1188h-338l-215 368h328l51 -122h11l51 122h327z" />
    <glyph glyph-name="Sacute" unicode="&#x15a;" horiz-adv-x="1361" 
d="M328 563l-246 225v420l246 226h891v-349h-656l-41 -41v-92l41 -41h481l246 -225v-461l-246 -225h-952v348h717l41 41v133l-41 41h-481zM666 1905h419l-245 -308h-318z" />
    <glyph glyph-name="sacute" unicode="&#x15b;" horiz-adv-x="1034" 
d="M502 666h286l195 -174v-318l-195 -174h-716v276h471l41 31v51l-41 31h-287l-195 174v307l195 174h666v-276h-420l-41 -31v-41zM512 1556h420l-246 -368h-317z" />
    <glyph glyph-name="Scedilla" unicode="&#x15e;" horiz-adv-x="1361" 
d="M522 0h-430v348h717l41 41v133l-41 41h-481l-246 225v420l246 226h891v-349h-656l-41 -41v-92l41 -41h481l246 -225v-461l-246 -225h-317v-61h61l144 -123v-195l-144 -123h-286v185h143l41 30v21l-41 30h-123v236z" />
    <glyph glyph-name="scedilla" unicode="&#x15f;" horiz-adv-x="1034" 
d="M348 0h-276v276h471l41 31v51l-41 31h-287l-195 174v307l195 174h666v-276h-420l-41 -31v-41l41 -30h286l195 -174v-318l-195 -174h-235v-61h61l144 -123v-195l-144 -123h-286v185h143l41 30v21l-41 30h-123v236z" />
    <glyph glyph-name="Scaron" unicode="&#x160;" horiz-adv-x="1361" 
d="M328 563l-246 225v420l246 226h891v-349h-656l-41 -41v-92l41 -41h481l246 -225v-461l-246 -225h-952v348h717l41 41v133l-41 41h-481zM856 1597h-338l-215 308h328l51 -82h10l51 82h328z" />
    <glyph glyph-name="scaron" unicode="&#x161;" horiz-adv-x="1034" 
d="M502 666h286l195 -174v-318l-195 -174h-716v276h471l41 31v51l-41 31h-287l-195 174v307l195 174h666v-276h-420l-41 -31v-41zM692 1188h-338l-215 368h328l51 -122h10l52 122h327z" />
    <glyph glyph-name="Tcommaaccent" unicode="&#x162;" horiz-adv-x="1198" 
d="M819 0h-440v1085h-338v349h1116v-349h-338v-1085zM424 -655l113 174h-134v348h390v-348l-215 -297z" />
    <glyph glyph-name="tcommaaccent" unicode="&#x163;" horiz-adv-x="819" 
d="M41 737v307h102v246h400v-246h164v-307h-164v-389l51 -41h184v-307h-399l-236 215v522h-102zM266 -655l113 174h-133v348h389v-348l-215 -297z" />
    <glyph glyph-name="Tcaron" unicode="&#x164;" horiz-adv-x="1198" 
d="M819 0h-440v1085h-338v349h1116v-349h-338v-1085zM768 1597h-338l-215 308h328l51 -82h10l51 82h328z" />
    <glyph glyph-name="tcaron" unicode="&#x165;" horiz-adv-x="1136" 
d="M41 737v307h102v246h400v-246h164v-307h-164v-389l51 -41h184v-307h-399l-236 215v522h-102zM809 911l113 174h-134v349h390v-349l-215 -297z" />
    <glyph glyph-name="Umacron" unicode="&#x16a;" horiz-adv-x="1515" 
d="M932 369v1065h440v-1209l-266 -245h-696l-267 245v1209h441v-1065l41 -41h266zM471 1608v286h573v-286h-573z" />
    <glyph glyph-name="umacron" unicode="&#x16b;" horiz-adv-x="1208" 
d="M758 0l-41 82l-82 -82h-297l-215 195v849h399v-696l51 -41h62l51 41v696h399v-1044h-327zM317 1229v287h574v-287h-574z" />
    <glyph glyph-name="Uring" unicode="&#x16e;" horiz-adv-x="1515" 
d="M932 369v1065h440v-1209l-266 -245h-696l-267 245v1209h441v-1065l41 -41h266zM696 1720l21 -20h82l20 20v62l-20 20h-82l-21 -22v-60zM471 1649v204l143 123h287l143 -123v-204l-143 -123h-287z" />
    <glyph glyph-name="uring" unicode="&#x16f;" horiz-adv-x="1208" 
d="M758 0l-41 82l-82 -82h-297l-215 195v849h399v-696l51 -41h62l51 41v696h399v-1044h-327zM543 1372l30 -31h62l31 31v64l-31 28h-62l-30 -30v-62zM317 1270v266l144 123h287l143 -123v-266l-143 -123h-287z" />
    <glyph glyph-name="Uhungarumlaut" unicode="&#x170;" horiz-adv-x="1515" 
d="M932 369v1065h440v-1209l-266 -245h-696l-267 245v1209h441v-1065l41 -41h266zM522 1905h389l-235 -308h-277zM952 1905h389l-235 -308h-277z" />
    <glyph glyph-name="uhungarumlaut" unicode="&#x171;" horiz-adv-x="1208" 
d="M758 0l-41 82l-82 -82h-297l-215 195v849h399v-696l51 -41h62l51 41v696h399v-1044h-327zM369 1556h389l-236 -368h-276zM799 1556h389l-236 -368h-276z" />
    <glyph glyph-name="Uogonek" unicode="&#x172;" horiz-adv-x="1515" 
d="M799 -195v-81l51 -41h102v-185h-245l-144 123v215l144 144h-297l-267 245v1209h441v-1065l41 -41h266l41 41v1065h440v-1209l-266 -245h-133z" />
    <glyph glyph-name="uogonek" unicode="&#x173;" horiz-adv-x="1208" 
d="M758 0l-41 82l-82 -82h-297l-215 195v849h399v-696l51 -41h62l51 41v696h399v-1044l-194 -195v-81l51 -41h102v-185h-245l-144 123v215l164 164h-61z" />
    <glyph glyph-name="Ydieresis" unicode="&#x178;" horiz-adv-x="1320" 
d="M881 0h-441v420l-460 1014h450l225 -533h11l225 533h450l-460 -1014v-420zM608 1608h-348v286h348v-286zM1059 1608h-348v286h348v-286z" />
    <glyph glyph-name="Zacute" unicode="&#x179;" horiz-adv-x="1269" 
d="M1208 0h-1147v338l615 747h-594v349h1106v-338l-615 -748h635v-348zM625 1905h419l-245 -308h-318z" />
    <glyph glyph-name="zacute" unicode="&#x17a;" horiz-adv-x="993" 
d="M922 768l-410 -461h430v-307h-891v276l389 461h-368v307h850v-276zM471 1556h420l-246 -368h-317z" />
    <glyph glyph-name="Zdotaccent" unicode="&#x17b;" horiz-adv-x="1269" 
d="M1208 0h-1147v338l615 747h-594v349h1106v-338l-615 -748h635v-348zM836 1597h-400v308h400v-308z" />
    <glyph glyph-name="zdotaccent" unicode="&#x17c;" horiz-adv-x="993" 
d="M922 768l-410 -461h430v-307h-891v276l389 461h-368v307h850v-276zM692 1208h-399v328h399v-328z" />
    <glyph glyph-name="Zcaron" unicode="&#x17d;" horiz-adv-x="1269" 
d="M1208 0h-1147v338l615 747h-594v349h1106v-338l-615 -748h635v-348zM805 1597h-338l-215 308h328l51 -82h10l51 82h328z" />
    <glyph glyph-name="zcaron" unicode="&#x17e;" horiz-adv-x="993" 
d="M922 768l-410 -461h430v-307h-891v276l389 461h-368v307h850v-276zM662 1188h-338l-215 368h327l51 -122h11l51 122h328z" />
    <glyph glyph-name="florin" unicode="&#x192;" horiz-adv-x="757" 
d="M10 666v307h103v246l235 215h461v-308h-246l-51 -41v-112h205v-307h-205v-861l-236 -215h-399v308h184l52 41v727h-103z" />
    <glyph glyph-name="Scommaaccent" unicode="&#x218;" horiz-adv-x="1361" 
d="M328 563l-246 225v420l246 226h891v-349h-656l-41 -41v-92l41 -41h481l246 -225v-461l-246 -225h-952v348h717l41 41v133l-41 41h-481zM512 -655l113 174h-133v348h389v-348l-215 -297z" />
    <glyph glyph-name="scommaaccent" unicode="&#x219;" horiz-adv-x="1034" 
d="M502 666h286l195 -174v-318l-195 -174h-716v276h471l41 31v51l-41 31h-287l-195 174v307l195 174h666v-276h-420l-41 -31v-41zM350 -655l113 174h-133v348h389v-348l-215 -297z" />
    <glyph glyph-name="afii57929" unicode="&#x2bc;" horiz-adv-x="512" 
d="M82 1178l113 174h-134v348h390v-348l-215 -297z" />
    <glyph glyph-name="circumflex" unicode="&#x2c6;" horiz-adv-x="890" 
d="M276 1556h338l215 -368h-327l-51 123h-11l-51 -123h-328z" />
    <glyph glyph-name="caron" unicode="&#x2c7;" horiz-adv-x="890" 
d="M614 1188h-338l-215 368h328l51 -122h11l51 122h327z" />
    <glyph glyph-name="breve" unicode="&#x2d8;" horiz-adv-x="860" 
d="M758 1556v-225l-164 -143h-328l-164 143v225h267v-112l30 -31h62l31 31v112h266z" />
    <glyph glyph-name="dotaccent" unicode="&#x2d9;" horiz-adv-x="522" 
d="M461 1208h-400v328h400v-328z" />
    <glyph glyph-name="ring" unicode="&#x2da;" horiz-adv-x="696" 
d="M287 1372l30 -31h62l31 31v64l-31 28h-62l-30 -30v-62zM61 1270v266l144 123h287l143 -123v-266l-143 -123h-287z" />
    <glyph glyph-name="ogonek" unicode="&#x2db;" horiz-adv-x="552" 
d="M297 -195v-81l51 -41h103v-185h-246l-144 123v215l164 164h267z" />
    <glyph glyph-name="tilde" unicode="&#x2dc;" horiz-adv-x="942" 
d="M369 1260l-144 -103l-143 236l287 204l204 -112l144 102l143 -235l-287 -205z" />
    <glyph glyph-name="hungarumlaut" unicode="&#x2dd;" horiz-adv-x="1064" 
d="M184 1556h389l-235 -368h-277zM614 1556h390l-236 -368h-276z" />
    <glyph glyph-name="afii10023" unicode="&#x401;" horiz-adv-x="1300" 
d="M143 1434h1086v-349h-645v-204h460v-328h-460v-205h665v-348h-1106v1434zM645 1608h-348v286h348v-286zM1096 1608h-348v286h348v-286z" />
    <glyph glyph-name="afii10051" unicode="&#x402;" horiz-adv-x="1484" 
d="M748 0h-445v1085h-262v349h1003v-349h-296v-184h440l215 -194v-574l-195 -174h-368v348h82l41 41v184l-37 41h-178v-573z" />
    <glyph glyph-name="afii10052" unicode="&#x403;" horiz-adv-x="1198" 
d="M143 1434h1035v-349h-594v-1085h-441v1434zM635 1905h420l-246 -308h-317z" />
    <glyph glyph-name="afii10053" unicode="&#x404;" horiz-adv-x="1290" 
d="M993 881v-328h-440v-164l41 -41h625v-348h-840l-266 246v942l266 246h840v-349h-625l-41 -41v-163h440z" />
    <glyph glyph-name="afii10054" unicode="&#x405;" horiz-adv-x="1361" 
d="M328 563l-246 225v420l246 226h891v-349h-656l-41 -41v-92l41 -41h481l246 -225v-461l-246 -225h-952v348h717l41 41v133l-41 41h-481z" />
    <glyph glyph-name="afii10055" unicode="&#x406;" horiz-adv-x="1054" 
d="M973 0h-891v348h225v737h-225v349h891v-349h-225v-737h225v-348z" />
    <glyph glyph-name="afii10056" unicode="&#x407;" horiz-adv-x="1054" 
d="M973 0h-891v348h225v737h-225v349h891v-349h-225v-737h225v-348zM475 1608h-348v286h348v-286zM926 1608h-348v286h348v-286z" />
    <glyph glyph-name="afii10057" unicode="&#x408;" horiz-adv-x="1095" 
d="M512 389v1045h440v-1188l-266 -246h-666v348h451z" />
    <glyph glyph-name="afii10058" unicode="&#x409;" horiz-adv-x="2170" 
d="M256 440l61 994h1045v-451h481l246 -225v-533l-246 -225h-921v1085h-195l-51 -860l-266 -245h-390v348h103zM1608 348l41 41v205l-41 41h-246v-287h246z" />
    <glyph glyph-name="afii10059" unicode="&#x40a;" horiz-adv-x="2119" 
d="M584 584v-584h-441v1434h441v-502h286v502h441v-502h481l246 -225v-482l-246 -225h-922v584h-286zM1556 348l41 41v154l-41 41h-245v-236h245z" />
    <glyph glyph-name="afii10060" unicode="&#x40b;" horiz-adv-x="1505" 
d="M748 0h-445v1085h-262v349h1003v-349h-296v-184h440l215 -194v-707h-440v532l-37 41h-178v-573z" />
    <glyph glyph-name="afii10061" unicode="&#x40c;" horiz-adv-x="1413" 
d="M584 543v-543h-441v1434h441v-543h30l308 543h471l-410 -697l451 -737h-471l-318 543h-61zM737 1905h420l-246 -308h-317z" />
    <glyph glyph-name="afii10062" unicode="&#x40e;" horiz-adv-x="1351" 
d="M932 1434h440l-502 -1434h-440l113 307h-154l-409 1127h440l256 -748h10zM870 1556h-389l-174 154v225h277v-82l51 -41h82l51 41v82h276v-225z" />
    <glyph glyph-name="afii10145" unicode="&#x40f;" horiz-adv-x="1484" 
d="M1341 0h-399v-287h-399v287h-400v1434h420v-1086h359v1086h419v-1434z" />
    <glyph glyph-name="afii10017" unicode="&#x410;" 
d="M952 287h-409l-92 -287h-451l461 1434h573l461 -1434h-451zM748 952l-93 -317h185z" />
    <glyph glyph-name="afii10018" unicode="&#x411;" horiz-adv-x="1454" 
d="M1137 0h-994v1434h1137v-349h-696v-163h553l245 -226v-471zM901 348l41 41v164l-41 41h-317v-246h317z" />
    <glyph glyph-name="afii10019" unicode="&#x412;" horiz-adv-x="1464" 
d="M1219 758l174 -164v-338l-277 -256h-973v1434h912l276 -256v-318zM911 348l41 41v103l-82 71h-286v-215h327zM891 1044l-41 41h-266v-194h245l62 51v102z" />
    <glyph glyph-name="afii10020" unicode="&#x413;" horiz-adv-x="1198" 
d="M143 1434h1035v-349h-594v-1085h-441v1434z" />
    <glyph glyph-name="afii10021" unicode="&#x414;" horiz-adv-x="1505" 
d="M0 348h61l144 133l61 953h1045v-1086h153v-655h-440v307h-584v-307h-440v655zM635 440l-103 -92h338v737h-194z" />
    <glyph glyph-name="afii10022" unicode="&#x415;" horiz-adv-x="1300" 
d="M143 1434h1086v-349h-645v-204h460v-328h-460v-205h665v-348h-1106v1434z" />
    <glyph glyph-name="afii10024" unicode="&#x416;" horiz-adv-x="2058" 
d="M809 0v543h-41l-317 -543h-471l450 737l-410 697h472l296 -543h21v543h440v-543h21l297 543h471l-410 -697l451 -737h-471l-318 543h-41v-543h-440z" />
    <glyph glyph-name="afii10025" unicode="&#x417;" horiz-adv-x="1280" 
d="M686 573h-379v328h338l82 72v71l-41 41h-604v349h870l215 -195v-379l-123 -112l154 -144v-409l-215 -195h-922v348h656l41 41v113z" />
    <glyph glyph-name="afii10026" unicode="&#x418;" horiz-adv-x="1525" 
d="M1382 0h-440v655h-10l-379 -655h-410v1434h441v-656h10l379 656h409v-1434z" />
    <glyph glyph-name="afii10027" unicode="&#x419;" horiz-adv-x="1525" 
d="M1382 0h-440v655h-10l-379 -655h-410v1434h441v-656h10l379 656h409v-1434zM956 1556h-389l-174 154v225h277v-82l51 -41h82l51 41v82h276v-225z" />
    <glyph glyph-name="afii10028" unicode="&#x41a;" horiz-adv-x="1413" 
d="M584 543v-543h-441v1434h441v-543h30l308 543h471l-410 -697l451 -737h-471l-318 543h-61z" />
    <glyph glyph-name="afii10029" unicode="&#x41b;" horiz-adv-x="1525" 
d="M256 440l61 994h1065v-1434h-440v1085h-215l-51 -860l-266 -245h-390v348h103z" />
    <glyph glyph-name="afii10030" unicode="&#x41c;" horiz-adv-x="1792" 
d="M1014 287h-236l-184 358h-10v-645h-441v1434h441l307 -584h10l307 584h441v-1434h-441v645h-10z" />
    <glyph glyph-name="afii10031" unicode="&#x41d;" horiz-adv-x="1505" 
d="M584 543v-543h-441v1434h441v-543h338v543h440v-1434h-440v543h-338z" />
    <glyph glyph-name="afii10032" unicode="&#x41e;" 
d="M594 1106l-41 -41v-696l41 -41h307l41 41v696l-41 41h-307zM379 1454h737l266 -246v-983l-266 -245h-737l-266 245v983z" />
    <glyph glyph-name="afii10033" unicode="&#x41f;" horiz-adv-x="1505" 
d="M143 1434h1219v-1434h-440v1085h-338v-1085h-441v1434z" />
    <glyph glyph-name="afii10034" unicode="&#x420;" horiz-adv-x="1433" 
d="M1106 379h-522v-379h-441v1434h963l246 -226v-604zM911 1044l-41 41h-286v-358h286l41 41v276z" />
    <glyph glyph-name="afii10035" unicode="&#x421;" horiz-adv-x="1290" 
d="M1219 348v-348h-840l-266 246v942l266 246h840v-349h-625l-41 -41v-655l41 -41h625z" />
    <glyph glyph-name="afii10036" unicode="&#x422;" horiz-adv-x="1198" 
d="M819 0h-440v1085h-338v349h1116v-349h-338v-1085z" />
    <glyph glyph-name="afii10037" unicode="&#x423;" horiz-adv-x="1351" 
d="M932 1434h440l-502 -1434h-440l113 307h-154l-409 1127h440l256 -748h10z" />
    <glyph glyph-name="afii10038" unicode="&#x424;" horiz-adv-x="1832" 
d="M696 1004h-123l-41 -41v-451l41 -41h123v533zM1137 -61h-441v184h-389l-215 194v840l215 195h389v184h441v-184h389l215 -195v-840l-215 -194h-389v-184zM1260 1004h-123v-533h123l40 41v451z" />
    <glyph glyph-name="afii10039" unicode="&#x425;" horiz-adv-x="1402" 
d="M707 430h-11l-266 -430h-450l450 727l-420 707h451l235 -400h11l235 400h451l-420 -707l450 -727h-450z" />
    <glyph glyph-name="afii10040" unicode="&#x426;" horiz-adv-x="1525" 
d="M1331 1434v-1086h154v-655h-441v307h-901v1434h441v-1086h307v1086h440z" />
    <glyph glyph-name="afii10041" unicode="&#x427;" horiz-adv-x="1433" 
d="M102 666v768h441v-564l82 -71h225v635h440v-1434h-440v451h-512z" />
    <glyph glyph-name="afii10042" unicode="&#x428;" horiz-adv-x="2037" 
d="M1454 1434h440v-1434h-1751v1434h441v-1086h215v1086h440v-1086h215v1086z" />
    <glyph glyph-name="afii10043" unicode="&#x429;" horiz-adv-x="2048" 
d="M1853 1434v-1086h154v-655h-440v307h-1424v1434h441v-1086h194v1086h441v-1086h194v1086h440z" />
    <glyph glyph-name="afii10044" unicode="&#x42a;" horiz-adv-x="1536" 
d="M727 983h481l246 -225v-533l-246 -225h-921v1085h-267v349h707v-451zM973 348l41 41v205l-41 41h-246v-287h246z" />
    <glyph glyph-name="afii10045" unicode="&#x42b;" horiz-adv-x="2058" 
d="M1915 1434v-1434h-440v1434h440zM829 348l41 41v205l-41 41h-245v-287h245zM584 983h481l246 -225v-533l-246 -225h-922v1434h441v-451z" />
    <glyph glyph-name="afii10046" unicode="&#x42c;" horiz-adv-x="1413" 
d="M850 348l41 41v205l-41 41h-266v-287h266zM584 983h501l246 -225v-533l-246 -225h-942v1434h441v-451z" />
    <glyph glyph-name="afii10047" unicode="&#x42d;" horiz-adv-x="1280" 
d="M276 553v328h451v163l-41 41h-625v349h840l266 -246v-942l-266 -246h-840v348h625l41 41v164h-451z" />
    <glyph glyph-name="afii10048" unicode="&#x42e;" horiz-adv-x="2068" 
d="M584 543v-543h-441v1434h441v-543h153v317l267 246h686l266 -246v-983l-266 -245h-686l-267 245v318h-153zM1219 1106l-41 -41v-696l41 -41h256l41 41v696l-41 41h-256z" />
    <glyph glyph-name="afii10049" unicode="&#x42f;" horiz-adv-x="1474" 
d="M358 502l-225 194v512l246 226h952v-1434h-440v420h-143l-256 -420h-461zM614 1085l-41 -41v-235l41 -41h277v317h-277z" />
    <glyph glyph-name="afii10065" unicode="&#x430;" horiz-adv-x="1146" 
d="M666 82l-82 -82h-328l-195 174v287l226 205h348v61l-41 41h-410v276h625l225 -204v-840h-327zM635 307v92h-133l-41 -41v-51l41 -41h82z" />
    <glyph glyph-name="afii10066" unicode="&#x431;" horiz-adv-x="1208" 
d="M123 1219l235 215h686v-308h-471l-51 -41v-143h359l235 -215v-532l-235 -215h-523l-235 215v1024zM717 594l-51 41h-144v-307l51 -41h93l51 41v266z" />
    <glyph glyph-name="afii10067" unicode="&#x432;" horiz-adv-x="1126" 
d="M932 543l133 -123v-246l-195 -174h-747v1044h717l184 -163v-256zM522 399v-133h103l41 41v51l-41 41h-103zM522 778v-133h82l41 41v51l-41 41h-82z" />
    <glyph glyph-name="afii10068" unicode="&#x433;" horiz-adv-x="921" 
d="M522 0h-399v1044h778v-307h-379v-737z" />
    <glyph glyph-name="afii10069" unicode="&#x434;" horiz-adv-x="1218" 
d="M174 440l51 604h819v-737h134v-573h-400v266h-379v-266h-399v573h41zM563 389l-82 -82h164v430h-51z" />
    <glyph glyph-name="afii10070" unicode="&#x435;" horiz-adv-x="1095" 
d="M328 1065h450l236 -215v-471h-522v-62l51 -41h399v-276h-614l-236 215v635zM492 748v-103h143v103l-51 40h-41z" />
    <glyph glyph-name="afii10072" unicode="&#x436;" horiz-adv-x="1669" 
d="M410 0h-430l307 543l-287 501h430l184 -348h21v348h399v-348h21l184 348h430l-287 -501l308 -543h-430l-195 389h-31v-389h-399v389h-31z" />
    <glyph glyph-name="afii10073" unicode="&#x437;" horiz-adv-x="1013" 
d="M246 389v266h225l41 41v41l-41 41h-389v266h645l184 -163v-256l-102 -93l123 -112v-246l-195 -174h-676v266h431l40 41v41l-40 41h-246z" />
    <glyph glyph-name="afii10074" unicode="&#x438;" horiz-adv-x="1198" 
d="M522 0h-399v1044h399v-348h10l144 348h399v-1044h-399v348h-10z" />
    <glyph glyph-name="afii10075" unicode="&#x439;" horiz-adv-x="1198" 
d="M522 0h-399v1044h399v-348h10l144 348h399v-1044h-399v348h-10zM926 1597v-245l-164 -144h-328l-164 144v245h267v-112l30 -31h62l30 31v112h267z" />
    <glyph glyph-name="afii10076" unicode="&#x43a;" horiz-adv-x="1177" 
d="M1198 0h-430l-205 389h-41v-389h-399v1044h399v-348h31l195 348h430l-287 -501z" />
    <glyph glyph-name="afii10077" unicode="&#x43b;" horiz-adv-x="1187" 
d="M174 379l51 665h840v-1044h-399v758h-72l-41 -553l-246 -225h-287v327h72z" />
    <glyph glyph-name="afii10078" unicode="&#x43c;" horiz-adv-x="1423" 
d="M799 205h-174l-93 194h-10v-399h-399v1044h399l185 -368h10l184 368h399v-1044h-399v399h-10z" />
    <glyph glyph-name="afii10079" unicode="&#x43d;" horiz-adv-x="1177" 
d="M522 0h-399v1044h399v-378h133v378h400v-1044h-400v358h-133v-358z" />
    <glyph glyph-name="afii10080" unicode="&#x43e;" horiz-adv-x="1157" 
d="M92 850l236 215h501l236 -215v-655l-236 -215h-501l-236 215v655zM666 717l-52 41h-71l-51 -41v-389l51 -41h71l52 41v389z" />
    <glyph glyph-name="afii10081" unicode="&#x43f;" horiz-adv-x="1177" 
d="M522 0h-399v1044h932v-1044h-400v737h-133v-737z" />
    <glyph glyph-name="afii10082" unicode="&#x440;" horiz-adv-x="1177" 
d="M573 1044h277l235 -215v-614l-235 -215h-328v-410h-399v1454h328l41 -81zM686 696l-51 41h-62l-51 -41v-389h113l51 41v348z" />
    <glyph glyph-name="afii10083" unicode="&#x441;" horiz-adv-x="983" 
d="M492 348l51 -41h379v-307h-594l-236 215v614l236 215h594v-307h-379l-51 -41v-348z" />
    <glyph glyph-name="afii10084" unicode="&#x442;" horiz-adv-x="952" 
d="M676 0h-400v737h-256v307h912v-307h-256v-737z" />
    <glyph glyph-name="afii10085" unicode="&#x443;" horiz-adv-x="1116" 
d="M276 -410l123 410h-92l-287 1044h420l113 -593h10l123 593h410l-410 -1454h-410z" />
    <glyph glyph-name="afii10086" unicode="&#x444;" horiz-adv-x="1566" 
d="M983 -410h-399v410h-256l-236 215v614l236 215h256v390h399v-390h256l236 -215v-614l-236 -215h-256v-410zM1075 696l-51 41h-41v-430h41l51 41v348zM492 348l51 -41h41v430h-41l-51 -41v-348z" />
    <glyph glyph-name="afii10087" unicode="&#x445;" horiz-adv-x="1095" 
d="M553 819l113 225h409l-266 -501l297 -543h-430l-123 246h-10l-123 -246h-430l297 543l-267 501h410l113 -225h10z" />
    <glyph glyph-name="afii10088" unicode="&#x446;" horiz-adv-x="1218" 
d="M778 0h-655v1044h399v-737h123v737h399v-737h134v-573h-400v266z" />
    <glyph glyph-name="afii10089" unicode="&#x447;" horiz-adv-x="1105" 
d="M584 0v287h-287l-215 194v563h399v-409l51 -41h52v450h399v-1044h-399z" />
    <glyph glyph-name="afii10090" unicode="&#x448;" horiz-adv-x="1628" 
d="M614 1044h400v-737h92v737h399v-1044h-1382v1044h399v-737h92v737z" />
    <glyph glyph-name="afii10091" unicode="&#x449;" horiz-adv-x="1679" 
d="M1239 0h-1116v1044h399v-737h92v737h400v-737h92v737h399v-737h133v-573h-399v266z" />
    <glyph glyph-name="afii10092" unicode="&#x44a;" horiz-adv-x="1177" 
d="M922 0h-707v737h-195v307h594v-307h308l194 -174v-389zM614 440v-143h62l41 41v61l-41 41h-62z" />
    <glyph glyph-name="afii10093" unicode="&#x44b;" horiz-adv-x="1638" 
d="M1516 0h-400v1024h400v-1024zM829 0h-706v1044h399v-307h307l195 -174v-389zM522 440v-143h62l41 41v61l-41 41h-62z" />
    <glyph glyph-name="afii10094" unicode="&#x44c;" horiz-adv-x="1105" 
d="M850 0h-727v1044h399v-307h328l194 -174v-389zM522 440v-143h82l41 41v61l-41 41h-82z" />
    <glyph glyph-name="afii10095" unicode="&#x44d;" horiz-adv-x="993" 
d="M440 276l52 41v72h-277v277h277v61l-52 41h-379v276h594l236 -215v-614l-236 -215h-594v276h379z" />
    <glyph glyph-name="afii10096" unicode="&#x44e;" horiz-adv-x="1607" 
d="M522 0h-399v1044h399v-378h82v184l236 215h440l236 -215v-655l-236 -215h-440l-236 215v163h-82v-358zM1116 727l-41 31h-31l-40 -31v-410l40 -30h31l41 30v410z" />
    <glyph glyph-name="afii10097" unicode="&#x44f;" horiz-adv-x="1177" 
d="M317 1044h738v-1044h-400v317h-41l-184 -317h-389l215 369l-133 123v378zM655 594v174h-92l-41 -41v-92l41 -41h92z" />
    <glyph glyph-name="afii10071" unicode="&#x451;" horiz-adv-x="1095" 
d="M328 1065h450l236 -215v-471h-522v-62l51 -41h399v-276h-614l-236 215v635zM492 748v-103h143v103l-51 40h-41zM502 1208h-348v328h348v-328zM952 1208h-348v328h348v-328z" />
    <glyph glyph-name="afii10099" unicode="&#x452;" horiz-adv-x="1249" 
d="M1167 174l-235 -215h-287v236h72l51 41v296l-51 41h-154v-573h-399v1004h-123v307h123v123h399v-123h205v-307h-205v-123h389l215 -195v-512z" />
    <glyph glyph-name="afii10100" unicode="&#x453;" horiz-adv-x="921" 
d="M522 0h-399v1044h778v-307h-379v-737zM492 1556h419l-245 -368h-318z" />
    <glyph glyph-name="afii10101" unicode="&#x454;" horiz-adv-x="983" 
d="M492 317l51 -41h379v-276h-594l-236 215v614l236 215h594v-276h-379l-51 -41v-61h266v-277h-266v-72z" />
    <glyph glyph-name="afii10102" unicode="&#x455;" horiz-adv-x="1034" 
d="M502 666h286l195 -174v-318l-195 -174h-716v276h471l41 31v51l-41 31h-287l-195 174v307l195 174h666v-276h-420l-41 -31v-41z" />
    <glyph glyph-name="afii10103" unicode="&#x456;" horiz-adv-x="645" 
d="M123 1044h399v-1044h-399v1044zM522 1208h-399v328h399v-328z" />
    <glyph glyph-name="afii10104" unicode="&#x457;" horiz-adv-x="645" 
d="M123 1044h399v-1044h-399v1044zM270 1208h-348v328h348v-328zM721 1208h-348v328h348v-328z" />
    <glyph glyph-name="afii10105" unicode="&#x458;" horiz-adv-x="645" 
d="M72 -102l51 41v1105h399v-1239l-235 -215h-410v308h195zM522 1208h-399v318h399v-318z" />
    <glyph glyph-name="afii10106" unicode="&#x459;" horiz-adv-x="1648" 
d="M1393 0h-727v758h-72l-41 -553l-246 -225h-287v327h72l82 72l51 665h840v-307h328l194 -174v-389zM1065 440v-143h82l41 41v61l-41 41h-82z" />
    <glyph glyph-name="afii10107" unicode="&#x45a;" horiz-adv-x="1658" 
d="M522 0h-399v1044h399v-327h133v327h400v-327h327l195 -174v-369l-195 -174h-727v410h-133v-410zM1055 420v-123h82l41 41v41l-41 41h-82z" />
    <glyph glyph-name="afii10108" unicode="&#x45b;" horiz-adv-x="1249" 
d="M1167 0h-399v532l-51 41h-154v-573h-399v1004h-123v307h123v123h399v-123h205v-307h-205v-123h389l215 -195v-686z" />
    <glyph glyph-name="afii10109" unicode="&#x45c;" horiz-adv-x="1177" 
d="M1198 0h-430l-205 389h-41v-389h-399v1044h399v-348h31l195 348h430l-287 -501zM625 1556h419l-245 -368h-318z" />
    <glyph glyph-name="afii10110" unicode="&#x45e;" horiz-adv-x="1116" 
d="M276 -410l123 410h-92l-287 1044h420l113 -593h10l123 593h410l-410 -1454h-410zM885 1597v-245l-164 -144h-328l-164 144v245h267v-112l30 -31h62l30 31v112h267z" />
    <glyph glyph-name="afii10193" unicode="&#x45f;" horiz-adv-x="1177" 
d="M389 0h-266v1024h399v-717h133v717h400v-1024h-267v-266h-399v266z" />
    <glyph glyph-name="afii10050" unicode="&#x490;" horiz-adv-x="1198" 
d="M143 1434h666v204h369v-553h-594v-1085h-441v1434z" />
    <glyph glyph-name="afii10098" unicode="&#x491;" horiz-adv-x="921" 
d="M522 0h-399v1044h481v164h297v-450h-379v-758z" />
    <glyph glyph-name="uni1E9E" unicode="&#x1e9e;" horiz-adv-x="1454" 
d="M635 563v297l164 246h-185l-41 -41v-1065h-430v1208l267 246h819v-328l-154 -235h72l246 -225v-441l-246 -225h-512v348h276l41 41v133l-41 41h-276z" />
    <glyph glyph-name="endash" unicode="&#x2013;" horiz-adv-x="1105" 
d="M61 553v328h983v-328h-983z" />
    <glyph glyph-name="emdash" unicode="&#x2014;" horiz-adv-x="1454" 
d="M61 553v328h1332v-328h-1332z" />
    <glyph glyph-name="quoteleft" unicode="&#x2018;" horiz-adv-x="593" 
d="M471 1311l-113 -174h134v-349h-390v349l215 297z" />
    <glyph glyph-name="quoteright" unicode="&#x2019;" horiz-adv-x="593" 
d="M123 911l113 174h-134v349h390v-349l-216 -297z" />
    <glyph glyph-name="quotesinglbase" unicode="&#x201a;" horiz-adv-x="593" 
d="M123 -174l113 174h-134v348h390v-348l-216 -297z" />
    <glyph glyph-name="quotedblleft" unicode="&#x201c;" horiz-adv-x="1095" 
d="M471 1311l-113 -174h134v-349h-390v349l215 297zM973 1311l-113 -174h133v-349h-389v349l215 297z" />
    <glyph glyph-name="quotedblright" unicode="&#x201d;" horiz-adv-x="1095" 
d="M123 911l113 174h-134v349h390v-349l-216 -297zM625 911l112 174h-133v349h389v-349l-215 -297z" />
    <glyph glyph-name="quotedblbase" unicode="&#x201e;" horiz-adv-x="1095" 
d="M123 -174l113 174h-134v348h390v-348l-216 -297zM625 -174l112 174h-133v348h389v-348l-215 -297z" />
    <glyph glyph-name="dagger" unicode="&#x2020;" horiz-adv-x="1075" 
d="M61 829v349h256v358h441v-358h256v-349h-256v-931h-441v931h-256z" />
    <glyph glyph-name="daggerdbl" unicode="&#x2021;" horiz-adv-x="1116" 
d="M1034 246h-256v-348h-440v348h-256v348h256v246h-256v348h256v348h440v-348h256v-348h-256v-246h256v-348z" />
    <glyph glyph-name="bullet" unicode="&#x2022;" horiz-adv-x="839" 
d="M635 492h-430v450h430v-450z" />
    <glyph glyph-name="ellipsis" unicode="&#x2026;" horiz-adv-x="1740" 
d="M492 0h-390v348h390v-348zM1065 0h-389v348h389v-348zM1638 0h-389v348h389v-348z" />
    <glyph glyph-name="perthousand" unicode="&#x2030;" horiz-adv-x="2467" 
d="M348 983l10 -10h41l11 10v225l-11 11h-41l-10 -11v-225zM61 891v409l175 154h284l176 -154v-409l-176 -154h-284zM1331 225l10 -10h41l11 10v226l-11 10h-41l-10 -10v-226zM1044 133v410l175 153h284l176 -153v-410l-176 -153h-284zM1382 1434l-716 -1434h-308l717 1434
h307zM2058 225l10 -10h41l11 10v226l-11 10h-41l-10 -10v-226zM1772 133v410l174 153h284l176 -153v-410l-176 -153h-284z" />
    <glyph glyph-name="guilsinglleft" unicode="&#x2039;" horiz-adv-x="829" 
d="M41 522l502 604l225 -235l-307 -369l307 -368l-225 -236z" />
    <glyph glyph-name="guilsinglright" unicode="&#x203a;" horiz-adv-x="829" 
d="M788 522l-501 -604l-226 236l308 368l-308 369l226 235z" />
    <glyph glyph-name="fraction" unicode="&#x2044;" horiz-adv-x="1064" 
d="M1044 1434l-716 -1434h-308l717 1434h307z" />
    <glyph glyph-name="foursuperior" unicode="&#x2074;" horiz-adv-x="768" 
d="M389 758v102h-328v174l256 400h328v-379h72v-195h-72v-102h-256zM389 1055v123h-10l-72 -123h82z" />
    <glyph glyph-name="Euro" unicode="&#x20ac;" horiz-adv-x="1361" 
d="M61 758v235h144v195l266 246h829v-328h-614l-41 -41v-72h430v-235h-430v-82h430v-236h-430v-71l41 -41h614v-328h-829l-266 246v194h-144v236h144v82h-144z" />
    <glyph glyph-name="uni20B4" unicode="&#x20b4;" horiz-adv-x="1372" 
d="M1311 758h-1250v215h635l31 31v40l-41 41h-420v349h656l245 -226v-194l-41 -41h185v-215zM61 676h1250v-215h-635l-31 -31v-41l41 -41h481v-348h-716l-246 225v195l41 41h-185v215z" />
    <glyph glyph-name="uni20BD" unicode="&#x20bd;" horiz-adv-x="1536" 
d="M676 184v-184h-440v184h-154v246h154v102h-154v246h154v656h972l246 -226v-450l-246 -226h-532v-102h532v-246h-532zM1014 1044l-41 41h-297v-307h297l41 41v225z" />
    <glyph glyph-name="afii61352" unicode="&#x2116;" horiz-adv-x="2170" 
d="M1495 328v286h553v-286h-553zM891 840v594h440v-1434h-430l-307 594h-10v-594h-441v1434h432l306 -594h10zM1741 973l10 -10h41l10 10v235l-10 11h-41l-10 -11v-235zM1454 881v419l174 154h285l176 -154v-419l-176 -154h-285z" />
    <glyph glyph-name="trademark" unicode="&#x2122;" horiz-adv-x="1843" 
d="M543 635h-297v553h-205v246h707v-246h-205v-553zM1362 778h-154l-71 123h-11v-266h-297v799h297l154 -287h10l154 287h297v-799h-297v266h-10z" />
    <glyph glyph-name="minus" unicode="&#x2212;" horiz-adv-x="1054" 
d="M82 543v348h891v-348h-891z" />
    <glyph glyph-name="Breve" unicode="&#xf406;" horiz-adv-x="778" 
d="M717 1905v-164l-164 -144h-328l-164 144v164h267v-52l30 -30h62l31 30v52h266z" />
    <glyph glyph-name="Circumflex" unicode="&#xf408;" horiz-adv-x="890" 
d="M276 1905h338l215 -308h-327l-51 82h-11l-51 -82h-328z" />
    <glyph glyph-name="Dotaccent" unicode="&#xf40b;" horiz-adv-x="522" 
d="M461 1597h-400v308h400v-308z" />
    <glyph glyph-name="Ring" unicode="&#xf40c;" horiz-adv-x="696" 
d="M287 1720l20 -20h82l21 20v62l-21 20h-82l-20 -22v-60zM61 1649v204l144 123h287l143 -123v-204l-143 -123h-287z" />
    <glyph glyph-name="Tilde" unicode="&#xf40d;" horiz-adv-x="901" 
d="M348 1638l-143 -71l-144 235l287 144l205 -82l143 71l144 -235l-287 -144z" />
    <glyph glyph-name="commaaccent" unicode="&#xf6c3;" horiz-adv-x="512" 
d="M82 -655l113 174h-134v348h390v-348l-215 -297z" />
    <glyph glyph-name="Acute" unicode="&#xf6c9;" horiz-adv-x="686" 
d="M205 1905h420l-246 -308h-318z" />
    <glyph glyph-name="Caron" unicode="&#xf6ca;" horiz-adv-x="890" 
d="M614 1597h-338l-215 308h328l51 -82h11l51 82h327z" />
    <glyph glyph-name="Dieresis" unicode="&#xf6cb;" horiz-adv-x="921" 
d="M410 1608h-349v286h349v-286zM860 1608h-348v286h348v-286z" />
    <glyph glyph-name="Grave" unicode="&#xf6ce;" horiz-adv-x="686" 
d="M61 1905h420l144 -308h-318z" />
    <glyph glyph-name="Hungarumlaut" unicode="&#xf6cf;" horiz-adv-x="1064" 
d="M184 1905h389l-235 -308h-277zM614 1905h390l-236 -308h-276z" />
    <glyph glyph-name="Macron" unicode="&#xf6d0;" horiz-adv-x="696" 
d="M61 1608v286h574v-286h-574z" />
    <glyph glyph-name="cyrBreve" unicode="&#xf6d1;" horiz-adv-x="860" 
d="M625 1556h-389l-175 154v225h277v-82l51 -41h82l51 41v82h277v-225z" />
    <glyph glyph-name="cyrbreve" unicode="&#xf6d4;" horiz-adv-x="778" 
d="M717 1597v-245l-164 -144h-328l-164 144v245h267v-112l30 -31h62l31 31v112h266z" />
    <glyph glyph-name="Germandbls" horiz-adv-x="1454" 
d="M635 563v297l164 246h-185l-41 -41v-1065h-430v1208l267 246h819v-328l-154 -235h72l246 -225v-441l-246 -225h-512v348h276l41 41v133l-41 41h-276z" />
    <glyph glyph-name="foundryicon" horiz-adv-x="2519" 
d="M205 -225v1884h2109v-1884h-2109zM2273 -184v1802h-2027v-1802h2027zM1300 1249h226q74 0 119 -38.5t45 -94.5t-45 -94.5t-119 -38.5h-113v-164h-113v430zM1300 614h226q74 0 119 -38.5t45 -94.5t-45 -94.5t-119 -38.5h-113v-164h-113v430zM1014 348l-154 266h123
l82 -153h10l82 153h133l-164 -266v-164h-112v164zM1014 983l-154 266h123l82 -153h10l82 153h133l-164 -266v-164h-112v164zM614 522h-133v92h338l51 -92h-143v-338h-113v338zM614 1157h-133v92h338l51 -92h-143v-338h-113v338zM1618 819v133q40 8 78 43.5t45 79.5h164v-92
h-174v-72h245v-92h-358zM1618 184v133q40 8 78 43.5t45 79.5h164v-92h-174v-72h245v-92h-358zM1659 614h317v-92h-235q-8 32 -30 58.5t-52 33.5zM1659 1249h317v-92h-235q-8 32 -30 58.5t-52 33.5zM1567 1116q0 15 -13 28t-28 13h-113v-82h113q16 0 28.5 12t12.5 29z
M1567 481q0 15 -13 28t-28 13h-113v-82h113q16 0 28.5 12t12.5 29z" />
    </font>
</defs>
</svg>
